G04 PROTEUS GERBER X2 FILE*
%TF.GenerationSoftware,Labcenter,Proteus,8.7-SP3-Build25561*%
%TF.CreationDate,2019-03-25T11:13:55+00:00*%
%TF.FileFunction,Plated,1,2,PTH*%
%TF.FilePolarity,Positive*%
%TF.Part,Single*%
%TF.SameCoordinates,{7bf090f1-712e-4c9e-9fb6-0cc4d7933681}*%
%FSLAX45Y45*%
%MOMM*%
G01*
%TA.AperFunction,ComponentDrill*%
%ADD33C,1.524000*%
%TA.AperFunction,ComponentDrill*%
%ADD34C,0.762000*%
%TA.AperFunction,ComponentDrill*%
%ADD35C,1.143000*%
%TA.AperFunction,ComponentDrill*%
%ADD36C,1.060000*%
%TA.AperFunction,MechanicalDrill*%
%ADD37C,3.652400*%
%TD.AperFunction*%
D33*
X-430000Y+4360000D03*
X-430000Y+3160000D03*
X-830000Y+3760000D03*
X+970000Y+3160000D03*
X+970000Y+4360000D03*
X-430000Y+1950000D03*
X-430000Y+750000D03*
X-830000Y+1350000D03*
X+970000Y+750000D03*
X+970000Y+1950000D03*
X-430000Y-520000D03*
X-430000Y-1720000D03*
X-830000Y-1120000D03*
X+970000Y-1720000D03*
X+970000Y-520000D03*
X-430000Y-2890000D03*
X-430000Y-4090000D03*
X-830000Y-3490000D03*
X+970000Y-4090000D03*
X+970000Y-2890000D03*
X+1730000Y+3900380D03*
X+1730000Y+3400000D03*
X+1790000Y+1390000D03*
X+1790000Y+889620D03*
X+1780000Y-1280000D03*
X+1780000Y-1780380D03*
X+1830000Y-3610000D03*
X+1830000Y-4110380D03*
D34*
X-70000Y+2783200D03*
X-70000Y+2580000D03*
X-70000Y+2376800D03*
X-50000Y+320000D03*
X-50000Y+116800D03*
X-50000Y-86400D03*
X-20000Y-2066800D03*
X-20000Y-2270000D03*
X-20000Y-2473200D03*
X+50000Y-4490000D03*
X+50000Y-4693200D03*
X+50000Y-4896400D03*
X-1410000Y+2570000D03*
X-394000Y+2570000D03*
X-1400000Y+120000D03*
X-384000Y+120000D03*
X-1380000Y-2300000D03*
X-364000Y-2300000D03*
X-1380000Y-4690000D03*
X-364000Y-4690000D03*
D35*
X-4198000Y-2120000D03*
X-3690000Y-2120000D03*
D33*
X-3940000Y-3220000D03*
X-2724000Y-4436000D03*
X-3940000Y-4470000D03*
X-2690000Y-3220000D03*
D34*
X-3980197Y+874584D03*
X-3726197Y+874584D03*
X-3472197Y+874584D03*
X-4480000Y-1150000D03*
X-4226000Y-1150000D03*
X-4554000Y-410000D03*
X-4300000Y-410000D03*
X-3760000Y-20000D03*
X-3760000Y-274000D03*
X-3430000Y-1298000D03*
X-3430000Y-790000D03*
X-2960000Y+1132000D03*
X-2960000Y+878000D03*
X-2960000Y+624000D03*
X-2960000Y+370000D03*
X-2960000Y+116000D03*
X-2960000Y-138000D03*
X-2960000Y-392000D03*
X-2960000Y-646000D03*
X-2960000Y-900000D03*
X-2960000Y-1154000D03*
X-2960000Y-1408000D03*
X-2960000Y-1662000D03*
X-2960000Y-1916000D03*
X-2960000Y-2170000D03*
X-2198000Y-2170000D03*
X-2198000Y-1916000D03*
X-2198000Y-1662000D03*
X-2198000Y-1408000D03*
X-2198000Y-1154000D03*
X-2198000Y-900000D03*
X-2198000Y-646000D03*
X-2198000Y-392000D03*
X-2198000Y-138000D03*
X-2198000Y+116000D03*
X-2198000Y+370000D03*
X-2198000Y+624000D03*
X-2198000Y+878000D03*
X-2198000Y+1130000D03*
D36*
X-2276000Y+2790000D03*
X-2530000Y+2790000D03*
X-2784000Y+2790000D03*
D34*
X-3476001Y+1440059D03*
X-2968000Y+2319942D03*
D33*
X-4850695Y+4340315D03*
X-5351075Y+4340315D03*
X-6631075Y+4310315D03*
X-6130695Y+4310315D03*
X-4880000Y-4620380D03*
X-4880000Y-4120000D03*
D37*
X-7260000Y-4720000D03*
X+2200000Y-4720000D03*
X+2120000Y+4710000D03*
X-7290000Y+4750000D03*
M02*
