G04 PROTEUS GERBER X2 FILE*
%TF.GenerationSoftware,Labcenter,Proteus,8.7-SP3-Build25561*%
%TF.CreationDate,2019-03-25T11:13:55+00:00*%
%TF.FileFunction,Legend,Top*%
%TF.FilePolarity,Positive*%
%TF.Part,Single*%
%TF.SameCoordinates,{7bf090f1-712e-4c9e-9fb6-0cc4d7933681}*%
%FSLAX45Y45*%
%MOMM*%
G01*
%TA.AperFunction,NonMaterial*%
%ADD18C,0.203200*%
%TA.AperFunction,Profile*%
%ADD19C,0.203200*%
%TA.AperFunction,Material*%
%ADD23C,0.203200*%
%ADD24C,0.250000*%
%ADD25C,0.200000*%
%ADD26C,0.063500*%
%TD.AperFunction*%
D18*
X-7620000Y+5080000D02*
X+2540000Y+5080000D01*
X-7620000Y+5080000D02*
X-7493000Y+4953000D01*
X-7620000Y+5080000D02*
X-7493000Y+5207000D01*
X+2540000Y+5080000D02*
X+2413000Y+5207000D01*
X+2540000Y+5080000D02*
X+2413000Y+4953000D01*
X-2508250Y+5080000D02*
X-2508359Y+5082634D01*
X-2509249Y+5087903D01*
X-2511111Y+5093172D01*
X-2514154Y+5098441D01*
X-2518809Y+5103643D01*
X-2524078Y+5107469D01*
X-2529347Y+5109909D01*
X-2534616Y+5111290D01*
X-2539885Y+5111750D01*
X-2540000Y+5111750D01*
X-2571750Y+5080000D02*
X-2571641Y+5082634D01*
X-2570751Y+5087903D01*
X-2568889Y+5093172D01*
X-2565846Y+5098441D01*
X-2561191Y+5103643D01*
X-2555922Y+5107469D01*
X-2550653Y+5109909D01*
X-2545384Y+5111290D01*
X-2540115Y+5111750D01*
X-2540000Y+5111750D01*
X-2571750Y+5080000D02*
X-2571641Y+5077366D01*
X-2570751Y+5072097D01*
X-2568889Y+5066828D01*
X-2565846Y+5061559D01*
X-2561191Y+5056357D01*
X-2555922Y+5052531D01*
X-2550653Y+5050091D01*
X-2545384Y+5048710D01*
X-2540115Y+5048250D01*
X-2540000Y+5048250D01*
X-2508250Y+5080000D02*
X-2508359Y+5077366D01*
X-2509249Y+5072097D01*
X-2511111Y+5066828D01*
X-2514154Y+5061559D01*
X-2518809Y+5056357D01*
X-2524078Y+5052531D01*
X-2529347Y+5050091D01*
X-2534616Y+5048710D01*
X-2539885Y+5048250D01*
X-2540000Y+5048250D01*
X-2879410Y+4878555D02*
X-2847660Y+4909035D01*
X-2847660Y+4817595D01*
X-2784160Y+4832835D02*
X-2784160Y+4893795D01*
X-2768285Y+4909035D01*
X-2704785Y+4909035D01*
X-2688910Y+4893795D01*
X-2688910Y+4832835D01*
X-2704785Y+4817595D01*
X-2768285Y+4817595D01*
X-2784160Y+4832835D01*
X-2784160Y+4817595D02*
X-2688910Y+4909035D01*
X-2625410Y+4878555D02*
X-2593660Y+4909035D01*
X-2593660Y+4817595D01*
X-2482535Y+4832835D02*
X-2466660Y+4832835D01*
X-2466660Y+4817595D01*
X-2482535Y+4817595D01*
X-2482535Y+4832835D01*
X-2307910Y+4893795D02*
X-2323785Y+4909035D01*
X-2371410Y+4909035D01*
X-2387285Y+4893795D01*
X-2387285Y+4832835D01*
X-2371410Y+4817595D01*
X-2323785Y+4817595D01*
X-2307910Y+4832835D01*
X-2307910Y+4848075D01*
X-2323785Y+4863315D01*
X-2387285Y+4863315D01*
X-2276160Y+4817595D02*
X-2276160Y+4878555D01*
X-2276160Y+4863315D02*
X-2260285Y+4878555D01*
X-2228535Y+4848075D01*
X-2196785Y+4878555D01*
X-2180910Y+4863315D01*
X-2180910Y+4817595D01*
X-2149160Y+4817595D02*
X-2149160Y+4878555D01*
X-2149160Y+4863315D02*
X-2133285Y+4878555D01*
X-2101535Y+4848075D01*
X-2069785Y+4878555D01*
X-2053910Y+4863315D01*
X-2053910Y+4817595D01*
X+2540000Y+5080000D02*
X+2540000Y-5080000D01*
X+2540000Y+5080000D02*
X+2413000Y+4953000D01*
X+2540000Y+5080000D02*
X+2667000Y+4953000D01*
X+2540000Y-5080000D02*
X+2667000Y-4953000D01*
X+2540000Y-5080000D02*
X+2413000Y-4953000D01*
X+2571750Y+0D02*
X+2571641Y+2634D01*
X+2570751Y+7903D01*
X+2568889Y+13172D01*
X+2565846Y+18441D01*
X+2561191Y+23643D01*
X+2555922Y+27469D01*
X+2550653Y+29909D01*
X+2545384Y+31290D01*
X+2540115Y+31750D01*
X+2540000Y+31750D01*
X+2508250Y+0D02*
X+2508359Y+2634D01*
X+2509249Y+7903D01*
X+2511111Y+13172D01*
X+2514154Y+18441D01*
X+2518809Y+23643D01*
X+2524078Y+27469D01*
X+2529347Y+29909D01*
X+2534616Y+31290D01*
X+2539885Y+31750D01*
X+2540000Y+31750D01*
X+2508250Y+0D02*
X+2508359Y-2634D01*
X+2509249Y-7903D01*
X+2511111Y-13172D01*
X+2514154Y-18441D01*
X+2518809Y-23643D01*
X+2524078Y-27469D01*
X+2529347Y-29909D01*
X+2534616Y-31290D01*
X+2539885Y-31750D01*
X+2540000Y-31750D01*
X+2571750Y+0D02*
X+2571641Y-2634D01*
X+2570751Y-7903D01*
X+2568889Y-13172D01*
X+2565846Y-18441D01*
X+2561191Y-23643D01*
X+2555922Y-27469D01*
X+2550653Y-29909D01*
X+2545384Y-31290D01*
X+2540115Y-31750D01*
X+2540000Y-31750D01*
X+2351100Y+402750D02*
X+2381580Y+371000D01*
X+2290140Y+371000D01*
X+2305380Y+307500D02*
X+2366340Y+307500D01*
X+2381580Y+291625D01*
X+2381580Y+228125D01*
X+2366340Y+212250D01*
X+2305380Y+212250D01*
X+2290140Y+228125D01*
X+2290140Y+291625D01*
X+2305380Y+307500D01*
X+2290140Y+307500D02*
X+2381580Y+212250D01*
X+2351100Y+148750D02*
X+2381580Y+117000D01*
X+2290140Y+117000D01*
X+2305380Y+5875D02*
X+2305380Y-10000D01*
X+2290140Y-10000D01*
X+2290140Y+5875D01*
X+2305380Y+5875D01*
X+2366340Y-168750D02*
X+2381580Y-152875D01*
X+2381580Y-105250D01*
X+2366340Y-89375D01*
X+2305380Y-89375D01*
X+2290140Y-105250D01*
X+2290140Y-152875D01*
X+2305380Y-168750D01*
X+2320620Y-168750D01*
X+2335860Y-152875D01*
X+2335860Y-89375D01*
X+2290140Y-200500D02*
X+2351100Y-200500D01*
X+2335860Y-200500D02*
X+2351100Y-216375D01*
X+2320620Y-248125D01*
X+2351100Y-279875D01*
X+2335860Y-295750D01*
X+2290140Y-295750D01*
X+2290140Y-327500D02*
X+2351100Y-327500D01*
X+2335860Y-327500D02*
X+2351100Y-343375D01*
X+2320620Y-375125D01*
X+2351100Y-406875D01*
X+2335860Y-422750D01*
X+2290140Y-422750D01*
D19*
X-7620000Y-5080000D02*
X+2540000Y-5080000D01*
X+2540000Y+5080000D01*
X-7620000Y+5080000D01*
X-7620000Y-5080000D01*
D23*
X-1030000Y+2930000D02*
X+1220000Y+2930000D01*
X+1220000Y+4580000D01*
X-1030000Y+4580000D01*
X-1030000Y+2930000D01*
X+508300Y+4677780D02*
X+508300Y+4814940D01*
X+619425Y+4814940D01*
X+641650Y+4792080D01*
X+641650Y+4769220D01*
X+619425Y+4746360D01*
X+508300Y+4746360D01*
X+619425Y+4746360D02*
X+641650Y+4723500D01*
X+641650Y+4677780D01*
X+686100Y+4814940D02*
X+686100Y+4677780D01*
X+819450Y+4677780D01*
X+908350Y+4769220D02*
X+952800Y+4814940D01*
X+952800Y+4677780D01*
X-1030000Y+520000D02*
X+1220000Y+520000D01*
X+1220000Y+2170000D01*
X-1030000Y+2170000D01*
X-1030000Y+520000D01*
X+638300Y+2247780D02*
X+638300Y+2384940D01*
X+749425Y+2384940D01*
X+771650Y+2362080D01*
X+771650Y+2339220D01*
X+749425Y+2316360D01*
X+638300Y+2316360D01*
X+749425Y+2316360D02*
X+771650Y+2293500D01*
X+771650Y+2247780D01*
X+816100Y+2384940D02*
X+816100Y+2247780D01*
X+949450Y+2247780D01*
X+1016125Y+2362080D02*
X+1038350Y+2384940D01*
X+1105025Y+2384940D01*
X+1127250Y+2362080D01*
X+1127250Y+2339220D01*
X+1105025Y+2316360D01*
X+1038350Y+2316360D01*
X+1016125Y+2293500D01*
X+1016125Y+2247780D01*
X+1127250Y+2247780D01*
X-1030000Y-1950000D02*
X+1220000Y-1950000D01*
X+1220000Y-300000D01*
X-1030000Y-300000D01*
X-1030000Y-1950000D01*
X+998300Y-192220D02*
X+998300Y-55060D01*
X+1109425Y-55060D01*
X+1131650Y-77920D01*
X+1131650Y-100780D01*
X+1109425Y-123640D01*
X+998300Y-123640D01*
X+1109425Y-123640D02*
X+1131650Y-146500D01*
X+1131650Y-192220D01*
X+1176100Y-55060D02*
X+1176100Y-192220D01*
X+1309450Y-192220D01*
X+1376125Y-77920D02*
X+1398350Y-55060D01*
X+1465025Y-55060D01*
X+1487250Y-77920D01*
X+1487250Y-100780D01*
X+1465025Y-123640D01*
X+1487250Y-146500D01*
X+1487250Y-169360D01*
X+1465025Y-192220D01*
X+1398350Y-192220D01*
X+1376125Y-169360D01*
X+1420575Y-123640D02*
X+1465025Y-123640D01*
X-1030000Y-4320000D02*
X+1220000Y-4320000D01*
X+1220000Y-2670000D01*
X-1030000Y-2670000D01*
X-1030000Y-4320000D01*
X+928300Y-2612220D02*
X+928300Y-2475060D01*
X+1039425Y-2475060D01*
X+1061650Y-2497920D01*
X+1061650Y-2520780D01*
X+1039425Y-2543640D01*
X+928300Y-2543640D01*
X+1039425Y-2543640D02*
X+1061650Y-2566500D01*
X+1061650Y-2612220D01*
X+1106100Y-2475060D02*
X+1106100Y-2612220D01*
X+1239450Y-2612220D01*
X+1417250Y-2566500D02*
X+1283900Y-2566500D01*
X+1372800Y-2475060D01*
X+1372800Y-2612220D01*
X+1349000Y+4154380D02*
X+2111000Y+4154380D01*
X+2111000Y+3138380D02*
X+1349000Y+3138380D01*
X+1349000Y+4154380D02*
X+1349000Y+3138380D01*
X+2111000Y+4154380D02*
X+2111000Y+3138380D01*
X+2212600Y+3519380D02*
X+2227840Y+3519380D01*
X+2243080Y+3535255D01*
X+2243080Y+3598755D01*
X+2227840Y+3614630D01*
X+2151640Y+3614630D01*
X+2182120Y+3678130D02*
X+2151640Y+3709880D01*
X+2243080Y+3709880D01*
X+1409000Y+1644000D02*
X+2171000Y+1644000D01*
X+2171000Y+628000D02*
X+1409000Y+628000D01*
X+1409000Y+1644000D02*
X+1409000Y+628000D01*
X+2171000Y+1644000D02*
X+2171000Y+628000D01*
X+2272600Y+1009000D02*
X+2287840Y+1009000D01*
X+2303080Y+1024875D01*
X+2303080Y+1088375D01*
X+2287840Y+1104250D01*
X+2211640Y+1104250D01*
X+2226880Y+1151875D02*
X+2211640Y+1167750D01*
X+2211640Y+1215375D01*
X+2226880Y+1231250D01*
X+2242120Y+1231250D01*
X+2257360Y+1215375D01*
X+2257360Y+1167750D01*
X+2272600Y+1151875D01*
X+2303080Y+1151875D01*
X+2303080Y+1231250D01*
X+1399000Y-1026000D02*
X+2161000Y-1026000D01*
X+2161000Y-2042000D02*
X+1399000Y-2042000D01*
X+1399000Y-1026000D02*
X+1399000Y-2042000D01*
X+2161000Y-1026000D02*
X+2161000Y-2042000D01*
X+2267680Y-1711800D02*
X+2288000Y-1711800D01*
X+2308320Y-1689575D01*
X+2308320Y-1600675D01*
X+2288000Y-1578450D01*
X+2186400Y-1578450D01*
X+2206720Y-1511775D02*
X+2186400Y-1489550D01*
X+2186400Y-1422875D01*
X+2206720Y-1400650D01*
X+2227040Y-1400650D01*
X+2247360Y-1422875D01*
X+2267680Y-1400650D01*
X+2288000Y-1400650D01*
X+2308320Y-1422875D01*
X+2308320Y-1489550D01*
X+2288000Y-1511775D01*
X+2247360Y-1467325D02*
X+2247360Y-1422875D01*
X+1449000Y-3356000D02*
X+2211000Y-3356000D01*
X+2211000Y-4372000D02*
X+1449000Y-4372000D01*
X+1449000Y-3356000D02*
X+1449000Y-4372000D01*
X+2211000Y-3356000D02*
X+2211000Y-4372000D01*
X+2317680Y-4041800D02*
X+2338000Y-4041800D01*
X+2358320Y-4019575D01*
X+2358320Y-3930675D01*
X+2338000Y-3908450D01*
X+2236400Y-3908450D01*
X+2317680Y-3730650D02*
X+2317680Y-3864000D01*
X+2236400Y-3775100D01*
X+2358320Y-3775100D01*
X-235100Y+2834000D02*
X-235100Y+2326000D01*
X-70000Y+2910200D02*
X-108298Y+2905438D01*
X-147788Y+2891150D01*
X-189658Y+2867338D01*
X-235100Y+2834000D01*
X-70000Y+2910200D02*
X-5082Y+2907569D01*
X+54953Y+2891088D01*
X+108942Y+2862161D01*
X+155722Y+2822193D01*
X+194131Y+2772588D01*
X+223005Y+2714751D01*
X+241182Y+2650087D01*
X+247500Y+2580000D01*
X-70000Y+2249800D02*
X-108298Y+2254562D01*
X-147788Y+2268850D01*
X-189658Y+2292662D01*
X-235100Y+2326000D01*
X-70000Y+2249800D02*
X-5082Y+2252431D01*
X+54953Y+2268912D01*
X+108942Y+2297839D01*
X+155722Y+2337807D01*
X+194131Y+2387412D01*
X+223005Y+2445249D01*
X+241182Y+2509913D01*
X+247500Y+2580000D01*
X+401000Y+2427600D02*
X+355280Y+2465700D01*
X+355280Y+2503800D01*
X+401000Y+2541900D01*
X+446720Y+2541900D01*
X+492440Y+2503800D01*
X+492440Y+2465700D01*
X+446720Y+2427600D01*
X+401000Y+2427600D01*
X+446720Y+2503800D02*
X+492440Y+2541900D01*
X+401000Y+2618100D02*
X+355280Y+2656200D01*
X+492440Y+2656200D01*
X-215100Y+370800D02*
X-215100Y-137200D01*
X-50000Y+447000D02*
X-88298Y+442238D01*
X-127788Y+427950D01*
X-169658Y+404138D01*
X-215100Y+370800D01*
X-50000Y+447000D02*
X+14918Y+444369D01*
X+74953Y+427888D01*
X+128942Y+398961D01*
X+175722Y+358993D01*
X+214131Y+309388D01*
X+243005Y+251551D01*
X+261182Y+186887D01*
X+267500Y+116800D01*
X-50000Y-213400D02*
X-88298Y-208638D01*
X-127788Y-194350D01*
X-169658Y-170538D01*
X-215100Y-137200D01*
X-50000Y-213400D02*
X+14918Y-210769D01*
X+74953Y-194288D01*
X+128942Y-165361D01*
X+175722Y-125393D01*
X+214131Y-75788D01*
X+243005Y-17951D01*
X+261182Y+46713D01*
X+267500Y+116800D01*
X+583540Y-41000D02*
X+542900Y+3450D01*
X+542900Y+47900D01*
X+583540Y+92350D01*
X+624180Y+92350D01*
X+664820Y+47900D01*
X+664820Y+3450D01*
X+624180Y-41000D01*
X+583540Y-41000D01*
X+624180Y+47900D02*
X+664820Y+92350D01*
X+563220Y+159025D02*
X+542900Y+181250D01*
X+542900Y+247925D01*
X+563220Y+270150D01*
X+583540Y+270150D01*
X+603860Y+247925D01*
X+603860Y+181250D01*
X+624180Y+159025D01*
X+664820Y+159025D01*
X+664820Y+270150D01*
X-185100Y-2016000D02*
X-185100Y-2524000D01*
X-20000Y-1939800D02*
X-58298Y-1944562D01*
X-97788Y-1958850D01*
X-139658Y-1982662D01*
X-185100Y-2016000D01*
X-20000Y-1939800D02*
X+44918Y-1942431D01*
X+104953Y-1958912D01*
X+158942Y-1987839D01*
X+205722Y-2027807D01*
X+244131Y-2077412D01*
X+273005Y-2135249D01*
X+291182Y-2199913D01*
X+297500Y-2270000D01*
X-20000Y-2600200D02*
X-58298Y-2595438D01*
X-97788Y-2581150D01*
X-139658Y-2557338D01*
X-185100Y-2524000D01*
X-20000Y-2600200D02*
X+44918Y-2597569D01*
X+104953Y-2581088D01*
X+158942Y-2552161D01*
X+205722Y-2512193D01*
X+244131Y-2462588D01*
X+273005Y-2404751D01*
X+291182Y-2340087D01*
X+297500Y-2270000D01*
X+603540Y-2457800D02*
X+562900Y-2413350D01*
X+562900Y-2368900D01*
X+603540Y-2324450D01*
X+644180Y-2324450D01*
X+684820Y-2368900D01*
X+684820Y-2413350D01*
X+644180Y-2457800D01*
X+603540Y-2457800D01*
X+644180Y-2368900D02*
X+684820Y-2324450D01*
X+583220Y-2257775D02*
X+562900Y-2235550D01*
X+562900Y-2168875D01*
X+583220Y-2146650D01*
X+603540Y-2146650D01*
X+623860Y-2168875D01*
X+644180Y-2146650D01*
X+664500Y-2146650D01*
X+684820Y-2168875D01*
X+684820Y-2235550D01*
X+664500Y-2257775D01*
X+623860Y-2213325D02*
X+623860Y-2168875D01*
X-115100Y-4439200D02*
X-115100Y-4947200D01*
X+50000Y-4363000D02*
X+11702Y-4367762D01*
X-27788Y-4382050D01*
X-69658Y-4405862D01*
X-115100Y-4439200D01*
X+50000Y-4363000D02*
X+114918Y-4365631D01*
X+174953Y-4382112D01*
X+228942Y-4411039D01*
X+275722Y-4451007D01*
X+314131Y-4500612D01*
X+343005Y-4558449D01*
X+361182Y-4623113D01*
X+367500Y-4693200D01*
X+50000Y-5023400D02*
X+11702Y-5018638D01*
X-27788Y-5004350D01*
X-69658Y-4980538D01*
X-115100Y-4947200D01*
X+50000Y-5023400D02*
X+114918Y-5020769D01*
X+174953Y-5004288D01*
X+228942Y-4975361D01*
X+275722Y-4935393D01*
X+314131Y-4885788D01*
X+343005Y-4827951D01*
X+361182Y-4763287D01*
X+367500Y-4693200D01*
X+673540Y-4891000D02*
X+632900Y-4846550D01*
X+632900Y-4802100D01*
X+673540Y-4757650D01*
X+714180Y-4757650D01*
X+754820Y-4802100D01*
X+754820Y-4846550D01*
X+714180Y-4891000D01*
X+673540Y-4891000D01*
X+714180Y-4802100D02*
X+754820Y-4757650D01*
X+714180Y-4579850D02*
X+714180Y-4713200D01*
X+632900Y-4624300D01*
X+754820Y-4624300D01*
X-1283000Y+2570000D02*
X-1156000Y+2570000D01*
X-1156000Y+2506500D02*
X-648000Y+2506500D01*
X-648000Y+2633500D01*
X-1156000Y+2633500D01*
X-1156000Y+2506500D01*
X-648000Y+2570000D02*
X-521000Y+2570000D01*
X-1054400Y+2658900D02*
X-1054400Y+2780820D01*
X-959150Y+2780820D01*
X-940100Y+2760500D01*
X-940100Y+2740180D01*
X-959150Y+2719860D01*
X-1054400Y+2719860D01*
X-959150Y+2719860D02*
X-940100Y+2699540D01*
X-940100Y+2658900D01*
X-863900Y+2740180D02*
X-825800Y+2780820D01*
X-825800Y+2658900D01*
X-1273000Y+120000D02*
X-1146000Y+120000D01*
X-1146000Y+56500D02*
X-638000Y+56500D01*
X-638000Y+183500D01*
X-1146000Y+183500D01*
X-1146000Y+56500D01*
X-638000Y+120000D02*
X-511000Y+120000D01*
X-1044400Y+228900D02*
X-1044400Y+350820D01*
X-949150Y+350820D01*
X-930100Y+330500D01*
X-930100Y+310180D01*
X-949150Y+289860D01*
X-1044400Y+289860D01*
X-949150Y+289860D02*
X-930100Y+269540D01*
X-930100Y+228900D01*
X-872950Y+330500D02*
X-853900Y+350820D01*
X-796750Y+350820D01*
X-777700Y+330500D01*
X-777700Y+310180D01*
X-796750Y+289860D01*
X-853900Y+289860D01*
X-872950Y+269540D01*
X-872950Y+228900D01*
X-777700Y+228900D01*
X-1253000Y-2300000D02*
X-1126000Y-2300000D01*
X-1126000Y-2363500D02*
X-618000Y-2363500D01*
X-618000Y-2236500D01*
X-1126000Y-2236500D01*
X-1126000Y-2363500D01*
X-618000Y-2300000D02*
X-491000Y-2300000D01*
X-1024400Y-2211100D02*
X-1024400Y-2089180D01*
X-929150Y-2089180D01*
X-910100Y-2109500D01*
X-910100Y-2129820D01*
X-929150Y-2150140D01*
X-1024400Y-2150140D01*
X-929150Y-2150140D02*
X-910100Y-2170460D01*
X-910100Y-2211100D01*
X-852950Y-2109500D02*
X-833900Y-2089180D01*
X-776750Y-2089180D01*
X-757700Y-2109500D01*
X-757700Y-2129820D01*
X-776750Y-2150140D01*
X-757700Y-2170460D01*
X-757700Y-2190780D01*
X-776750Y-2211100D01*
X-833900Y-2211100D01*
X-852950Y-2190780D01*
X-814850Y-2150140D02*
X-776750Y-2150140D01*
X-1253000Y-4690000D02*
X-1126000Y-4690000D01*
X-1126000Y-4753500D02*
X-618000Y-4753500D01*
X-618000Y-4626500D01*
X-1126000Y-4626500D01*
X-1126000Y-4753500D01*
X-618000Y-4690000D02*
X-491000Y-4690000D01*
X-1024400Y-4601100D02*
X-1024400Y-4479180D01*
X-929150Y-4479180D01*
X-910100Y-4499500D01*
X-910100Y-4519820D01*
X-929150Y-4540140D01*
X-1024400Y-4540140D01*
X-929150Y-4540140D02*
X-910100Y-4560460D01*
X-910100Y-4601100D01*
X-757700Y-4560460D02*
X-872000Y-4560460D01*
X-795800Y-4479180D01*
X-795800Y-4601100D01*
X-3436000Y-2120000D02*
X-3437553Y-2080313D01*
X-3450150Y-2000938D01*
X-3476360Y-1921563D01*
X-3518695Y-1842188D01*
X-3582778Y-1762813D01*
X-3662142Y-1697365D01*
X-3741517Y-1654098D01*
X-3820892Y-1627143D01*
X-3900267Y-1613886D01*
X-3944000Y-1612000D01*
X-4452000Y-2120000D02*
X-4450447Y-2080313D01*
X-4437850Y-2000938D01*
X-4411640Y-1921563D01*
X-4369305Y-1842188D01*
X-4305222Y-1762813D01*
X-4225858Y-1697365D01*
X-4146483Y-1654098D01*
X-4067108Y-1627143D01*
X-3987733Y-1613886D01*
X-3944000Y-1612000D01*
X-4452000Y-2120000D02*
X-4450447Y-2159687D01*
X-4437850Y-2239062D01*
X-4411640Y-2318437D01*
X-4369305Y-2397812D01*
X-4305222Y-2477187D01*
X-4225858Y-2542635D01*
X-4146483Y-2585902D01*
X-4067108Y-2612857D01*
X-3987733Y-2626114D01*
X-3944000Y-2628000D01*
X-3436000Y-2120000D02*
X-3437553Y-2159687D01*
X-3450150Y-2239062D01*
X-3476360Y-2318437D01*
X-3518695Y-2397812D01*
X-3582778Y-2477187D01*
X-3662142Y-2542635D01*
X-3741517Y-2585902D01*
X-3820892Y-2612857D01*
X-3900267Y-2626114D01*
X-3944000Y-2628000D01*
X-4261500Y-1866000D02*
X-4134500Y-1866000D01*
X-4198000Y-1802500D02*
X-4198000Y-1929500D01*
X-4798710Y-2236280D02*
X-4820935Y-2256600D01*
X-4887610Y-2256600D01*
X-4932060Y-2215960D01*
X-4932060Y-2175320D01*
X-4887610Y-2134680D01*
X-4820935Y-2134680D01*
X-4798710Y-2155000D01*
X-4709810Y-2175320D02*
X-4665360Y-2134680D01*
X-4665360Y-2256600D01*
X-2340000Y-2820000D02*
X-2340000Y-4820000D01*
X-4340000Y-4820000D01*
X-4340000Y-3120000D01*
X-2340000Y-2820000D02*
X-4040000Y-2820000D01*
X-4340000Y-3120000D01*
X-3549000Y-2684600D02*
X-3549000Y-2562680D01*
X-3437875Y-2562680D01*
X-3415650Y-2583000D01*
X-3415650Y-2603320D01*
X-3437875Y-2623640D01*
X-3415650Y-2643960D01*
X-3415650Y-2664280D01*
X-3437875Y-2684600D01*
X-3549000Y-2684600D01*
X-3549000Y-2623640D02*
X-3437875Y-2623640D01*
X-3371200Y-2684600D02*
X-3371200Y-2562680D01*
X-3260075Y-2562680D01*
X-3237850Y-2583000D01*
X-3237850Y-2603320D01*
X-3260075Y-2623640D01*
X-3371200Y-2623640D01*
X-3260075Y-2623640D02*
X-3237850Y-2643960D01*
X-3237850Y-2684600D01*
X-3171175Y-2562680D02*
X-3082275Y-2562680D01*
X-3126725Y-2562680D02*
X-3126725Y-2684600D01*
X-3171175Y-2684600D02*
X-3082275Y-2684600D01*
X-3015600Y-2684600D02*
X-3015600Y-2562680D01*
X-2926700Y-2562680D01*
X-2882250Y-2603320D01*
X-2882250Y-2643960D01*
X-2926700Y-2684600D01*
X-3015600Y-2684600D01*
X-2748900Y-2643960D02*
X-2704450Y-2643960D01*
X-2704450Y-2684600D01*
X-2793350Y-2684600D01*
X-2837800Y-2643960D01*
X-2837800Y-2603320D01*
X-2793350Y-2562680D01*
X-2726675Y-2562680D01*
X-2704450Y-2583000D01*
X-2526650Y-2684600D02*
X-2660000Y-2684600D01*
X-2660000Y-2562680D01*
X-2526650Y-2562680D01*
X-2660000Y-2623640D02*
X-2571100Y-2623640D01*
X-2304400Y-2684600D02*
X-2304400Y-2562680D01*
X-2193275Y-2562680D01*
X-2171050Y-2583000D01*
X-2171050Y-2603320D01*
X-2193275Y-2623640D01*
X-2304400Y-2623640D01*
X-2193275Y-2623640D02*
X-2171050Y-2643960D01*
X-2171050Y-2684600D01*
X-1993250Y-2684600D02*
X-2126600Y-2684600D01*
X-2126600Y-2562680D01*
X-1993250Y-2562680D01*
X-2126600Y-2623640D02*
X-2037700Y-2623640D01*
X-1815450Y-2664280D02*
X-1837675Y-2684600D01*
X-1904350Y-2684600D01*
X-1948800Y-2643960D01*
X-1948800Y-2603320D01*
X-1904350Y-2562680D01*
X-1837675Y-2562680D01*
X-1815450Y-2583000D01*
X-4107197Y+747584D02*
X-3345197Y+747584D01*
X-3345197Y+1001584D01*
X-4107197Y+1001584D01*
X-4107197Y+747584D01*
X-4107197Y+1001584D02*
X-4107197Y+1128584D01*
X-3345197Y+1128584D01*
X-3345197Y+1001584D01*
X-4107197Y+1001584D02*
X-3980197Y+1128584D01*
X-3980197Y+1001584D02*
X-3853197Y+1128584D01*
X-3853197Y+1001584D02*
X-3726197Y+1128584D01*
X-3726197Y+1001584D02*
X-3599197Y+1128584D01*
X-3599197Y+1001584D02*
X-3472197Y+1128584D01*
X-3472197Y+1001584D02*
X-3345197Y+1128584D01*
X-4369572Y+1425904D02*
X-4258447Y+1425904D01*
X-4258447Y+1405584D01*
X-4369572Y+1303984D01*
X-4169547Y+1364944D02*
X-4191772Y+1385264D01*
X-4191772Y+1405584D01*
X-4169547Y+1425904D01*
X-4102872Y+1425904D01*
X-4080647Y+1405584D01*
X-4080647Y+1385264D01*
X-4102872Y+1364944D01*
X-4169547Y+1364944D01*
X-4191772Y+1344624D01*
X-4191772Y+1324304D01*
X-4169547Y+1303984D01*
X-4102872Y+1303984D01*
X-4080647Y+1324304D01*
X-4080647Y+1344624D01*
X-4102872Y+1364944D01*
X-4036197Y+1324304D02*
X-4036197Y+1405584D01*
X-4013972Y+1425904D01*
X-3925072Y+1425904D01*
X-3902847Y+1405584D01*
X-3902847Y+1324304D01*
X-3925072Y+1303984D01*
X-4013972Y+1303984D01*
X-4036197Y+1324304D01*
X-4036197Y+1303984D02*
X-3902847Y+1425904D01*
X-3725047Y+1425904D02*
X-3836172Y+1425904D01*
X-3836172Y+1385264D01*
X-3747272Y+1385264D01*
X-3725047Y+1364944D01*
X-3725047Y+1324304D01*
X-3747272Y+1303984D01*
X-3813947Y+1303984D01*
X-3836172Y+1324304D01*
X-4099000Y-1150000D02*
X-4099827Y-1129517D01*
X-4106545Y-1088550D01*
X-4120563Y-1047583D01*
X-4143341Y-1006616D01*
X-4178141Y-965771D01*
X-4219108Y-934155D01*
X-4260075Y-913608D01*
X-4301042Y-901371D01*
X-4342009Y-896238D01*
X-4353000Y-896000D01*
X-4607000Y-1150000D02*
X-4606173Y-1129517D01*
X-4599455Y-1088550D01*
X-4585437Y-1047583D01*
X-4562659Y-1006616D01*
X-4527859Y-965771D01*
X-4486892Y-934155D01*
X-4445925Y-913608D01*
X-4404958Y-901371D01*
X-4363991Y-896238D01*
X-4353000Y-896000D01*
X-4607000Y-1150000D02*
X-4606173Y-1170483D01*
X-4599455Y-1211450D01*
X-4585437Y-1252417D01*
X-4562659Y-1293384D01*
X-4527859Y-1334229D01*
X-4486892Y-1365845D01*
X-4445925Y-1386392D01*
X-4404958Y-1398629D01*
X-4363991Y-1403762D01*
X-4353000Y-1404000D01*
X-4099000Y-1150000D02*
X-4099827Y-1170483D01*
X-4106545Y-1211450D01*
X-4120563Y-1252417D01*
X-4143341Y-1293384D01*
X-4178141Y-1334229D01*
X-4219108Y-1365845D01*
X-4260075Y-1386392D01*
X-4301042Y-1398629D01*
X-4342009Y-1403762D01*
X-4353000Y-1404000D01*
X-4543500Y-1023000D02*
X-4416500Y-1023000D01*
X-4480000Y-959500D02*
X-4480000Y-1086500D01*
X-4868370Y-1150280D02*
X-4890595Y-1170600D01*
X-4957270Y-1170600D01*
X-5001720Y-1129960D01*
X-5001720Y-1089320D01*
X-4957270Y-1048680D01*
X-4890595Y-1048680D01*
X-4868370Y-1069000D01*
X-4690570Y-1129960D02*
X-4823920Y-1129960D01*
X-4735020Y-1048680D01*
X-4735020Y-1170600D01*
X-4173000Y-410000D02*
X-4173827Y-389517D01*
X-4180545Y-348550D01*
X-4194563Y-307583D01*
X-4217341Y-266616D01*
X-4252141Y-225771D01*
X-4293108Y-194155D01*
X-4334075Y-173608D01*
X-4375042Y-161371D01*
X-4416009Y-156238D01*
X-4427000Y-156000D01*
X-4681000Y-410000D02*
X-4680173Y-389517D01*
X-4673455Y-348550D01*
X-4659437Y-307583D01*
X-4636659Y-266616D01*
X-4601859Y-225771D01*
X-4560892Y-194155D01*
X-4519925Y-173608D01*
X-4478958Y-161371D01*
X-4437991Y-156238D01*
X-4427000Y-156000D01*
X-4681000Y-410000D02*
X-4680173Y-430483D01*
X-4673455Y-471450D01*
X-4659437Y-512417D01*
X-4636659Y-553384D01*
X-4601859Y-594229D01*
X-4560892Y-625845D01*
X-4519925Y-646392D01*
X-4478958Y-658629D01*
X-4437991Y-663762D01*
X-4427000Y-664000D01*
X-4173000Y-410000D02*
X-4173827Y-430483D01*
X-4180545Y-471450D01*
X-4194563Y-512417D01*
X-4217341Y-553384D01*
X-4252141Y-594229D01*
X-4293108Y-625845D01*
X-4334075Y-646392D01*
X-4375042Y-658629D01*
X-4416009Y-663762D01*
X-4427000Y-664000D01*
X-4617500Y-283000D02*
X-4490500Y-283000D01*
X-4554000Y-219500D02*
X-4554000Y-346500D01*
X-4502370Y+39720D02*
X-4524595Y+19400D01*
X-4591270Y+19400D01*
X-4635720Y+60040D01*
X-4635720Y+100680D01*
X-4591270Y+141320D01*
X-4524595Y+141320D01*
X-4502370Y+121000D01*
X-4435695Y+121000D02*
X-4413470Y+141320D01*
X-4346795Y+141320D01*
X-4324570Y+121000D01*
X-4324570Y+100680D01*
X-4346795Y+80360D01*
X-4413470Y+80360D01*
X-4435695Y+60040D01*
X-4435695Y+19400D01*
X-4324570Y+19400D01*
X-3506000Y-147000D02*
X-3506827Y-126517D01*
X-3513545Y-85550D01*
X-3527563Y-44583D01*
X-3550341Y-3616D01*
X-3585141Y+37229D01*
X-3626108Y+68845D01*
X-3667075Y+89392D01*
X-3708042Y+101629D01*
X-3749009Y+106762D01*
X-3760000Y+107000D01*
X-4014000Y-147000D02*
X-4013173Y-126517D01*
X-4006455Y-85550D01*
X-3992437Y-44583D01*
X-3969659Y-3616D01*
X-3934859Y+37229D01*
X-3893892Y+68845D01*
X-3852925Y+89392D01*
X-3811958Y+101629D01*
X-3770991Y+106762D01*
X-3760000Y+107000D01*
X-4014000Y-147000D02*
X-4013173Y-167483D01*
X-4006455Y-208450D01*
X-3992437Y-249417D01*
X-3969659Y-290384D01*
X-3934859Y-331229D01*
X-3893892Y-362845D01*
X-3852925Y-383392D01*
X-3811958Y-395629D01*
X-3770991Y-400762D01*
X-3760000Y-401000D01*
X-3506000Y-147000D02*
X-3506827Y-167483D01*
X-3513545Y-208450D01*
X-3527563Y-249417D01*
X-3550341Y-290384D01*
X-3585141Y-331229D01*
X-3626108Y-362845D01*
X-3667075Y-383392D01*
X-3708042Y-395629D01*
X-3749009Y-400762D01*
X-3760000Y-401000D01*
X-3633000Y+43500D02*
X-3633000Y-83500D01*
X-3569500Y-20000D02*
X-3696500Y-20000D01*
X-3787740Y+248200D02*
X-3806790Y+225340D01*
X-3863940Y+225340D01*
X-3902040Y+271060D01*
X-3902040Y+316780D01*
X-3863940Y+362500D01*
X-3806790Y+362500D01*
X-3787740Y+339640D01*
X-3730590Y+339640D02*
X-3711540Y+362500D01*
X-3654390Y+362500D01*
X-3635340Y+339640D01*
X-3635340Y+316780D01*
X-3654390Y+293920D01*
X-3635340Y+271060D01*
X-3635340Y+248200D01*
X-3654390Y+225340D01*
X-3711540Y+225340D01*
X-3730590Y+248200D01*
X-3692490Y+293920D02*
X-3654390Y+293920D01*
X-3684000Y-1425000D02*
X-3684000Y-663000D01*
X-3557000Y-536000D01*
X-3303000Y-536000D01*
X-3176000Y-663000D01*
X-3176000Y-1425000D01*
X-3303000Y-1552000D01*
X-3557000Y-1552000D01*
X-3684000Y-1425000D01*
X-3831320Y-1221800D02*
X-3709400Y-1088450D01*
X-3709400Y-1221800D02*
X-3831320Y-1088450D01*
X-3790680Y-999550D02*
X-3831320Y-955100D01*
X-3709400Y-955100D01*
X-2833000Y+1193500D02*
X-2833000Y-2235500D01*
X-2325000Y-2235500D01*
X-2325000Y+1193500D01*
X-2833000Y+1193500D02*
X-2706000Y+1193500D01*
X-2325000Y+1193500D02*
X-2452000Y+1193500D01*
X-2706000Y+1193500D02*
X-2703473Y+1167532D01*
X-2696202Y+1143518D01*
X-2684652Y+1121923D01*
X-2669289Y+1103211D01*
X-2650577Y+1087847D01*
X-2628981Y+1076298D01*
X-2604967Y+1069027D01*
X-2579000Y+1066500D01*
X-2452000Y+1193500D02*
X-2454527Y+1167532D01*
X-2461798Y+1143518D01*
X-2473348Y+1121923D01*
X-2488711Y+1103211D01*
X-2507423Y+1087847D01*
X-2529018Y+1076298D01*
X-2553032Y+1069027D01*
X-2579000Y+1066500D01*
X-2785176Y+1142700D02*
X-2785201Y+1143297D01*
X-2785403Y+1144493D01*
X-2785827Y+1145689D01*
X-2786521Y+1146885D01*
X-2787581Y+1148064D01*
X-2788777Y+1148927D01*
X-2789973Y+1149476D01*
X-2791169Y+1149785D01*
X-2792360Y+1149884D01*
X-2799544Y+1142700D02*
X-2799519Y+1143297D01*
X-2799317Y+1144493D01*
X-2798893Y+1145689D01*
X-2798199Y+1146885D01*
X-2797139Y+1148064D01*
X-2795943Y+1148927D01*
X-2794747Y+1149476D01*
X-2793551Y+1149785D01*
X-2792360Y+1149884D01*
X-2799544Y+1142700D02*
X-2799519Y+1142103D01*
X-2799317Y+1140907D01*
X-2798893Y+1139711D01*
X-2798199Y+1138515D01*
X-2797139Y+1137336D01*
X-2795943Y+1136473D01*
X-2794747Y+1135924D01*
X-2793551Y+1135615D01*
X-2792360Y+1135516D01*
X-2785176Y+1142700D02*
X-2785201Y+1142103D01*
X-2785403Y+1140907D01*
X-2785827Y+1139711D01*
X-2786521Y+1138515D01*
X-2787581Y+1137336D01*
X-2788777Y+1136473D01*
X-2789973Y+1135924D01*
X-2791169Y+1135615D01*
X-2792360Y+1135516D01*
X-1837580Y+67760D02*
X-1746140Y+67760D01*
X-1700420Y+23310D01*
X-1700420Y-21140D01*
X-1746140Y-65590D01*
X-1837580Y-65590D01*
X-1791860Y+67760D02*
X-1791860Y-65590D01*
X-1700420Y-110040D02*
X-1700420Y-243390D01*
X-1700420Y-176715D02*
X-1837580Y-176715D01*
X-1837580Y-287840D02*
X-1700420Y-287840D01*
X-1769000Y-354515D01*
X-1700420Y-421190D01*
X-1837580Y-421190D01*
X-1837580Y-598990D02*
X-1837580Y-465640D01*
X-1700420Y-465640D01*
X-1700420Y-598990D01*
X-1769000Y-465640D02*
X-1769000Y-554540D01*
X-1791860Y-732340D02*
X-1791860Y-776790D01*
X-1837580Y-776790D01*
X-1837580Y-687890D01*
X-1791860Y-643440D01*
X-1746140Y-643440D01*
X-1700420Y-687890D01*
X-1700420Y-754565D01*
X-1723280Y-776790D01*
X-1837580Y-821240D02*
X-1746140Y-821240D01*
X-1700420Y-865690D01*
X-1700420Y-910140D01*
X-1746140Y-954590D01*
X-1837580Y-954590D01*
X-1791860Y-821240D02*
X-1791860Y-954590D01*
X-1723280Y-1199065D02*
X-1700420Y-1221290D01*
X-1700420Y-1287965D01*
X-1723280Y-1310190D01*
X-1746140Y-1310190D01*
X-1769000Y-1287965D01*
X-1791860Y-1310190D01*
X-1814720Y-1310190D01*
X-1837580Y-1287965D01*
X-1837580Y-1221290D01*
X-1814720Y-1199065D01*
X-1769000Y-1243515D02*
X-1769000Y-1287965D01*
X-1723280Y-1376865D02*
X-1700420Y-1399090D01*
X-1700420Y-1465765D01*
X-1723280Y-1487990D01*
X-1746140Y-1487990D01*
X-1769000Y-1465765D01*
X-1769000Y-1399090D01*
X-1791860Y-1376865D01*
X-1837580Y-1376865D01*
X-1837580Y-1487990D01*
X-1769000Y-1576890D02*
X-1746140Y-1554665D01*
X-1723280Y-1554665D01*
X-1700420Y-1576890D01*
X-1700420Y-1643565D01*
X-1723280Y-1665790D01*
X-1746140Y-1665790D01*
X-1769000Y-1643565D01*
X-1769000Y-1576890D01*
X-1791860Y-1554665D01*
X-1814720Y-1554665D01*
X-1837580Y-1576890D01*
X-1837580Y-1643565D01*
X-1814720Y-1665790D01*
X-1791860Y-1665790D01*
X-1769000Y-1643565D01*
X-1837580Y-1710240D02*
X-1700420Y-1710240D01*
X-1700420Y-1821365D01*
X-1723280Y-1843590D01*
X-1746140Y-1843590D01*
X-1769000Y-1821365D01*
X-1769000Y-1710240D01*
D24*
X-2280000Y+2645000D02*
X-2780000Y+2645000D01*
X-2780000Y+2925000D02*
X-2280000Y+2925000D01*
X-2342505Y+2924583D02*
X-2342000Y+2938351D01*
X-2345741Y+2976791D01*
X-2356504Y+3012339D01*
X-2373601Y+3044308D01*
X-2396344Y+3072007D01*
X-2424044Y+3094750D01*
X-2456012Y+3111847D01*
X-2491560Y+3122610D01*
X-2530000Y+3126351D01*
X-2568440Y+3122610D01*
X-2603988Y+3111847D01*
X-2635956Y+3094750D01*
X-2663656Y+3072007D01*
X-2686399Y+3044308D01*
X-2703496Y+3012339D01*
X-2714259Y+2976791D01*
X-2718000Y+2938351D01*
X-2717495Y+2924583D01*
X-2717500Y+2925000D01*
D23*
X-3320100Y+3394880D02*
X-3186750Y+3394880D01*
X-3253425Y+3394880D02*
X-3253425Y+3257720D01*
X-3142300Y+3280580D02*
X-3120075Y+3257720D01*
X-3031175Y+3257720D01*
X-3008950Y+3280580D01*
X-3008950Y+3303440D01*
X-3031175Y+3326300D01*
X-3120075Y+3326300D01*
X-3142300Y+3349160D01*
X-3142300Y+3372020D01*
X-3120075Y+3394880D01*
X-3031175Y+3394880D01*
X-3008950Y+3372020D01*
X-2964500Y+3349160D02*
X-2920050Y+3394880D01*
X-2875600Y+3394880D01*
X-2831150Y+3349160D01*
X-2831150Y+3303440D01*
X-2875600Y+3257720D01*
X-2920050Y+3257720D01*
X-2964500Y+3303440D01*
X-2964500Y+3349160D01*
X-2786700Y+3257720D02*
X-2786700Y+3394880D01*
X-2675575Y+3394880D01*
X-2653350Y+3372020D01*
X-2653350Y+3349160D01*
X-2675575Y+3326300D01*
X-2786700Y+3326300D01*
X-2386650Y+3349160D02*
X-2342200Y+3394880D01*
X-2342200Y+3257720D01*
X-2208850Y+3326300D02*
X-2231075Y+3349160D01*
X-2231075Y+3372020D01*
X-2208850Y+3394880D01*
X-2142175Y+3394880D01*
X-2119950Y+3372020D01*
X-2119950Y+3349160D01*
X-2142175Y+3326300D01*
X-2208850Y+3326300D01*
X-2231075Y+3303440D01*
X-2231075Y+3280580D01*
X-2208850Y+3257720D01*
X-2142175Y+3257720D01*
X-2119950Y+3280580D01*
X-2119950Y+3303440D01*
X-2142175Y+3326300D01*
X-2053275Y+3372020D02*
X-2031050Y+3394880D01*
X-1964375Y+3394880D01*
X-1942150Y+3372020D01*
X-1942150Y+3349160D01*
X-1964375Y+3326300D01*
X-1942150Y+3303440D01*
X-1942150Y+3280580D01*
X-1964375Y+3257720D01*
X-2031050Y+3257720D01*
X-2053275Y+3280580D01*
X-2008825Y+3326300D02*
X-1964375Y+3326300D01*
X-1853250Y+3326300D02*
X-1875475Y+3349160D01*
X-1875475Y+3372020D01*
X-1853250Y+3394880D01*
X-1786575Y+3394880D01*
X-1764350Y+3372020D01*
X-1764350Y+3349160D01*
X-1786575Y+3326300D01*
X-1853250Y+3326300D01*
X-1875475Y+3303440D01*
X-1875475Y+3280580D01*
X-1853250Y+3257720D01*
X-1786575Y+3257720D01*
X-1764350Y+3280580D01*
X-1764350Y+3303440D01*
X-1786575Y+3326300D01*
X-3412501Y+1550044D02*
X-3349001Y+1660029D01*
X-3294008Y+1628279D02*
X-3040008Y+2068220D01*
X-3149993Y+2131720D01*
X-3403993Y+1691779D01*
X-3294008Y+1628279D01*
X-3095001Y+2099970D02*
X-3031501Y+2209956D01*
X-3447890Y+2060471D02*
X-3553476Y+2121431D01*
X-3497914Y+2217668D01*
X-3469203Y+2226755D01*
X-3451606Y+2216595D01*
X-3445121Y+2187188D01*
X-3500683Y+2090951D01*
X-3445121Y+2187188D02*
X-3416411Y+2196275D01*
X-3381215Y+2175955D01*
X-3397901Y+2390894D02*
X-3453464Y+2294657D01*
X-3418268Y+2274337D01*
X-3373818Y+2351327D01*
X-3345108Y+2360414D01*
X-3309913Y+2340094D01*
X-3303428Y+2310687D01*
X-3336765Y+2252945D01*
X-3365475Y+2243857D01*
X-4596695Y+4721315D02*
X-4596695Y+3959315D01*
X-5612695Y+3959315D02*
X-5612695Y+4721315D01*
X-4596695Y+4721315D02*
X-5612695Y+4721315D01*
X-4596695Y+3959315D02*
X-5612695Y+3959315D01*
X-5832570Y+4928675D02*
X-5810345Y+4951535D01*
X-5743670Y+4951535D01*
X-5721445Y+4928675D01*
X-5721445Y+4905815D01*
X-5743670Y+4882955D01*
X-5810345Y+4882955D01*
X-5832570Y+4860095D01*
X-5832570Y+4814375D01*
X-5721445Y+4814375D01*
X-5654770Y+4928675D02*
X-5632545Y+4951535D01*
X-5565870Y+4951535D01*
X-5543645Y+4928675D01*
X-5543645Y+4905815D01*
X-5565870Y+4882955D01*
X-5632545Y+4882955D01*
X-5654770Y+4860095D01*
X-5654770Y+4814375D01*
X-5543645Y+4814375D01*
X-5499195Y+4837235D02*
X-5499195Y+4928675D01*
X-5476970Y+4951535D01*
X-5388070Y+4951535D01*
X-5365845Y+4928675D01*
X-5365845Y+4837235D01*
X-5388070Y+4814375D01*
X-5476970Y+4814375D01*
X-5499195Y+4837235D01*
X-5499195Y+4814375D02*
X-5365845Y+4951535D01*
X-5321395Y+4951535D02*
X-5321395Y+4882955D01*
X-5254720Y+4814375D01*
X-5188045Y+4882955D01*
X-5188045Y+4951535D01*
X-5143595Y+4814375D02*
X-5143595Y+4905815D01*
X-5099145Y+4951535D01*
X-5054695Y+4951535D01*
X-5010245Y+4905815D01*
X-5010245Y+4814375D01*
X-5143595Y+4860095D02*
X-5010245Y+4860095D01*
X-4832445Y+4837235D02*
X-4854670Y+4814375D01*
X-4921345Y+4814375D01*
X-4965795Y+4860095D01*
X-4965795Y+4905815D01*
X-4921345Y+4951535D01*
X-4854670Y+4951535D01*
X-4832445Y+4928675D01*
X-4587970Y+4951535D02*
X-4499070Y+4951535D01*
X-4543520Y+4951535D02*
X-4543520Y+4814375D01*
X-4587970Y+4814375D02*
X-4499070Y+4814375D01*
X-4432395Y+4814375D02*
X-4432395Y+4951535D01*
X-4299045Y+4814375D01*
X-4299045Y+4951535D01*
X-6885075Y+3929315D02*
X-6885075Y+4691315D01*
X-5869075Y+4691315D02*
X-5869075Y+3929315D01*
X-6885075Y+3929315D02*
X-5869075Y+3929315D01*
X-6885075Y+4691315D02*
X-5869075Y+4691315D01*
X-7368275Y+3726255D02*
X-7234925Y+3726255D01*
X-7301600Y+3726255D02*
X-7301600Y+3589095D01*
X-7190475Y+3589095D02*
X-7190475Y+3726255D01*
X-7079350Y+3726255D01*
X-7057125Y+3703395D01*
X-7057125Y+3680535D01*
X-7079350Y+3657675D01*
X-7190475Y+3657675D01*
X-7079350Y+3657675D02*
X-7057125Y+3634815D01*
X-7057125Y+3589095D01*
X-7012675Y+3589095D02*
X-7012675Y+3680535D01*
X-6968225Y+3726255D01*
X-6923775Y+3726255D01*
X-6879325Y+3680535D01*
X-6879325Y+3589095D01*
X-7012675Y+3634815D02*
X-6879325Y+3634815D01*
X-6834875Y+3589095D02*
X-6834875Y+3726255D01*
X-6701525Y+3589095D01*
X-6701525Y+3726255D01*
X-6657075Y+3611955D02*
X-6634850Y+3589095D01*
X-6545950Y+3589095D01*
X-6523725Y+3611955D01*
X-6523725Y+3634815D01*
X-6545950Y+3657675D01*
X-6634850Y+3657675D01*
X-6657075Y+3680535D01*
X-6657075Y+3703395D01*
X-6634850Y+3726255D01*
X-6545950Y+3726255D01*
X-6523725Y+3703395D01*
X-6279250Y+3726255D02*
X-6190350Y+3726255D01*
X-6234800Y+3726255D02*
X-6234800Y+3589095D01*
X-6279250Y+3589095D02*
X-6190350Y+3589095D01*
X-6123675Y+3589095D02*
X-6123675Y+3726255D01*
X-5990325Y+3589095D01*
X-5990325Y+3726255D01*
X-4499000Y-4874380D02*
X-5261000Y-4874380D01*
X-5261000Y-3858380D02*
X-4499000Y-3858380D01*
X-4499000Y-4874380D02*
X-4499000Y-3858380D01*
X-5261000Y-4874380D02*
X-5261000Y-3858380D01*
X-5498320Y-4896480D02*
X-5498320Y-4763130D01*
X-5498320Y-4829805D02*
X-5376400Y-4829805D01*
X-5376400Y-4718680D02*
X-5498320Y-4718680D01*
X-5498320Y-4607555D01*
X-5478000Y-4585330D01*
X-5457680Y-4585330D01*
X-5437360Y-4607555D01*
X-5437360Y-4718680D01*
X-5437360Y-4607555D02*
X-5417040Y-4585330D01*
X-5376400Y-4585330D01*
X-5376400Y-4540880D02*
X-5457680Y-4540880D01*
X-5498320Y-4496430D01*
X-5498320Y-4451980D01*
X-5457680Y-4407530D01*
X-5376400Y-4407530D01*
X-5417040Y-4540880D02*
X-5417040Y-4407530D01*
X-5376400Y-4363080D02*
X-5498320Y-4363080D01*
X-5376400Y-4229730D01*
X-5498320Y-4229730D01*
X-5396720Y-4185280D02*
X-5376400Y-4163055D01*
X-5376400Y-4074155D01*
X-5396720Y-4051930D01*
X-5417040Y-4051930D01*
X-5437360Y-4074155D01*
X-5437360Y-4163055D01*
X-5457680Y-4185280D01*
X-5478000Y-4185280D01*
X-5498320Y-4163055D01*
X-5498320Y-4074155D01*
X-5478000Y-4051930D01*
X-5457680Y-3829680D02*
X-5498320Y-3785230D01*
X-5498320Y-3740780D01*
X-5457680Y-3696330D01*
X-5417040Y-3696330D01*
X-5376400Y-3740780D01*
X-5376400Y-3785230D01*
X-5417040Y-3829680D01*
X-5457680Y-3829680D01*
X-5498320Y-3651880D02*
X-5396720Y-3651880D01*
X-5376400Y-3629655D01*
X-5376400Y-3540755D01*
X-5396720Y-3518530D01*
X-5498320Y-3518530D01*
X-5498320Y-3474080D02*
X-5498320Y-3340730D01*
X-5498320Y-3407405D02*
X-5376400Y-3407405D01*
D25*
X-4280000Y+4245200D02*
X-4280000Y+4473800D01*
X-4165700Y+4473800D01*
X-4108550Y+4397600D01*
X-4108550Y+4321400D01*
X-4165700Y+4245200D01*
X-4280000Y+4245200D01*
X-4051400Y+4321400D02*
X-3879950Y+4321400D01*
X-3879950Y+4359500D01*
X-3908525Y+4397600D01*
X-4022825Y+4397600D01*
X-4051400Y+4359500D01*
X-4051400Y+4283300D01*
X-4022825Y+4245200D01*
X-3908525Y+4245200D01*
X-3679925Y+4397600D02*
X-3794225Y+4397600D01*
X-3822800Y+4359500D01*
X-3794225Y+4321400D01*
X-3679925Y+4321400D01*
X-3651350Y+4283300D01*
X-3679925Y+4245200D01*
X-3822800Y+4245200D01*
X-3508475Y+4397600D02*
X-3508475Y+4245200D01*
X-3508475Y+4473800D02*
X-3508475Y+4473800D01*
X-3194150Y+4359500D02*
X-3222725Y+4397600D01*
X-3337025Y+4397600D01*
X-3365600Y+4359500D01*
X-3365600Y+4321400D01*
X-3337025Y+4283300D01*
X-3222725Y+4283300D01*
X-3194150Y+4321400D01*
X-3194150Y+4397600D02*
X-3194150Y+4245200D01*
X-3222725Y+4207100D01*
X-3365600Y+4207100D01*
X-3137000Y+4245200D02*
X-3137000Y+4397600D01*
X-3137000Y+4359500D02*
X-3108425Y+4397600D01*
X-2994125Y+4397600D01*
X-2965550Y+4359500D01*
X-2965550Y+4245200D01*
X-2908400Y+4321400D02*
X-2736950Y+4321400D01*
X-2736950Y+4359500D01*
X-2765525Y+4397600D01*
X-2879825Y+4397600D01*
X-2908400Y+4359500D01*
X-2908400Y+4283300D01*
X-2879825Y+4245200D01*
X-2765525Y+4245200D01*
X-2508350Y+4359500D02*
X-2536925Y+4397600D01*
X-2651225Y+4397600D01*
X-2679800Y+4359500D01*
X-2679800Y+4283300D01*
X-2651225Y+4245200D01*
X-2536925Y+4245200D01*
X-2508350Y+4283300D01*
X-2508350Y+4245200D02*
X-2508350Y+4473800D01*
X-2222600Y+4359500D02*
X-2194025Y+4397600D01*
X-2079725Y+4397600D01*
X-2051150Y+4359500D01*
X-2051150Y+4283300D01*
X-2079725Y+4245200D01*
X-2194025Y+4245200D01*
X-2222600Y+4283300D01*
X-2222600Y+4245200D02*
X-2222600Y+4473800D01*
X-1994000Y+4397600D02*
X-1994000Y+4321400D01*
X-1965425Y+4283300D01*
X-1851125Y+4283300D01*
X-1822550Y+4321400D01*
X-1822550Y+4397600D02*
X-1822550Y+4245200D01*
X-1851125Y+4207100D01*
X-1994000Y+4207100D01*
D26*
X-4216500Y+3810915D02*
X-4155540Y+3810915D01*
X-3835500Y+3810915D02*
X-3789780Y+3810915D01*
X-3662780Y+3810915D02*
X-3627220Y+3810915D01*
X-3368140Y+3810915D02*
X-3332580Y+3810915D01*
X-2905860Y+3810915D02*
X-2844900Y+3810915D01*
X-2722980Y+3810915D02*
X-2687420Y+3810915D01*
X-2255620Y+3810915D02*
X-2220060Y+3810915D01*
X-4236820Y+3815995D02*
X-4140300Y+3815995D01*
X-4059020Y+3815995D02*
X-4033620Y+3815995D01*
X-3952340Y+3815995D02*
X-3926940Y+3815995D01*
X-3845660Y+3815995D02*
X-3779620Y+3815995D01*
X-3672940Y+3815995D02*
X-3611980Y+3815995D01*
X-3591660Y+3815995D02*
X-3566260Y+3815995D01*
X-3515460Y+3815995D02*
X-3490060Y+3815995D01*
X-3378300Y+3815995D02*
X-3317340Y+3815995D01*
X-3297020Y+3815995D02*
X-3271620Y+3815995D01*
X-3175100Y+3815995D02*
X-3144620Y+3815995D01*
X-2926180Y+3815995D02*
X-2829660Y+3815995D01*
X-2733140Y+3815995D02*
X-2672180Y+3815995D01*
X-2651860Y+3815995D02*
X-2626460Y+3815995D01*
X-2575660Y+3815995D02*
X-2550260Y+3815995D01*
X-2453740Y+3815995D02*
X-2428340Y+3815995D01*
X-2341980Y+3815995D02*
X-2306420Y+3815995D01*
X-2265780Y+3815995D02*
X-2204820Y+3815995D01*
X-2184500Y+3815995D02*
X-2159100Y+3815995D01*
X-2108300Y+3815995D02*
X-2082900Y+3815995D01*
X-4252060Y+3821075D02*
X-4130140Y+3821075D01*
X-4059020Y+3821075D02*
X-4033620Y+3821075D01*
X-3952340Y+3821075D02*
X-3926940Y+3821075D01*
X-3855820Y+3821075D02*
X-3769460Y+3821075D01*
X-3683100Y+3821075D02*
X-3606900Y+3821075D01*
X-3591660Y+3821075D02*
X-3566260Y+3821075D01*
X-3515460Y+3821075D02*
X-3490060Y+3821075D01*
X-3388460Y+3821075D02*
X-3307180Y+3821075D01*
X-3297020Y+3821075D02*
X-3271620Y+3821075D01*
X-3175100Y+3821075D02*
X-3144620Y+3821075D01*
X-2941420Y+3821075D02*
X-2819500Y+3821075D01*
X-2743300Y+3821075D02*
X-2662020Y+3821075D01*
X-2651860Y+3821075D02*
X-2626460Y+3821075D01*
X-2575660Y+3821075D02*
X-2550260Y+3821075D01*
X-2453740Y+3821075D02*
X-2428340Y+3821075D01*
X-2347060Y+3821075D02*
X-2311500Y+3821075D01*
X-2275940Y+3821075D02*
X-2194660Y+3821075D01*
X-2184500Y+3821075D02*
X-2159100Y+3821075D01*
X-2108300Y+3821075D02*
X-2082900Y+3821075D01*
X-4262220Y+3826155D02*
X-4125060Y+3826155D01*
X-4059020Y+3826155D02*
X-4033620Y+3826155D01*
X-3952340Y+3826155D02*
X-3926940Y+3826155D01*
X-3860900Y+3826155D02*
X-3764380Y+3826155D01*
X-3688180Y+3826155D02*
X-3596740Y+3826155D01*
X-3591660Y+3826155D02*
X-3566260Y+3826155D01*
X-3515460Y+3826155D02*
X-3490060Y+3826155D01*
X-3393540Y+3826155D02*
X-3302100Y+3826155D01*
X-3297020Y+3826155D02*
X-3271620Y+3826155D01*
X-3180180Y+3826155D02*
X-3139540Y+3826155D01*
X-2951580Y+3826155D02*
X-2814420Y+3826155D01*
X-2748380Y+3826155D02*
X-2656940Y+3826155D01*
X-2651860Y+3826155D02*
X-2626460Y+3826155D01*
X-2575660Y+3826155D02*
X-2550260Y+3826155D01*
X-2453740Y+3826155D02*
X-2428340Y+3826155D01*
X-2352140Y+3826155D02*
X-2316580Y+3826155D01*
X-2281020Y+3826155D02*
X-2189580Y+3826155D01*
X-2184500Y+3826155D02*
X-2159100Y+3826155D01*
X-2108300Y+3826155D02*
X-2082900Y+3826155D01*
X-4262220Y+3831235D02*
X-4119980Y+3831235D01*
X-4059020Y+3831235D02*
X-4033620Y+3831235D01*
X-3952340Y+3831235D02*
X-3926940Y+3831235D01*
X-3865980Y+3831235D02*
X-3759300Y+3831235D01*
X-3688180Y+3831235D02*
X-3566260Y+3831235D01*
X-3515460Y+3831235D02*
X-3490060Y+3831235D01*
X-3393540Y+3831235D02*
X-3271620Y+3831235D01*
X-3180180Y+3831235D02*
X-3139540Y+3831235D01*
X-2951580Y+3831235D02*
X-2809340Y+3831235D01*
X-2748380Y+3831235D02*
X-2626460Y+3831235D01*
X-2575660Y+3831235D02*
X-2550260Y+3831235D01*
X-2453740Y+3831235D02*
X-2428340Y+3831235D01*
X-2357220Y+3831235D02*
X-2321660Y+3831235D01*
X-2281020Y+3831235D02*
X-2159100Y+3831235D01*
X-2108300Y+3831235D02*
X-2082900Y+3831235D01*
X-4262220Y+3836315D02*
X-4206340Y+3836315D01*
X-4160620Y+3836315D02*
X-4114900Y+3836315D01*
X-4059020Y+3836315D02*
X-4033620Y+3836315D01*
X-3952340Y+3836315D02*
X-3926940Y+3836315D01*
X-3871060Y+3836315D02*
X-3830420Y+3836315D01*
X-3794860Y+3836315D02*
X-3754220Y+3836315D01*
X-3693260Y+3836315D02*
X-3657700Y+3836315D01*
X-3622140Y+3836315D02*
X-3566260Y+3836315D01*
X-3515460Y+3836315D02*
X-3490060Y+3836315D01*
X-3398620Y+3836315D02*
X-3363060Y+3836315D01*
X-3327500Y+3836315D02*
X-3271620Y+3836315D01*
X-3180180Y+3836315D02*
X-3139540Y+3836315D01*
X-2951580Y+3836315D02*
X-2895700Y+3836315D01*
X-2849980Y+3836315D02*
X-2804260Y+3836315D01*
X-2753460Y+3836315D02*
X-2717900Y+3836315D01*
X-2682340Y+3836315D02*
X-2626460Y+3836315D01*
X-2575660Y+3836315D02*
X-2550260Y+3836315D01*
X-2453740Y+3836315D02*
X-2428340Y+3836315D01*
X-2362300Y+3836315D02*
X-2326740Y+3836315D01*
X-2286100Y+3836315D02*
X-2250540Y+3836315D01*
X-2214980Y+3836315D02*
X-2159100Y+3836315D01*
X-2108300Y+3836315D02*
X-2082900Y+3836315D01*
X-4262220Y+3841395D02*
X-4226660Y+3841395D01*
X-4145380Y+3841395D02*
X-4109820Y+3841395D01*
X-4059020Y+3841395D02*
X-4033620Y+3841395D01*
X-3952340Y+3841395D02*
X-3926940Y+3841395D01*
X-3876140Y+3841395D02*
X-3840580Y+3841395D01*
X-3784700Y+3841395D02*
X-3749140Y+3841395D01*
X-3693260Y+3841395D02*
X-3662780Y+3841395D01*
X-3611980Y+3841395D02*
X-3566260Y+3841395D01*
X-3515460Y+3841395D02*
X-3490060Y+3841395D01*
X-3398620Y+3841395D02*
X-3373220Y+3841395D01*
X-3312260Y+3841395D02*
X-3271620Y+3841395D01*
X-3185260Y+3841395D02*
X-3134460Y+3841395D01*
X-2951580Y+3841395D02*
X-2916020Y+3841395D01*
X-2834740Y+3841395D02*
X-2799180Y+3841395D01*
X-2753460Y+3841395D02*
X-2728060Y+3841395D01*
X-2667100Y+3841395D02*
X-2626460Y+3841395D01*
X-2575660Y+3841395D02*
X-2550260Y+3841395D01*
X-2453740Y+3841395D02*
X-2428340Y+3841395D01*
X-2367380Y+3841395D02*
X-2331820Y+3841395D01*
X-2286100Y+3841395D02*
X-2260700Y+3841395D01*
X-2199740Y+3841395D02*
X-2159100Y+3841395D01*
X-2108300Y+3841395D02*
X-2082900Y+3841395D01*
X-4262220Y+3846475D02*
X-4236820Y+3846475D01*
X-4140300Y+3846475D02*
X-4104740Y+3846475D01*
X-4059020Y+3846475D02*
X-4033620Y+3846475D01*
X-3952340Y+3846475D02*
X-3926940Y+3846475D01*
X-3876140Y+3846475D02*
X-3845660Y+3846475D01*
X-3779620Y+3846475D02*
X-3749140Y+3846475D01*
X-3698340Y+3846475D02*
X-3667860Y+3846475D01*
X-3601820Y+3846475D02*
X-3566260Y+3846475D01*
X-3515460Y+3846475D02*
X-3490060Y+3846475D01*
X-3403700Y+3846475D02*
X-3373220Y+3846475D01*
X-3307180Y+3846475D02*
X-3271620Y+3846475D01*
X-3185260Y+3846475D02*
X-3134460Y+3846475D01*
X-2951580Y+3846475D02*
X-2926180Y+3846475D01*
X-2829660Y+3846475D02*
X-2794100Y+3846475D01*
X-2758540Y+3846475D02*
X-2728060Y+3846475D01*
X-2662020Y+3846475D02*
X-2626460Y+3846475D01*
X-2575660Y+3846475D02*
X-2550260Y+3846475D01*
X-2453740Y+3846475D02*
X-2428340Y+3846475D01*
X-2372460Y+3846475D02*
X-2336900Y+3846475D01*
X-2291180Y+3846475D02*
X-2260700Y+3846475D01*
X-2194660Y+3846475D02*
X-2159100Y+3846475D01*
X-2108300Y+3846475D02*
X-2082900Y+3846475D01*
X-4262220Y+3851555D02*
X-4246980Y+3851555D01*
X-4135220Y+3851555D02*
X-4104740Y+3851555D01*
X-4059020Y+3851555D02*
X-4033620Y+3851555D01*
X-3952340Y+3851555D02*
X-3926940Y+3851555D01*
X-3881220Y+3851555D02*
X-3850740Y+3851555D01*
X-3774540Y+3851555D02*
X-3744060Y+3851555D01*
X-3698340Y+3851555D02*
X-3667860Y+3851555D01*
X-3591660Y+3851555D02*
X-3566260Y+3851555D01*
X-3515460Y+3851555D02*
X-3490060Y+3851555D01*
X-3403700Y+3851555D02*
X-3378300Y+3851555D01*
X-3297020Y+3851555D02*
X-3271620Y+3851555D01*
X-3190340Y+3851555D02*
X-3159860Y+3851555D01*
X-3154780Y+3851555D02*
X-3129380Y+3851555D01*
X-2951580Y+3851555D02*
X-2936340Y+3851555D01*
X-2824580Y+3851555D02*
X-2794100Y+3851555D01*
X-2758540Y+3851555D02*
X-2733140Y+3851555D01*
X-2651860Y+3851555D02*
X-2626460Y+3851555D01*
X-2575660Y+3851555D02*
X-2550260Y+3851555D01*
X-2453740Y+3851555D02*
X-2428340Y+3851555D01*
X-2377540Y+3851555D02*
X-2341980Y+3851555D01*
X-2291180Y+3851555D02*
X-2265780Y+3851555D01*
X-2184500Y+3851555D02*
X-2159100Y+3851555D01*
X-2108300Y+3851555D02*
X-2082900Y+3851555D01*
X-4262220Y+3856635D02*
X-4257140Y+3856635D01*
X-4130140Y+3856635D02*
X-4099660Y+3856635D01*
X-4059020Y+3856635D02*
X-4033620Y+3856635D01*
X-3952340Y+3856635D02*
X-3926940Y+3856635D01*
X-3881220Y+3856635D02*
X-3855820Y+3856635D01*
X-3769460Y+3856635D02*
X-3744060Y+3856635D01*
X-3698340Y+3856635D02*
X-3672940Y+3856635D01*
X-3591660Y+3856635D02*
X-3566260Y+3856635D01*
X-3515460Y+3856635D02*
X-3490060Y+3856635D01*
X-3403700Y+3856635D02*
X-3378300Y+3856635D01*
X-3297020Y+3856635D02*
X-3271620Y+3856635D01*
X-3190340Y+3856635D02*
X-3164940Y+3856635D01*
X-3154780Y+3856635D02*
X-3129380Y+3856635D01*
X-2951580Y+3856635D02*
X-2946500Y+3856635D01*
X-2819500Y+3856635D02*
X-2789020Y+3856635D01*
X-2758540Y+3856635D02*
X-2733140Y+3856635D01*
X-2651860Y+3856635D02*
X-2626460Y+3856635D01*
X-2575660Y+3856635D02*
X-2550260Y+3856635D01*
X-2453740Y+3856635D02*
X-2428340Y+3856635D01*
X-2382620Y+3856635D02*
X-2347060Y+3856635D01*
X-2291180Y+3856635D02*
X-2265780Y+3856635D01*
X-2184500Y+3856635D02*
X-2159100Y+3856635D01*
X-2108300Y+3856635D02*
X-2082900Y+3856635D01*
X-4130140Y+3861715D02*
X-4099660Y+3861715D01*
X-4059020Y+3861715D02*
X-4033620Y+3861715D01*
X-3952340Y+3861715D02*
X-3926940Y+3861715D01*
X-3881220Y+3861715D02*
X-3855820Y+3861715D01*
X-3769460Y+3861715D02*
X-3744060Y+3861715D01*
X-3698340Y+3861715D02*
X-3672940Y+3861715D01*
X-3591660Y+3861715D02*
X-3566260Y+3861715D01*
X-3515460Y+3861715D02*
X-3490060Y+3861715D01*
X-3403700Y+3861715D02*
X-3378300Y+3861715D01*
X-3297020Y+3861715D02*
X-3271620Y+3861715D01*
X-3190340Y+3861715D02*
X-3164940Y+3861715D01*
X-3154780Y+3861715D02*
X-3129380Y+3861715D01*
X-2819500Y+3861715D02*
X-2789020Y+3861715D01*
X-2758540Y+3861715D02*
X-2733140Y+3861715D01*
X-2651860Y+3861715D02*
X-2626460Y+3861715D01*
X-2575660Y+3861715D02*
X-2550260Y+3861715D01*
X-2453740Y+3861715D02*
X-2428340Y+3861715D01*
X-2387700Y+3861715D02*
X-2352140Y+3861715D01*
X-2291180Y+3861715D02*
X-2265780Y+3861715D01*
X-2184500Y+3861715D02*
X-2159100Y+3861715D01*
X-2108300Y+3861715D02*
X-2082900Y+3861715D01*
X-4130140Y+3866795D02*
X-4099660Y+3866795D01*
X-4059020Y+3866795D02*
X-4033620Y+3866795D01*
X-3952340Y+3866795D02*
X-3926940Y+3866795D01*
X-3886300Y+3866795D02*
X-3855820Y+3866795D01*
X-3769460Y+3866795D02*
X-3738980Y+3866795D01*
X-3698340Y+3866795D02*
X-3672940Y+3866795D01*
X-3591660Y+3866795D02*
X-3566260Y+3866795D01*
X-3515460Y+3866795D02*
X-3490060Y+3866795D01*
X-3403700Y+3866795D02*
X-3378300Y+3866795D01*
X-3297020Y+3866795D02*
X-3271620Y+3866795D01*
X-3195420Y+3866795D02*
X-3170020Y+3866795D01*
X-3149700Y+3866795D02*
X-3124300Y+3866795D01*
X-2819500Y+3866795D02*
X-2789020Y+3866795D01*
X-2758540Y+3866795D02*
X-2733140Y+3866795D01*
X-2651860Y+3866795D02*
X-2626460Y+3866795D01*
X-2575660Y+3866795D02*
X-2550260Y+3866795D01*
X-2453740Y+3866795D02*
X-2428340Y+3866795D01*
X-2392780Y+3866795D02*
X-2357220Y+3866795D01*
X-2291180Y+3866795D02*
X-2265780Y+3866795D01*
X-2184500Y+3866795D02*
X-2159100Y+3866795D01*
X-2108300Y+3866795D02*
X-2082900Y+3866795D01*
X-4130140Y+3871875D02*
X-4099660Y+3871875D01*
X-4059020Y+3871875D02*
X-4033620Y+3871875D01*
X-3952340Y+3871875D02*
X-3926940Y+3871875D01*
X-3886300Y+3871875D02*
X-3860900Y+3871875D01*
X-3764380Y+3871875D02*
X-3738980Y+3871875D01*
X-3698340Y+3871875D02*
X-3672940Y+3871875D01*
X-3591660Y+3871875D02*
X-3566260Y+3871875D01*
X-3515460Y+3871875D02*
X-3490060Y+3871875D01*
X-3403700Y+3871875D02*
X-3378300Y+3871875D01*
X-3297020Y+3871875D02*
X-3271620Y+3871875D01*
X-3195420Y+3871875D02*
X-3170020Y+3871875D01*
X-3149700Y+3871875D02*
X-3124300Y+3871875D01*
X-2819500Y+3871875D02*
X-2789020Y+3871875D01*
X-2758540Y+3871875D02*
X-2733140Y+3871875D01*
X-2651860Y+3871875D02*
X-2626460Y+3871875D01*
X-2575660Y+3871875D02*
X-2550260Y+3871875D01*
X-2453740Y+3871875D02*
X-2423260Y+3871875D01*
X-2397860Y+3871875D02*
X-2362300Y+3871875D01*
X-2291180Y+3871875D02*
X-2265780Y+3871875D01*
X-2184500Y+3871875D02*
X-2159100Y+3871875D01*
X-2108300Y+3871875D02*
X-2082900Y+3871875D01*
X-4130140Y+3876955D02*
X-4099660Y+3876955D01*
X-4059020Y+3876955D02*
X-4033620Y+3876955D01*
X-3952340Y+3876955D02*
X-3926940Y+3876955D01*
X-3886300Y+3876955D02*
X-3860900Y+3876955D01*
X-3764380Y+3876955D02*
X-3738980Y+3876955D01*
X-3698340Y+3876955D02*
X-3672940Y+3876955D01*
X-3591660Y+3876955D02*
X-3566260Y+3876955D01*
X-3515460Y+3876955D02*
X-3490060Y+3876955D01*
X-3403700Y+3876955D02*
X-3373220Y+3876955D01*
X-3297020Y+3876955D02*
X-3271620Y+3876955D01*
X-3200500Y+3876955D02*
X-3170020Y+3876955D01*
X-3144620Y+3876955D02*
X-3119220Y+3876955D01*
X-2819500Y+3876955D02*
X-2789020Y+3876955D01*
X-2758540Y+3876955D02*
X-2728060Y+3876955D01*
X-2651860Y+3876955D02*
X-2626460Y+3876955D01*
X-2575660Y+3876955D02*
X-2550260Y+3876955D01*
X-2453740Y+3876955D02*
X-2418180Y+3876955D01*
X-2402940Y+3876955D02*
X-2367380Y+3876955D01*
X-2291180Y+3876955D02*
X-2260700Y+3876955D01*
X-2184500Y+3876955D02*
X-2159100Y+3876955D01*
X-2108300Y+3876955D02*
X-2082900Y+3876955D01*
X-4130140Y+3882035D02*
X-4099660Y+3882035D01*
X-4059020Y+3882035D02*
X-4033620Y+3882035D01*
X-3952340Y+3882035D02*
X-3926940Y+3882035D01*
X-3886300Y+3882035D02*
X-3860900Y+3882035D01*
X-3764380Y+3882035D02*
X-3738980Y+3882035D01*
X-3698340Y+3882035D02*
X-3672940Y+3882035D01*
X-3591660Y+3882035D02*
X-3566260Y+3882035D01*
X-3515460Y+3882035D02*
X-3490060Y+3882035D01*
X-3398620Y+3882035D02*
X-3368140Y+3882035D01*
X-3297020Y+3882035D02*
X-3271620Y+3882035D01*
X-3200500Y+3882035D02*
X-3175100Y+3882035D01*
X-3144620Y+3882035D02*
X-3119220Y+3882035D01*
X-2819500Y+3882035D02*
X-2789020Y+3882035D01*
X-2753460Y+3882035D02*
X-2722980Y+3882035D01*
X-2651860Y+3882035D02*
X-2626460Y+3882035D01*
X-2575660Y+3882035D02*
X-2550260Y+3882035D01*
X-2453740Y+3882035D02*
X-2413100Y+3882035D01*
X-2408020Y+3882035D02*
X-2372460Y+3882035D01*
X-2286100Y+3882035D02*
X-2255620Y+3882035D01*
X-2184500Y+3882035D02*
X-2159100Y+3882035D01*
X-2108300Y+3882035D02*
X-2082900Y+3882035D01*
X-4135220Y+3887115D02*
X-4099660Y+3887115D01*
X-4059020Y+3887115D02*
X-4033620Y+3887115D01*
X-3952340Y+3887115D02*
X-3926940Y+3887115D01*
X-3886300Y+3887115D02*
X-3860900Y+3887115D01*
X-3764380Y+3887115D02*
X-3738980Y+3887115D01*
X-3698340Y+3887115D02*
X-3672940Y+3887115D01*
X-3591660Y+3887115D02*
X-3566260Y+3887115D01*
X-3515460Y+3887115D02*
X-3490060Y+3887115D01*
X-3398620Y+3887115D02*
X-3357980Y+3887115D01*
X-3297020Y+3887115D02*
X-3271620Y+3887115D01*
X-3200500Y+3887115D02*
X-3175100Y+3887115D01*
X-3144620Y+3887115D02*
X-3119220Y+3887115D01*
X-2824580Y+3887115D02*
X-2789020Y+3887115D01*
X-2753460Y+3887115D02*
X-2712820Y+3887115D01*
X-2651860Y+3887115D02*
X-2626460Y+3887115D01*
X-2575660Y+3887115D02*
X-2550260Y+3887115D01*
X-2453740Y+3887115D02*
X-2377540Y+3887115D01*
X-2286100Y+3887115D02*
X-2245460Y+3887115D01*
X-2184500Y+3887115D02*
X-2159100Y+3887115D01*
X-2108300Y+3887115D02*
X-2082900Y+3887115D01*
X-4140300Y+3892195D02*
X-4104740Y+3892195D01*
X-4059020Y+3892195D02*
X-4033620Y+3892195D01*
X-3952340Y+3892195D02*
X-3926940Y+3892195D01*
X-3886300Y+3892195D02*
X-3860900Y+3892195D01*
X-3764380Y+3892195D02*
X-3738980Y+3892195D01*
X-3698340Y+3892195D02*
X-3672940Y+3892195D01*
X-3591660Y+3892195D02*
X-3566260Y+3892195D01*
X-3515460Y+3892195D02*
X-3490060Y+3892195D01*
X-3393540Y+3892195D02*
X-3332580Y+3892195D01*
X-3297020Y+3892195D02*
X-3271620Y+3892195D01*
X-3205580Y+3892195D02*
X-3175100Y+3892195D01*
X-3139540Y+3892195D02*
X-3114140Y+3892195D01*
X-2829660Y+3892195D02*
X-2794100Y+3892195D01*
X-2748380Y+3892195D02*
X-2687420Y+3892195D01*
X-2651860Y+3892195D02*
X-2626460Y+3892195D01*
X-2575660Y+3892195D02*
X-2550260Y+3892195D01*
X-2453740Y+3892195D02*
X-2382620Y+3892195D01*
X-2281020Y+3892195D02*
X-2220060Y+3892195D01*
X-2184500Y+3892195D02*
X-2159100Y+3892195D01*
X-2108300Y+3892195D02*
X-2082900Y+3892195D01*
X-4150460Y+3897275D02*
X-4104740Y+3897275D01*
X-4059020Y+3897275D02*
X-4033620Y+3897275D01*
X-3952340Y+3897275D02*
X-3926940Y+3897275D01*
X-3886300Y+3897275D02*
X-3860900Y+3897275D01*
X-3764380Y+3897275D02*
X-3738980Y+3897275D01*
X-3698340Y+3897275D02*
X-3672940Y+3897275D01*
X-3591660Y+3897275D02*
X-3566260Y+3897275D01*
X-3515460Y+3897275D02*
X-3490060Y+3897275D01*
X-3388460Y+3897275D02*
X-3271620Y+3897275D01*
X-3205580Y+3897275D02*
X-3180180Y+3897275D01*
X-3139540Y+3897275D02*
X-3114140Y+3897275D01*
X-2839820Y+3897275D02*
X-2794100Y+3897275D01*
X-2743300Y+3897275D02*
X-2626460Y+3897275D01*
X-2575660Y+3897275D02*
X-2550260Y+3897275D01*
X-2453740Y+3897275D02*
X-2428340Y+3897275D01*
X-2423260Y+3897275D02*
X-2387700Y+3897275D01*
X-2275940Y+3897275D02*
X-2159100Y+3897275D01*
X-2108300Y+3897275D02*
X-2082900Y+3897275D01*
X-4170780Y+3902355D02*
X-4109820Y+3902355D01*
X-4059020Y+3902355D02*
X-4033620Y+3902355D01*
X-3952340Y+3902355D02*
X-3926940Y+3902355D01*
X-3886300Y+3902355D02*
X-3860900Y+3902355D01*
X-3764380Y+3902355D02*
X-3738980Y+3902355D01*
X-3698340Y+3902355D02*
X-3672940Y+3902355D01*
X-3591660Y+3902355D02*
X-3566260Y+3902355D01*
X-3515460Y+3902355D02*
X-3490060Y+3902355D01*
X-3383380Y+3902355D02*
X-3271620Y+3902355D01*
X-3210660Y+3902355D02*
X-3180180Y+3902355D01*
X-3139540Y+3902355D02*
X-3109060Y+3902355D01*
X-2860140Y+3902355D02*
X-2799180Y+3902355D01*
X-2738220Y+3902355D02*
X-2626460Y+3902355D01*
X-2575660Y+3902355D02*
X-2550260Y+3902355D01*
X-2453740Y+3902355D02*
X-2428340Y+3902355D01*
X-2418180Y+3902355D02*
X-2382620Y+3902355D01*
X-2270860Y+3902355D02*
X-2159100Y+3902355D01*
X-2108300Y+3902355D02*
X-2082900Y+3902355D01*
X-4201260Y+3907435D02*
X-4109820Y+3907435D01*
X-4059020Y+3907435D02*
X-4033620Y+3907435D01*
X-3952340Y+3907435D02*
X-3926940Y+3907435D01*
X-3886300Y+3907435D02*
X-3860900Y+3907435D01*
X-3764380Y+3907435D02*
X-3738980Y+3907435D01*
X-3698340Y+3907435D02*
X-3672940Y+3907435D01*
X-3591660Y+3907435D02*
X-3566260Y+3907435D01*
X-3515460Y+3907435D02*
X-3490060Y+3907435D01*
X-3373220Y+3907435D02*
X-3271620Y+3907435D01*
X-3210660Y+3907435D02*
X-3185260Y+3907435D01*
X-3134460Y+3907435D02*
X-3109060Y+3907435D01*
X-2890620Y+3907435D02*
X-2799180Y+3907435D01*
X-2728060Y+3907435D02*
X-2626460Y+3907435D01*
X-2575660Y+3907435D02*
X-2550260Y+3907435D01*
X-2453740Y+3907435D02*
X-2428340Y+3907435D01*
X-2413100Y+3907435D02*
X-2377540Y+3907435D01*
X-2260700Y+3907435D02*
X-2159100Y+3907435D01*
X-2108300Y+3907435D02*
X-2082900Y+3907435D01*
X-4221580Y+3912515D02*
X-4114900Y+3912515D01*
X-4059020Y+3912515D02*
X-4033620Y+3912515D01*
X-3952340Y+3912515D02*
X-3926940Y+3912515D01*
X-3886300Y+3912515D02*
X-3860900Y+3912515D01*
X-3764380Y+3912515D02*
X-3738980Y+3912515D01*
X-3698340Y+3912515D02*
X-3672940Y+3912515D01*
X-3591660Y+3912515D02*
X-3566260Y+3912515D01*
X-3515460Y+3912515D02*
X-3490060Y+3912515D01*
X-3363060Y+3912515D02*
X-3271620Y+3912515D01*
X-3210660Y+3912515D02*
X-3185260Y+3912515D01*
X-3134460Y+3912515D02*
X-3109060Y+3912515D01*
X-2910940Y+3912515D02*
X-2804260Y+3912515D01*
X-2717900Y+3912515D02*
X-2626460Y+3912515D01*
X-2575660Y+3912515D02*
X-2550260Y+3912515D01*
X-2453740Y+3912515D02*
X-2428340Y+3912515D01*
X-2408020Y+3912515D02*
X-2372460Y+3912515D01*
X-2250540Y+3912515D02*
X-2159100Y+3912515D01*
X-2108300Y+3912515D02*
X-2082900Y+3912515D01*
X-4231740Y+3917595D02*
X-4125060Y+3917595D01*
X-4059020Y+3917595D02*
X-4033620Y+3917595D01*
X-3952340Y+3917595D02*
X-3926940Y+3917595D01*
X-3886300Y+3917595D02*
X-3855820Y+3917595D01*
X-3769460Y+3917595D02*
X-3738980Y+3917595D01*
X-3698340Y+3917595D02*
X-3672940Y+3917595D01*
X-3591660Y+3917595D02*
X-3566260Y+3917595D01*
X-3515460Y+3917595D02*
X-3490060Y+3917595D01*
X-3332580Y+3917595D02*
X-3271620Y+3917595D01*
X-3215740Y+3917595D02*
X-3185260Y+3917595D01*
X-3129380Y+3917595D02*
X-3103980Y+3917595D01*
X-2921100Y+3917595D02*
X-2814420Y+3917595D01*
X-2687420Y+3917595D02*
X-2626460Y+3917595D01*
X-2575660Y+3917595D02*
X-2550260Y+3917595D01*
X-2453740Y+3917595D02*
X-2428340Y+3917595D01*
X-2402940Y+3917595D02*
X-2367380Y+3917595D01*
X-2220060Y+3917595D02*
X-2159100Y+3917595D01*
X-2108300Y+3917595D02*
X-2082900Y+3917595D01*
X-4241900Y+3922675D02*
X-4135220Y+3922675D01*
X-4059020Y+3922675D02*
X-4033620Y+3922675D01*
X-3952340Y+3922675D02*
X-3926940Y+3922675D01*
X-3881220Y+3922675D02*
X-3855820Y+3922675D01*
X-3769460Y+3922675D02*
X-3744060Y+3922675D01*
X-3698340Y+3922675D02*
X-3672940Y+3922675D01*
X-3591660Y+3922675D02*
X-3566260Y+3922675D01*
X-3515460Y+3922675D02*
X-3490060Y+3922675D01*
X-3297020Y+3922675D02*
X-3271620Y+3922675D01*
X-3215740Y+3922675D02*
X-3190340Y+3922675D01*
X-3129380Y+3922675D02*
X-3103980Y+3922675D01*
X-2931260Y+3922675D02*
X-2824580Y+3922675D01*
X-2651860Y+3922675D02*
X-2626460Y+3922675D01*
X-2575660Y+3922675D02*
X-2550260Y+3922675D01*
X-2453740Y+3922675D02*
X-2428340Y+3922675D01*
X-2397860Y+3922675D02*
X-2362300Y+3922675D01*
X-2184500Y+3922675D02*
X-2159100Y+3922675D01*
X-2108300Y+3922675D02*
X-2082900Y+3922675D01*
X-4246980Y+3927755D02*
X-4150460Y+3927755D01*
X-4059020Y+3927755D02*
X-4033620Y+3927755D01*
X-3952340Y+3927755D02*
X-3926940Y+3927755D01*
X-3881220Y+3927755D02*
X-3855820Y+3927755D01*
X-3769460Y+3927755D02*
X-3744060Y+3927755D01*
X-3698340Y+3927755D02*
X-3672940Y+3927755D01*
X-3591660Y+3927755D02*
X-3566260Y+3927755D01*
X-3515460Y+3927755D02*
X-3490060Y+3927755D01*
X-3297020Y+3927755D02*
X-3271620Y+3927755D01*
X-3220820Y+3927755D02*
X-3190340Y+3927755D01*
X-3129380Y+3927755D02*
X-3098900Y+3927755D01*
X-2936340Y+3927755D02*
X-2839820Y+3927755D01*
X-2651860Y+3927755D02*
X-2626460Y+3927755D01*
X-2575660Y+3927755D02*
X-2550260Y+3927755D01*
X-2453740Y+3927755D02*
X-2428340Y+3927755D01*
X-2392780Y+3927755D02*
X-2357220Y+3927755D01*
X-2184500Y+3927755D02*
X-2159100Y+3927755D01*
X-2108300Y+3927755D02*
X-2082900Y+3927755D01*
X-4252060Y+3932835D02*
X-4180940Y+3932835D01*
X-4059020Y+3932835D02*
X-4033620Y+3932835D01*
X-3957420Y+3932835D02*
X-3926940Y+3932835D01*
X-3881220Y+3932835D02*
X-3850740Y+3932835D01*
X-3774540Y+3932835D02*
X-3744060Y+3932835D01*
X-3698340Y+3932835D02*
X-3672940Y+3932835D01*
X-3591660Y+3932835D02*
X-3566260Y+3932835D01*
X-3515460Y+3932835D02*
X-3479900Y+3932835D01*
X-3297020Y+3932835D02*
X-3271620Y+3932835D01*
X-3220820Y+3932835D02*
X-3195420Y+3932835D01*
X-3124300Y+3932835D02*
X-3098900Y+3932835D01*
X-2941420Y+3932835D02*
X-2870300Y+3932835D01*
X-2651860Y+3932835D02*
X-2626460Y+3932835D01*
X-2575660Y+3932835D02*
X-2540100Y+3932835D01*
X-2453740Y+3932835D02*
X-2428340Y+3932835D01*
X-2387700Y+3932835D02*
X-2352140Y+3932835D01*
X-2184500Y+3932835D02*
X-2159100Y+3932835D01*
X-2108300Y+3932835D02*
X-2072740Y+3932835D01*
X-4257140Y+3937915D02*
X-4206340Y+3937915D01*
X-4059020Y+3937915D02*
X-4023460Y+3937915D01*
X-3957420Y+3937915D02*
X-3926940Y+3937915D01*
X-3876140Y+3937915D02*
X-3845660Y+3937915D01*
X-3779620Y+3937915D02*
X-3749140Y+3937915D01*
X-3698340Y+3937915D02*
X-3672940Y+3937915D01*
X-3591660Y+3937915D02*
X-3566260Y+3937915D01*
X-3515460Y+3937915D02*
X-3474820Y+3937915D01*
X-3302100Y+3937915D02*
X-3271620Y+3937915D01*
X-3220820Y+3937915D02*
X-3195420Y+3937915D01*
X-3124300Y+3937915D02*
X-3098900Y+3937915D01*
X-2946500Y+3937915D02*
X-2895700Y+3937915D01*
X-2656940Y+3937915D02*
X-2626460Y+3937915D01*
X-2575660Y+3937915D02*
X-2535020Y+3937915D01*
X-2453740Y+3937915D02*
X-2428340Y+3937915D01*
X-2382620Y+3937915D02*
X-2347060Y+3937915D01*
X-2189580Y+3937915D02*
X-2159100Y+3937915D01*
X-2108300Y+3937915D02*
X-2067660Y+3937915D01*
X-4257140Y+3942995D02*
X-4216500Y+3942995D01*
X-4059020Y+3942995D02*
X-4013300Y+3942995D01*
X-3962500Y+3942995D02*
X-3932020Y+3942995D01*
X-3876140Y+3942995D02*
X-3840580Y+3942995D01*
X-3784700Y+3942995D02*
X-3749140Y+3942995D01*
X-3698340Y+3942995D02*
X-3672940Y+3942995D01*
X-3591660Y+3942995D02*
X-3566260Y+3942995D01*
X-3515460Y+3942995D02*
X-3459580Y+3942995D01*
X-3429100Y+3942995D02*
X-3418940Y+3942995D01*
X-3388460Y+3942995D02*
X-3378300Y+3942995D01*
X-3307180Y+3942995D02*
X-3276700Y+3942995D01*
X-3225900Y+3942995D02*
X-3195420Y+3942995D01*
X-3124300Y+3942995D02*
X-3093820Y+3942995D01*
X-2946500Y+3942995D02*
X-2905860Y+3942995D01*
X-2743300Y+3942995D02*
X-2733140Y+3942995D01*
X-2662020Y+3942995D02*
X-2631540Y+3942995D01*
X-2575660Y+3942995D02*
X-2519780Y+3942995D01*
X-2489300Y+3942995D02*
X-2479140Y+3942995D01*
X-2453740Y+3942995D02*
X-2428340Y+3942995D01*
X-2377540Y+3942995D02*
X-2341980Y+3942995D01*
X-2275940Y+3942995D02*
X-2265780Y+3942995D01*
X-2194660Y+3942995D02*
X-2164180Y+3942995D01*
X-2108300Y+3942995D02*
X-2052420Y+3942995D01*
X-2021940Y+3942995D02*
X-2011780Y+3942995D01*
X-4257140Y+3948075D02*
X-4226660Y+3948075D01*
X-4059020Y+3948075D02*
X-4003140Y+3948075D01*
X-3967580Y+3948075D02*
X-3932020Y+3948075D01*
X-3871060Y+3948075D02*
X-3830420Y+3948075D01*
X-3794860Y+3948075D02*
X-3754220Y+3948075D01*
X-3698340Y+3948075D02*
X-3672940Y+3948075D01*
X-3591660Y+3948075D02*
X-3566260Y+3948075D01*
X-3515460Y+3948075D02*
X-3418940Y+3948075D01*
X-3388460Y+3948075D02*
X-3363060Y+3948075D01*
X-3317340Y+3948075D02*
X-3276700Y+3948075D01*
X-3225900Y+3948075D02*
X-3200500Y+3948075D01*
X-3119220Y+3948075D02*
X-3093820Y+3948075D01*
X-2946500Y+3948075D02*
X-2916020Y+3948075D01*
X-2743300Y+3948075D02*
X-2717900Y+3948075D01*
X-2672180Y+3948075D02*
X-2631540Y+3948075D01*
X-2575660Y+3948075D02*
X-2479140Y+3948075D01*
X-2453740Y+3948075D02*
X-2428340Y+3948075D01*
X-2372460Y+3948075D02*
X-2336900Y+3948075D01*
X-2275940Y+3948075D02*
X-2250540Y+3948075D01*
X-2204820Y+3948075D02*
X-2164180Y+3948075D01*
X-2108300Y+3948075D02*
X-2011780Y+3948075D01*
X-4262220Y+3953155D02*
X-4226660Y+3953155D01*
X-4059020Y+3953155D02*
X-3937100Y+3953155D01*
X-3865980Y+3953155D02*
X-3759300Y+3953155D01*
X-3698340Y+3953155D02*
X-3672940Y+3953155D01*
X-3591660Y+3953155D02*
X-3566260Y+3953155D01*
X-3515460Y+3953155D02*
X-3490060Y+3953155D01*
X-3484980Y+3953155D02*
X-3418940Y+3953155D01*
X-3388460Y+3953155D02*
X-3281780Y+3953155D01*
X-3230980Y+3953155D02*
X-3200500Y+3953155D01*
X-3119220Y+3953155D02*
X-3088740Y+3953155D01*
X-2951580Y+3953155D02*
X-2916020Y+3953155D01*
X-2743300Y+3953155D02*
X-2636620Y+3953155D01*
X-2575660Y+3953155D02*
X-2550260Y+3953155D01*
X-2545180Y+3953155D02*
X-2479140Y+3953155D01*
X-2453740Y+3953155D02*
X-2428340Y+3953155D01*
X-2367380Y+3953155D02*
X-2331820Y+3953155D01*
X-2275940Y+3953155D02*
X-2169260Y+3953155D01*
X-2108300Y+3953155D02*
X-2082900Y+3953155D01*
X-2077820Y+3953155D02*
X-2011780Y+3953155D01*
X-4262220Y+3958235D02*
X-4231740Y+3958235D01*
X-4059020Y+3958235D02*
X-4033620Y+3958235D01*
X-4028540Y+3958235D02*
X-3937100Y+3958235D01*
X-3860900Y+3958235D02*
X-3764380Y+3958235D01*
X-3698340Y+3958235D02*
X-3672940Y+3958235D01*
X-3591660Y+3958235D02*
X-3566260Y+3958235D01*
X-3515460Y+3958235D02*
X-3490060Y+3958235D01*
X-3474820Y+3958235D02*
X-3418940Y+3958235D01*
X-3388460Y+3958235D02*
X-3281780Y+3958235D01*
X-3230980Y+3958235D02*
X-3205580Y+3958235D01*
X-3114140Y+3958235D02*
X-3088740Y+3958235D01*
X-2951580Y+3958235D02*
X-2921100Y+3958235D01*
X-2743300Y+3958235D02*
X-2636620Y+3958235D01*
X-2575660Y+3958235D02*
X-2550260Y+3958235D01*
X-2535020Y+3958235D02*
X-2479140Y+3958235D01*
X-2453740Y+3958235D02*
X-2428340Y+3958235D01*
X-2362300Y+3958235D02*
X-2326740Y+3958235D01*
X-2275940Y+3958235D02*
X-2169260Y+3958235D01*
X-2108300Y+3958235D02*
X-2082900Y+3958235D01*
X-2067660Y+3958235D02*
X-2011780Y+3958235D01*
X-4262220Y+3963315D02*
X-4231740Y+3963315D01*
X-4059020Y+3963315D02*
X-4033620Y+3963315D01*
X-4018380Y+3963315D02*
X-3942180Y+3963315D01*
X-3855820Y+3963315D02*
X-3769460Y+3963315D01*
X-3698340Y+3963315D02*
X-3672940Y+3963315D01*
X-3591660Y+3963315D02*
X-3566260Y+3963315D01*
X-3515460Y+3963315D02*
X-3490060Y+3963315D01*
X-3469740Y+3963315D02*
X-3418940Y+3963315D01*
X-3388460Y+3963315D02*
X-3286860Y+3963315D01*
X-3230980Y+3963315D02*
X-3205580Y+3963315D01*
X-3114140Y+3963315D02*
X-3088740Y+3963315D01*
X-2951580Y+3963315D02*
X-2921100Y+3963315D01*
X-2743300Y+3963315D02*
X-2641700Y+3963315D01*
X-2575660Y+3963315D02*
X-2550260Y+3963315D01*
X-2529940Y+3963315D02*
X-2479140Y+3963315D01*
X-2453740Y+3963315D02*
X-2428340Y+3963315D01*
X-2357220Y+3963315D02*
X-2321660Y+3963315D01*
X-2275940Y+3963315D02*
X-2174340Y+3963315D01*
X-2108300Y+3963315D02*
X-2082900Y+3963315D01*
X-2062580Y+3963315D02*
X-2011780Y+3963315D01*
X-4262220Y+3968395D02*
X-4231740Y+3968395D01*
X-4059020Y+3968395D02*
X-4033620Y+3968395D01*
X-4013300Y+3968395D02*
X-3947260Y+3968395D01*
X-3845660Y+3968395D02*
X-3779620Y+3968395D01*
X-3698340Y+3968395D02*
X-3672940Y+3968395D01*
X-3591660Y+3968395D02*
X-3566260Y+3968395D01*
X-3515460Y+3968395D02*
X-3490060Y+3968395D01*
X-3454500Y+3968395D02*
X-3418940Y+3968395D01*
X-3388460Y+3968395D02*
X-3297020Y+3968395D01*
X-3236060Y+3968395D02*
X-3205580Y+3968395D01*
X-3114140Y+3968395D02*
X-3083660Y+3968395D01*
X-2951580Y+3968395D02*
X-2921100Y+3968395D01*
X-2743300Y+3968395D02*
X-2651860Y+3968395D01*
X-2575660Y+3968395D02*
X-2550260Y+3968395D01*
X-2514700Y+3968395D02*
X-2479140Y+3968395D01*
X-2453740Y+3968395D02*
X-2428340Y+3968395D01*
X-2352140Y+3968395D02*
X-2316580Y+3968395D01*
X-2275940Y+3968395D02*
X-2184500Y+3968395D01*
X-2108300Y+3968395D02*
X-2082900Y+3968395D01*
X-2047340Y+3968395D02*
X-2011780Y+3968395D01*
X-4262220Y+3973475D02*
X-4231740Y+3973475D01*
X-4059020Y+3973475D02*
X-4033620Y+3973475D01*
X-3998060Y+3973475D02*
X-3962500Y+3973475D01*
X-3835500Y+3973475D02*
X-3789780Y+3973475D01*
X-3368140Y+3973475D02*
X-3312260Y+3973475D01*
X-2951580Y+3973475D02*
X-2921100Y+3973475D01*
X-2722980Y+3973475D02*
X-2667100Y+3973475D01*
X-2453740Y+3973475D02*
X-2428340Y+3973475D01*
X-2255620Y+3973475D02*
X-2199740Y+3973475D01*
X-4262220Y+3978555D02*
X-4231740Y+3978555D01*
X-4059020Y+3978555D02*
X-4033620Y+3978555D01*
X-2951580Y+3978555D02*
X-2921100Y+3978555D01*
X-2453740Y+3978555D02*
X-2428340Y+3978555D01*
X-4257140Y+3983635D02*
X-4226660Y+3983635D01*
X-4114900Y+3983635D02*
X-4109820Y+3983635D01*
X-4059020Y+3983635D02*
X-4033620Y+3983635D01*
X-2946500Y+3983635D02*
X-2916020Y+3983635D01*
X-2804260Y+3983635D02*
X-2799180Y+3983635D01*
X-2453740Y+3983635D02*
X-2428340Y+3983635D01*
X-4257140Y+3988715D02*
X-4221580Y+3988715D01*
X-4125060Y+3988715D02*
X-4109820Y+3988715D01*
X-4059020Y+3988715D02*
X-4033620Y+3988715D01*
X-2946500Y+3988715D02*
X-2910940Y+3988715D01*
X-2814420Y+3988715D02*
X-2799180Y+3988715D01*
X-2453740Y+3988715D02*
X-2428340Y+3988715D01*
X-4257140Y+3993795D02*
X-4216500Y+3993795D01*
X-4135220Y+3993795D02*
X-4109820Y+3993795D01*
X-4059020Y+3993795D02*
X-4033620Y+3993795D01*
X-2946500Y+3993795D02*
X-2905860Y+3993795D01*
X-2824580Y+3993795D02*
X-2799180Y+3993795D01*
X-2453740Y+3993795D02*
X-2428340Y+3993795D01*
X-4252060Y+3998875D02*
X-4201260Y+3998875D01*
X-4155540Y+3998875D02*
X-4109820Y+3998875D01*
X-4059020Y+3998875D02*
X-4033620Y+3998875D01*
X-2941420Y+3998875D02*
X-2890620Y+3998875D01*
X-2844900Y+3998875D02*
X-2799180Y+3998875D01*
X-2453740Y+3998875D02*
X-2428340Y+3998875D01*
X-4246980Y+4003955D02*
X-4109820Y+4003955D01*
X-4059020Y+4003955D02*
X-4033620Y+4003955D01*
X-2936340Y+4003955D02*
X-2799180Y+4003955D01*
X-2453740Y+4003955D02*
X-2428340Y+4003955D01*
X-4241900Y+4009035D02*
X-4109820Y+4009035D01*
X-4059020Y+4009035D02*
X-4033620Y+4009035D01*
X-2931260Y+4009035D02*
X-2799180Y+4009035D01*
X-2453740Y+4009035D02*
X-2428340Y+4009035D01*
X-4231740Y+4014115D02*
X-4114900Y+4014115D01*
X-4059020Y+4014115D02*
X-4033620Y+4014115D01*
X-2921100Y+4014115D02*
X-2804260Y+4014115D01*
X-2453740Y+4014115D02*
X-2428340Y+4014115D01*
X-4221580Y+4019195D02*
X-4130140Y+4019195D01*
X-4059020Y+4019195D02*
X-4033620Y+4019195D01*
X-2910940Y+4019195D02*
X-2819500Y+4019195D01*
X-2453740Y+4019195D02*
X-2428340Y+4019195D01*
X-4206340Y+4024275D02*
X-4150460Y+4024275D01*
X-4059020Y+4024275D02*
X-4033620Y+4024275D01*
X-2895700Y+4024275D02*
X-2839820Y+4024275D01*
X-2453740Y+4024275D02*
X-2428340Y+4024275D01*
X-4059020Y+4029355D02*
X-4033620Y+4029355D01*
X-2453740Y+4029355D02*
X-2428340Y+4029355D01*
X-4059020Y+4034435D02*
X-4033620Y+4034435D01*
X-2453740Y+4034435D02*
X-2428340Y+4034435D01*
M02*
