G04 PROTEUS GERBER X2 FILE*
%TF.GenerationSoftware,Labcenter,Proteus,8.7-SP3-Build25561*%
%TF.CreationDate,2019-03-25T11:13:55+00:00*%
%TF.FileFunction,Soldermask,Top*%
%TF.FilePolarity,Negative*%
%TF.Part,Single*%
%TF.SameCoordinates,{7bf090f1-712e-4c9e-9fb6-0cc4d7933681}*%
%FSLAX45Y45*%
%MOMM*%
G01*
%TA.AperFunction,Material*%
%ADD27C,2.794000*%
%TA.AperFunction,Material*%
%ADD28C,3.302000*%
%AMPPAD021*
4,1,36,
-1.143000,-0.292100,
-1.143000,0.292100,
-1.134910,0.375200,
-1.111650,0.452040,
-1.074690,0.521140,
-1.025520,0.581020,
-0.965650,0.630190,
-0.896540,0.667150,
-0.819700,0.690410,
-0.736600,0.698500,
0.736600,0.698500,
0.819700,0.690410,
0.896540,0.667150,
0.965650,0.630190,
1.025520,0.581020,
1.074690,0.521140,
1.111650,0.452040,
1.134910,0.375200,
1.143000,0.292100,
1.143000,-0.292100,
1.134910,-0.375200,
1.111650,-0.452040,
1.074690,-0.521140,
1.025520,-0.581020,
0.965650,-0.630190,
0.896540,-0.667150,
0.819700,-0.690410,
0.736600,-0.698500,
-0.736600,-0.698500,
-0.819700,-0.690410,
-0.896540,-0.667150,
-0.965650,-0.630190,
-1.025520,-0.581020,
-1.074690,-0.521140,
-1.111650,-0.452040,
-1.134910,-0.375200,
-1.143000,-0.292100,
0*%
%TA.AperFunction,Material*%
%ADD29PPAD021*%
%TA.AperFunction,Material*%
%ADD72C,2.032000*%
%TA.AperFunction,Material*%
%ADD73C,4.064000*%
%AMPPAD024*
4,1,8,
-0.636800,2.286000,
0.636800,2.286000,
1.016000,1.906800,
1.016000,-1.906800,
0.636800,-2.286000,
-0.636800,-2.286000,
-1.016000,-1.906800,
-1.016000,1.906800,
-0.636800,2.286000,
0*%
%TA.AperFunction,Material*%
%ADD30PPAD024*%
%TA.AperFunction,Material*%
%ADD31C,2.286000*%
%TA.AperFunction,Material*%
%ADD32C,1.560000*%
%TA.AperFunction,Profile*%
%ADD19C,0.203200*%
%TD.AperFunction*%
D27*
X-430000Y+4360000D03*
X-430000Y+3160000D03*
X-830000Y+3760000D03*
X+970000Y+3160000D03*
X+970000Y+4360000D03*
X-430000Y+1950000D03*
X-430000Y+750000D03*
X-830000Y+1350000D03*
X+970000Y+750000D03*
X+970000Y+1950000D03*
X-430000Y-520000D03*
X-430000Y-1720000D03*
X-830000Y-1120000D03*
X+970000Y-1720000D03*
X+970000Y-520000D03*
X-430000Y-2890000D03*
X-430000Y-4090000D03*
X-830000Y-3490000D03*
X+970000Y-4090000D03*
X+970000Y-2890000D03*
D28*
X+1730000Y+3900380D03*
X+1730000Y+3400000D03*
X+1790000Y+1390000D03*
X+1790000Y+889620D03*
X+1780000Y-1280000D03*
X+1780000Y-1780380D03*
X+1830000Y-3610000D03*
X+1830000Y-4110380D03*
D29*
X-70000Y+2783200D03*
X-70000Y+2580000D03*
X-70000Y+2376800D03*
X-50000Y+320000D03*
X-50000Y+116800D03*
X-50000Y-86400D03*
X-20000Y-2066800D03*
X-20000Y-2270000D03*
X-20000Y-2473200D03*
X+50000Y-4490000D03*
X+50000Y-4693200D03*
X+50000Y-4896400D03*
D72*
X-1410000Y+2570000D03*
X-394000Y+2570000D03*
X-1400000Y+120000D03*
X-384000Y+120000D03*
X-1380000Y-2300000D03*
X-364000Y-2300000D03*
X-1380000Y-4690000D03*
X-364000Y-4690000D03*
D27*
X-4198000Y-2120000D03*
X-3690000Y-2120000D03*
D73*
X-3940000Y-3220000D03*
X-2724000Y-4436000D03*
X-3940000Y-4470000D03*
X-2690000Y-3220000D03*
D30*
X-3980197Y+874584D03*
X-3726197Y+874584D03*
X-3472197Y+874584D03*
D72*
X-4480000Y-1150000D03*
X-4226000Y-1150000D03*
X-4554000Y-410000D03*
X-4300000Y-410000D03*
X-3760000Y-20000D03*
X-3760000Y-274000D03*
D31*
X-3430000Y-1298000D03*
X-3430000Y-790000D03*
D29*
X-2960000Y+1132000D03*
X-2960000Y+878000D03*
X-2960000Y+624000D03*
X-2960000Y+370000D03*
X-2960000Y+116000D03*
X-2960000Y-138000D03*
X-2960000Y-392000D03*
X-2960000Y-646000D03*
X-2960000Y-900000D03*
X-2960000Y-1154000D03*
X-2960000Y-1408000D03*
X-2960000Y-1662000D03*
X-2960000Y-1916000D03*
X-2960000Y-2170000D03*
X-2198000Y-2170000D03*
X-2198000Y-1916000D03*
X-2198000Y-1662000D03*
X-2198000Y-1408000D03*
X-2198000Y-1154000D03*
X-2198000Y-900000D03*
X-2198000Y-646000D03*
X-2198000Y-392000D03*
X-2198000Y-138000D03*
X-2198000Y+116000D03*
X-2198000Y+370000D03*
X-2198000Y+624000D03*
X-2198000Y+878000D03*
X-2198000Y+1130000D03*
D32*
X-2276000Y+2790000D03*
X-2530000Y+2790000D03*
X-2784000Y+2790000D03*
D72*
X-3476001Y+1440059D03*
X-2968000Y+2319942D03*
D28*
X-4850695Y+4340315D03*
X-5351075Y+4340315D03*
X-6631075Y+4310315D03*
X-6130695Y+4310315D03*
X-4880000Y-4620380D03*
X-4880000Y-4120000D03*
D19*
X-7620000Y-5080000D02*
X+2540000Y-5080000D01*
X+2540000Y+5080000D01*
X-7620000Y+5080000D01*
X-7620000Y-5080000D01*
M02*
