G04 PROTEUS GERBER X2 FILE*
%TF.GenerationSoftware,Labcenter,Proteus,8.7-SP3-Build25561*%
%TF.CreationDate,2019-03-25T11:13:55+00:00*%
%TF.FileFunction,Copper,L2,Bot*%
%TF.FilePolarity,Positive*%
%TF.Part,Single*%
%TF.SameCoordinates,{7bf090f1-712e-4c9e-9fb6-0cc4d7933681}*%
%FSLAX45Y45*%
%MOMM*%
G01*
%TA.AperFunction,Conductor*%
%ADD70C,3.810000*%
%ADD71C,0.508000*%
%ADD20C,1.270000*%
%ADD21C,3.048000*%
%TA.AperFunction,ComponentPad*%
%ADD10C,2.540000*%
%TA.AperFunction,ComponentPad*%
%ADD11C,3.048000*%
%AMPPAD002*
4,1,36,
-1.143000,-0.292100,
-1.143000,0.292100,
-1.134910,0.375200,
-1.111650,0.452040,
-1.074690,0.521140,
-1.025520,0.581020,
-0.965650,0.630190,
-0.896540,0.667150,
-0.819700,0.690410,
-0.736600,0.698500,
0.736600,0.698500,
0.819700,0.690410,
0.896540,0.667150,
0.965650,0.630190,
1.025520,0.581020,
1.074690,0.521140,
1.111650,0.452040,
1.134910,0.375200,
1.143000,0.292100,
1.143000,-0.292100,
1.134910,-0.375200,
1.111650,-0.452040,
1.074690,-0.521140,
1.025520,-0.581020,
0.965650,-0.630190,
0.896540,-0.667150,
0.819700,-0.690410,
0.736600,-0.698500,
-0.736600,-0.698500,
-0.819700,-0.690410,
-0.896540,-0.667150,
-0.965650,-0.630190,
-1.025520,-0.581020,
-1.074690,-0.521140,
-1.111650,-0.452040,
-1.134910,-0.375200,
-1.143000,-0.292100,
0*%
%TA.AperFunction,ComponentPad*%
%ADD12PPAD002*%
%TA.AperFunction,ComponentPad*%
%ADD13C,1.778000*%
%TA.AperFunction,ComponentPad*%
%ADD14C,3.810000*%
%AMDIL005*
4,1,8,
-0.889000,1.854200,-0.584200,2.159000,0.584200,2.159000,0.889000,1.854200,0.889000,-1.854200,
0.584200,-2.159000,-0.584200,-2.159000,-0.889000,-1.854200,-0.889000,1.854200,
0*%
%TA.AperFunction,ComponentPad*%
%ADD15DIL005*%
%TA.AperFunction,ComponentPad*%
%ADD16C,2.032000*%
%TA.AperFunction,ComponentPad*%
%ADD17C,1.560000*%
%TA.AperFunction,NonMaterial*%
%ADD18C,0.203200*%
%TA.AperFunction,Profile*%
%ADD19C,0.203200*%
%TA.AperFunction,NonConductor*%
%ADD22C,0.063500*%
%TD.AperFunction*%
D70*
X+1730000Y+3900380D02*
X+1781934Y+3952314D01*
X+2235555Y+3952314D01*
X+2235555Y+1835555D01*
X+1790000Y+1390000D01*
X+970000Y+4360000D02*
X+1290380Y+4360000D01*
X+1730000Y+3920380D01*
X+1730000Y+3900380D01*
X-830000Y+3760000D02*
X+1040370Y+3760000D01*
X+1411945Y+3388425D01*
X+1698425Y+3388425D01*
X+1730000Y+3420000D01*
X+1730000Y+3400000D01*
D71*
X+1820853Y-1320853D02*
X+1780000Y-1280000D01*
X+1796075Y-1263926D02*
X+1780000Y-1280000D01*
D70*
X+970000Y-520000D02*
X+1332149Y-520000D01*
X+1796075Y-983926D01*
X+1796075Y-1263926D01*
X+970000Y+1950000D02*
X+1485093Y+1950000D01*
X+1790000Y+1645093D01*
X+1790000Y+1390000D01*
X-830000Y-3490000D02*
X+985564Y-3490000D01*
X+1572990Y-4077426D01*
X+1605944Y-4110380D01*
X+1830000Y-4110380D01*
D71*
X+1780000Y-1280000D02*
X+1812149Y-1280000D01*
X+1790000Y-3570000D02*
X+1830000Y-3610000D01*
X+1796075Y-1263926D02*
X+1812149Y-1280000D01*
X+1820853Y-1288704D01*
X+1820853Y-1320853D01*
D70*
X+970000Y-2890000D02*
X+1563590Y-2890000D01*
X+1764762Y-3091172D01*
X+1764762Y-3544762D01*
X+1790000Y-3570000D01*
D71*
X-50000Y-86400D02*
X-576800Y-86400D01*
X-364000Y-2300000D02*
X-50000Y-2300000D01*
X-20000Y-2270000D01*
X-384000Y+120000D02*
X-53200Y+120000D01*
X-50000Y+116800D01*
X-394000Y+2570000D02*
X-80000Y+2570000D01*
X-70000Y+2580000D01*
X-2198000Y-2170000D02*
X-1787524Y-2580476D01*
X-1787524Y-4665301D01*
X-1404699Y-4665301D01*
X-1380000Y-4690000D01*
X-2724000Y-4436000D02*
X-2441251Y-4436000D01*
X-2022947Y-4017696D01*
X-2022947Y-2647053D01*
X-2250000Y-2420000D01*
X-3390000Y-2420000D01*
X-3690000Y-2120000D01*
X-3940000Y-3220000D02*
X-4198000Y-2962000D01*
X-4198000Y-2120000D01*
X-4480000Y-1838000D01*
X-4480000Y-1150000D01*
X-3690000Y-2120000D02*
X-4226000Y-1584000D01*
X-4226000Y-1150000D01*
X-4226000Y-484000D01*
X-4300000Y-410000D01*
X-4480000Y-1150000D02*
X-4480000Y-484000D01*
X-4554000Y-410000D01*
X-4300000Y-410000D02*
X-3896000Y-410000D01*
X-3760000Y-274000D01*
X-3760000Y-20000D02*
X-3388000Y-392000D01*
X-2960000Y-392000D01*
X-3760000Y-274000D02*
X-3428498Y-605502D01*
X-3000498Y-605502D01*
X-2960000Y-646000D01*
X-2724000Y-4436000D02*
X-2263600Y-4896400D01*
X-593600Y-4896400D01*
X-915524Y-2385524D02*
X-827848Y-2473200D01*
X-3760000Y-20000D02*
X-3472197Y+267803D01*
X-3472197Y+874584D01*
X-3760000Y-274000D02*
X-3932990Y-101010D01*
X-3932990Y+293484D01*
X-3726197Y+500277D01*
X-3726197Y+874584D01*
D70*
X-830000Y+1350000D02*
X+953889Y+1350000D01*
X+1370000Y+933889D01*
X+1370000Y+875462D01*
X+1775842Y+875462D01*
X+1790000Y+889620D01*
D71*
X-20000Y-2066800D02*
X-843200Y-2066800D01*
X-1270000Y-1640000D01*
X-1270000Y-958916D01*
X-831084Y-520000D01*
X-430000Y-520000D01*
X-430000Y+1950000D02*
X-850000Y+1950000D01*
X-859795Y+1959795D01*
X-1270000Y+1549590D01*
X-1270000Y+735641D01*
X-930981Y+396622D01*
X-126622Y+396622D01*
X-50000Y+320000D01*
D70*
X+1790000Y+1390000D02*
X+2270000Y+1257381D01*
X+2270000Y-320362D01*
X+2199205Y-860795D01*
X+1796075Y-1263926D01*
D71*
X+50000Y-4693200D02*
X-360800Y-4693200D01*
X-364000Y-4690000D01*
X+50000Y-4896400D02*
X+20000Y-4896400D01*
X-401253Y-4896400D01*
X-401317Y-4896400D01*
X-827848Y-2473200D02*
X-553200Y-2473200D01*
X-413200Y-2473200D01*
X-243200Y-2473200D01*
X-116400Y-2473200D01*
X-86400Y-2473200D01*
X-46400Y-2473200D01*
X-20000Y-2473200D01*
X+50000Y-4490000D02*
X-380093Y-4490000D01*
X-1245608Y-3624485D01*
X-1245608Y-3352717D01*
X-782891Y-2890000D01*
X-430000Y-2890000D01*
X-70000Y+2783200D02*
X-421532Y+2783200D01*
X-1215802Y+3577470D01*
X-1215802Y+3944383D01*
X-800185Y+4360000D01*
X-430000Y+4360000D01*
X-5351075Y+4340315D02*
X-5391390Y+4380630D01*
D70*
X-5391390Y+4810315D01*
X-6130695Y+4310315D02*
X-5381075Y+4310315D01*
X-5351075Y+4340315D01*
X-6631075Y+4310315D02*
X-6631075Y+3954205D01*
X-6497185Y+3820315D01*
X-5029516Y+3820315D01*
X-4815983Y+4033848D01*
X-4815983Y+4305603D01*
X-4850695Y+4340315D01*
D20*
X-4880000Y-4620380D02*
X-4090380Y-4620380D01*
X-3940000Y-4470000D01*
X-4880000Y-4120000D02*
X-4567613Y-3807613D01*
X-3073359Y-3807613D01*
X-2996106Y-3730360D01*
X-2996106Y-3526106D01*
X-2690000Y-3220000D01*
D71*
X-70000Y+2376800D02*
X-716400Y+2376800D01*
X-1390000Y+1703200D01*
X-1390000Y+703201D01*
X-605199Y-81600D01*
X-605200Y-81600D01*
X-590000Y-86400D01*
X-576800Y-80000D01*
X-576800Y-86400D01*
X-590000Y-86400D01*
X-736401Y-86400D01*
X-1390000Y-739999D01*
X-1390000Y-1911048D01*
X-915524Y-2385524D01*
X-430000Y-4090000D02*
X-615350Y-4090000D01*
X-1130000Y-3575350D01*
X-1130000Y-3404697D01*
X-823543Y-3098240D01*
X-333425Y-3098240D01*
X+280000Y-2484815D01*
X+280000Y-2050000D01*
X-50000Y-1720000D01*
X-430000Y-1720000D01*
X-2960000Y-646000D02*
X-2620000Y-650000D01*
X-2198000Y-392000D01*
X-2122000Y-392000D01*
X-1902612Y-172612D01*
X-1902612Y+1464018D01*
X-2530000Y+2091406D01*
X-2530000Y+2790000D01*
X-2198000Y-1662000D02*
X-1912000Y-1662000D01*
X-1520000Y-1270000D01*
X-1520000Y+0D01*
X-1400000Y+120000D01*
X-2198000Y-1408000D02*
X-1928000Y-1408000D01*
X-1640000Y-1120000D01*
X-1640000Y+2340000D01*
X-1410000Y+2570000D01*
X-2276000Y+2790000D02*
X-2276000Y+2035999D01*
X-1780000Y+1539999D01*
X-1780000Y-960000D01*
X-1974000Y-1154000D01*
X-2198000Y-1154000D01*
X-3430000Y-1298000D02*
X-3286774Y-1154774D01*
X-3074300Y-1154774D01*
X-2960000Y-1154000D01*
X-1380000Y-2300000D02*
X-1759548Y-1920452D01*
X-2083700Y-1920452D01*
X-2198000Y-1916000D01*
X-3472197Y+874584D02*
X-3472197Y+1436255D01*
X-3476001Y+1440059D01*
X-430000Y+750000D02*
X-631043Y+750000D01*
X-1103572Y+1222529D01*
X-1103572Y+1465471D01*
X-834202Y+1734841D01*
X-327553Y+1734841D01*
X+142793Y+2205187D01*
X+142793Y+2872260D01*
X-144947Y+3160000D01*
X-430000Y+3160000D01*
X-2968000Y+2319942D02*
X-2784000Y+2503942D01*
X-2784000Y+2790000D01*
X-3476001Y+1440059D02*
X-3476001Y+2513999D01*
X-3460000Y+2530000D01*
X-2922027Y+3067973D01*
X-2801520Y+3067973D01*
X-1632027Y+3067973D01*
X-1540000Y+3160000D01*
X-1322447Y+3377553D01*
X-1322447Y+4100006D01*
X-1257200Y+4165253D01*
X-854252Y+4568201D01*
X-338201Y+4568201D01*
X-220880Y+4450880D01*
X-220880Y+4245164D01*
X-434240Y+4031804D01*
X-958094Y+4031804D01*
X-1104085Y+3885813D01*
X-1104085Y+3636218D01*
X-627867Y+3160000D01*
X-430000Y+3160000D01*
X-3430000Y-790000D02*
X-3320000Y-900000D01*
X-2960000Y-900000D01*
X-401317Y-4896400D02*
X-523601Y-4896400D01*
X-1436202Y-3983799D01*
X-1436202Y-2931830D01*
X-977572Y-2473200D01*
X-827848Y-2473200D01*
X-593600Y-4896400D02*
X-523601Y-4896400D01*
D21*
X-5391390Y+4810315D02*
X-5314099Y+4850315D01*
X+490000Y+4850315D01*
X+970000Y+4370315D01*
X+970000Y+4360000D01*
D71*
X-4554000Y-410000D02*
X-4554000Y-191642D01*
X-4130000Y+232358D01*
X-4130000Y+724781D01*
X-3980197Y+874584D01*
X-430000Y+750000D02*
X-71464Y+750000D01*
X+475911Y+202625D01*
X+475911Y+55911D01*
X-210000Y-690000D01*
X-500000Y-810000D01*
X-920000Y-810000D01*
X-1029198Y-880000D01*
X-1112224Y-963026D01*
X-1112224Y-1257776D01*
X-650000Y-1720000D01*
X-430000Y-1720000D01*
D70*
X+1812149Y-1280000D02*
X+2070000Y-1280000D01*
X+2240000Y-1450000D01*
X+2240000Y-2770415D01*
X+1950415Y-3060000D01*
X+1790000Y-3060000D01*
X+1790000Y-3570000D01*
X-830000Y-1120000D02*
X+900000Y-1120000D01*
X+1560000Y-1780000D01*
X+1779620Y-1780000D01*
X+1780000Y-1780380D01*
D10*
X-430000Y+4360000D03*
X-430000Y+3160000D03*
X-830000Y+3760000D03*
X+970000Y+3160000D03*
X+970000Y+4360000D03*
X-430000Y+1950000D03*
X-430000Y+750000D03*
X-830000Y+1350000D03*
X+970000Y+750000D03*
X+970000Y+1950000D03*
X-430000Y-520000D03*
X-430000Y-1720000D03*
X-830000Y-1120000D03*
X+970000Y-1720000D03*
X+970000Y-520000D03*
X-430000Y-2890000D03*
X-430000Y-4090000D03*
X-830000Y-3490000D03*
X+970000Y-4090000D03*
X+970000Y-2890000D03*
D11*
X+1730000Y+3900380D03*
X+1730000Y+3400000D03*
X+1790000Y+1390000D03*
X+1790000Y+889620D03*
X+1780000Y-1280000D03*
X+1780000Y-1780380D03*
X+1830000Y-3610000D03*
X+1830000Y-4110380D03*
D12*
X-70000Y+2783200D03*
X-70000Y+2580000D03*
X-70000Y+2376800D03*
X-50000Y+320000D03*
X-50000Y+116800D03*
X-50000Y-86400D03*
X-20000Y-2066800D03*
X-20000Y-2270000D03*
X-20000Y-2473200D03*
X+50000Y-4490000D03*
X+50000Y-4693200D03*
X+50000Y-4896400D03*
D13*
X-1410000Y+2570000D03*
X-394000Y+2570000D03*
X-1400000Y+120000D03*
X-384000Y+120000D03*
X-1380000Y-2300000D03*
X-364000Y-2300000D03*
X-1380000Y-4690000D03*
X-364000Y-4690000D03*
D10*
X-4198000Y-2120000D03*
X-3690000Y-2120000D03*
D14*
X-3940000Y-3220000D03*
X-2724000Y-4436000D03*
X-3940000Y-4470000D03*
X-2690000Y-3220000D03*
D15*
X-3980197Y+874584D03*
X-3726197Y+874584D03*
X-3472197Y+874584D03*
D13*
X-4480000Y-1150000D03*
X-4226000Y-1150000D03*
X-4554000Y-410000D03*
X-4300000Y-410000D03*
X-3760000Y-20000D03*
X-3760000Y-274000D03*
D16*
X-3430000Y-1298000D03*
X-3430000Y-790000D03*
D12*
X-2960000Y+1132000D03*
X-2960000Y+878000D03*
X-2960000Y+624000D03*
X-2960000Y+370000D03*
X-2960000Y+116000D03*
X-2960000Y-138000D03*
X-2960000Y-392000D03*
X-2960000Y-646000D03*
X-2960000Y-900000D03*
X-2960000Y-1154000D03*
X-2960000Y-1408000D03*
X-2960000Y-1662000D03*
X-2960000Y-1916000D03*
X-2960000Y-2170000D03*
X-2198000Y-2170000D03*
X-2198000Y-1916000D03*
X-2198000Y-1662000D03*
X-2198000Y-1408000D03*
X-2198000Y-1154000D03*
X-2198000Y-900000D03*
X-2198000Y-646000D03*
X-2198000Y-392000D03*
X-2198000Y-138000D03*
X-2198000Y+116000D03*
X-2198000Y+370000D03*
X-2198000Y+624000D03*
X-2198000Y+878000D03*
X-2198000Y+1130000D03*
D17*
X-2276000Y+2790000D03*
X-2530000Y+2790000D03*
X-2784000Y+2790000D03*
D13*
X-3476001Y+1440059D03*
X-2968000Y+2319942D03*
D11*
X-4850695Y+4340315D03*
X-5351075Y+4340315D03*
X-6631075Y+4310315D03*
X-6130695Y+4310315D03*
X-4880000Y-4620380D03*
X-4880000Y-4120000D03*
D18*
X-7620000Y+5080000D02*
X+2540000Y+5080000D01*
X-7620000Y+5080000D02*
X-7493000Y+4953000D01*
X-7620000Y+5080000D02*
X-7493000Y+5207000D01*
X+2540000Y+5080000D02*
X+2413000Y+5207000D01*
X+2540000Y+5080000D02*
X+2413000Y+4953000D01*
X-2508250Y+5080000D02*
X-2508359Y+5082634D01*
X-2509249Y+5087903D01*
X-2511111Y+5093172D01*
X-2514154Y+5098441D01*
X-2518809Y+5103643D01*
X-2524078Y+5107469D01*
X-2529347Y+5109909D01*
X-2534616Y+5111290D01*
X-2539885Y+5111750D01*
X-2540000Y+5111750D01*
X-2571750Y+5080000D02*
X-2571641Y+5082634D01*
X-2570751Y+5087903D01*
X-2568889Y+5093172D01*
X-2565846Y+5098441D01*
X-2561191Y+5103643D01*
X-2555922Y+5107469D01*
X-2550653Y+5109909D01*
X-2545384Y+5111290D01*
X-2540115Y+5111750D01*
X-2540000Y+5111750D01*
X-2571750Y+5080000D02*
X-2571641Y+5077366D01*
X-2570751Y+5072097D01*
X-2568889Y+5066828D01*
X-2565846Y+5061559D01*
X-2561191Y+5056357D01*
X-2555922Y+5052531D01*
X-2550653Y+5050091D01*
X-2545384Y+5048710D01*
X-2540115Y+5048250D01*
X-2540000Y+5048250D01*
X-2508250Y+5080000D02*
X-2508359Y+5077366D01*
X-2509249Y+5072097D01*
X-2511111Y+5066828D01*
X-2514154Y+5061559D01*
X-2518809Y+5056357D01*
X-2524078Y+5052531D01*
X-2529347Y+5050091D01*
X-2534616Y+5048710D01*
X-2539885Y+5048250D01*
X-2540000Y+5048250D01*
X-2879410Y+4878555D02*
X-2847660Y+4909035D01*
X-2847660Y+4817595D01*
X-2784160Y+4832835D02*
X-2784160Y+4893795D01*
X-2768285Y+4909035D01*
X-2704785Y+4909035D01*
X-2688910Y+4893795D01*
X-2688910Y+4832835D01*
X-2704785Y+4817595D01*
X-2768285Y+4817595D01*
X-2784160Y+4832835D01*
X-2784160Y+4817595D02*
X-2688910Y+4909035D01*
X-2625410Y+4878555D02*
X-2593660Y+4909035D01*
X-2593660Y+4817595D01*
X-2482535Y+4832835D02*
X-2466660Y+4832835D01*
X-2466660Y+4817595D01*
X-2482535Y+4817595D01*
X-2482535Y+4832835D01*
X-2307910Y+4893795D02*
X-2323785Y+4909035D01*
X-2371410Y+4909035D01*
X-2387285Y+4893795D01*
X-2387285Y+4832835D01*
X-2371410Y+4817595D01*
X-2323785Y+4817595D01*
X-2307910Y+4832835D01*
X-2307910Y+4848075D01*
X-2323785Y+4863315D01*
X-2387285Y+4863315D01*
X-2276160Y+4817595D02*
X-2276160Y+4878555D01*
X-2276160Y+4863315D02*
X-2260285Y+4878555D01*
X-2228535Y+4848075D01*
X-2196785Y+4878555D01*
X-2180910Y+4863315D01*
X-2180910Y+4817595D01*
X-2149160Y+4817595D02*
X-2149160Y+4878555D01*
X-2149160Y+4863315D02*
X-2133285Y+4878555D01*
X-2101535Y+4848075D01*
X-2069785Y+4878555D01*
X-2053910Y+4863315D01*
X-2053910Y+4817595D01*
X+2540000Y+5080000D02*
X+2540000Y-5080000D01*
X+2540000Y+5080000D02*
X+2413000Y+4953000D01*
X+2540000Y+5080000D02*
X+2667000Y+4953000D01*
X+2540000Y-5080000D02*
X+2667000Y-4953000D01*
X+2540000Y-5080000D02*
X+2413000Y-4953000D01*
X+2571750Y+0D02*
X+2571641Y+2634D01*
X+2570751Y+7903D01*
X+2568889Y+13172D01*
X+2565846Y+18441D01*
X+2561191Y+23643D01*
X+2555922Y+27469D01*
X+2550653Y+29909D01*
X+2545384Y+31290D01*
X+2540115Y+31750D01*
X+2540000Y+31750D01*
X+2508250Y+0D02*
X+2508359Y+2634D01*
X+2509249Y+7903D01*
X+2511111Y+13172D01*
X+2514154Y+18441D01*
X+2518809Y+23643D01*
X+2524078Y+27469D01*
X+2529347Y+29909D01*
X+2534616Y+31290D01*
X+2539885Y+31750D01*
X+2540000Y+31750D01*
X+2508250Y+0D02*
X+2508359Y-2634D01*
X+2509249Y-7903D01*
X+2511111Y-13172D01*
X+2514154Y-18441D01*
X+2518809Y-23643D01*
X+2524078Y-27469D01*
X+2529347Y-29909D01*
X+2534616Y-31290D01*
X+2539885Y-31750D01*
X+2540000Y-31750D01*
X+2571750Y+0D02*
X+2571641Y-2634D01*
X+2570751Y-7903D01*
X+2568889Y-13172D01*
X+2565846Y-18441D01*
X+2561191Y-23643D01*
X+2555922Y-27469D01*
X+2550653Y-29909D01*
X+2545384Y-31290D01*
X+2540115Y-31750D01*
X+2540000Y-31750D01*
X+2351100Y+402750D02*
X+2381580Y+371000D01*
X+2290140Y+371000D01*
X+2305380Y+307500D02*
X+2366340Y+307500D01*
X+2381580Y+291625D01*
X+2381580Y+228125D01*
X+2366340Y+212250D01*
X+2305380Y+212250D01*
X+2290140Y+228125D01*
X+2290140Y+291625D01*
X+2305380Y+307500D01*
X+2290140Y+307500D02*
X+2381580Y+212250D01*
X+2351100Y+148750D02*
X+2381580Y+117000D01*
X+2290140Y+117000D01*
X+2305380Y+5875D02*
X+2305380Y-10000D01*
X+2290140Y-10000D01*
X+2290140Y+5875D01*
X+2305380Y+5875D01*
X+2366340Y-168750D02*
X+2381580Y-152875D01*
X+2381580Y-105250D01*
X+2366340Y-89375D01*
X+2305380Y-89375D01*
X+2290140Y-105250D01*
X+2290140Y-152875D01*
X+2305380Y-168750D01*
X+2320620Y-168750D01*
X+2335860Y-152875D01*
X+2335860Y-89375D01*
X+2290140Y-200500D02*
X+2351100Y-200500D01*
X+2335860Y-200500D02*
X+2351100Y-216375D01*
X+2320620Y-248125D01*
X+2351100Y-279875D01*
X+2335860Y-295750D01*
X+2290140Y-295750D01*
X+2290140Y-327500D02*
X+2351100Y-327500D01*
X+2335860Y-327500D02*
X+2351100Y-343375D01*
X+2320620Y-375125D01*
X+2351100Y-406875D01*
X+2335860Y-422750D01*
X+2290140Y-422750D01*
D19*
X-7620000Y-5080000D02*
X+2540000Y-5080000D01*
X+2540000Y+5080000D01*
X-7620000Y+5080000D01*
X-7620000Y-5080000D01*
D22*
X-6268560Y-1363721D02*
X-6268560Y-1328161D01*
X-6268560Y+769879D02*
X-6268560Y+805439D01*
X-6263480Y-1363721D02*
X-6263480Y-1328161D01*
X-6263480Y+769879D02*
X-6263480Y+805439D01*
X-6258400Y-1363721D02*
X-6258400Y-1328161D01*
X-6258400Y-804921D02*
X-6258400Y-733801D01*
X-6258400Y+769879D02*
X-6258400Y+805439D01*
X-6258400Y+932439D02*
X-6258400Y+1003559D01*
X-6253320Y-1363721D02*
X-6253320Y-1328161D01*
X-6253320Y-830321D02*
X-6253320Y-718561D01*
X-6253320Y+769879D02*
X-6253320Y+805439D01*
X-6253320Y+907039D02*
X-6253320Y+1018799D01*
X-6248240Y-1363721D02*
X-6248240Y-1328161D01*
X-6248240Y-845561D02*
X-6248240Y-703321D01*
X-6248240Y+769879D02*
X-6248240Y+805439D01*
X-6248240Y+891799D02*
X-6248240Y+1034039D01*
X-6243160Y-1363721D02*
X-6243160Y-1328161D01*
X-6243160Y-860801D02*
X-6243160Y-693161D01*
X-6243160Y+769879D02*
X-6243160Y+805439D01*
X-6243160Y+876559D02*
X-6243160Y+1044199D01*
X-6238080Y-1363721D02*
X-6238080Y-1328161D01*
X-6238080Y-865881D02*
X-6238080Y-688081D01*
X-6238080Y+769879D02*
X-6238080Y+805439D01*
X-6238080Y+871479D02*
X-6238080Y+1049279D01*
X-6233000Y-1363721D02*
X-6233000Y-1328161D01*
X-6233000Y-865881D02*
X-6233000Y-683001D01*
X-6233000Y+769879D02*
X-6233000Y+805439D01*
X-6233000Y+871479D02*
X-6233000Y+1054359D01*
X-6227920Y-1363721D02*
X-6227920Y-1328161D01*
X-6227920Y-865881D02*
X-6227920Y-794761D01*
X-6227920Y-738881D02*
X-6227920Y-677921D01*
X-6227920Y+769879D02*
X-6227920Y+805439D01*
X-6227920Y+871479D02*
X-6227920Y+942599D01*
X-6227920Y+998479D02*
X-6227920Y+1059439D01*
X-6222840Y-1363721D02*
X-6222840Y-1328161D01*
X-6222840Y-865881D02*
X-6222840Y-815081D01*
X-6222840Y-723641D02*
X-6222840Y-672841D01*
X-6222840Y+769879D02*
X-6222840Y+805439D01*
X-6222840Y+871479D02*
X-6222840Y+922279D01*
X-6222840Y+1013719D02*
X-6222840Y+1064519D01*
X-6217760Y-1363721D02*
X-6217760Y-1328161D01*
X-6217760Y-865881D02*
X-6217760Y-825241D01*
X-6217760Y-718561D02*
X-6217760Y-667761D01*
X-6217760Y+769879D02*
X-6217760Y+805439D01*
X-6217760Y+871479D02*
X-6217760Y+912119D01*
X-6217760Y+1018799D02*
X-6217760Y+1069599D01*
X-6212680Y-1363721D02*
X-6212680Y-1328161D01*
X-6212680Y-865881D02*
X-6212680Y-835401D01*
X-6212680Y-708401D02*
X-6212680Y-662681D01*
X-6212680Y+769879D02*
X-6212680Y+805439D01*
X-6212680Y+871479D02*
X-6212680Y+901959D01*
X-6212680Y+1028959D02*
X-6212680Y+1074679D01*
X-6207600Y-1363721D02*
X-6207600Y-1328161D01*
X-6207600Y-865881D02*
X-6207600Y-845561D01*
X-6207600Y-708401D02*
X-6207600Y-662681D01*
X-6207600Y+769879D02*
X-6207600Y+805439D01*
X-6207600Y+871479D02*
X-6207600Y+891799D01*
X-6207600Y+1028959D02*
X-6207600Y+1074679D01*
X-6202520Y-1363721D02*
X-6202520Y-1328161D01*
X-6202520Y-865881D02*
X-6202520Y-855721D01*
X-6202520Y-703321D02*
X-6202520Y-662681D01*
X-6202520Y+769879D02*
X-6202520Y+805439D01*
X-6202520Y+871479D02*
X-6202520Y+881639D01*
X-6202520Y+1034039D02*
X-6202520Y+1074679D01*
X-6197440Y-1363721D02*
X-6197440Y-1328161D01*
X-6197440Y-865881D02*
X-6197440Y-860801D01*
X-6197440Y-698241D02*
X-6197440Y-657601D01*
X-6197440Y+769879D02*
X-6197440Y+805439D01*
X-6197440Y+871479D02*
X-6197440Y+876559D01*
X-6197440Y+1039119D02*
X-6197440Y+1079759D01*
X-6192360Y-1363721D02*
X-6192360Y-1328161D01*
X-6192360Y-698241D02*
X-6192360Y-657601D01*
X-6192360Y+769879D02*
X-6192360Y+805439D01*
X-6192360Y+1039119D02*
X-6192360Y+1079759D01*
X-6187280Y-1663441D02*
X-6187280Y-1597401D01*
X-6187280Y-1363721D02*
X-6187280Y-1328161D01*
X-6187280Y-1038601D02*
X-6187280Y-972561D01*
X-6187280Y-698241D02*
X-6187280Y-657601D01*
X-6187280Y-180081D02*
X-6187280Y-114041D01*
X-6187280Y+454919D02*
X-6187280Y+505719D01*
X-6187280Y+678439D02*
X-6187280Y+724159D01*
X-6187280Y+769879D02*
X-6187280Y+805439D01*
X-6187280Y+1039119D02*
X-6187280Y+1079759D01*
X-6182200Y-1917441D02*
X-6182200Y-1871721D01*
X-6182200Y-1826001D02*
X-6182200Y-1790441D01*
X-6182200Y-1678681D02*
X-6182200Y-1572001D01*
X-6182200Y-1511041D02*
X-6182200Y-1465321D01*
X-6182200Y-1363721D02*
X-6182200Y-1328161D01*
X-6182200Y-1292601D02*
X-6182200Y-1246881D01*
X-6182200Y-1201161D02*
X-6182200Y-1165601D01*
X-6182200Y-1053841D02*
X-6182200Y-947161D01*
X-6182200Y-698241D02*
X-6182200Y-657601D01*
X-6182200Y-484881D02*
X-6182200Y-444241D01*
X-6182200Y-317241D02*
X-6182200Y-276601D01*
X-6182200Y-195321D02*
X-6182200Y-88641D01*
X-6182200Y-42921D02*
X-6182200Y+2799D01*
X-6182200Y+48519D02*
X-6182200Y+84079D01*
X-6182200Y+155199D02*
X-6182200Y+190759D01*
X-6182200Y+292359D02*
X-6182200Y+327919D01*
X-6182200Y+439679D02*
X-6182200Y+520959D01*
X-6182200Y+668279D02*
X-6182200Y+734319D01*
X-6182200Y+769879D02*
X-6182200Y+805439D01*
X-6182200Y+1039119D02*
X-6182200Y+1079759D01*
X-6177120Y-1917441D02*
X-6177120Y-1861561D01*
X-6177120Y-1826001D02*
X-6177120Y-1790441D01*
X-6177120Y-1688841D02*
X-6177120Y-1561841D01*
X-6177120Y-1505961D02*
X-6177120Y-1460241D01*
X-6177120Y-1363721D02*
X-6177120Y-1328161D01*
X-6177120Y-1292601D02*
X-6177120Y-1236721D01*
X-6177120Y-1201161D02*
X-6177120Y-1165601D01*
X-6177120Y-1064001D02*
X-6177120Y-937001D01*
X-6177120Y-698241D02*
X-6177120Y-657601D01*
X-6177120Y-479801D02*
X-6177120Y-444241D01*
X-6177120Y-317241D02*
X-6177120Y-281681D01*
X-6177120Y-205481D02*
X-6177120Y-78481D01*
X-6177120Y-42921D02*
X-6177120Y+12959D01*
X-6177120Y+48519D02*
X-6177120Y+84079D01*
X-6177120Y+155199D02*
X-6177120Y+190759D01*
X-6177120Y+292359D02*
X-6177120Y+327919D01*
X-6177120Y+429519D02*
X-6177120Y+531119D01*
X-6177120Y+658119D02*
X-6177120Y+744479D01*
X-6177120Y+769879D02*
X-6177120Y+805439D01*
X-6177120Y+1039119D02*
X-6177120Y+1079759D01*
X-6172040Y-1917441D02*
X-6172040Y-1851401D01*
X-6172040Y-1826001D02*
X-6172040Y-1790441D01*
X-6172040Y-1699001D02*
X-6172040Y-1561841D01*
X-6172040Y-1500881D02*
X-6172040Y-1455161D01*
X-6172040Y-1363721D02*
X-6172040Y-1328161D01*
X-6172040Y-1292601D02*
X-6172040Y-1226561D01*
X-6172040Y-1201161D02*
X-6172040Y-1165601D01*
X-6172040Y-1074161D02*
X-6172040Y-937001D01*
X-6172040Y-698241D02*
X-6172040Y-657601D01*
X-6172040Y-479801D02*
X-6172040Y-439161D01*
X-6172040Y-322321D02*
X-6172040Y-281681D01*
X-6172040Y-215641D02*
X-6172040Y-78481D01*
X-6172040Y-42921D02*
X-6172040Y+23119D01*
X-6172040Y+48519D02*
X-6172040Y+84079D01*
X-6172040Y+155199D02*
X-6172040Y+190759D01*
X-6172040Y+292359D02*
X-6172040Y+327919D01*
X-6172040Y+424439D02*
X-6172040Y+536199D01*
X-6172040Y+653039D02*
X-6172040Y+754639D01*
X-6172040Y+769879D02*
X-6172040Y+805439D01*
X-6172040Y+1039119D02*
X-6172040Y+1079759D01*
X-6166960Y-1917441D02*
X-6166960Y-1841241D01*
X-6166960Y-1826001D02*
X-6166960Y-1790441D01*
X-6166960Y-1704081D02*
X-6166960Y-1561841D01*
X-6166960Y-1495801D02*
X-6166960Y-1450081D01*
X-6166960Y-1363721D02*
X-6166960Y-1328161D01*
X-6166960Y-1292601D02*
X-6166960Y-1216401D01*
X-6166960Y-1201161D02*
X-6166960Y-1165601D01*
X-6166960Y-1079241D02*
X-6166960Y-937001D01*
X-6166960Y-703321D02*
X-6166960Y-657601D01*
X-6166960Y-479801D02*
X-6166960Y-439161D01*
X-6166960Y-322321D02*
X-6166960Y-281681D01*
X-6166960Y-220721D02*
X-6166960Y-78481D01*
X-6166960Y-42921D02*
X-6166960Y+33279D01*
X-6166960Y+48519D02*
X-6166960Y+84079D01*
X-6166960Y+155199D02*
X-6166960Y+190759D01*
X-6166960Y+292359D02*
X-6166960Y+327919D01*
X-6166960Y+414279D02*
X-6166960Y+546359D01*
X-6166960Y+647959D02*
X-6166960Y+764799D01*
X-6166960Y+769879D02*
X-6166960Y+805439D01*
X-6166960Y+1034039D02*
X-6166960Y+1079759D01*
X-6161880Y-1917441D02*
X-6161880Y-1836161D01*
X-6161880Y-1826001D02*
X-6161880Y-1790441D01*
X-6161880Y-1709161D02*
X-6161880Y-1561841D01*
X-6161880Y-1490721D02*
X-6161880Y-1445001D01*
X-6161880Y-1363721D02*
X-6161880Y-1328161D01*
X-6161880Y-1292601D02*
X-6161880Y-1211321D01*
X-6161880Y-1201161D02*
X-6161880Y-1165601D01*
X-6161880Y-1084321D02*
X-6161880Y-937001D01*
X-6161880Y-703321D02*
X-6161880Y-657601D01*
X-6161880Y-474721D02*
X-6161880Y-439161D01*
X-6161880Y-322321D02*
X-6161880Y-286761D01*
X-6161880Y-225801D02*
X-6161880Y-78481D01*
X-6161880Y-42921D02*
X-6161880Y+38359D01*
X-6161880Y+48519D02*
X-6161880Y+84079D01*
X-6161880Y+155199D02*
X-6161880Y+190759D01*
X-6161880Y+292359D02*
X-6161880Y+327919D01*
X-6161880Y+409199D02*
X-6161880Y+551439D01*
X-6161880Y+642879D02*
X-6161880Y+805439D01*
X-6161880Y+1034039D02*
X-6161880Y+1079759D01*
X-6156800Y-1917441D02*
X-6156800Y-1831081D01*
X-6156800Y-1826001D02*
X-6156800Y-1790441D01*
X-6156800Y-1709161D02*
X-6156800Y-1653281D01*
X-6156800Y-1602481D02*
X-6156800Y-1561841D01*
X-6156800Y-1485641D02*
X-6156800Y-1439921D01*
X-6156800Y-1363721D02*
X-6156800Y-1328161D01*
X-6156800Y-1292601D02*
X-6156800Y-1206241D01*
X-6156800Y-1201161D02*
X-6156800Y-1165601D01*
X-6156800Y-1084321D02*
X-6156800Y-1028441D01*
X-6156800Y-977641D02*
X-6156800Y-937001D01*
X-6156800Y-708401D02*
X-6156800Y-662681D01*
X-6156800Y-474721D02*
X-6156800Y-434081D01*
X-6156800Y-327401D02*
X-6156800Y-286761D01*
X-6156800Y-225801D02*
X-6156800Y-169921D01*
X-6156800Y-119121D02*
X-6156800Y-78481D01*
X-6156800Y-42921D02*
X-6156800Y+43439D01*
X-6156800Y+48519D02*
X-6156800Y+84079D01*
X-6156800Y+155199D02*
X-6156800Y+190759D01*
X-6156800Y+292359D02*
X-6156800Y+327919D01*
X-6156800Y+409199D02*
X-6156800Y+459999D01*
X-6156800Y+500639D02*
X-6156800Y+551439D01*
X-6156800Y+642879D02*
X-6156800Y+693679D01*
X-6156800Y+729239D02*
X-6156800Y+805439D01*
X-6156800Y+1028959D02*
X-6156800Y+1074679D01*
X-6151720Y-1917441D02*
X-6151720Y-1790441D01*
X-6151720Y-1714241D02*
X-6151720Y-1668521D01*
X-6151720Y-1587241D02*
X-6151720Y-1561841D01*
X-6151720Y-1480561D02*
X-6151720Y-1434841D01*
X-6151720Y-1363721D02*
X-6151720Y-1328161D01*
X-6151720Y-1292601D02*
X-6151720Y-1165601D01*
X-6151720Y-1089401D02*
X-6151720Y-1043681D01*
X-6151720Y-962401D02*
X-6151720Y-937001D01*
X-6151720Y-713481D02*
X-6151720Y-662681D01*
X-6151720Y-469641D02*
X-6151720Y-434081D01*
X-6151720Y-327401D02*
X-6151720Y-291841D01*
X-6151720Y-230881D02*
X-6151720Y-185161D01*
X-6151720Y-103881D02*
X-6151720Y-78481D01*
X-6151720Y-42921D02*
X-6151720Y+84079D01*
X-6151720Y+155199D02*
X-6151720Y+190759D01*
X-6151720Y+292359D02*
X-6151720Y+327919D01*
X-6151720Y+404119D02*
X-6151720Y+449839D01*
X-6151720Y+510799D02*
X-6151720Y+556519D01*
X-6151720Y+637799D02*
X-6151720Y+683519D01*
X-6151720Y+739399D02*
X-6151720Y+805439D01*
X-6151720Y+1023879D02*
X-6151720Y+1074679D01*
X-6146640Y-1917441D02*
X-6146640Y-1907281D01*
X-6146640Y-1866641D02*
X-6146640Y-1790441D01*
X-6146640Y-1714241D02*
X-6146640Y-1673601D01*
X-6146640Y-1572001D02*
X-6146640Y-1561841D01*
X-6146640Y-1475481D02*
X-6146640Y-1429761D01*
X-6146640Y-1363721D02*
X-6146640Y-1328161D01*
X-6146640Y-1292601D02*
X-6146640Y-1282441D01*
X-6146640Y-1241801D02*
X-6146640Y-1165601D01*
X-6146640Y-1089401D02*
X-6146640Y-1048761D01*
X-6146640Y-947161D02*
X-6146640Y-937001D01*
X-6146640Y-723641D02*
X-6146640Y-662681D01*
X-6146640Y-469641D02*
X-6146640Y-429001D01*
X-6146640Y-332481D02*
X-6146640Y-291841D01*
X-6146640Y-230881D02*
X-6146640Y-190241D01*
X-6146640Y-88641D02*
X-6146640Y-78481D01*
X-6146640Y-42921D02*
X-6146640Y-32761D01*
X-6146640Y+7879D02*
X-6146640Y+84079D01*
X-6146640Y+155199D02*
X-6146640Y+190759D01*
X-6146640Y+292359D02*
X-6146640Y+327919D01*
X-6146640Y+399039D02*
X-6146640Y+439679D01*
X-6146640Y+520959D02*
X-6146640Y+561599D01*
X-6146640Y+637799D02*
X-6146640Y+678439D01*
X-6146640Y+749559D02*
X-6146640Y+805439D01*
X-6146640Y+1013719D02*
X-6146640Y+1074679D01*
X-6141560Y-1851401D02*
X-6141560Y-1790441D01*
X-6141560Y-1714241D02*
X-6141560Y-1678681D01*
X-6141560Y-1470401D02*
X-6141560Y-1424681D01*
X-6141560Y-1363721D02*
X-6141560Y-1328161D01*
X-6141560Y-1226561D02*
X-6141560Y-1165601D01*
X-6141560Y-1089401D02*
X-6141560Y-1053841D01*
X-6141560Y-743961D02*
X-6141560Y-667761D01*
X-6141560Y-464561D02*
X-6141560Y-429001D01*
X-6141560Y-332481D02*
X-6141560Y-296921D01*
X-6141560Y-230881D02*
X-6141560Y-195321D01*
X-6141560Y+23119D02*
X-6141560Y+84079D01*
X-6141560Y+155199D02*
X-6141560Y+190759D01*
X-6141560Y+292359D02*
X-6141560Y+327919D01*
X-6141560Y+399039D02*
X-6141560Y+434599D01*
X-6141560Y+526039D02*
X-6141560Y+561599D01*
X-6141560Y+637799D02*
X-6141560Y+673359D01*
X-6141560Y+759719D02*
X-6141560Y+805439D01*
X-6141560Y+993399D02*
X-6141560Y+1069599D01*
X-6136480Y-1846321D02*
X-6136480Y-1790441D01*
X-6136480Y-1719321D02*
X-6136480Y-1678681D01*
X-6136480Y-1465321D02*
X-6136480Y-1419601D01*
X-6136480Y-1363721D02*
X-6136480Y-1328161D01*
X-6136480Y-1221481D02*
X-6136480Y-1165601D01*
X-6136480Y-1094481D02*
X-6136480Y-1053841D01*
X-6136480Y-769361D02*
X-6136480Y-672841D01*
X-6136480Y-464561D02*
X-6136480Y-429001D01*
X-6136480Y-332481D02*
X-6136480Y-296921D01*
X-6136480Y-235961D02*
X-6136480Y-195321D01*
X-6136480Y+28199D02*
X-6136480Y+84079D01*
X-6136480Y+155199D02*
X-6136480Y+190759D01*
X-6136480Y+292359D02*
X-6136480Y+327919D01*
X-6136480Y+393959D02*
X-6136480Y+434599D01*
X-6136480Y+526039D02*
X-6136480Y+566679D01*
X-6136480Y+632719D02*
X-6136480Y+673359D01*
X-6136480Y+764799D02*
X-6136480Y+805439D01*
X-6136480Y+967999D02*
X-6136480Y+1064519D01*
X-6131400Y-1836161D02*
X-6131400Y-1790441D01*
X-6131400Y-1719321D02*
X-6131400Y-1683761D01*
X-6131400Y-1460241D02*
X-6131400Y-1414521D01*
X-6131400Y-1363721D02*
X-6131400Y-1328161D01*
X-6131400Y-1211321D02*
X-6131400Y-1165601D01*
X-6131400Y-1094481D02*
X-6131400Y-1058921D01*
X-6131400Y-794761D02*
X-6131400Y-677921D01*
X-6131400Y-464561D02*
X-6131400Y-423921D01*
X-6131400Y-337561D02*
X-6131400Y-296921D01*
X-6131400Y-235961D02*
X-6131400Y-200401D01*
X-6131400Y+38359D02*
X-6131400Y+84079D01*
X-6131400Y+155199D02*
X-6131400Y+190759D01*
X-6131400Y+292359D02*
X-6131400Y+327919D01*
X-6131400Y+393959D02*
X-6131400Y+429519D01*
X-6131400Y+531119D02*
X-6131400Y+566679D01*
X-6131400Y+632719D02*
X-6131400Y+673359D01*
X-6131400Y+769879D02*
X-6131400Y+805439D01*
X-6131400Y+942599D02*
X-6131400Y+1059439D01*
X-6126320Y-1831081D02*
X-6126320Y-1790441D01*
X-6126320Y-1719321D02*
X-6126320Y-1683761D01*
X-6126320Y-1455161D02*
X-6126320Y-1409441D01*
X-6126320Y-1363721D02*
X-6126320Y-1328161D01*
X-6126320Y-1206241D02*
X-6126320Y-1165601D01*
X-6126320Y-1094481D02*
X-6126320Y-1058921D01*
X-6126320Y-820161D02*
X-6126320Y-683001D01*
X-6126320Y-459481D02*
X-6126320Y-423921D01*
X-6126320Y-337561D02*
X-6126320Y-302001D01*
X-6126320Y-235961D02*
X-6126320Y-200401D01*
X-6126320Y+43439D02*
X-6126320Y+84079D01*
X-6126320Y+155199D02*
X-6126320Y+190759D01*
X-6126320Y+292359D02*
X-6126320Y+327919D01*
X-6126320Y+388879D02*
X-6126320Y+429519D01*
X-6126320Y+531119D02*
X-6126320Y+571759D01*
X-6126320Y+632719D02*
X-6126320Y+668279D01*
X-6126320Y+769879D02*
X-6126320Y+805439D01*
X-6126320Y+917199D02*
X-6126320Y+1054359D01*
X-6121240Y-1826001D02*
X-6121240Y-1790441D01*
X-6121240Y-1719321D02*
X-6121240Y-1683761D01*
X-6121240Y-1450081D02*
X-6121240Y-1404361D01*
X-6121240Y-1363721D02*
X-6121240Y-1328161D01*
X-6121240Y-1201161D02*
X-6121240Y-1165601D01*
X-6121240Y-1094481D02*
X-6121240Y-1058921D01*
X-6121240Y-830321D02*
X-6121240Y-688081D01*
X-6121240Y-459481D02*
X-6121240Y-423921D01*
X-6121240Y-342641D02*
X-6121240Y-302001D01*
X-6121240Y-235961D02*
X-6121240Y-200401D01*
X-6121240Y+48519D02*
X-6121240Y+84079D01*
X-6121240Y+155199D02*
X-6121240Y+190759D01*
X-6121240Y+292359D02*
X-6121240Y+327919D01*
X-6121240Y+388879D02*
X-6121240Y+424439D01*
X-6121240Y+536199D02*
X-6121240Y+571759D01*
X-6121240Y+632719D02*
X-6121240Y+668279D01*
X-6121240Y+769879D02*
X-6121240Y+805439D01*
X-6121240Y+907039D02*
X-6121240Y+1049279D01*
X-6116160Y-1826001D02*
X-6116160Y-1790441D01*
X-6116160Y-1719321D02*
X-6116160Y-1683761D01*
X-6116160Y-1445001D02*
X-6116160Y-1399281D01*
X-6116160Y-1363721D02*
X-6116160Y-1328161D01*
X-6116160Y-1201161D02*
X-6116160Y-1165601D01*
X-6116160Y-1094481D02*
X-6116160Y-1058921D01*
X-6116160Y-840481D02*
X-6116160Y-698241D01*
X-6116160Y-454401D02*
X-6116160Y-418841D01*
X-6116160Y-342641D02*
X-6116160Y-307081D01*
X-6116160Y-235961D02*
X-6116160Y-200401D01*
X-6116160Y+48519D02*
X-6116160Y+84079D01*
X-6116160Y+155199D02*
X-6116160Y+190759D01*
X-6116160Y+292359D02*
X-6116160Y+327919D01*
X-6116160Y+388879D02*
X-6116160Y+424439D01*
X-6116160Y+536199D02*
X-6116160Y+571759D01*
X-6116160Y+632719D02*
X-6116160Y+668279D01*
X-6116160Y+769879D02*
X-6116160Y+805439D01*
X-6116160Y+896879D02*
X-6116160Y+1039119D01*
X-6111080Y-1826001D02*
X-6111080Y-1790441D01*
X-6111080Y-1719321D02*
X-6111080Y-1648201D01*
X-6111080Y-1439921D02*
X-6111080Y-1394201D01*
X-6111080Y-1363721D02*
X-6111080Y-1328161D01*
X-6111080Y-1201161D02*
X-6111080Y-1165601D01*
X-6111080Y-1094481D02*
X-6111080Y-1023361D01*
X-6111080Y-850641D02*
X-6111080Y-708401D01*
X-6111080Y-454401D02*
X-6111080Y-418841D01*
X-6111080Y-342641D02*
X-6111080Y-307081D01*
X-6111080Y-235961D02*
X-6111080Y-164841D01*
X-6111080Y+48519D02*
X-6111080Y+84079D01*
X-6111080Y+155199D02*
X-6111080Y+190759D01*
X-6111080Y+292359D02*
X-6111080Y+327919D01*
X-6111080Y+388879D02*
X-6111080Y+424439D01*
X-6111080Y+536199D02*
X-6111080Y+571759D01*
X-6111080Y+632719D02*
X-6111080Y+668279D01*
X-6111080Y+769879D02*
X-6111080Y+805439D01*
X-6111080Y+886719D02*
X-6111080Y+1028959D01*
X-6106000Y-1826001D02*
X-6106000Y-1790441D01*
X-6106000Y-1719321D02*
X-6106000Y-1607561D01*
X-6106000Y-1434841D02*
X-6106000Y-1389121D01*
X-6106000Y-1363721D02*
X-6106000Y-1328161D01*
X-6106000Y-1201161D02*
X-6106000Y-1165601D01*
X-6106000Y-1094481D02*
X-6106000Y-982721D01*
X-6106000Y-855721D02*
X-6106000Y-723641D01*
X-6106000Y-454401D02*
X-6106000Y-413761D01*
X-6106000Y-347721D02*
X-6106000Y-307081D01*
X-6106000Y-235961D02*
X-6106000Y-124201D01*
X-6106000Y+48519D02*
X-6106000Y+84079D01*
X-6106000Y+155199D02*
X-6106000Y+190759D01*
X-6106000Y+292359D02*
X-6106000Y+327919D01*
X-6106000Y+383799D02*
X-6106000Y+419359D01*
X-6106000Y+541279D02*
X-6106000Y+576839D01*
X-6106000Y+632719D02*
X-6106000Y+668279D01*
X-6106000Y+769879D02*
X-6106000Y+805439D01*
X-6106000Y+881639D02*
X-6106000Y+1013719D01*
X-6100920Y-1826001D02*
X-6100920Y-1790441D01*
X-6100920Y-1719321D02*
X-6100920Y-1587241D01*
X-6100920Y-1429761D02*
X-6100920Y-1384041D01*
X-6100920Y-1363721D02*
X-6100920Y-1328161D01*
X-6100920Y-1201161D02*
X-6100920Y-1165601D01*
X-6100920Y-1094481D02*
X-6100920Y-962401D01*
X-6100920Y-860801D02*
X-6100920Y-749041D01*
X-6100920Y-449321D02*
X-6100920Y-413761D01*
X-6100920Y-347721D02*
X-6100920Y-312161D01*
X-6100920Y-235961D02*
X-6100920Y-103881D01*
X-6100920Y+48519D02*
X-6100920Y+84079D01*
X-6100920Y+155199D02*
X-6100920Y+190759D01*
X-6100920Y+292359D02*
X-6100920Y+327919D01*
X-6100920Y+383799D02*
X-6100920Y+419359D01*
X-6100920Y+541279D02*
X-6100920Y+576839D01*
X-6100920Y+632719D02*
X-6100920Y+668279D01*
X-6100920Y+769879D02*
X-6100920Y+805439D01*
X-6100920Y+876559D02*
X-6100920Y+988319D01*
X-6095840Y-1826001D02*
X-6095840Y-1790441D01*
X-6095840Y-1719321D02*
X-6095840Y-1577081D01*
X-6095840Y-1424681D02*
X-6095840Y-1378961D01*
X-6095840Y-1363721D02*
X-6095840Y-1328161D01*
X-6095840Y-1201161D02*
X-6095840Y-1165601D01*
X-6095840Y-1094481D02*
X-6095840Y-952241D01*
X-6095840Y-865881D02*
X-6095840Y-779521D01*
X-6095840Y-449321D02*
X-6095840Y-413761D01*
X-6095840Y-352801D02*
X-6095840Y-312161D01*
X-6095840Y-235961D02*
X-6095840Y-93721D01*
X-6095840Y+48519D02*
X-6095840Y+84079D01*
X-6095840Y+155199D02*
X-6095840Y+190759D01*
X-6095840Y+292359D02*
X-6095840Y+327919D01*
X-6095840Y+383799D02*
X-6095840Y+419359D01*
X-6095840Y+541279D02*
X-6095840Y+576839D01*
X-6095840Y+632719D02*
X-6095840Y+668279D01*
X-6095840Y+769879D02*
X-6095840Y+805439D01*
X-6095840Y+871479D02*
X-6095840Y+957839D01*
X-6090760Y-1826001D02*
X-6090760Y-1790441D01*
X-6090760Y-1719321D02*
X-6090760Y-1566921D01*
X-6090760Y-1414521D02*
X-6090760Y-1373881D01*
X-6090760Y-1363721D02*
X-6090760Y-1328161D01*
X-6090760Y-1201161D02*
X-6090760Y-1165601D01*
X-6090760Y-1094481D02*
X-6090760Y-942081D01*
X-6090760Y-870961D02*
X-6090760Y-804921D01*
X-6090760Y-444241D02*
X-6090760Y-408681D01*
X-6090760Y-352801D02*
X-6090760Y-317241D01*
X-6090760Y-235961D02*
X-6090760Y-83561D01*
X-6090760Y+48519D02*
X-6090760Y+84079D01*
X-6090760Y+155199D02*
X-6090760Y+190759D01*
X-6090760Y+292359D02*
X-6090760Y+327919D01*
X-6090760Y+383799D02*
X-6090760Y+419359D01*
X-6090760Y+541279D02*
X-6090760Y+576839D01*
X-6090760Y+632719D02*
X-6090760Y+668279D01*
X-6090760Y+769879D02*
X-6090760Y+805439D01*
X-6090760Y+866399D02*
X-6090760Y+932439D01*
X-6085680Y-1826001D02*
X-6085680Y-1790441D01*
X-6085680Y-1719321D02*
X-6085680Y-1561841D01*
X-6085680Y-1419601D02*
X-6085680Y-1368801D01*
X-6085680Y-1363721D02*
X-6085680Y-1328161D01*
X-6085680Y-1201161D02*
X-6085680Y-1165601D01*
X-6085680Y-1094481D02*
X-6085680Y-937001D01*
X-6085680Y-870961D02*
X-6085680Y-815081D01*
X-6085680Y-444241D02*
X-6085680Y-408681D01*
X-6085680Y-352801D02*
X-6085680Y-317241D01*
X-6085680Y-235961D02*
X-6085680Y-78481D01*
X-6085680Y+48519D02*
X-6085680Y+84079D01*
X-6085680Y+155199D02*
X-6085680Y+190759D01*
X-6085680Y+292359D02*
X-6085680Y+327919D01*
X-6085680Y+383799D02*
X-6085680Y+419359D01*
X-6085680Y+541279D02*
X-6085680Y+576839D01*
X-6085680Y+632719D02*
X-6085680Y+668279D01*
X-6085680Y+769879D02*
X-6085680Y+805439D01*
X-6085680Y+866399D02*
X-6085680Y+922279D01*
X-6080600Y-1826001D02*
X-6080600Y-1790441D01*
X-6080600Y-1719321D02*
X-6080600Y-1683761D01*
X-6080600Y-1648201D02*
X-6080600Y-1556761D01*
X-6080600Y-1424681D02*
X-6080600Y-1328161D01*
X-6080600Y-1201161D02*
X-6080600Y-1165601D01*
X-6080600Y-1094481D02*
X-6080600Y-1058921D01*
X-6080600Y-1023361D02*
X-6080600Y-931921D01*
X-6080600Y-870961D02*
X-6080600Y-825241D01*
X-6080600Y-444241D02*
X-6080600Y-403601D01*
X-6080600Y-357881D02*
X-6080600Y-317241D01*
X-6080600Y-235961D02*
X-6080600Y-200401D01*
X-6080600Y-164841D02*
X-6080600Y-73401D01*
X-6080600Y+48519D02*
X-6080600Y+84079D01*
X-6080600Y+155199D02*
X-6080600Y+190759D01*
X-6080600Y+292359D02*
X-6080600Y+327919D01*
X-6080600Y+383799D02*
X-6080600Y+419359D01*
X-6080600Y+541279D02*
X-6080600Y+576839D01*
X-6080600Y+632719D02*
X-6080600Y+668279D01*
X-6080600Y+769879D02*
X-6080600Y+805439D01*
X-6080600Y+866399D02*
X-6080600Y+912119D01*
X-6075520Y-1826001D02*
X-6075520Y-1790441D01*
X-6075520Y-1719321D02*
X-6075520Y-1683761D01*
X-6075520Y-1612641D02*
X-6075520Y-1551681D01*
X-6075520Y-1424681D02*
X-6075520Y-1328161D01*
X-6075520Y-1201161D02*
X-6075520Y-1165601D01*
X-6075520Y-1094481D02*
X-6075520Y-1058921D01*
X-6075520Y-987801D02*
X-6075520Y-926841D01*
X-6075520Y-876041D02*
X-6075520Y-830321D01*
X-6075520Y-439161D02*
X-6075520Y-403601D01*
X-6075520Y-357881D02*
X-6075520Y-322321D01*
X-6075520Y-235961D02*
X-6075520Y-200401D01*
X-6075520Y-129281D02*
X-6075520Y-68321D01*
X-6075520Y+48519D02*
X-6075520Y+84079D01*
X-6075520Y+155199D02*
X-6075520Y+190759D01*
X-6075520Y+292359D02*
X-6075520Y+327919D01*
X-6075520Y+383799D02*
X-6075520Y+419359D01*
X-6075520Y+541279D02*
X-6075520Y+576839D01*
X-6075520Y+632719D02*
X-6075520Y+668279D01*
X-6075520Y+769879D02*
X-6075520Y+805439D01*
X-6075520Y+861319D02*
X-6075520Y+907039D01*
X-6070440Y-1826001D02*
X-6070440Y-1790441D01*
X-6070440Y-1719321D02*
X-6070440Y-1683761D01*
X-6070440Y-1597401D02*
X-6070440Y-1546601D01*
X-6070440Y-1429761D02*
X-6070440Y-1328161D01*
X-6070440Y-1201161D02*
X-6070440Y-1165601D01*
X-6070440Y-1094481D02*
X-6070440Y-1058921D01*
X-6070440Y-972561D02*
X-6070440Y-921761D01*
X-6070440Y-876041D02*
X-6070440Y-830321D01*
X-6070440Y-439161D02*
X-6070440Y-403601D01*
X-6070440Y-362961D02*
X-6070440Y-322321D01*
X-6070440Y-235961D02*
X-6070440Y-200401D01*
X-6070440Y-114041D02*
X-6070440Y-63241D01*
X-6070440Y+48519D02*
X-6070440Y+84079D01*
X-6070440Y+155199D02*
X-6070440Y+190759D01*
X-6070440Y+292359D02*
X-6070440Y+327919D01*
X-6070440Y+383799D02*
X-6070440Y+419359D01*
X-6070440Y+541279D02*
X-6070440Y+576839D01*
X-6070440Y+632719D02*
X-6070440Y+668279D01*
X-6070440Y+769879D02*
X-6070440Y+805439D01*
X-6070440Y+861319D02*
X-6070440Y+907039D01*
X-6065360Y-1826001D02*
X-6065360Y-1790441D01*
X-6065360Y-1719321D02*
X-6065360Y-1683761D01*
X-6065360Y-1592321D02*
X-6065360Y-1546601D01*
X-6065360Y-1434841D02*
X-6065360Y-1389121D01*
X-6065360Y-1384041D02*
X-6065360Y-1328161D01*
X-6065360Y-1201161D02*
X-6065360Y-1165601D01*
X-6065360Y-1094481D02*
X-6065360Y-1058921D01*
X-6065360Y-967481D02*
X-6065360Y-921761D01*
X-6065360Y-876041D02*
X-6065360Y-835401D01*
X-6065360Y-434081D02*
X-6065360Y-398521D01*
X-6065360Y-362961D02*
X-6065360Y-327401D01*
X-6065360Y-235961D02*
X-6065360Y-200401D01*
X-6065360Y-108961D02*
X-6065360Y-63241D01*
X-6065360Y+48519D02*
X-6065360Y+84079D01*
X-6065360Y+155199D02*
X-6065360Y+190759D01*
X-6065360Y+292359D02*
X-6065360Y+327919D01*
X-6065360Y+383799D02*
X-6065360Y+419359D01*
X-6065360Y+541279D02*
X-6065360Y+576839D01*
X-6065360Y+632719D02*
X-6065360Y+668279D01*
X-6065360Y+769879D02*
X-6065360Y+805439D01*
X-6065360Y+861319D02*
X-6065360Y+901959D01*
X-6060280Y-1826001D02*
X-6060280Y-1790441D01*
X-6060280Y-1719321D02*
X-6060280Y-1683761D01*
X-6060280Y-1587241D02*
X-6060280Y-1546601D01*
X-6060280Y-1439921D02*
X-6060280Y-1394201D01*
X-6060280Y-1378961D02*
X-6060280Y-1328161D01*
X-6060280Y-1201161D02*
X-6060280Y-1165601D01*
X-6060280Y-1094481D02*
X-6060280Y-1058921D01*
X-6060280Y-962401D02*
X-6060280Y-921761D01*
X-6060280Y-876041D02*
X-6060280Y-835401D01*
X-6060280Y-434081D02*
X-6060280Y-398521D01*
X-6060280Y-362961D02*
X-6060280Y-327401D01*
X-6060280Y-235961D02*
X-6060280Y-200401D01*
X-6060280Y-103881D02*
X-6060280Y-63241D01*
X-6060280Y+48519D02*
X-6060280Y+84079D01*
X-6060280Y+155199D02*
X-6060280Y+190759D01*
X-6060280Y+292359D02*
X-6060280Y+327919D01*
X-6060280Y+383799D02*
X-6060280Y+419359D01*
X-6060280Y+541279D02*
X-6060280Y+576839D01*
X-6060280Y+632719D02*
X-6060280Y+668279D01*
X-6060280Y+769879D02*
X-6060280Y+805439D01*
X-6060280Y+861319D02*
X-6060280Y+901959D01*
X-6055200Y-1826001D02*
X-6055200Y-1790441D01*
X-6055200Y-1719321D02*
X-6055200Y-1683761D01*
X-6055200Y-1582161D02*
X-6055200Y-1541521D01*
X-6055200Y-1445001D02*
X-6055200Y-1399281D01*
X-6055200Y-1373881D02*
X-6055200Y-1328161D01*
X-6055200Y-1201161D02*
X-6055200Y-1165601D01*
X-6055200Y-1094481D02*
X-6055200Y-1058921D01*
X-6055200Y-957321D02*
X-6055200Y-916681D01*
X-6055200Y-876041D02*
X-6055200Y-835401D01*
X-6055200Y-429001D02*
X-6055200Y-393441D01*
X-6055200Y-368041D02*
X-6055200Y-332481D01*
X-6055200Y-235961D02*
X-6055200Y-200401D01*
X-6055200Y-98801D02*
X-6055200Y-58161D01*
X-6055200Y+48519D02*
X-6055200Y+84079D01*
X-6055200Y+155199D02*
X-6055200Y+190759D01*
X-6055200Y+292359D02*
X-6055200Y+327919D01*
X-6055200Y+383799D02*
X-6055200Y+419359D01*
X-6055200Y+541279D02*
X-6055200Y+576839D01*
X-6055200Y+632719D02*
X-6055200Y+668279D01*
X-6055200Y+769879D02*
X-6055200Y+805439D01*
X-6055200Y+861319D02*
X-6055200Y+901959D01*
X-6050120Y-1826001D02*
X-6050120Y-1790441D01*
X-6050120Y-1719321D02*
X-6050120Y-1683761D01*
X-6050120Y-1577081D02*
X-6050120Y-1541521D01*
X-6050120Y-1450081D02*
X-6050120Y-1404361D01*
X-6050120Y-1368801D02*
X-6050120Y-1328161D01*
X-6050120Y-1201161D02*
X-6050120Y-1165601D01*
X-6050120Y-1094481D02*
X-6050120Y-1058921D01*
X-6050120Y-952241D02*
X-6050120Y-916681D01*
X-6050120Y-876041D02*
X-6050120Y-835401D01*
X-6050120Y-429001D02*
X-6050120Y-393441D01*
X-6050120Y-368041D02*
X-6050120Y-332481D01*
X-6050120Y-235961D02*
X-6050120Y-200401D01*
X-6050120Y-93721D02*
X-6050120Y-58161D01*
X-6050120Y+48519D02*
X-6050120Y+84079D01*
X-6050120Y+155199D02*
X-6050120Y+190759D01*
X-6050120Y+292359D02*
X-6050120Y+327919D01*
X-6050120Y+388879D02*
X-6050120Y+424439D01*
X-6050120Y+536199D02*
X-6050120Y+571759D01*
X-6050120Y+632719D02*
X-6050120Y+668279D01*
X-6050120Y+769879D02*
X-6050120Y+805439D01*
X-6050120Y+861319D02*
X-6050120Y+901959D01*
X-6045040Y-1826001D02*
X-6045040Y-1790441D01*
X-6045040Y-1719321D02*
X-6045040Y-1683761D01*
X-6045040Y-1577081D02*
X-6045040Y-1541521D01*
X-6045040Y-1455161D02*
X-6045040Y-1409441D01*
X-6045040Y-1363721D02*
X-6045040Y-1328161D01*
X-6045040Y-1201161D02*
X-6045040Y-1165601D01*
X-6045040Y-1094481D02*
X-6045040Y-1058921D01*
X-6045040Y-952241D02*
X-6045040Y-916681D01*
X-6045040Y-876041D02*
X-6045040Y-835401D01*
X-6045040Y-429001D02*
X-6045040Y-393441D01*
X-6045040Y-373121D02*
X-6045040Y-332481D01*
X-6045040Y-235961D02*
X-6045040Y-200401D01*
X-6045040Y-93721D02*
X-6045040Y-58161D01*
X-6045040Y+48519D02*
X-6045040Y+84079D01*
X-6045040Y+155199D02*
X-6045040Y+190759D01*
X-6045040Y+292359D02*
X-6045040Y+327919D01*
X-6045040Y+388879D02*
X-6045040Y+424439D01*
X-6045040Y+536199D02*
X-6045040Y+571759D01*
X-6045040Y+632719D02*
X-6045040Y+668279D01*
X-6045040Y+769879D02*
X-6045040Y+805439D01*
X-6045040Y+861319D02*
X-6045040Y+901959D01*
X-6039960Y-1826001D02*
X-6039960Y-1790441D01*
X-6039960Y-1719321D02*
X-6039960Y-1683761D01*
X-6039960Y-1577081D02*
X-6039960Y-1541521D01*
X-6039960Y-1460241D02*
X-6039960Y-1414521D01*
X-6039960Y-1363721D02*
X-6039960Y-1328161D01*
X-6039960Y-1201161D02*
X-6039960Y-1165601D01*
X-6039960Y-1094481D02*
X-6039960Y-1058921D01*
X-6039960Y-952241D02*
X-6039960Y-916681D01*
X-6039960Y-876041D02*
X-6039960Y-835401D01*
X-6039960Y-662681D02*
X-6039960Y-657601D01*
X-6039960Y-423921D02*
X-6039960Y-388361D01*
X-6039960Y-373121D02*
X-6039960Y-337561D01*
X-6039960Y-235961D02*
X-6039960Y-200401D01*
X-6039960Y-93721D02*
X-6039960Y-58161D01*
X-6039960Y+48519D02*
X-6039960Y+84079D01*
X-6039960Y+155199D02*
X-6039960Y+190759D01*
X-6039960Y+292359D02*
X-6039960Y+327919D01*
X-6039960Y+388879D02*
X-6039960Y+424439D01*
X-6039960Y+536199D02*
X-6039960Y+571759D01*
X-6039960Y+632719D02*
X-6039960Y+668279D01*
X-6039960Y+769879D02*
X-6039960Y+805439D01*
X-6039960Y+861319D02*
X-6039960Y+901959D01*
X-6039960Y+1074679D02*
X-6039960Y+1079759D01*
X-6034880Y-1826001D02*
X-6034880Y-1790441D01*
X-6034880Y-1719321D02*
X-6034880Y-1683761D01*
X-6034880Y-1577081D02*
X-6034880Y-1541521D01*
X-6034880Y-1465321D02*
X-6034880Y-1419601D01*
X-6034880Y-1363721D02*
X-6034880Y-1328161D01*
X-6034880Y-1201161D02*
X-6034880Y-1165601D01*
X-6034880Y-1094481D02*
X-6034880Y-1058921D01*
X-6034880Y-952241D02*
X-6034880Y-916681D01*
X-6034880Y-870961D02*
X-6034880Y-830321D01*
X-6034880Y-667761D02*
X-6034880Y-657601D01*
X-6034880Y-423921D02*
X-6034880Y-388361D01*
X-6034880Y-373121D02*
X-6034880Y-337561D01*
X-6034880Y-235961D02*
X-6034880Y-200401D01*
X-6034880Y-93721D02*
X-6034880Y-58161D01*
X-6034880Y+48519D02*
X-6034880Y+84079D01*
X-6034880Y+155199D02*
X-6034880Y+190759D01*
X-6034880Y+292359D02*
X-6034880Y+327919D01*
X-6034880Y+388879D02*
X-6034880Y+429519D01*
X-6034880Y+531119D02*
X-6034880Y+571759D01*
X-6034880Y+632719D02*
X-6034880Y+668279D01*
X-6034880Y+769879D02*
X-6034880Y+805439D01*
X-6034880Y+866399D02*
X-6034880Y+907039D01*
X-6034880Y+1069599D02*
X-6034880Y+1079759D01*
X-6029800Y-1826001D02*
X-6029800Y-1790441D01*
X-6029800Y-1719321D02*
X-6029800Y-1683761D01*
X-6029800Y-1577081D02*
X-6029800Y-1541521D01*
X-6029800Y-1470401D02*
X-6029800Y-1419601D01*
X-6029800Y-1363721D02*
X-6029800Y-1328161D01*
X-6029800Y-1201161D02*
X-6029800Y-1165601D01*
X-6029800Y-1094481D02*
X-6029800Y-1058921D01*
X-6029800Y-952241D02*
X-6029800Y-916681D01*
X-6029800Y-870961D02*
X-6029800Y-830321D01*
X-6029800Y-677921D02*
X-6029800Y-657601D01*
X-6029800Y-418841D02*
X-6029800Y-388361D01*
X-6029800Y-378201D02*
X-6029800Y-342641D01*
X-6029800Y-235961D02*
X-6029800Y-200401D01*
X-6029800Y-93721D02*
X-6029800Y-58161D01*
X-6029800Y+48519D02*
X-6029800Y+84079D01*
X-6029800Y+155199D02*
X-6029800Y+190759D01*
X-6029800Y+287279D02*
X-6029800Y+327919D01*
X-6029800Y+393959D02*
X-6029800Y+429519D01*
X-6029800Y+531119D02*
X-6029800Y+566679D01*
X-6029800Y+632719D02*
X-6029800Y+668279D01*
X-6029800Y+769879D02*
X-6029800Y+805439D01*
X-6029800Y+866399D02*
X-6029800Y+907039D01*
X-6029800Y+1059439D02*
X-6029800Y+1079759D01*
X-6024720Y-1826001D02*
X-6024720Y-1790441D01*
X-6024720Y-1719321D02*
X-6024720Y-1683761D01*
X-6024720Y-1577081D02*
X-6024720Y-1541521D01*
X-6024720Y-1475481D02*
X-6024720Y-1424681D01*
X-6024720Y-1363721D02*
X-6024720Y-1328161D01*
X-6024720Y-1201161D02*
X-6024720Y-1165601D01*
X-6024720Y-1094481D02*
X-6024720Y-1058921D01*
X-6024720Y-952241D02*
X-6024720Y-916681D01*
X-6024720Y-870961D02*
X-6024720Y-825241D01*
X-6024720Y-683001D02*
X-6024720Y-657601D01*
X-6024720Y-418841D02*
X-6024720Y-383281D01*
X-6024720Y-378201D02*
X-6024720Y-342641D01*
X-6024720Y-235961D02*
X-6024720Y-200401D01*
X-6024720Y-93721D02*
X-6024720Y-58161D01*
X-6024720Y+48519D02*
X-6024720Y+84079D01*
X-6024720Y+155199D02*
X-6024720Y+195839D01*
X-6024720Y+287279D02*
X-6024720Y+327919D01*
X-6024720Y+393959D02*
X-6024720Y+434599D01*
X-6024720Y+526039D02*
X-6024720Y+566679D01*
X-6024720Y+632719D02*
X-6024720Y+668279D01*
X-6024720Y+769879D02*
X-6024720Y+805439D01*
X-6024720Y+866399D02*
X-6024720Y+912119D01*
X-6024720Y+1054359D02*
X-6024720Y+1079759D01*
X-6019640Y-1826001D02*
X-6019640Y-1790441D01*
X-6019640Y-1719321D02*
X-6019640Y-1673601D01*
X-6019640Y-1582161D02*
X-6019640Y-1541521D01*
X-6019640Y-1480561D02*
X-6019640Y-1429761D01*
X-6019640Y-1363721D02*
X-6019640Y-1328161D01*
X-6019640Y-1201161D02*
X-6019640Y-1165601D01*
X-6019640Y-1094481D02*
X-6019640Y-1048761D01*
X-6019640Y-957321D02*
X-6019640Y-916681D01*
X-6019640Y-865881D02*
X-6019640Y-820161D01*
X-6019640Y-693161D02*
X-6019640Y-657601D01*
X-6019640Y-418841D02*
X-6019640Y-342641D01*
X-6019640Y-235961D02*
X-6019640Y-190241D01*
X-6019640Y-98801D02*
X-6019640Y-58161D01*
X-6019640Y+48519D02*
X-6019640Y+84079D01*
X-6019640Y+155199D02*
X-6019640Y+200919D01*
X-6019640Y+287279D02*
X-6019640Y+322839D01*
X-6019640Y+399039D02*
X-6019640Y+439679D01*
X-6019640Y+520959D02*
X-6019640Y+561599D01*
X-6019640Y+632719D02*
X-6019640Y+668279D01*
X-6019640Y+769879D02*
X-6019640Y+805439D01*
X-6019640Y+871479D02*
X-6019640Y+917199D01*
X-6019640Y+1044199D02*
X-6019640Y+1079759D01*
X-6014560Y-1826001D02*
X-6014560Y-1790441D01*
X-6014560Y-1719321D02*
X-6014560Y-1668521D01*
X-6014560Y-1582161D02*
X-6014560Y-1546601D01*
X-6014560Y-1485641D02*
X-6014560Y-1434841D01*
X-6014560Y-1363721D02*
X-6014560Y-1328161D01*
X-6014560Y-1201161D02*
X-6014560Y-1165601D01*
X-6014560Y-1094481D02*
X-6014560Y-1043681D01*
X-6014560Y-957321D02*
X-6014560Y-921761D01*
X-6014560Y-860801D02*
X-6014560Y-815081D01*
X-6014560Y-703321D02*
X-6014560Y-657601D01*
X-6014560Y-413761D02*
X-6014560Y-347721D01*
X-6014560Y-235961D02*
X-6014560Y-185161D01*
X-6014560Y-98801D02*
X-6014560Y-63241D01*
X-6014560Y+48519D02*
X-6014560Y+84079D01*
X-6014560Y+155199D02*
X-6014560Y+211079D01*
X-6014560Y+282199D02*
X-6014560Y+322839D01*
X-6014560Y+399039D02*
X-6014560Y+444759D01*
X-6014560Y+515879D02*
X-6014560Y+561599D01*
X-6014560Y+632719D02*
X-6014560Y+668279D01*
X-6014560Y+769879D02*
X-6014560Y+805439D01*
X-6014560Y+876559D02*
X-6014560Y+922279D01*
X-6014560Y+1034039D02*
X-6014560Y+1079759D01*
X-6009480Y-1826001D02*
X-6009480Y-1790441D01*
X-6009480Y-1719321D02*
X-6009480Y-1658361D01*
X-6009480Y-1587241D02*
X-6009480Y-1546601D01*
X-6009480Y-1490721D02*
X-6009480Y-1439921D01*
X-6009480Y-1363721D02*
X-6009480Y-1328161D01*
X-6009480Y-1201161D02*
X-6009480Y-1165601D01*
X-6009480Y-1094481D02*
X-6009480Y-1033521D01*
X-6009480Y-962401D02*
X-6009480Y-921761D01*
X-6009480Y-860801D02*
X-6009480Y-804921D01*
X-6009480Y-718561D02*
X-6009480Y-657601D01*
X-6009480Y-413761D02*
X-6009480Y-347721D01*
X-6009480Y-235961D02*
X-6009480Y-175001D01*
X-6009480Y-103881D02*
X-6009480Y-63241D01*
X-6009480Y+48519D02*
X-6009480Y+84079D01*
X-6009480Y+155199D02*
X-6009480Y+221239D01*
X-6009480Y+277119D02*
X-6009480Y+322839D01*
X-6009480Y+404119D02*
X-6009480Y+449839D01*
X-6009480Y+510799D02*
X-6009480Y+556519D01*
X-6009480Y+632719D02*
X-6009480Y+668279D01*
X-6009480Y+769879D02*
X-6009480Y+805439D01*
X-6009480Y+876559D02*
X-6009480Y+932439D01*
X-6009480Y+1018799D02*
X-6009480Y+1079759D01*
X-6004400Y-1826001D02*
X-6004400Y-1790441D01*
X-6004400Y-1719321D02*
X-6004400Y-1643121D01*
X-6004400Y-1602481D02*
X-6004400Y-1551681D01*
X-6004400Y-1495801D02*
X-6004400Y-1445001D01*
X-6004400Y-1363721D02*
X-6004400Y-1328161D01*
X-6004400Y-1201161D02*
X-6004400Y-1165601D01*
X-6004400Y-1094481D02*
X-6004400Y-1018281D01*
X-6004400Y-977641D02*
X-6004400Y-926841D01*
X-6004400Y-855721D02*
X-6004400Y-789681D01*
X-6004400Y-738881D02*
X-6004400Y-657601D01*
X-6004400Y-408681D02*
X-6004400Y-352801D01*
X-6004400Y-235961D02*
X-6004400Y-159761D01*
X-6004400Y-119121D02*
X-6004400Y-68321D01*
X-6004400Y+48519D02*
X-6004400Y+84079D01*
X-6004400Y+155199D02*
X-6004400Y+231399D01*
X-6004400Y+266959D02*
X-6004400Y+317759D01*
X-6004400Y+409199D02*
X-6004400Y+459999D01*
X-6004400Y+500639D02*
X-6004400Y+551439D01*
X-6004400Y+632719D02*
X-6004400Y+668279D01*
X-6004400Y+769879D02*
X-6004400Y+805439D01*
X-6004400Y+881639D02*
X-6004400Y+947679D01*
X-6004400Y+998479D02*
X-6004400Y+1079759D01*
X-5999320Y-1826001D02*
X-5999320Y-1790441D01*
X-5999320Y-1719321D02*
X-5999320Y-1551681D01*
X-5999320Y-1500881D02*
X-5999320Y-1450081D01*
X-5999320Y-1363721D02*
X-5999320Y-1328161D01*
X-5999320Y-1201161D02*
X-5999320Y-1165601D01*
X-5999320Y-1094481D02*
X-5999320Y-926841D01*
X-5999320Y-850641D02*
X-5999320Y-657601D01*
X-5999320Y-408681D02*
X-5999320Y-352801D01*
X-5999320Y-235961D02*
X-5999320Y-68321D01*
X-5999320Y+48519D02*
X-5999320Y+84079D01*
X-5999320Y+155199D02*
X-5999320Y+317759D01*
X-5999320Y+409199D02*
X-5999320Y+551439D01*
X-5999320Y+632719D02*
X-5999320Y+668279D01*
X-5999320Y+769879D02*
X-5999320Y+805439D01*
X-5999320Y+886719D02*
X-5999320Y+1079759D01*
X-5994240Y-1826001D02*
X-5994240Y-1790441D01*
X-5994240Y-1719321D02*
X-5994240Y-1683761D01*
X-5994240Y-1678681D02*
X-5994240Y-1556761D01*
X-5994240Y-1505961D02*
X-5994240Y-1455161D01*
X-5994240Y-1363721D02*
X-5994240Y-1328161D01*
X-5994240Y-1201161D02*
X-5994240Y-1165601D01*
X-5994240Y-1094481D02*
X-5994240Y-1058921D01*
X-5994240Y-1053841D02*
X-5994240Y-931921D01*
X-5994240Y-845561D02*
X-5994240Y-657601D01*
X-5994240Y-403601D02*
X-5994240Y-352801D01*
X-5994240Y-235961D02*
X-5994240Y-200401D01*
X-5994240Y-195321D02*
X-5994240Y-73401D01*
X-5994240Y+48519D02*
X-5994240Y+84079D01*
X-5994240Y+155199D02*
X-5994240Y+190759D01*
X-5994240Y+200919D02*
X-5994240Y+312679D01*
X-5994240Y+414279D02*
X-5994240Y+546359D01*
X-5994240Y+632719D02*
X-5994240Y+668279D01*
X-5994240Y+769879D02*
X-5994240Y+805439D01*
X-5994240Y+891799D02*
X-5994240Y+1079759D01*
X-5989160Y-1826001D02*
X-5989160Y-1790441D01*
X-5989160Y-1719321D02*
X-5989160Y-1683761D01*
X-5989160Y-1668521D02*
X-5989160Y-1561841D01*
X-5989160Y-1511041D02*
X-5989160Y-1460241D01*
X-5989160Y-1363721D02*
X-5989160Y-1328161D01*
X-5989160Y-1201161D02*
X-5989160Y-1165601D01*
X-5989160Y-1094481D02*
X-5989160Y-1058921D01*
X-5989160Y-1043681D02*
X-5989160Y-937001D01*
X-5989160Y-835401D02*
X-5989160Y-667761D01*
X-5989160Y-403601D02*
X-5989160Y-357881D01*
X-5989160Y-235961D02*
X-5989160Y-200401D01*
X-5989160Y-185161D02*
X-5989160Y-78481D01*
X-5989160Y+48519D02*
X-5989160Y+84079D01*
X-5989160Y+155199D02*
X-5989160Y+190759D01*
X-5989160Y+205999D02*
X-5989160Y+307599D01*
X-5989160Y+424439D02*
X-5989160Y+536199D01*
X-5989160Y+632719D02*
X-5989160Y+668279D01*
X-5989160Y+769879D02*
X-5989160Y+805439D01*
X-5989160Y+901959D02*
X-5989160Y+1069599D01*
X-5984080Y-1826001D02*
X-5984080Y-1790441D01*
X-5984080Y-1719321D02*
X-5984080Y-1683761D01*
X-5984080Y-1663441D02*
X-5984080Y-1566921D01*
X-5984080Y-1516121D02*
X-5984080Y-1465321D01*
X-5984080Y-1363721D02*
X-5984080Y-1328161D01*
X-5984080Y-1201161D02*
X-5984080Y-1165601D01*
X-5984080Y-1094481D02*
X-5984080Y-1058921D01*
X-5984080Y-1038601D02*
X-5984080Y-942081D01*
X-5984080Y-825241D02*
X-5984080Y-683001D01*
X-5984080Y-403601D02*
X-5984080Y-357881D01*
X-5984080Y-235961D02*
X-5984080Y-200401D01*
X-5984080Y-180081D02*
X-5984080Y-83561D01*
X-5984080Y+48519D02*
X-5984080Y+84079D01*
X-5984080Y+155199D02*
X-5984080Y+190759D01*
X-5984080Y+216159D02*
X-5984080Y+302519D01*
X-5984080Y+429519D02*
X-5984080Y+531119D01*
X-5984080Y+632719D02*
X-5984080Y+668279D01*
X-5984080Y+769879D02*
X-5984080Y+805439D01*
X-5984080Y+912119D02*
X-5984080Y+1054359D01*
X-5979000Y-1826001D02*
X-5979000Y-1790441D01*
X-5979000Y-1719321D02*
X-5979000Y-1683761D01*
X-5979000Y-1648201D02*
X-5979000Y-1577081D01*
X-5979000Y-1521201D02*
X-5979000Y-1470401D01*
X-5979000Y-1363721D02*
X-5979000Y-1328161D01*
X-5979000Y-1201161D02*
X-5979000Y-1165601D01*
X-5979000Y-1094481D02*
X-5979000Y-1058921D01*
X-5979000Y-1023361D02*
X-5979000Y-952241D01*
X-5979000Y-815081D02*
X-5979000Y-698241D01*
X-5979000Y-398521D02*
X-5979000Y-362961D01*
X-5979000Y-235961D02*
X-5979000Y-200401D01*
X-5979000Y-164841D02*
X-5979000Y-93721D01*
X-5979000Y+48519D02*
X-5979000Y+84079D01*
X-5979000Y+155199D02*
X-5979000Y+190759D01*
X-5979000Y+221239D02*
X-5979000Y+292359D01*
X-5979000Y+439679D02*
X-5979000Y+520959D01*
X-5979000Y+632719D02*
X-5979000Y+668279D01*
X-5979000Y+769879D02*
X-5979000Y+805439D01*
X-5979000Y+922279D02*
X-5979000Y+1039119D01*
X-5973920Y-1632961D02*
X-5973920Y-1587241D01*
X-5973920Y-1008121D02*
X-5973920Y-962401D01*
X-5973920Y-794761D02*
X-5973920Y-723641D01*
X-5973920Y-149601D02*
X-5973920Y-103881D01*
X-5973920Y+236479D02*
X-5973920Y+282199D01*
X-5973920Y+454919D02*
X-5973920Y+505719D01*
X-5973920Y+942599D02*
X-5973920Y+1013719D01*
X-6751260Y-1120441D02*
X-6751260Y-1089961D01*
X-6751260Y-912161D02*
X-6751260Y-881681D01*
X-6746180Y-1120441D02*
X-6746180Y-1089961D01*
X-6746180Y-912161D02*
X-6746180Y-881681D01*
X-6741100Y-1120441D02*
X-6741100Y-1089961D01*
X-6741100Y-912161D02*
X-6741100Y-881681D01*
X-6741100Y-104441D02*
X-6741100Y-73961D01*
X-6741100Y+434039D02*
X-6741100Y+535639D01*
X-6736020Y-1120441D02*
X-6736020Y-1089961D01*
X-6736020Y-912161D02*
X-6736020Y-881681D01*
X-6736020Y-104441D02*
X-6736020Y-73961D01*
X-6736020Y+413719D02*
X-6736020Y+535639D01*
X-6730940Y-1120441D02*
X-6730940Y-1089961D01*
X-6730940Y-912161D02*
X-6730940Y-881681D01*
X-6730940Y-104441D02*
X-6730940Y-73961D01*
X-6730940Y+398479D02*
X-6730940Y+535639D01*
X-6725860Y-1120441D02*
X-6725860Y-1089961D01*
X-6725860Y-912161D02*
X-6725860Y-881681D01*
X-6725860Y-104441D02*
X-6725860Y-73961D01*
X-6725860Y+388319D02*
X-6725860Y+535639D01*
X-6720780Y-1120441D02*
X-6720780Y-1089961D01*
X-6720780Y-912161D02*
X-6720780Y-881681D01*
X-6720780Y-104441D02*
X-6720780Y-73961D01*
X-6720780Y+383239D02*
X-6720780Y+535639D01*
X-6715700Y-1120441D02*
X-6715700Y-1089961D01*
X-6715700Y-912161D02*
X-6715700Y-881681D01*
X-6715700Y-104441D02*
X-6715700Y-73961D01*
X-6715700Y+378159D02*
X-6715700Y+439119D01*
X-6715700Y+505159D02*
X-6715700Y+535639D01*
X-6710620Y-1120441D02*
X-6710620Y-1089961D01*
X-6710620Y-912161D02*
X-6710620Y-881681D01*
X-6710620Y+367999D02*
X-6710620Y+423879D01*
X-6710620Y+505159D02*
X-6710620Y+535639D01*
X-6705540Y-1120441D02*
X-6705540Y-1089961D01*
X-6705540Y-912161D02*
X-6705540Y-881681D01*
X-6705540Y+367999D02*
X-6705540Y+408639D01*
X-6705540Y+505159D02*
X-6705540Y+535639D01*
X-6700460Y-1120441D02*
X-6700460Y-1089961D01*
X-6700460Y-912161D02*
X-6700460Y-881681D01*
X-6700460Y+362919D02*
X-6700460Y+403559D01*
X-6700460Y+505159D02*
X-6700460Y+535639D01*
X-6695380Y-1120441D02*
X-6695380Y-1089961D01*
X-6695380Y-912161D02*
X-6695380Y-881681D01*
X-6695380Y+357839D02*
X-6695380Y+393399D01*
X-6695380Y+505159D02*
X-6695380Y+535639D01*
X-6690300Y-1120441D02*
X-6690300Y-1089961D01*
X-6690300Y-912161D02*
X-6690300Y-881681D01*
X-6690300Y+352759D02*
X-6690300Y+388319D01*
X-6690300Y+505159D02*
X-6690300Y+535639D01*
X-6685220Y-1196641D02*
X-6685220Y-1161081D01*
X-6685220Y-1120441D02*
X-6685220Y-1089961D01*
X-6685220Y-912161D02*
X-6685220Y-881681D01*
X-6685220Y-856281D02*
X-6685220Y-815641D01*
X-6685220Y-673401D02*
X-6685220Y-627681D01*
X-6685220Y-475281D02*
X-6685220Y-439721D01*
X-6685220Y-251761D02*
X-6685220Y-211121D01*
X-6685220Y+12399D02*
X-6685220Y+63199D01*
X-6685220Y+190199D02*
X-6685220Y+235919D01*
X-6685220Y+352759D02*
X-6685220Y+383239D01*
X-6685220Y+505159D02*
X-6685220Y+535639D01*
X-6680140Y-1445561D02*
X-6680140Y-1410001D01*
X-6680140Y-1308401D02*
X-6680140Y-1272841D01*
X-6680140Y-1211881D02*
X-6680140Y-1145841D01*
X-6680140Y-1120441D02*
X-6680140Y-1089961D01*
X-6680140Y-912161D02*
X-6680140Y-881681D01*
X-6680140Y-871521D02*
X-6680140Y-800401D01*
X-6680140Y-683561D02*
X-6680140Y-612441D01*
X-6680140Y-490521D02*
X-6680140Y-424481D01*
X-6680140Y-399081D02*
X-6680140Y-368601D01*
X-6680140Y-307641D02*
X-6680140Y-277161D01*
X-6680140Y-267001D02*
X-6680140Y-195881D01*
X-6680140Y-104441D02*
X-6680140Y-73961D01*
X-6680140Y-7921D02*
X-6680140Y+78439D01*
X-6680140Y+180039D02*
X-6680140Y+251159D01*
X-6680140Y+347679D02*
X-6680140Y+383239D01*
X-6680140Y+505159D02*
X-6680140Y+535639D01*
X-6675060Y-1440481D02*
X-6675060Y-1410001D01*
X-6675060Y-1308401D02*
X-6675060Y-1277921D01*
X-6675060Y-1216961D02*
X-6675060Y-1135681D01*
X-6675060Y-1120441D02*
X-6675060Y-1089961D01*
X-6675060Y-912161D02*
X-6675060Y-790241D01*
X-6675060Y-693721D02*
X-6675060Y-602281D01*
X-6675060Y-495601D02*
X-6675060Y-414321D01*
X-6675060Y-399081D02*
X-6675060Y-368601D01*
X-6675060Y-307641D02*
X-6675060Y-185721D01*
X-6675060Y-104441D02*
X-6675060Y-73961D01*
X-6675060Y-23161D02*
X-6675060Y+83519D01*
X-6675060Y+169879D02*
X-6675060Y+261319D01*
X-6675060Y+347679D02*
X-6675060Y+378159D01*
X-6675060Y+505159D02*
X-6675060Y+535639D01*
X-6669980Y-1440481D02*
X-6669980Y-1404921D01*
X-6669980Y-1313481D02*
X-6669980Y-1277921D01*
X-6669980Y-1222041D02*
X-6669980Y-1130601D01*
X-6669980Y-1120441D02*
X-6669980Y-1089961D01*
X-6669980Y-912161D02*
X-6669980Y-785161D01*
X-6669980Y-698801D02*
X-6669980Y-592121D01*
X-6669980Y-500681D02*
X-6669980Y-409241D01*
X-6669980Y-399081D02*
X-6669980Y-368601D01*
X-6669980Y-307641D02*
X-6669980Y-180641D01*
X-6669980Y-104441D02*
X-6669980Y-73961D01*
X-6669980Y-23161D02*
X-6669980Y+93679D01*
X-6669980Y+164799D02*
X-6669980Y+271479D01*
X-6669980Y+342599D02*
X-6669980Y+378159D01*
X-6669980Y+505159D02*
X-6669980Y+535639D01*
X-6664900Y-1440481D02*
X-6664900Y-1404921D01*
X-6664900Y-1313481D02*
X-6664900Y-1277921D01*
X-6664900Y-1227121D02*
X-6664900Y-1089961D01*
X-6664900Y-912161D02*
X-6664900Y-780081D01*
X-6664900Y-703881D02*
X-6664900Y-587041D01*
X-6664900Y-505761D02*
X-6664900Y-368601D01*
X-6664900Y-307641D02*
X-6664900Y-175561D01*
X-6664900Y-104441D02*
X-6664900Y-73961D01*
X-6664900Y-23161D02*
X-6664900Y+98759D01*
X-6664900Y+159719D02*
X-6664900Y+276559D01*
X-6664900Y+342599D02*
X-6664900Y+373079D01*
X-6664900Y+505159D02*
X-6664900Y+535639D01*
X-6659820Y-1435401D02*
X-6659820Y-1404921D01*
X-6659820Y-1313481D02*
X-6659820Y-1283001D01*
X-6659820Y-1232201D02*
X-6659820Y-1186481D01*
X-6659820Y-1156001D02*
X-6659820Y-1089961D01*
X-6659820Y-912161D02*
X-6659820Y-861361D01*
X-6659820Y-820721D02*
X-6659820Y-775001D01*
X-6659820Y-708961D02*
X-6659820Y-663241D01*
X-6659820Y-627681D02*
X-6659820Y-581961D01*
X-6659820Y-505761D02*
X-6659820Y-465121D01*
X-6659820Y-434641D02*
X-6659820Y-368601D01*
X-6659820Y-307641D02*
X-6659820Y-256841D01*
X-6659820Y-216201D02*
X-6659820Y-170481D01*
X-6659820Y-104441D02*
X-6659820Y-73961D01*
X-6659820Y-23161D02*
X-6659820Y+17479D01*
X-6659820Y+58119D02*
X-6659820Y+98759D01*
X-6659820Y+154639D02*
X-6659820Y+200359D01*
X-6659820Y+235919D02*
X-6659820Y+281639D01*
X-6659820Y+342599D02*
X-6659820Y+373079D01*
X-6659820Y+505159D02*
X-6659820Y+535639D01*
X-6654740Y-1435401D02*
X-6654740Y-1399841D01*
X-6654740Y-1318561D02*
X-6654740Y-1283001D01*
X-6654740Y-1237281D02*
X-6654740Y-1196641D01*
X-6654740Y-1140761D02*
X-6654740Y-1089961D01*
X-6654740Y-912161D02*
X-6654740Y-876601D01*
X-6654740Y-810561D02*
X-6654740Y-769921D01*
X-6654740Y-714041D02*
X-6654740Y-673401D01*
X-6654740Y-617521D02*
X-6654740Y-581961D01*
X-6654740Y-510841D02*
X-6654740Y-475281D01*
X-6654740Y-419401D02*
X-6654740Y-368601D01*
X-6654740Y-307641D02*
X-6654740Y-272081D01*
X-6654740Y-206041D02*
X-6654740Y-165401D01*
X-6654740Y-104441D02*
X-6654740Y-73961D01*
X-6654740Y-23161D02*
X-6654740Y+2239D01*
X-6654740Y+68279D02*
X-6654740Y+103839D01*
X-6654740Y+149559D02*
X-6654740Y+190199D01*
X-6654740Y+246079D02*
X-6654740Y+281639D01*
X-6654740Y+342599D02*
X-6654740Y+373079D01*
X-6654740Y+505159D02*
X-6654740Y+535639D01*
X-6649660Y-1430321D02*
X-6649660Y-1399841D01*
X-6649660Y-1318561D02*
X-6649660Y-1288081D01*
X-6649660Y-1237281D02*
X-6649660Y-1201721D01*
X-6649660Y-1130601D02*
X-6649660Y-1089961D01*
X-6649660Y-912161D02*
X-6649660Y-881681D01*
X-6649660Y-805481D02*
X-6649660Y-769921D01*
X-6649660Y-714041D02*
X-6649660Y-683561D01*
X-6649660Y-612441D02*
X-6649660Y-576881D01*
X-6649660Y-510841D02*
X-6649660Y-480361D01*
X-6649660Y-414321D02*
X-6649660Y-368601D01*
X-6649660Y-307641D02*
X-6649660Y-277161D01*
X-6649660Y-200961D02*
X-6649660Y-165401D01*
X-6649660Y-104441D02*
X-6649660Y-73961D01*
X-6649660Y-23161D02*
X-6649660Y-7921D01*
X-6649660Y+73359D02*
X-6649660Y+103839D01*
X-6649660Y+149559D02*
X-6649660Y+180039D01*
X-6649660Y+251159D02*
X-6649660Y+286719D01*
X-6649660Y+337519D02*
X-6649660Y+367999D01*
X-6649660Y+505159D02*
X-6649660Y+535639D01*
X-6644580Y-1430321D02*
X-6644580Y-1394761D01*
X-6644580Y-1323641D02*
X-6644580Y-1288081D01*
X-6644580Y-1237281D02*
X-6644580Y-1206801D01*
X-6644580Y-1125521D02*
X-6644580Y-1089961D01*
X-6644580Y-912161D02*
X-6644580Y-881681D01*
X-6644580Y-800401D02*
X-6644580Y-764841D01*
X-6644580Y-719121D02*
X-6644580Y-683561D01*
X-6644580Y-607361D02*
X-6644580Y-571801D01*
X-6644580Y-515921D02*
X-6644580Y-480361D01*
X-6644580Y-404161D02*
X-6644580Y-368601D01*
X-6644580Y-307641D02*
X-6644580Y-277161D01*
X-6644580Y-195881D02*
X-6644580Y-160321D01*
X-6644580Y-104441D02*
X-6644580Y-73961D01*
X-6644580Y-23161D02*
X-6644580Y-18081D01*
X-6644580Y+78439D02*
X-6644580Y+108919D01*
X-6644580Y+144479D02*
X-6644580Y+180039D01*
X-6644580Y+256239D02*
X-6644580Y+291799D01*
X-6644580Y+337519D02*
X-6644580Y+367999D01*
X-6644580Y+505159D02*
X-6644580Y+535639D01*
X-6639500Y-1425241D02*
X-6639500Y-1394761D01*
X-6639500Y-1323641D02*
X-6639500Y-1293161D01*
X-6639500Y-1242361D02*
X-6639500Y-1211881D01*
X-6639500Y-1120441D02*
X-6639500Y-1089961D01*
X-6639500Y-912161D02*
X-6639500Y-881681D01*
X-6639500Y-795321D02*
X-6639500Y-764841D01*
X-6639500Y-719121D02*
X-6639500Y-688641D01*
X-6639500Y-602281D02*
X-6639500Y-571801D01*
X-6639500Y-515921D02*
X-6639500Y-480361D01*
X-6639500Y-399081D02*
X-6639500Y-368601D01*
X-6639500Y-307641D02*
X-6639500Y-277161D01*
X-6639500Y-190801D02*
X-6639500Y-160321D01*
X-6639500Y-104441D02*
X-6639500Y-73961D01*
X-6639500Y+78439D02*
X-6639500Y+108919D01*
X-6639500Y+144479D02*
X-6639500Y+174959D01*
X-6639500Y+261319D02*
X-6639500Y+291799D01*
X-6639500Y+337519D02*
X-6639500Y+367999D01*
X-6639500Y+505159D02*
X-6639500Y+535639D01*
X-6634420Y-1425241D02*
X-6634420Y-1394761D01*
X-6634420Y-1323641D02*
X-6634420Y-1293161D01*
X-6634420Y-1242361D02*
X-6634420Y-1211881D01*
X-6634420Y-1120441D02*
X-6634420Y-1089961D01*
X-6634420Y-912161D02*
X-6634420Y-881681D01*
X-6634420Y-795321D02*
X-6634420Y-759761D01*
X-6634420Y-719121D02*
X-6634420Y-688641D01*
X-6634420Y-597201D02*
X-6634420Y-566721D01*
X-6634420Y-515921D02*
X-6634420Y-485441D01*
X-6634420Y-399081D02*
X-6634420Y-368601D01*
X-6634420Y-307641D02*
X-6634420Y-277161D01*
X-6634420Y-185721D02*
X-6634420Y-155241D01*
X-6634420Y-104441D02*
X-6634420Y-73961D01*
X-6634420Y+78439D02*
X-6634420Y+108919D01*
X-6634420Y+144479D02*
X-6634420Y+174959D01*
X-6634420Y+266399D02*
X-6634420Y+296879D01*
X-6634420Y+337519D02*
X-6634420Y+367999D01*
X-6634420Y+505159D02*
X-6634420Y+535639D01*
X-6629340Y-1425241D02*
X-6629340Y-1389681D01*
X-6629340Y-1328721D02*
X-6629340Y-1293161D01*
X-6629340Y-1242361D02*
X-6629340Y-1211881D01*
X-6629340Y-1120441D02*
X-6629340Y-1089961D01*
X-6629340Y-912161D02*
X-6629340Y-881681D01*
X-6629340Y-790241D02*
X-6629340Y-759761D01*
X-6629340Y-724201D02*
X-6629340Y-693721D01*
X-6629340Y-597201D02*
X-6629340Y-566721D01*
X-6629340Y-515921D02*
X-6629340Y-485441D01*
X-6629340Y-399081D02*
X-6629340Y-368601D01*
X-6629340Y-307641D02*
X-6629340Y-277161D01*
X-6629340Y-185721D02*
X-6629340Y-155241D01*
X-6629340Y-104441D02*
X-6629340Y-73961D01*
X-6629340Y+78439D02*
X-6629340Y+108919D01*
X-6629340Y+139399D02*
X-6629340Y+169879D01*
X-6629340Y+266399D02*
X-6629340Y+296879D01*
X-6629340Y+337519D02*
X-6629340Y+367999D01*
X-6629340Y+505159D02*
X-6629340Y+535639D01*
X-6624260Y-1420161D02*
X-6624260Y-1389681D01*
X-6624260Y-1328721D02*
X-6624260Y-1298241D01*
X-6624260Y-1247441D02*
X-6624260Y-1211881D01*
X-6624260Y-1120441D02*
X-6624260Y-1089961D01*
X-6624260Y-912161D02*
X-6624260Y-881681D01*
X-6624260Y-790241D02*
X-6624260Y-759761D01*
X-6624260Y-724201D02*
X-6624260Y-693721D01*
X-6624260Y-592121D02*
X-6624260Y-566721D01*
X-6624260Y-515921D02*
X-6624260Y-485441D01*
X-6624260Y-399081D02*
X-6624260Y-368601D01*
X-6624260Y-307641D02*
X-6624260Y-277161D01*
X-6624260Y-185721D02*
X-6624260Y-155241D01*
X-6624260Y-104441D02*
X-6624260Y-73961D01*
X-6624260Y+73359D02*
X-6624260Y+108919D01*
X-6624260Y+139399D02*
X-6624260Y+169879D01*
X-6624260Y+271479D02*
X-6624260Y+296879D01*
X-6624260Y+337519D02*
X-6624260Y+367999D01*
X-6624260Y+505159D02*
X-6624260Y+535639D01*
X-6619180Y-1420161D02*
X-6619180Y-1384601D01*
X-6619180Y-1333801D02*
X-6619180Y-1298241D01*
X-6619180Y-1247441D02*
X-6619180Y-1216961D01*
X-6619180Y-1120441D02*
X-6619180Y-1089961D01*
X-6619180Y-912161D02*
X-6619180Y-881681D01*
X-6619180Y-790241D02*
X-6619180Y-759761D01*
X-6619180Y-724201D02*
X-6619180Y-693721D01*
X-6619180Y-592121D02*
X-6619180Y-566721D01*
X-6619180Y-515921D02*
X-6619180Y-485441D01*
X-6619180Y-399081D02*
X-6619180Y-368601D01*
X-6619180Y-307641D02*
X-6619180Y-277161D01*
X-6619180Y-180641D02*
X-6619180Y-150161D01*
X-6619180Y-104441D02*
X-6619180Y-73961D01*
X-6619180Y+68279D02*
X-6619180Y+108919D01*
X-6619180Y+139399D02*
X-6619180Y+169879D01*
X-6619180Y+271479D02*
X-6619180Y+296879D01*
X-6619180Y+337519D02*
X-6619180Y+367999D01*
X-6619180Y+505159D02*
X-6619180Y+535639D01*
X-6614100Y-1415081D02*
X-6614100Y-1384601D01*
X-6614100Y-1333801D02*
X-6614100Y-1303321D01*
X-6614100Y-1247441D02*
X-6614100Y-1216961D01*
X-6614100Y-1120441D02*
X-6614100Y-1089961D01*
X-6614100Y-912161D02*
X-6614100Y-881681D01*
X-6614100Y-785161D02*
X-6614100Y-754681D01*
X-6614100Y-724201D02*
X-6614100Y-693721D01*
X-6614100Y-592121D02*
X-6614100Y-561641D01*
X-6614100Y-515921D02*
X-6614100Y-485441D01*
X-6614100Y-399081D02*
X-6614100Y-368601D01*
X-6614100Y-307641D02*
X-6614100Y-277161D01*
X-6614100Y-180641D02*
X-6614100Y-150161D01*
X-6614100Y-104441D02*
X-6614100Y-73961D01*
X-6614100Y+58119D02*
X-6614100Y+103839D01*
X-6614100Y+139399D02*
X-6614100Y+169879D01*
X-6614100Y+271479D02*
X-6614100Y+301959D01*
X-6614100Y+337519D02*
X-6614100Y+367999D01*
X-6614100Y+505159D02*
X-6614100Y+535639D01*
X-6609020Y-1415081D02*
X-6609020Y-1384601D01*
X-6609020Y-1333801D02*
X-6609020Y-1303321D01*
X-6609020Y-1247441D02*
X-6609020Y-1216961D01*
X-6609020Y-1120441D02*
X-6609020Y-1089961D01*
X-6609020Y-912161D02*
X-6609020Y-881681D01*
X-6609020Y-785161D02*
X-6609020Y-754681D01*
X-6609020Y-724201D02*
X-6609020Y-561641D01*
X-6609020Y-515921D02*
X-6609020Y-485441D01*
X-6609020Y-399081D02*
X-6609020Y-368601D01*
X-6609020Y-307641D02*
X-6609020Y-277161D01*
X-6609020Y-180641D02*
X-6609020Y-150161D01*
X-6609020Y-104441D02*
X-6609020Y-73961D01*
X-6609020Y+37799D02*
X-6609020Y+103839D01*
X-6609020Y+139399D02*
X-6609020Y+301959D01*
X-6609020Y+337519D02*
X-6609020Y+367999D01*
X-6609020Y+505159D02*
X-6609020Y+535639D01*
X-6603940Y-1410001D02*
X-6603940Y-1379521D01*
X-6603940Y-1338881D02*
X-6603940Y-1303321D01*
X-6603940Y-1247441D02*
X-6603940Y-1216961D01*
X-6603940Y-1120441D02*
X-6603940Y-1089961D01*
X-6603940Y-912161D02*
X-6603940Y-881681D01*
X-6603940Y-785161D02*
X-6603940Y-754681D01*
X-6603940Y-724201D02*
X-6603940Y-561641D01*
X-6603940Y-515921D02*
X-6603940Y-485441D01*
X-6603940Y-399081D02*
X-6603940Y-368601D01*
X-6603940Y-307641D02*
X-6603940Y-277161D01*
X-6603940Y-180641D02*
X-6603940Y-150161D01*
X-6603940Y-104441D02*
X-6603940Y-73961D01*
X-6603940Y+17479D02*
X-6603940Y+98759D01*
X-6603940Y+139399D02*
X-6603940Y+301959D01*
X-6603940Y+337519D02*
X-6603940Y+367999D01*
X-6603940Y+505159D02*
X-6603940Y+535639D01*
X-6598860Y-1410001D02*
X-6598860Y-1379521D01*
X-6598860Y-1338881D02*
X-6598860Y-1308401D01*
X-6598860Y-1247441D02*
X-6598860Y-1216961D01*
X-6598860Y-1120441D02*
X-6598860Y-1089961D01*
X-6598860Y-912161D02*
X-6598860Y-881681D01*
X-6598860Y-785161D02*
X-6598860Y-754681D01*
X-6598860Y-724201D02*
X-6598860Y-561641D01*
X-6598860Y-515921D02*
X-6598860Y-485441D01*
X-6598860Y-399081D02*
X-6598860Y-368601D01*
X-6598860Y-307641D02*
X-6598860Y-277161D01*
X-6598860Y-180641D02*
X-6598860Y-150161D01*
X-6598860Y-104441D02*
X-6598860Y-73961D01*
X-6598860Y+2239D02*
X-6598860Y+93679D01*
X-6598860Y+139399D02*
X-6598860Y+301959D01*
X-6598860Y+337519D02*
X-6598860Y+367999D01*
X-6598860Y+505159D02*
X-6598860Y+535639D01*
X-6593780Y-1410001D02*
X-6593780Y-1374441D01*
X-6593780Y-1343961D02*
X-6593780Y-1308401D01*
X-6593780Y-1247441D02*
X-6593780Y-1216961D01*
X-6593780Y-1120441D02*
X-6593780Y-1089961D01*
X-6593780Y-912161D02*
X-6593780Y-881681D01*
X-6593780Y-785161D02*
X-6593780Y-754681D01*
X-6593780Y-724201D02*
X-6593780Y-561641D01*
X-6593780Y-515921D02*
X-6593780Y-485441D01*
X-6593780Y-399081D02*
X-6593780Y-368601D01*
X-6593780Y-307641D02*
X-6593780Y-277161D01*
X-6593780Y-180641D02*
X-6593780Y-150161D01*
X-6593780Y-104441D02*
X-6593780Y-73961D01*
X-6593780Y-7921D02*
X-6593780Y+88599D01*
X-6593780Y+139399D02*
X-6593780Y+301959D01*
X-6593780Y+342599D02*
X-6593780Y+373079D01*
X-6593780Y+505159D02*
X-6593780Y+535639D01*
X-6588700Y-1404921D02*
X-6588700Y-1374441D01*
X-6588700Y-1343961D02*
X-6588700Y-1313481D01*
X-6588700Y-1247441D02*
X-6588700Y-1216961D01*
X-6588700Y-1120441D02*
X-6588700Y-1089961D01*
X-6588700Y-912161D02*
X-6588700Y-881681D01*
X-6588700Y-785161D02*
X-6588700Y-754681D01*
X-6588700Y-724201D02*
X-6588700Y-561641D01*
X-6588700Y-515921D02*
X-6588700Y-485441D01*
X-6588700Y-399081D02*
X-6588700Y-368601D01*
X-6588700Y-307641D02*
X-6588700Y-277161D01*
X-6588700Y-180641D02*
X-6588700Y-150161D01*
X-6588700Y-104441D02*
X-6588700Y-73961D01*
X-6588700Y-18081D02*
X-6588700Y+78439D01*
X-6588700Y+139399D02*
X-6588700Y+301959D01*
X-6588700Y+342599D02*
X-6588700Y+373079D01*
X-6588700Y+505159D02*
X-6588700Y+535639D01*
X-6583620Y-1404921D02*
X-6583620Y-1374441D01*
X-6583620Y-1343961D02*
X-6583620Y-1313481D01*
X-6583620Y-1247441D02*
X-6583620Y-1216961D01*
X-6583620Y-1120441D02*
X-6583620Y-1089961D01*
X-6583620Y-912161D02*
X-6583620Y-881681D01*
X-6583620Y-785161D02*
X-6583620Y-754681D01*
X-6583620Y-592121D02*
X-6583620Y-561641D01*
X-6583620Y-515921D02*
X-6583620Y-485441D01*
X-6583620Y-399081D02*
X-6583620Y-368601D01*
X-6583620Y-307641D02*
X-6583620Y-277161D01*
X-6583620Y-180641D02*
X-6583620Y-150161D01*
X-6583620Y-104441D02*
X-6583620Y-73961D01*
X-6583620Y-18081D02*
X-6583620Y+63199D01*
X-6583620Y+271479D02*
X-6583620Y+301959D01*
X-6583620Y+342599D02*
X-6583620Y+373079D01*
X-6583620Y+505159D02*
X-6583620Y+535639D01*
X-6578540Y-1399841D02*
X-6578540Y-1369361D01*
X-6578540Y-1349041D02*
X-6578540Y-1318561D01*
X-6578540Y-1247441D02*
X-6578540Y-1216961D01*
X-6578540Y-1120441D02*
X-6578540Y-1089961D01*
X-6578540Y-912161D02*
X-6578540Y-881681D01*
X-6578540Y-785161D02*
X-6578540Y-754681D01*
X-6578540Y-592121D02*
X-6578540Y-561641D01*
X-6578540Y-515921D02*
X-6578540Y-485441D01*
X-6578540Y-399081D02*
X-6578540Y-368601D01*
X-6578540Y-307641D02*
X-6578540Y-277161D01*
X-6578540Y-180641D02*
X-6578540Y-150161D01*
X-6578540Y-104441D02*
X-6578540Y-73961D01*
X-6578540Y-23161D02*
X-6578540Y+37799D01*
X-6578540Y+271479D02*
X-6578540Y+301959D01*
X-6578540Y+347679D02*
X-6578540Y+378159D01*
X-6578540Y+505159D02*
X-6578540Y+535639D01*
X-6573460Y-1399841D02*
X-6573460Y-1369361D01*
X-6573460Y-1349041D02*
X-6573460Y-1318561D01*
X-6573460Y-1247441D02*
X-6573460Y-1216961D01*
X-6573460Y-1120441D02*
X-6573460Y-1089961D01*
X-6573460Y-912161D02*
X-6573460Y-881681D01*
X-6573460Y-785161D02*
X-6573460Y-754681D01*
X-6573460Y-592121D02*
X-6573460Y-561641D01*
X-6573460Y-515921D02*
X-6573460Y-485441D01*
X-6573460Y-399081D02*
X-6573460Y-368601D01*
X-6573460Y-307641D02*
X-6573460Y-277161D01*
X-6573460Y-180641D02*
X-6573460Y-150161D01*
X-6573460Y-104441D02*
X-6573460Y-73961D01*
X-6573460Y-23161D02*
X-6573460Y+17479D01*
X-6573460Y+271479D02*
X-6573460Y+301959D01*
X-6573460Y+347679D02*
X-6573460Y+378159D01*
X-6573460Y+505159D02*
X-6573460Y+535639D01*
X-6568380Y-1394761D02*
X-6568380Y-1364281D01*
X-6568380Y-1354121D02*
X-6568380Y-1318561D01*
X-6568380Y-1242361D02*
X-6568380Y-1216961D01*
X-6568380Y-1120441D02*
X-6568380Y-1089961D01*
X-6568380Y-912161D02*
X-6568380Y-881681D01*
X-6568380Y-785161D02*
X-6568380Y-754681D01*
X-6568380Y-592121D02*
X-6568380Y-561641D01*
X-6568380Y-515921D02*
X-6568380Y-485441D01*
X-6568380Y-399081D02*
X-6568380Y-368601D01*
X-6568380Y-307641D02*
X-6568380Y-277161D01*
X-6568380Y-185721D02*
X-6568380Y-155241D01*
X-6568380Y-104441D02*
X-6568380Y-73961D01*
X-6568380Y-28241D02*
X-6568380Y+7319D01*
X-6568380Y+271479D02*
X-6568380Y+301959D01*
X-6568380Y+347679D02*
X-6568380Y+383239D01*
X-6568380Y+505159D02*
X-6568380Y+535639D01*
X-6563300Y-1394761D02*
X-6563300Y-1364281D01*
X-6563300Y-1354121D02*
X-6563300Y-1323641D01*
X-6563300Y-1242361D02*
X-6563300Y-1211881D01*
X-6563300Y-1120441D02*
X-6563300Y-1089961D01*
X-6563300Y-912161D02*
X-6563300Y-881681D01*
X-6563300Y-790241D02*
X-6563300Y-754681D01*
X-6563300Y-597201D02*
X-6563300Y-566721D01*
X-6563300Y-515921D02*
X-6563300Y-485441D01*
X-6563300Y-399081D02*
X-6563300Y-368601D01*
X-6563300Y-307641D02*
X-6563300Y-277161D01*
X-6563300Y-185721D02*
X-6563300Y-155241D01*
X-6563300Y-104441D02*
X-6563300Y-73961D01*
X-6563300Y-28241D02*
X-6563300Y+2239D01*
X-6563300Y+266399D02*
X-6563300Y+296879D01*
X-6563300Y+352759D02*
X-6563300Y+383239D01*
X-6563300Y+505159D02*
X-6563300Y+535639D01*
X-6558220Y-1394761D02*
X-6558220Y-1364281D01*
X-6558220Y-1359201D02*
X-6558220Y-1323641D01*
X-6558220Y-1242361D02*
X-6558220Y-1211881D01*
X-6558220Y-1120441D02*
X-6558220Y-1089961D01*
X-6558220Y-912161D02*
X-6558220Y-881681D01*
X-6558220Y-790241D02*
X-6558220Y-759761D01*
X-6558220Y-597201D02*
X-6558220Y-566721D01*
X-6558220Y-515921D02*
X-6558220Y-485441D01*
X-6558220Y-399081D02*
X-6558220Y-368601D01*
X-6558220Y-307641D02*
X-6558220Y-277161D01*
X-6558220Y-185721D02*
X-6558220Y-155241D01*
X-6558220Y-104441D02*
X-6558220Y-73961D01*
X-6558220Y-28241D02*
X-6558220Y+2239D01*
X-6558220Y+266399D02*
X-6558220Y+296879D01*
X-6558220Y+352759D02*
X-6558220Y+388319D01*
X-6558220Y+505159D02*
X-6558220Y+535639D01*
X-6553140Y-1389681D02*
X-6553140Y-1328721D01*
X-6553140Y-1242361D02*
X-6553140Y-1211881D01*
X-6553140Y-1120441D02*
X-6553140Y-1089961D01*
X-6553140Y-912161D02*
X-6553140Y-881681D01*
X-6553140Y-790241D02*
X-6553140Y-759761D01*
X-6553140Y-602281D02*
X-6553140Y-566721D01*
X-6553140Y-515921D02*
X-6553140Y-485441D01*
X-6553140Y-399081D02*
X-6553140Y-368601D01*
X-6553140Y-307641D02*
X-6553140Y-277161D01*
X-6553140Y-190801D02*
X-6553140Y-155241D01*
X-6553140Y-104441D02*
X-6553140Y-73961D01*
X-6553140Y-28241D02*
X-6553140Y+2239D01*
X-6553140Y+261319D02*
X-6553140Y+296879D01*
X-6553140Y+357839D02*
X-6553140Y+393399D01*
X-6553140Y+505159D02*
X-6553140Y+535639D01*
X-6548060Y-1389681D02*
X-6548060Y-1328721D01*
X-6548060Y-1237281D02*
X-6548060Y-1206801D01*
X-6548060Y-1120441D02*
X-6548060Y-1089961D01*
X-6548060Y-912161D02*
X-6548060Y-881681D01*
X-6548060Y-795321D02*
X-6548060Y-759761D01*
X-6548060Y-602281D02*
X-6548060Y-571801D01*
X-6548060Y-515921D02*
X-6548060Y-485441D01*
X-6548060Y-399081D02*
X-6548060Y-368601D01*
X-6548060Y-307641D02*
X-6548060Y-267001D01*
X-6548060Y-195881D02*
X-6548060Y-160321D01*
X-6548060Y-104441D02*
X-6548060Y-73961D01*
X-6548060Y-28241D02*
X-6548060Y+2239D01*
X-6548060Y+103839D02*
X-6548060Y+108919D01*
X-6548060Y+261319D02*
X-6548060Y+291799D01*
X-6548060Y+362919D02*
X-6548060Y+403559D01*
X-6548060Y+505159D02*
X-6548060Y+535639D01*
X-6542980Y-1384601D02*
X-6542980Y-1328721D01*
X-6542980Y-1237281D02*
X-6542980Y-1201721D01*
X-6542980Y-1120441D02*
X-6542980Y-1089961D01*
X-6542980Y-912161D02*
X-6542980Y-876601D01*
X-6542980Y-795321D02*
X-6542980Y-764841D01*
X-6542980Y-719121D02*
X-6542980Y-714041D01*
X-6542980Y-607361D02*
X-6542980Y-571801D01*
X-6542980Y-515921D02*
X-6542980Y-485441D01*
X-6542980Y-399081D02*
X-6542980Y-368601D01*
X-6542980Y-307641D02*
X-6542980Y-256841D01*
X-6542980Y-200961D02*
X-6542980Y-160321D01*
X-6542980Y-104441D02*
X-6542980Y-73961D01*
X-6542980Y-28241D02*
X-6542980Y+2239D01*
X-6542980Y+98759D02*
X-6542980Y+108919D01*
X-6542980Y+144479D02*
X-6542980Y+149559D01*
X-6542980Y+256239D02*
X-6542980Y+291799D01*
X-6542980Y+367999D02*
X-6542980Y+408639D01*
X-6542980Y+505159D02*
X-6542980Y+535639D01*
X-6537900Y-1384601D02*
X-6537900Y-1333801D01*
X-6537900Y-1232201D02*
X-6537900Y-1196641D01*
X-6537900Y-1120441D02*
X-6537900Y-1089961D01*
X-6537900Y-912161D02*
X-6537900Y-871521D01*
X-6537900Y-800401D02*
X-6537900Y-764841D01*
X-6537900Y-719121D02*
X-6537900Y-703881D01*
X-6537900Y-612441D02*
X-6537900Y-576881D01*
X-6537900Y-515921D02*
X-6537900Y-485441D01*
X-6537900Y-399081D02*
X-6537900Y-368601D01*
X-6537900Y-307641D02*
X-6537900Y-246681D01*
X-6537900Y-211121D02*
X-6537900Y-165401D01*
X-6537900Y-104441D02*
X-6537900Y-73961D01*
X-6537900Y-23161D02*
X-6537900Y+7319D01*
X-6537900Y+88599D02*
X-6537900Y+108919D01*
X-6537900Y+144479D02*
X-6537900Y+159719D01*
X-6537900Y+251159D02*
X-6537900Y+286719D01*
X-6537900Y+373079D02*
X-6537900Y+418799D01*
X-6537900Y+505159D02*
X-6537900Y+535639D01*
X-6532820Y-1379521D02*
X-6532820Y-1333801D01*
X-6532820Y-1232201D02*
X-6532820Y-1191561D01*
X-6532820Y-1125521D02*
X-6532820Y-1089961D01*
X-6532820Y-912161D02*
X-6532820Y-861361D01*
X-6532820Y-805481D02*
X-6532820Y-769921D01*
X-6532820Y-719121D02*
X-6532820Y-693721D01*
X-6532820Y-622601D02*
X-6532820Y-576881D01*
X-6532820Y-515921D02*
X-6532820Y-485441D01*
X-6532820Y-399081D02*
X-6532820Y-368601D01*
X-6532820Y-307641D02*
X-6532820Y-170481D01*
X-6532820Y-104441D02*
X-6532820Y-73961D01*
X-6532820Y-23161D02*
X-6532820Y+12399D01*
X-6532820Y+78439D02*
X-6532820Y+108919D01*
X-6532820Y+144479D02*
X-6532820Y+169879D01*
X-6532820Y+240999D02*
X-6532820Y+286719D01*
X-6532820Y+378159D02*
X-6532820Y+439119D01*
X-6532820Y+505159D02*
X-6532820Y+535639D01*
X-6527740Y-1379521D02*
X-6527740Y-1338881D01*
X-6527740Y-1227121D02*
X-6527740Y-1181401D01*
X-6527740Y-1140761D02*
X-6527740Y-1089961D01*
X-6527740Y-912161D02*
X-6527740Y-846121D01*
X-6527740Y-815641D02*
X-6527740Y-769921D01*
X-6527740Y-719121D02*
X-6527740Y-678481D01*
X-6527740Y-632761D02*
X-6527740Y-581961D01*
X-6527740Y-515921D02*
X-6527740Y-485441D01*
X-6527740Y-399081D02*
X-6527740Y-368601D01*
X-6527740Y-307641D02*
X-6527740Y-277161D01*
X-6527740Y-272081D02*
X-6527740Y-175561D01*
X-6527740Y-104441D02*
X-6527740Y-73961D01*
X-6527740Y-18081D02*
X-6527740Y+22559D01*
X-6527740Y+63199D02*
X-6527740Y+108919D01*
X-6527740Y+144479D02*
X-6527740Y+185119D01*
X-6527740Y+230839D02*
X-6527740Y+281639D01*
X-6527740Y+383239D02*
X-6527740Y+535639D01*
X-6522660Y-1379521D02*
X-6522660Y-1338881D01*
X-6522660Y-1222041D02*
X-6522660Y-1089961D01*
X-6522660Y-912161D02*
X-6522660Y-775001D01*
X-6522660Y-719121D02*
X-6522660Y-587041D01*
X-6522660Y-515921D02*
X-6522660Y-485441D01*
X-6522660Y-399081D02*
X-6522660Y-368601D01*
X-6522660Y-307641D02*
X-6522660Y-277161D01*
X-6522660Y-267001D02*
X-6522660Y-180641D01*
X-6522660Y-104441D02*
X-6522660Y-73961D01*
X-6522660Y-18081D02*
X-6522660Y+108919D01*
X-6522660Y+144479D02*
X-6522660Y+276559D01*
X-6522660Y+388319D02*
X-6522660Y+535639D01*
X-6517580Y-1374441D02*
X-6517580Y-1343961D01*
X-6517580Y-1216961D02*
X-6517580Y-1089961D01*
X-6517580Y-912161D02*
X-6517580Y-881681D01*
X-6517580Y-876601D02*
X-6517580Y-780081D01*
X-6517580Y-719121D02*
X-6517580Y-592121D01*
X-6517580Y-515921D02*
X-6517580Y-485441D01*
X-6517580Y-399081D02*
X-6517580Y-368601D01*
X-6517580Y-307641D02*
X-6517580Y-277161D01*
X-6517580Y-256841D02*
X-6517580Y-185721D01*
X-6517580Y-104441D02*
X-6517580Y-73961D01*
X-6517580Y-13001D02*
X-6517580Y+108919D01*
X-6517580Y+144479D02*
X-6517580Y+271479D01*
X-6517580Y+398479D02*
X-6517580Y+535639D01*
X-6512500Y-1374441D02*
X-6512500Y-1343961D01*
X-6512500Y-1211881D02*
X-6512500Y-1089961D01*
X-6512500Y-912161D02*
X-6512500Y-881681D01*
X-6512500Y-866441D02*
X-6512500Y-785161D01*
X-6512500Y-714041D02*
X-6512500Y-602281D01*
X-6512500Y-515921D02*
X-6512500Y-485441D01*
X-6512500Y-399081D02*
X-6512500Y-368601D01*
X-6512500Y-307641D02*
X-6512500Y-277161D01*
X-6512500Y-241601D02*
X-6512500Y-200961D01*
X-6512500Y-104441D02*
X-6512500Y-73961D01*
X-6512500Y-2841D02*
X-6512500Y+103839D01*
X-6512500Y+149559D02*
X-6512500Y+261319D01*
X-6512500Y+413719D02*
X-6512500Y+535639D01*
X-6507420Y-1369361D02*
X-6507420Y-1338881D01*
X-6507420Y-1201721D02*
X-6507420Y-1130601D01*
X-6507420Y-1120441D02*
X-6507420Y-1089961D01*
X-6507420Y-912161D02*
X-6507420Y-881681D01*
X-6507420Y-856281D02*
X-6507420Y-790241D01*
X-6507420Y-698801D02*
X-6507420Y-612441D01*
X-6507420Y-515921D02*
X-6507420Y-485441D01*
X-6507420Y-399081D02*
X-6507420Y-368601D01*
X-6507420Y-307641D02*
X-6507420Y-277161D01*
X-6507420Y-104441D02*
X-6507420Y-73961D01*
X-6507420Y+7319D02*
X-6507420Y+88599D01*
X-6507420Y+164799D02*
X-6507420Y+251159D01*
X-6507420Y+434039D02*
X-6507420Y+535639D01*
X-6502340Y-1369361D02*
X-6502340Y-1338881D01*
X-6502340Y-1186481D02*
X-6502340Y-1145841D01*
X-6502340Y-846121D02*
X-6502340Y-805481D01*
X-6502340Y-683561D02*
X-6502340Y-627681D01*
X-6502340Y-307641D02*
X-6502340Y-277161D01*
X-6502340Y+22559D02*
X-6502340Y+73359D01*
X-6502340Y+180039D02*
X-6502340Y+235919D01*
X-6497260Y-1369361D02*
X-6497260Y-1333801D01*
X-6497260Y-307641D02*
X-6497260Y-277161D01*
X-6492180Y-1364281D02*
X-6492180Y-1333801D01*
X-6492180Y-302561D02*
X-6492180Y-272081D01*
X-6487100Y-1364281D02*
X-6487100Y-1328721D01*
X-6487100Y-302561D02*
X-6487100Y-272081D01*
X-6482020Y-1359201D02*
X-6482020Y-1328721D01*
X-6482020Y-302561D02*
X-6482020Y-267001D01*
X-6476940Y-1359201D02*
X-6476940Y-1328721D01*
X-6476940Y-297481D02*
X-6476940Y-267001D01*
X-6471860Y-1354121D02*
X-6471860Y-1323641D01*
X-6471860Y-297481D02*
X-6471860Y-256841D01*
X-6471860Y-180641D02*
X-6471860Y-170481D01*
X-6466780Y-1354121D02*
X-6466780Y-1323641D01*
X-6466780Y-292401D02*
X-6466780Y-246681D01*
X-6466780Y-200961D02*
X-6466780Y-170481D01*
X-6461700Y-1354121D02*
X-6461700Y-1318561D01*
X-6461700Y-287321D02*
X-6461700Y-170481D01*
X-6456620Y-1349041D02*
X-6456620Y-1318561D01*
X-6456620Y-282241D02*
X-6456620Y-170481D01*
X-6451540Y-1349041D02*
X-6451540Y-1313481D01*
X-6451540Y-277161D02*
X-6451540Y-170481D01*
X-6446460Y-1343961D02*
X-6446460Y-1313481D01*
X-6446460Y-267001D02*
X-6446460Y-170481D01*
X-6441380Y-1343961D02*
X-6441380Y-1308401D01*
X-6441380Y-251761D02*
X-6441380Y-190801D01*
M02*
