  0
SECTION
  2
HEADER
  9
$ACADVER
  1
AC1009
  9
$INSUNITS
 70
     1
  0
ENDSEC
  0
SECTION
  2
TABLES
  0
TABLE
  2
LAYER
 70
     8
  0
LAYER
  2
0
 62
     7
 70
0
  6
CONTINUOUS
  0
LAYER
  2
1
 62
     1
 70
0
  6
CONTINUOUS
  0
LAYER
  2
2
 62
     2
 70
0
  6
CONTINUOUS
  0
LAYER
  2
3
 62
     3
 70
0
  6
CONTINUOUS
  0
LAYER
  2
4
 62
     4
 70
0
  6
CONTINUOUS
  0
LAYER
  2
5
 62
     5
 70
0
  6
CONTINUOUS
  0
LAYER
  2
6
 62
     6
 70
0
  6
CONTINUOUS
  0
LAYER
  2
7
 62
     7
 70
0
  6
CONTINUOUS
  0
ENDTAB
  0
TABLE
  2
STYLE
 70
     1
  0
STYLE
 70
     0
  2
STANDARD
  3
TXT
 40
0.00
 41
1.00
 42
1.00
 50
0.00
 71
     0
  0
ENDTAB
  0
ENDSEC
  0
SECTION
  2
BLOCKS
  0
BLOCK
  8
0
  2
EPAD
 70
0
 10
0.0
 20
0.0
  0
POLYLINE
  8
0
 66
1
 70
1
 40
0.5
 41
0.5
  0
VERTEX
  8
0
 10
-0.25
 20
0.0
 42
1.0
  0
VERTEX
  8
0
 10
0.25
 20
0.0
 42
1.0
  0
SEQEND
  8
0
  0
ENDBLK
  8
0
  0
BLOCK
  8
0
  2
RPAD
 70
0
 10
0.0
 20
0.0
  0
TRACE
  8
0
 10
-0.5
 20
-0.5
 11
-0.5
 21
0.5
 12
0.5
 22
-0.5
 13
0.5
 23
0.5
  0
ENDBLK
  8
0
  0
ENDSEC
0
SECTION
2
ENTITIES
0
POLYLINE
8
0
66
1
40
0.150000
41
0.150000
0
VERTEX
8
0
10
1.656102
20
1.510583
0
VERTEX
8
0
10
1.676549
20
1.531029
0
VERTEX
8
0
10
1.855140
20
1.531029
0
VERTEX
8
0
10
1.855140
20
0.697659
0
VERTEX
8
0
10
1.679724
20
0.522244
0
SEQEND
8
0
0
POLYLINE
8
0
66
1
40
0.150000
41
0.150000
0
VERTEX
8
0
10
1.356890
20
1.691535
0
VERTEX
8
0
10
1.483024
20
1.691535
0
VERTEX
8
0
10
1.656102
20
1.518457
0
VERTEX
8
0
10
1.656102
20
1.510583
0
SEQEND
8
0
0
POLYLINE
8
0
66
1
40
0.150000
41
0.150000
0
VERTEX
8
0
10
0.648228
20
1.455315
0
VERTEX
8
0
10
1.384594
20
1.455315
0
VERTEX
8
0
10
1.530884
20
1.309026
0
VERTEX
8
0
10
1.643671
20
1.309026
0
VERTEX
8
0
10
1.656102
20
1.321457
0
VERTEX
8
0
10
1.656102
20
1.313583
0
SEQEND
8
0
0
POLYLINE
8
0
66
1
40
0.020000
41
0.020000
0
VERTEX
8
0
10
1.691871
20
-0.545021
0
VERTEX
8
0
10
1.675787
20
-0.528937
0
SEQEND
8
0
0
POLYLINE
8
0
66
1
40
0.020000
41
0.020000
0
VERTEX
8
0
10
1.682116
20
-0.522609
0
VERTEX
8
0
10
1.675787
20
-0.528937
0
SEQEND
8
0
0
POLYLINE
8
0
66
1
40
0.150000
41
0.150000
0
VERTEX
8
0
10
1.356890
20
-0.229724
0
VERTEX
8
0
10
1.499468
20
-0.229724
0
VERTEX
8
0
10
1.682116
20
-0.412372
0
VERTEX
8
0
10
1.682116
20
-0.522609
0
SEQEND
8
0
0
POLYLINE
8
0
66
1
40
0.150000
41
0.150000
0
VERTEX
8
0
10
1.356890
20
0.742717
0
VERTEX
8
0
10
1.559682
20
0.742717
0
VERTEX
8
0
10
1.679724
20
0.622674
0
VERTEX
8
0
10
1.679724
20
0.522244
0
SEQEND
8
0
0
POLYLINE
8
0
66
1
40
0.150000
41
0.150000
0
VERTEX
8
0
10
0.648228
20
-1.399016
0
VERTEX
8
0
10
1.363017
20
-1.399016
0
VERTEX
8
0
10
1.594287
20
-1.630286
0
VERTEX
8
0
10
1.607261
20
-1.643260
0
VERTEX
8
0
10
1.695472
20
-1.643260
0
SEQEND
8
0
0
POLYLINE
8
0
66
1
40
0.020000
41
0.020000
0
VERTEX
8
0
10
1.675787
20
-0.528937
0
VERTEX
8
0
10
1.688444
20
-0.528937
0
SEQEND
8
0
0
POLYLINE
8
0
66
1
40
0.020000
41
0.020000
0
VERTEX
8
0
10
1.679724
20
-1.430512
0
VERTEX
8
0
10
1.695472
20
-1.446260
0
SEQEND
8
0
0
POLYLINE
8
0
66
1
40
0.020000
41
0.020000
0
VERTEX
8
0
10
1.682116
20
-0.522609
0
VERTEX
8
0
10
1.688444
20
-0.528937
0
VERTEX
8
0
10
1.691871
20
-0.532364
0
VERTEX
8
0
10
1.691871
20
-0.545021
0
SEQEND
8
0
0
POLYLINE
8
0
66
1
40
0.150000
41
0.150000
0
VERTEX
8
0
10
1.356890
20
-1.162795
0
VERTEX
8
0
10
1.590587
20
-1.162795
0
VERTEX
8
0
10
1.669788
20
-1.241997
0
VERTEX
8
0
10
1.669788
20
-1.420576
0
VERTEX
8
0
10
1.679724
20
-1.430512
0
SEQEND
8
0
0
POLYLINE
8
0
66
1
40
0.020000
41
0.020000
0
VERTEX
8
0
10
0.955315
20
-0.059016
0
VERTEX
8
0
10
0.747913
20
-0.059016
0
SEQEND
8
0
0
POLYLINE
8
0
66
1
40
0.020000
41
0.020000
0
VERTEX
8
0
10
0.831693
20
-0.930512
0
VERTEX
8
0
10
0.955315
20
-0.930512
0
VERTEX
8
0
10
0.967126
20
-0.918701
0
SEQEND
8
0
0
POLYLINE
8
0
66
1
40
0.020000
41
0.020000
0
VERTEX
8
0
10
0.823819
20
0.022244
0
VERTEX
8
0
10
0.954055
20
0.022244
0
VERTEX
8
0
10
0.955315
20
0.020984
0
SEQEND
8
0
0
POLYLINE
8
0
66
1
40
0.020000
41
0.020000
0
VERTEX
8
0
10
0.819882
20
0.986811
0
VERTEX
8
0
10
0.943504
20
0.986811
0
VERTEX
8
0
10
0.947441
20
0.990748
0
SEQEND
8
0
0
POLYLINE
8
0
66
1
40
0.020000
41
0.020000
0
VERTEX
8
0
10
0.109646
20
-0.879331
0
VERTEX
8
0
10
0.271250
20
-1.040935
0
VERTEX
8
0
10
0.271250
20
-1.861733
0
VERTEX
8
0
10
0.421969
20
-1.861733
0
VERTEX
8
0
10
0.431693
20
-1.871457
0
SEQEND
8
0
0
POLYLINE
8
0
66
1
40
0.020000
41
0.020000
0
VERTEX
8
0
10
-0.097441
20
-1.771457
0
VERTEX
8
0
10
0.013878
20
-1.771457
0
VERTEX
8
0
10
0.178564
20
-1.606770
0
VERTEX
8
0
10
0.178564
20
-1.067147
0
VERTEX
8
0
10
0.089173
20
-0.977756
0
VERTEX
8
0
10
-0.359646
20
-0.977756
0
VERTEX
8
0
10
-0.477756
20
-0.859646
0
SEQEND
8
0
0
POLYLINE
8
0
66
1
40
0.020000
41
0.020000
0
VERTEX
8
0
10
-0.576181
20
-1.292717
0
VERTEX
8
0
10
-0.677756
20
-1.191142
0
VERTEX
8
0
10
-0.677756
20
-0.859646
0
VERTEX
8
0
10
-0.788780
20
-0.748622
0
VERTEX
8
0
10
-0.788780
20
-0.477756
0
SEQEND
8
0
0
POLYLINE
8
0
66
1
40
0.020000
41
0.020000
0
VERTEX
8
0
10
-0.477756
20
-0.859646
0
VERTEX
8
0
10
-0.688780
20
-0.648622
0
VERTEX
8
0
10
-0.688780
20
-0.477756
0
VERTEX
8
0
10
-0.688780
20
-0.215551
0
VERTEX
8
0
10
-0.717913
20
-0.186417
0
SEQEND
8
0
0
POLYLINE
8
0
66
1
40
0.020000
41
0.020000
0
VERTEX
8
0
10
-0.788780
20
-0.477756
0
VERTEX
8
0
10
-0.788780
20
-0.215551
0
VERTEX
8
0
10
-0.817913
20
-0.186417
0
SEQEND
8
0
0
POLYLINE
8
0
66
1
40
0.020000
41
0.020000
0
VERTEX
8
0
10
-0.717913
20
-0.186417
0
VERTEX
8
0
10
-0.558858
20
-0.186417
0
VERTEX
8
0
10
-0.505315
20
-0.132874
0
SEQEND
8
0
0
POLYLINE
8
0
66
1
40
0.020000
41
0.020000
0
VERTEX
8
0
10
-0.505315
20
-0.032874
0
VERTEX
8
0
10
-0.358858
20
-0.179331
0
VERTEX
8
0
10
-0.190354
20
-0.179331
0
SEQEND
8
0
0
POLYLINE
8
0
66
1
40
0.020000
41
0.020000
0
VERTEX
8
0
10
-0.505315
20
-0.132874
0
VERTEX
8
0
10
-0.374802
20
-0.263387
0
VERTEX
8
0
10
-0.206298
20
-0.263387
0
VERTEX
8
0
10
-0.190354
20
-0.279331
0
SEQEND
8
0
0
POLYLINE
8
0
66
1
40
0.020000
41
0.020000
0
VERTEX
8
0
10
-0.097441
20
-1.771457
0
VERTEX
8
0
10
0.083819
20
-1.952717
0
VERTEX
8
0
10
0.741299
20
-1.952717
0
SEQEND
8
0
0
POLYLINE
8
0
66
1
40
0.020000
41
0.020000
0
VERTEX
8
0
10
0.614557
20
-0.964183
0
VERTEX
8
0
10
0.649076
20
-0.998701
0
SEQEND
8
0
0
POLYLINE
8
0
66
1
40
0.020000
41
0.020000
0
VERTEX
8
0
10
-0.505315
20
-0.032874
0
VERTEX
8
0
10
-0.392007
20
0.080434
0
VERTEX
8
0
10
-0.392007
20
0.319324
0
SEQEND
8
0
0
POLYLINE
8
0
66
1
40
0.020000
41
0.020000
0
VERTEX
8
0
10
-0.505315
20
-0.132874
0
VERTEX
8
0
10
-0.573421
20
-0.064768
0
VERTEX
8
0
10
-0.573421
20
0.090545
0
VERTEX
8
0
10
-0.492007
20
0.171959
0
VERTEX
8
0
10
-0.492007
20
0.319324
0
SEQEND
8
0
0
POLYLINE
8
0
66
1
40
0.150000
41
0.150000
0
VERTEX
8
0
10
0.648228
20
0.506496
0
VERTEX
8
0
10
1.350547
20
0.506496
0
VERTEX
8
0
10
1.514370
20
0.342673
0
VERTEX
8
0
10
1.514370
20
0.319670
0
VERTEX
8
0
10
1.674150
20
0.319670
0
VERTEX
8
0
10
1.679724
20
0.325244
0
SEQEND
8
0
0
POLYLINE
8
0
66
1
40
0.020000
41
0.020000
0
VERTEX
8
0
10
0.967126
20
-0.838701
0
VERTEX
8
0
10
0.643031
20
-0.838701
0
VERTEX
8
0
10
0.475000
20
-0.670669
0
VERTEX
8
0
10
0.475000
20
-0.402526
0
VERTEX
8
0
10
0.647802
20
-0.229724
0
VERTEX
8
0
10
0.805709
20
-0.229724
0
SEQEND
8
0
0
POLYLINE
8
0
66
1
40
0.020000
41
0.020000
0
VERTEX
8
0
10
0.805709
20
0.742717
0
VERTEX
8
0
10
0.640354
20
0.742717
0
VERTEX
8
0
10
0.636498
20
0.746573
0
VERTEX
8
0
10
0.475000
20
0.585075
0
VERTEX
8
0
10
0.475000
20
0.264622
0
VERTEX
8
0
10
0.608472
20
0.131150
0
VERTEX
8
0
10
0.925149
20
0.131150
0
VERTEX
8
0
10
0.955315
20
0.100984
0
SEQEND
8
0
0
POLYLINE
8
0
66
1
40
0.150000
41
0.150000
0
VERTEX
8
0
10
1.679724
20
0.522244
0
VERTEX
8
0
10
1.868701
20
0.470032
0
VERTEX
8
0
10
1.868701
20
-0.151127
0
VERTEX
8
0
10
1.840829
20
-0.363896
0
VERTEX
8
0
10
1.682116
20
-0.522609
0
SEQEND
8
0
0
POLYLINE
8
0
66
1
40
0.020000
41
0.020000
0
VERTEX
8
0
10
0.994685
20
-1.872717
0
VERTEX
8
0
10
0.832953
20
-1.872717
0
VERTEX
8
0
10
0.831693
20
-1.871457
0
SEQEND
8
0
0
POLYLINE
8
0
66
1
40
0.020000
41
0.020000
0
VERTEX
8
0
10
0.994685
20
-1.952717
0
VERTEX
8
0
10
0.982874
20
-1.952717
0
VERTEX
8
0
10
0.817026
20
-1.952717
0
VERTEX
8
0
10
0.817001
20
-1.952717
0
SEQEND
8
0
0
POLYLINE
8
0
66
1
40
0.020000
41
0.020000
0
VERTEX
8
0
10
0.649076
20
-0.998701
0
VERTEX
8
0
10
0.757205
20
-0.998701
0
VERTEX
8
0
10
0.812323
20
-0.998701
0
VERTEX
8
0
10
0.879252
20
-0.998701
0
VERTEX
8
0
10
0.929173
20
-0.998701
0
VERTEX
8
0
10
0.940984
20
-0.998701
0
VERTEX
8
0
10
0.956732
20
-0.998701
0
VERTEX
8
0
10
0.967126
20
-0.998701
0
SEQEND
8
0
0
POLYLINE
8
0
66
1
40
0.020000
41
0.020000
0
VERTEX
8
0
10
0.994685
20
-1.792717
0
VERTEX
8
0
10
0.825357
20
-1.792717
0
VERTEX
8
0
10
0.484603
20
-1.451963
0
VERTEX
8
0
10
0.484603
20
-1.344967
0
VERTEX
8
0
10
0.666775
20
-1.162795
0
VERTEX
8
0
10
0.805709
20
-1.162795
0
SEQEND
8
0
0
POLYLINE
8
0
66
1
40
0.020000
41
0.020000
0
VERTEX
8
0
10
0.947441
20
1.070748
0
VERTEX
8
0
10
0.809043
20
1.070748
0
VERTEX
8
0
10
0.496338
20
1.383453
0
VERTEX
8
0
10
0.496338
20
1.527907
0
VERTEX
8
0
10
0.659967
20
1.691535
0
VERTEX
8
0
10
0.805709
20
1.691535
0
SEQEND
8
0
0
POLYLINE
8
0
66
1
40
0.020000
41
0.020000
0
VERTEX
8
0
10
-1.131722
20
1.683785
0
VERTEX
8
0
10
-1.147594
20
1.699657
0
SEQEND
8
0
0
POLYLINE
8
0
66
1
40
0.150000
41
0.150000
0
VERTEX
8
0
10
-1.147594
20
1.699657
0
VERTEX
8
0
10
-1.147594
20
1.868825
0
SEQEND
8
0
0
POLYLINE
8
0
66
1
40
0.150000
41
0.150000
0
VERTEX
8
0
10
-1.438659
20
1.671974
0
VERTEX
8
0
10
-1.143533
20
1.671974
0
VERTEX
8
0
10
-1.131722
20
1.683785
0
SEQEND
8
0
0
POLYLINE
8
0
66
1
40
0.150000
41
0.150000
0
VERTEX
8
0
10
-1.635659
20
1.671974
0
VERTEX
8
0
10
-1.635659
20
1.531774
0
VERTEX
8
0
10
-1.582947
20
1.479061
0
VERTEX
8
0
10
-1.005124
20
1.479061
0
VERTEX
8
0
10
-0.921056
20
1.563129
0
VERTEX
8
0
10
-0.921056
20
1.670119
0
VERTEX
8
0
10
-0.934722
20
1.683785
0
SEQEND
8
0
0
POLYLINE
8
0
66
1
40
0.050000
41
0.050000
0
VERTEX
8
0
10
-0.946260
20
-1.844047
0
VERTEX
8
0
10
-0.635386
20
-1.844047
0
VERTEX
8
0
10
-0.576181
20
-1.784843
0
SEQEND
8
0
0
POLYLINE
8
0
66
1
40
0.050000
41
0.050000
0
VERTEX
8
0
10
-0.946260
20
-1.647047
0
VERTEX
8
0
10
-0.823273
20
-1.524060
0
VERTEX
8
0
10
-0.234984
20
-1.524060
0
VERTEX
8
0
10
-0.204569
20
-1.493646
0
VERTEX
8
0
10
-0.204569
20
-1.413231
0
VERTEX
8
0
10
-0.084055
20
-1.292717
0
SEQEND
8
0
0
POLYLINE
8
0
66
1
40
0.020000
41
0.020000
0
VERTEX
8
0
10
0.947441
20
0.910748
0
VERTEX
8
0
10
0.692953
20
0.910748
0
VERTEX
8
0
10
0.427756
20
0.645551
0
VERTEX
8
0
10
0.427756
20
0.251851
0
VERTEX
8
0
10
0.736733
20
-0.057126
0
VERTEX
8
0
10
0.736732
20
-0.057126
0
VERTEX
8
0
10
0.742717
20
-0.059016
0
VERTEX
8
0
10
0.747913
20
-0.056496
0
VERTEX
8
0
10
0.747913
20
-0.059016
0
VERTEX
8
0
10
0.742717
20
-0.059016
0
VERTEX
8
0
10
0.685078
20
-0.059016
0
VERTEX
8
0
10
0.427756
20
-0.316338
0
VERTEX
8
0
10
0.427756
20
-0.777381
0
VERTEX
8
0
10
0.614557
20
-0.964183
0
SEQEND
8
0
0
POLYLINE
8
0
66
1
40
0.020000
41
0.020000
0
VERTEX
8
0
10
0.805709
20
-1.635236
0
VERTEX
8
0
10
0.732736
20
-1.635236
0
VERTEX
8
0
10
0.530118
20
-1.432618
0
VERTEX
8
0
10
0.530118
20
-1.365432
0
VERTEX
8
0
10
0.650770
20
-1.244780
0
VERTEX
8
0
10
0.843730
20
-1.244780
0
VERTEX
8
0
10
1.085236
20
-1.003274
0
VERTEX
8
0
10
1.085236
20
-0.832087
0
VERTEX
8
0
10
0.955315
20
-0.702165
0
VERTEX
8
0
10
0.805709
20
-0.702165
0
SEQEND
8
0
0
POLYLINE
8
0
66
1
40
0.020000
41
0.020000
0
VERTEX
8
0
10
-0.190354
20
-0.279331
0
VERTEX
8
0
10
-0.056496
20
-0.280906
0
VERTEX
8
0
10
0.109646
20
-0.179331
0
VERTEX
8
0
10
0.139567
20
-0.179331
0
VERTEX
8
0
10
0.225940
20
-0.092957
0
VERTEX
8
0
10
0.225940
20
0.551385
0
VERTEX
8
0
10
-0.021063
20
0.798388
0
VERTEX
8
0
10
-0.021063
20
1.073425
0
SEQEND
8
0
0
POLYLINE
8
0
66
1
40
0.020000
41
0.020000
0
VERTEX
8
0
10
0.109646
20
-0.679331
0
VERTEX
8
0
10
0.222244
20
-0.679331
0
VERTEX
8
0
10
0.376575
20
-0.525000
0
VERTEX
8
0
10
0.376575
20
-0.025000
0
VERTEX
8
0
10
0.423819
20
0.022244
0
SEQEND
8
0
0
POLYLINE
8
0
66
1
40
0.020000
41
0.020000
0
VERTEX
8
0
10
0.109646
20
-0.579331
0
VERTEX
8
0
10
0.215945
20
-0.579331
0
VERTEX
8
0
10
0.329331
20
-0.465945
0
VERTEX
8
0
10
0.329331
20
0.896260
0
VERTEX
8
0
10
0.419882
20
0.986811
0
SEQEND
8
0
0
POLYLINE
8
0
66
1
40
0.020000
41
0.020000
0
VERTEX
8
0
10
0.078937
20
1.073425
0
VERTEX
8
0
10
0.078937
20
0.776574
0
VERTEX
8
0
10
0.274213
20
0.581299
0
VERTEX
8
0
10
0.274213
20
-0.402953
0
VERTEX
8
0
10
0.197835
20
-0.479331
0
VERTEX
8
0
10
0.109646
20
-0.479331
0
SEQEND
8
0
0
POLYLINE
8
0
66
1
40
0.020000
41
0.020000
0
VERTEX
8
0
10
-0.375394
20
-0.536024
0
VERTEX
8
0
10
-0.319006
20
-0.479635
0
VERTEX
8
0
10
-0.235354
20
-0.479635
0
VERTEX
8
0
10
-0.190354
20
-0.479331
0
SEQEND
8
0
0
POLYLINE
8
0
66
1
40
0.020000
41
0.020000
0
VERTEX
8
0
10
0.431693
20
-0.930512
0
VERTEX
8
0
10
0.282265
20
-0.781083
0
VERTEX
8
0
10
0.154646
20
-0.781083
0
VERTEX
8
0
10
0.109646
20
-0.779331
0
SEQEND
8
0
0
POLYLINE
8
0
66
1
40
0.020000
41
0.020000
0
VERTEX
8
0
10
-0.392007
20
0.319324
0
VERTEX
8
0
10
-0.392007
20
0.540455
0
VERTEX
8
0
10
-0.393504
20
0.541952
0
SEQEND
8
0
0
POLYLINE
8
0
66
1
40
0.020000
41
0.020000
0
VERTEX
8
0
10
0.805709
20
0.270276
0
VERTEX
8
0
10
0.726558
20
0.270276
0
VERTEX
8
0
10
0.540523
20
0.456311
0
VERTEX
8
0
10
0.540523
20
0.551957
0
VERTEX
8
0
10
0.646574
20
0.658008
0
VERTEX
8
0
10
0.846042
20
0.658008
0
VERTEX
8
0
10
1.031218
20
0.843184
0
VERTEX
8
0
10
1.031218
20
1.105811
0
VERTEX
8
0
10
0.917934
20
1.219094
0
VERTEX
8
0
10
0.805709
20
1.219094
0
SEQEND
8
0
0
POLYLINE
8
0
66
1
40
0.020000
41
0.020000
0
VERTEX
8
0
10
-0.193504
20
0.888363
0
VERTEX
8
0
10
-0.121063
20
0.960804
0
VERTEX
8
0
10
-0.121063
20
1.073425
0
SEQEND
8
0
0
POLYLINE
8
0
66
1
40
0.020000
41
0.020000
0
VERTEX
8
0
10
-0.393504
20
0.541952
0
VERTEX
8
0
10
-0.393504
20
0.964763
0
VERTEX
8
0
10
-0.387205
20
0.971063
0
VERTEX
8
0
10
-0.175404
20
1.182863
0
VERTEX
8
0
10
-0.127961
20
1.182863
0
VERTEX
8
0
10
0.332470
20
1.182863
0
VERTEX
8
0
10
0.368701
20
1.219094
0
VERTEX
8
0
10
0.454352
20
1.304745
0
VERTEX
8
0
10
0.454352
20
1.589176
0
VERTEX
8
0
10
0.480039
20
1.614863
0
VERTEX
8
0
10
0.638680
20
1.773504
0
VERTEX
8
0
10
0.841850
20
1.773504
0
VERTEX
8
0
10
0.888039
20
1.727315
0
VERTEX
8
0
10
0.888039
20
1.646324
0
VERTEX
8
0
10
0.804039
20
1.562324
0
VERTEX
8
0
10
0.597798
20
1.562324
0
VERTEX
8
0
10
0.540321
20
1.504848
0
VERTEX
8
0
10
0.540321
20
1.406582
0
VERTEX
8
0
10
0.727808
20
1.219094
0
VERTEX
8
0
10
0.805709
20
1.219094
0
SEQEND
8
0
0
POLYLINE
8
0
66
1
40
0.020000
41
0.020000
0
VERTEX
8
0
10
-0.375394
20
-0.336024
0
VERTEX
8
0
10
-0.332087
20
-0.379331
0
VERTEX
8
0
10
-0.190354
20
-0.379331
0
SEQEND
8
0
0
POLYLINE
8
0
66
1
40
0.020000
41
0.020000
0
VERTEX
8
0
10
0.817001
20
-1.952717
0
VERTEX
8
0
10
0.768858
20
-1.952717
0
VERTEX
8
0
10
0.409566
20
-1.593425
0
VERTEX
8
0
10
0.409566
20
-1.179264
0
VERTEX
8
0
10
0.590129
20
-0.998701
0
VERTEX
8
0
10
0.649076
20
-0.998701
0
SEQEND
8
0
0
POLYLINE
8
0
66
1
40
0.020000
41
0.020000
0
VERTEX
8
0
10
0.741299
20
-1.952717
0
VERTEX
8
0
10
0.768858
20
-1.952717
0
SEQEND
8
0
0
POLYLINE
8
0
66
1
40
0.120000
41
0.120000
0
VERTEX
8
0
10
-1.147594
20
1.868825
0
VERTEX
8
0
10
-1.117165
20
1.884573
0
VERTEX
8
0
10
1.167913
20
1.884573
0
VERTEX
8
0
10
1.356890
20
1.695596
0
VERTEX
8
0
10
1.356890
20
1.691535
0
SEQEND
8
0
0
POLYLINE
8
0
66
1
40
0.020000
41
0.020000
0
VERTEX
8
0
10
-0.817913
20
-0.186417
0
VERTEX
8
0
10
-0.817913
20
-0.100450
0
VERTEX
8
0
10
-0.650984
20
0.066480
0
VERTEX
8
0
10
-0.650984
20
0.260347
0
VERTEX
8
0
10
-0.592007
20
0.319324
0
SEQEND
8
0
0
POLYLINE
8
0
66
1
40
0.020000
41
0.020000
0
VERTEX
8
0
10
0.805709
20
0.270276
0
VERTEX
8
0
10
0.946865
20
0.270276
0
VERTEX
8
0
10
1.162367
20
0.054774
0
VERTEX
8
0
10
1.162367
20
-0.002988
0
VERTEX
8
0
10
0.892323
20
-0.296654
0
VERTEX
8
0
10
0.778150
20
-0.343898
0
VERTEX
8
0
10
0.612795
20
-0.343898
0
VERTEX
8
0
10
0.569804
20
-0.371457
0
VERTEX
8
0
10
0.537117
20
-0.404144
0
VERTEX
8
0
10
0.537117
20
-0.520187
0
VERTEX
8
0
10
0.719094
20
-0.702165
0
VERTEX
8
0
10
0.805709
20
-0.702165
0
SEQEND
8
0
0
POLYLINE
8
0
66
1
40
0.150000
41
0.150000
0
VERTEX
8
0
10
1.688444
20
-0.528937
0
VERTEX
8
0
10
1.789961
20
-0.528937
0
VERTEX
8
0
10
1.856890
20
-0.595866
0
VERTEX
8
0
10
1.856890
20
-1.115715
0
VERTEX
8
0
10
1.742880
20
-1.229724
0
VERTEX
8
0
10
1.679724
20
-1.229724
0
VERTEX
8
0
10
1.679724
20
-1.430512
0
SEQEND
8
0
0
POLYLINE
8
0
66
1
40
0.150000
41
0.150000
0
VERTEX
8
0
10
0.648228
20
-0.465945
0
VERTEX
8
0
10
1.329331
20
-0.465945
0
VERTEX
8
0
10
1.589173
20
-0.725787
0
VERTEX
8
0
10
1.675638
20
-0.725787
0
VERTEX
8
0
10
1.675787
20
-0.725937
0
SEQEND
8
0
0
INSERT
8
0
2
EPAD
10
0.805709
20
1.691535
41
0.100000
42
0.100000
0
CIRCLE
8
0
10
0.805709
20
1.691535
40
0.030000
0
INSERT
8
0
2
EPAD
10
0.805709
20
1.219094
41
0.100000
42
0.100000
0
CIRCLE
8
0
10
0.805709
20
1.219095
40
0.030000
0
INSERT
8
0
2
EPAD
10
0.648228
20
1.455315
41
0.100000
42
0.100000
0
CIRCLE
8
0
10
0.648228
20
1.455315
40
0.030000
0
INSERT
8
0
2
EPAD
10
1.356890
20
1.219094
41
0.100000
42
0.100000
0
CIRCLE
8
0
10
1.356890
20
1.219095
40
0.030000
0
INSERT
8
0
2
EPAD
10
1.356890
20
1.691535
41
0.100000
42
0.100000
0
CIRCLE
8
0
10
1.356890
20
1.691535
40
0.030000
0
INSERT
8
0
2
EPAD
10
0.805709
20
0.742717
41
0.100000
42
0.100000
0
CIRCLE
8
0
10
0.805709
20
0.742717
40
0.030000
0
INSERT
8
0
2
EPAD
10
0.805709
20
0.270276
41
0.100000
42
0.100000
0
CIRCLE
8
0
10
0.805709
20
0.270276
40
0.030000
0
INSERT
8
0
2
EPAD
10
0.648228
20
0.506496
41
0.100000
42
0.100000
0
CIRCLE
8
0
10
0.648228
20
0.506496
40
0.030000
0
INSERT
8
0
2
EPAD
10
1.356890
20
0.270276
41
0.100000
42
0.100000
0
CIRCLE
8
0
10
1.356890
20
0.270276
40
0.030000
0
INSERT
8
0
2
EPAD
10
1.356890
20
0.742717
41
0.100000
42
0.100000
0
CIRCLE
8
0
10
1.356890
20
0.742717
40
0.030000
0
INSERT
8
0
2
EPAD
10
0.805709
20
-0.229724
41
0.100000
42
0.100000
0
CIRCLE
8
0
10
0.805709
20
-0.229724
40
0.030000
0
INSERT
8
0
2
EPAD
10
0.805709
20
-0.702165
41
0.100000
42
0.100000
0
CIRCLE
8
0
10
0.805709
20
-0.702165
40
0.030000
0
INSERT
8
0
2
EPAD
10
0.648228
20
-0.465945
41
0.100000
42
0.100000
0
CIRCLE
8
0
10
0.648228
20
-0.465945
40
0.030000
0
INSERT
8
0
2
EPAD
10
1.356890
20
-0.702165
41
0.100000
42
0.100000
0
CIRCLE
8
0
10
1.356890
20
-0.702165
40
0.030000
0
INSERT
8
0
2
EPAD
10
1.356890
20
-0.229724
41
0.100000
42
0.100000
0
CIRCLE
8
0
10
1.356890
20
-0.229724
40
0.030000
0
INSERT
8
0
2
EPAD
10
0.805709
20
-1.162795
41
0.100000
42
0.100000
0
CIRCLE
8
0
10
0.805709
20
-1.162795
40
0.030000
0
INSERT
8
0
2
EPAD
10
0.805709
20
-1.635236
41
0.100000
42
0.100000
0
CIRCLE
8
0
10
0.805709
20
-1.635236
40
0.030000
0
INSERT
8
0
2
EPAD
10
0.648228
20
-1.399016
41
0.100000
42
0.100000
0
CIRCLE
8
0
10
0.648228
20
-1.399016
40
0.030000
0
INSERT
8
0
2
EPAD
10
1.356890
20
-1.635236
41
0.100000
42
0.100000
0
CIRCLE
8
0
10
1.356890
20
-1.635236
40
0.030000
0
INSERT
8
0
2
EPAD
10
1.356890
20
-1.162795
41
0.100000
42
0.100000
0
CIRCLE
8
0
10
1.356890
20
-1.162795
40
0.030000
0
INSERT
8
0
2
EPAD
10
1.656102
20
1.510583
41
0.120000
42
0.120000
0
CIRCLE
8
0
10
1.656102
20
1.510583
40
0.030000
0
INSERT
8
0
2
EPAD
10
1.656102
20
1.313583
41
0.120000
42
0.120000
0
CIRCLE
8
0
10
1.656102
20
1.313583
40
0.030000
0
INSERT
8
0
2
EPAD
10
1.679724
20
0.522244
41
0.120000
42
0.120000
0
CIRCLE
8
0
10
1.679724
20
0.522244
40
0.030000
0
INSERT
8
0
2
EPAD
10
1.679724
20
0.325244
41
0.120000
42
0.120000
0
CIRCLE
8
0
10
1.679724
20
0.325244
40
0.030000
0
INSERT
8
0
2
EPAD
10
1.675787
20
-0.528937
41
0.120000
42
0.120000
0
CIRCLE
8
0
10
1.675787
20
-0.528937
40
0.030000
0
INSERT
8
0
2
EPAD
10
1.675787
20
-0.725937
41
0.120000
42
0.120000
0
CIRCLE
8
0
10
1.675787
20
-0.725937
40
0.030000
0
INSERT
8
0
2
EPAD
10
1.695472
20
-1.446260
41
0.120000
42
0.120000
0
CIRCLE
8
0
10
1.695472
20
-1.446260
40
0.030000
0
INSERT
8
0
2
EPAD
10
1.695472
20
-1.643260
41
0.120000
42
0.120000
0
CIRCLE
8
0
10
1.695472
20
-1.643260
40
0.030000
0
POLYLINE
8
0
66
1
70
1
40
0
41
0
0
VERTEX
8
0
10
0.902441
20
1.059248
0
VERTEX
8
0
10
0.902441
20
1.082248
0
VERTEX
8
0
10
0.902759
20
1.085520
0
VERTEX
8
0
10
0.903675
20
1.088545
0
VERTEX
8
0
10
0.905130
20
1.091265
0
VERTEX
8
0
10
0.907066
20
1.093623
0
VERTEX
8
0
10
0.909423
20
1.095559
0
VERTEX
8
0
10
0.912144
20
1.097014
0
VERTEX
8
0
10
0.915169
20
1.097930
0
VERTEX
8
0
10
0.918441
20
1.098248
0
VERTEX
8
0
10
0.976441
20
1.098248
0
VERTEX
8
0
10
0.979713
20
1.097930
0
VERTEX
8
0
10
0.982738
20
1.097014
0
VERTEX
8
0
10
0.985459
20
1.095559
0
VERTEX
8
0
10
0.987816
20
1.093623
0
VERTEX
8
0
10
0.989752
20
1.091265
0
VERTEX
8
0
10
0.991207
20
1.088545
0
VERTEX
8
0
10
0.992122
20
1.085520
0
VERTEX
8
0
10
0.992441
20
1.082248
0
VERTEX
8
0
10
0.992441
20
1.059248
0
VERTEX
8
0
10
0.992122
20
1.055976
0
VERTEX
8
0
10
0.991207
20
1.052951
0
VERTEX
8
0
10
0.989752
20
1.050231
0
VERTEX
8
0
10
0.987816
20
1.047873
0
VERTEX
8
0
10
0.985459
20
1.045937
0
VERTEX
8
0
10
0.982738
20
1.044482
0
VERTEX
8
0
10
0.979713
20
1.043567
0
VERTEX
8
0
10
0.976441
20
1.043248
0
VERTEX
8
0
10
0.918441
20
1.043248
0
VERTEX
8
0
10
0.915169
20
1.043567
0
VERTEX
8
0
10
0.912144
20
1.044482
0
VERTEX
8
0
10
0.909423
20
1.045937
0
VERTEX
8
0
10
0.907066
20
1.047873
0
VERTEX
8
0
10
0.905130
20
1.050231
0
VERTEX
8
0
10
0.903675
20
1.052951
0
VERTEX
8
0
10
0.902759
20
1.055976
0
VERTEX
8
0
10
0.902441
20
1.059248
0
SEQEND
8
0
0
CIRCLE
8
0
10
0.947441
20
1.070748
40
0.020000
0
POLYLINE
8
0
66
1
70
1
40
0
41
0
0
VERTEX
8
0
10
0.902441
20
0.979248
0
VERTEX
8
0
10
0.902441
20
1.002248
0
VERTEX
8
0
10
0.902759
20
1.005520
0
VERTEX
8
0
10
0.903675
20
1.008545
0
VERTEX
8
0
10
0.905130
20
1.011265
0
VERTEX
8
0
10
0.907066
20
1.013623
0
VERTEX
8
0
10
0.909423
20
1.015559
0
VERTEX
8
0
10
0.912144
20
1.017014
0
VERTEX
8
0
10
0.915169
20
1.017930
0
VERTEX
8
0
10
0.918441
20
1.018248
0
VERTEX
8
0
10
0.976441
20
1.018248
0
VERTEX
8
0
10
0.979713
20
1.017930
0
VERTEX
8
0
10
0.982738
20
1.017014
0
VERTEX
8
0
10
0.985459
20
1.015559
0
VERTEX
8
0
10
0.987816
20
1.013623
0
VERTEX
8
0
10
0.989752
20
1.011265
0
VERTEX
8
0
10
0.991207
20
1.008545
0
VERTEX
8
0
10
0.992122
20
1.005520
0
VERTEX
8
0
10
0.992441
20
1.002248
0
VERTEX
8
0
10
0.992441
20
0.979248
0
VERTEX
8
0
10
0.992122
20
0.975976
0
VERTEX
8
0
10
0.991207
20
0.972951
0
VERTEX
8
0
10
0.989752
20
0.970231
0
VERTEX
8
0
10
0.987816
20
0.967873
0
VERTEX
8
0
10
0.985459
20
0.965937
0
VERTEX
8
0
10
0.982738
20
0.964482
0
VERTEX
8
0
10
0.979713
20
0.963567
0
VERTEX
8
0
10
0.976441
20
0.963248
0
VERTEX
8
0
10
0.918441
20
0.963248
0
VERTEX
8
0
10
0.915169
20
0.963567
0
VERTEX
8
0
10
0.912144
20
0.964482
0
VERTEX
8
0
10
0.909423
20
0.965937
0
VERTEX
8
0
10
0.907066
20
0.967873
0
VERTEX
8
0
10
0.905130
20
0.970231
0
VERTEX
8
0
10
0.903675
20
0.972951
0
VERTEX
8
0
10
0.902759
20
0.975976
0
VERTEX
8
0
10
0.902441
20
0.979248
0
SEQEND
8
0
0
CIRCLE
8
0
10
0.947441
20
0.990748
40
0.020000
0
POLYLINE
8
0
66
1
70
1
40
0
41
0
0
VERTEX
8
0
10
0.902441
20
0.899248
0
VERTEX
8
0
10
0.902441
20
0.922248
0
VERTEX
8
0
10
0.902759
20
0.925520
0
VERTEX
8
0
10
0.903675
20
0.928545
0
VERTEX
8
0
10
0.905130
20
0.931265
0
VERTEX
8
0
10
0.907066
20
0.933623
0
VERTEX
8
0
10
0.909423
20
0.935559
0
VERTEX
8
0
10
0.912144
20
0.937014
0
VERTEX
8
0
10
0.915169
20
0.937930
0
VERTEX
8
0
10
0.918441
20
0.938248
0
VERTEX
8
0
10
0.976441
20
0.938248
0
VERTEX
8
0
10
0.979713
20
0.937930
0
VERTEX
8
0
10
0.982738
20
0.937014
0
VERTEX
8
0
10
0.985459
20
0.935559
0
VERTEX
8
0
10
0.987816
20
0.933623
0
VERTEX
8
0
10
0.989752
20
0.931265
0
VERTEX
8
0
10
0.991207
20
0.928545
0
VERTEX
8
0
10
0.992122
20
0.925520
0
VERTEX
8
0
10
0.992441
20
0.922248
0
VERTEX
8
0
10
0.992441
20
0.899248
0
VERTEX
8
0
10
0.992122
20
0.895976
0
VERTEX
8
0
10
0.991207
20
0.892951
0
VERTEX
8
0
10
0.989752
20
0.890231
0
VERTEX
8
0
10
0.987816
20
0.887873
0
VERTEX
8
0
10
0.985459
20
0.885937
0
VERTEX
8
0
10
0.982738
20
0.884482
0
VERTEX
8
0
10
0.979713
20
0.883567
0
VERTEX
8
0
10
0.976441
20
0.883248
0
VERTEX
8
0
10
0.918441
20
0.883248
0
VERTEX
8
0
10
0.915169
20
0.883567
0
VERTEX
8
0
10
0.912144
20
0.884482
0
VERTEX
8
0
10
0.909423
20
0.885937
0
VERTEX
8
0
10
0.907066
20
0.887873
0
VERTEX
8
0
10
0.905130
20
0.890231
0
VERTEX
8
0
10
0.903675
20
0.892951
0
VERTEX
8
0
10
0.902759
20
0.895976
0
VERTEX
8
0
10
0.902441
20
0.899248
0
SEQEND
8
0
0
CIRCLE
8
0
10
0.947441
20
0.910748
40
0.020000
0
POLYLINE
8
0
66
1
70
1
40
0
41
0
0
VERTEX
8
0
10
0.910315
20
0.089484
0
VERTEX
8
0
10
0.910315
20
0.112484
0
VERTEX
8
0
10
0.910633
20
0.115756
0
VERTEX
8
0
10
0.911549
20
0.118781
0
VERTEX
8
0
10
0.913004
20
0.121502
0
VERTEX
8
0
10
0.914940
20
0.123859
0
VERTEX
8
0
10
0.917297
20
0.125795
0
VERTEX
8
0
10
0.920018
20
0.127250
0
VERTEX
8
0
10
0.923043
20
0.128166
0
VERTEX
8
0
10
0.926315
20
0.128484
0
VERTEX
8
0
10
0.984315
20
0.128484
0
VERTEX
8
0
10
0.987587
20
0.128166
0
VERTEX
8
0
10
0.990612
20
0.127250
0
VERTEX
8
0
10
0.993333
20
0.125795
0
VERTEX
8
0
10
0.995690
20
0.123859
0
VERTEX
8
0
10
0.997626
20
0.121502
0
VERTEX
8
0
10
0.999081
20
0.118781
0
VERTEX
8
0
10
0.999996
20
0.115756
0
VERTEX
8
0
10
1.000315
20
0.112484
0
VERTEX
8
0
10
1.000315
20
0.089484
0
VERTEX
8
0
10
0.999996
20
0.086213
0
VERTEX
8
0
10
0.999081
20
0.083187
0
VERTEX
8
0
10
0.997626
20
0.080467
0
VERTEX
8
0
10
0.995690
20
0.078109
0
VERTEX
8
0
10
0.993333
20
0.076174
0
VERTEX
8
0
10
0.990612
20
0.074719
0
VERTEX
8
0
10
0.987587
20
0.073803
0
VERTEX
8
0
10
0.984315
20
0.073484
0
VERTEX
8
0
10
0.926315
20
0.073484
0
VERTEX
8
0
10
0.923043
20
0.073803
0
VERTEX
8
0
10
0.920018
20
0.074719
0
VERTEX
8
0
10
0.917297
20
0.076174
0
VERTEX
8
0
10
0.914940
20
0.078109
0
VERTEX
8
0
10
0.913004
20
0.080467
0
VERTEX
8
0
10
0.911549
20
0.083187
0
VERTEX
8
0
10
0.910633
20
0.086213
0
VERTEX
8
0
10
0.910315
20
0.089484
0
SEQEND
8
0
0
CIRCLE
8
0
10
0.955315
20
0.100984
40
0.020000
0
POLYLINE
8
0
66
1
70
1
40
0
41
0
0
VERTEX
8
0
10
0.910315
20
0.009484
0
VERTEX
8
0
10
0.910315
20
0.032484
0
VERTEX
8
0
10
0.910633
20
0.035756
0
VERTEX
8
0
10
0.911549
20
0.038781
0
VERTEX
8
0
10
0.913004
20
0.041502
0
VERTEX
8
0
10
0.914940
20
0.043859
0
VERTEX
8
0
10
0.917297
20
0.045795
0
VERTEX
8
0
10
0.920018
20
0.047250
0
VERTEX
8
0
10
0.923043
20
0.048166
0
VERTEX
8
0
10
0.926315
20
0.048484
0
VERTEX
8
0
10
0.984315
20
0.048484
0
VERTEX
8
0
10
0.987587
20
0.048166
0
VERTEX
8
0
10
0.990612
20
0.047250
0
VERTEX
8
0
10
0.993333
20
0.045795
0
VERTEX
8
0
10
0.995690
20
0.043859
0
VERTEX
8
0
10
0.997626
20
0.041502
0
VERTEX
8
0
10
0.999081
20
0.038781
0
VERTEX
8
0
10
0.999996
20
0.035756
0
VERTEX
8
0
10
1.000315
20
0.032484
0
VERTEX
8
0
10
1.000315
20
0.009484
0
VERTEX
8
0
10
0.999996
20
0.006213
0
VERTEX
8
0
10
0.999081
20
0.003187
0
VERTEX
8
0
10
0.997626
20
0.000467
0
VERTEX
8
0
10
0.995690
20
-0.001891
0
VERTEX
8
0
10
0.993333
20
-0.003826
0
VERTEX
8
0
10
0.990612
20
-0.005281
0
VERTEX
8
0
10
0.987587
20
-0.006197
0
VERTEX
8
0
10
0.984315
20
-0.006516
0
VERTEX
8
0
10
0.926315
20
-0.006516
0
VERTEX
8
0
10
0.923043
20
-0.006197
0
VERTEX
8
0
10
0.920018
20
-0.005281
0
VERTEX
8
0
10
0.917297
20
-0.003826
0
VERTEX
8
0
10
0.914940
20
-0.001891
0
VERTEX
8
0
10
0.913004
20
0.000467
0
VERTEX
8
0
10
0.911549
20
0.003187
0
VERTEX
8
0
10
0.910633
20
0.006213
0
VERTEX
8
0
10
0.910315
20
0.009484
0
SEQEND
8
0
0
CIRCLE
8
0
10
0.955315
20
0.020984
40
0.020000
0
POLYLINE
8
0
66
1
70
1
40
0
41
0
0
VERTEX
8
0
10
0.910315
20
-0.070516
0
VERTEX
8
0
10
0.910315
20
-0.047516
0
VERTEX
8
0
10
0.910633
20
-0.044244
0
VERTEX
8
0
10
0.911549
20
-0.041219
0
VERTEX
8
0
10
0.913004
20
-0.038498
0
VERTEX
8
0
10
0.914940
20
-0.036141
0
VERTEX
8
0
10
0.917297
20
-0.034205
0
VERTEX
8
0
10
0.920018
20
-0.032750
0
VERTEX
8
0
10
0.923043
20
-0.031834
0
VERTEX
8
0
10
0.926315
20
-0.031516
0
VERTEX
8
0
10
0.984315
20
-0.031516
0
VERTEX
8
0
10
0.987587
20
-0.031834
0
VERTEX
8
0
10
0.990612
20
-0.032750
0
VERTEX
8
0
10
0.993333
20
-0.034205
0
VERTEX
8
0
10
0.995690
20
-0.036141
0
VERTEX
8
0
10
0.997626
20
-0.038498
0
VERTEX
8
0
10
0.999081
20
-0.041219
0
VERTEX
8
0
10
0.999996
20
-0.044244
0
VERTEX
8
0
10
1.000315
20
-0.047516
0
VERTEX
8
0
10
1.000315
20
-0.070516
0
VERTEX
8
0
10
0.999996
20
-0.073787
0
VERTEX
8
0
10
0.999081
20
-0.076813
0
VERTEX
8
0
10
0.997626
20
-0.079533
0
VERTEX
8
0
10
0.995690
20
-0.081891
0
VERTEX
8
0
10
0.993333
20
-0.083826
0
VERTEX
8
0
10
0.990612
20
-0.085281
0
VERTEX
8
0
10
0.987587
20
-0.086197
0
VERTEX
8
0
10
0.984315
20
-0.086516
0
VERTEX
8
0
10
0.926315
20
-0.086516
0
VERTEX
8
0
10
0.923043
20
-0.086197
0
VERTEX
8
0
10
0.920018
20
-0.085281
0
VERTEX
8
0
10
0.917297
20
-0.083826
0
VERTEX
8
0
10
0.914940
20
-0.081891
0
VERTEX
8
0
10
0.913004
20
-0.079533
0
VERTEX
8
0
10
0.911549
20
-0.076813
0
VERTEX
8
0
10
0.910633
20
-0.073787
0
VERTEX
8
0
10
0.910315
20
-0.070516
0
SEQEND
8
0
0
CIRCLE
8
0
10
0.955315
20
-0.059016
40
0.020000
0
POLYLINE
8
0
66
1
70
1
40
0
41
0
0
VERTEX
8
0
10
0.922126
20
-0.850201
0
VERTEX
8
0
10
0.922126
20
-0.827201
0
VERTEX
8
0
10
0.922444
20
-0.823929
0
VERTEX
8
0
10
0.923360
20
-0.820904
0
VERTEX
8
0
10
0.924815
20
-0.818183
0
VERTEX
8
0
10
0.926751
20
-0.815826
0
VERTEX
8
0
10
0.929108
20
-0.813890
0
VERTEX
8
0
10
0.931829
20
-0.812435
0
VERTEX
8
0
10
0.934854
20
-0.811519
0
VERTEX
8
0
10
0.938126
20
-0.811201
0
VERTEX
8
0
10
0.996126
20
-0.811201
0
VERTEX
8
0
10
0.999398
20
-0.811519
0
VERTEX
8
0
10
1.002423
20
-0.812435
0
VERTEX
8
0
10
1.005144
20
-0.813890
0
VERTEX
8
0
10
1.007501
20
-0.815826
0
VERTEX
8
0
10
1.009437
20
-0.818183
0
VERTEX
8
0
10
1.010892
20
-0.820904
0
VERTEX
8
0
10
1.011807
20
-0.823929
0
VERTEX
8
0
10
1.012126
20
-0.827201
0
VERTEX
8
0
10
1.012126
20
-0.850201
0
VERTEX
8
0
10
1.011807
20
-0.853472
0
VERTEX
8
0
10
1.010892
20
-0.856498
0
VERTEX
8
0
10
1.009437
20
-0.859218
0
VERTEX
8
0
10
1.007501
20
-0.861576
0
VERTEX
8
0
10
1.005144
20
-0.863511
0
VERTEX
8
0
10
1.002423
20
-0.864967
0
VERTEX
8
0
10
0.999398
20
-0.865882
0
VERTEX
8
0
10
0.996126
20
-0.866201
0
VERTEX
8
0
10
0.938126
20
-0.866201
0
VERTEX
8
0
10
0.934854
20
-0.865882
0
VERTEX
8
0
10
0.931829
20
-0.864967
0
VERTEX
8
0
10
0.929108
20
-0.863511
0
VERTEX
8
0
10
0.926751
20
-0.861576
0
VERTEX
8
0
10
0.924815
20
-0.859218
0
VERTEX
8
0
10
0.923360
20
-0.856498
0
VERTEX
8
0
10
0.922444
20
-0.853472
0
VERTEX
8
0
10
0.922126
20
-0.850201
0
SEQEND
8
0
0
CIRCLE
8
0
10
0.967126
20
-0.838701
40
0.020000
0
POLYLINE
8
0
66
1
70
1
40
0
41
0
0
VERTEX
8
0
10
0.922126
20
-0.930201
0
VERTEX
8
0
10
0.922126
20
-0.907201
0
VERTEX
8
0
10
0.922444
20
-0.903929
0
VERTEX
8
0
10
0.923360
20
-0.900904
0
VERTEX
8
0
10
0.924815
20
-0.898183
0
VERTEX
8
0
10
0.926751
20
-0.895826
0
VERTEX
8
0
10
0.929108
20
-0.893890
0
VERTEX
8
0
10
0.931829
20
-0.892435
0
VERTEX
8
0
10
0.934854
20
-0.891519
0
VERTEX
8
0
10
0.938126
20
-0.891201
0
VERTEX
8
0
10
0.996126
20
-0.891201
0
VERTEX
8
0
10
0.999398
20
-0.891519
0
VERTEX
8
0
10
1.002423
20
-0.892435
0
VERTEX
8
0
10
1.005144
20
-0.893890
0
VERTEX
8
0
10
1.007501
20
-0.895826
0
VERTEX
8
0
10
1.009437
20
-0.898183
0
VERTEX
8
0
10
1.010892
20
-0.900904
0
VERTEX
8
0
10
1.011807
20
-0.903929
0
VERTEX
8
0
10
1.012126
20
-0.907201
0
VERTEX
8
0
10
1.012126
20
-0.930201
0
VERTEX
8
0
10
1.011807
20
-0.933472
0
VERTEX
8
0
10
1.010892
20
-0.936498
0
VERTEX
8
0
10
1.009437
20
-0.939218
0
VERTEX
8
0
10
1.007501
20
-0.941576
0
VERTEX
8
0
10
1.005144
20
-0.943511
0
VERTEX
8
0
10
1.002423
20
-0.944967
0
VERTEX
8
0
10
0.999398
20
-0.945882
0
VERTEX
8
0
10
0.996126
20
-0.946201
0
VERTEX
8
0
10
0.938126
20
-0.946201
0
VERTEX
8
0
10
0.934854
20
-0.945882
0
VERTEX
8
0
10
0.931829
20
-0.944967
0
VERTEX
8
0
10
0.929108
20
-0.943511
0
VERTEX
8
0
10
0.926751
20
-0.941576
0
VERTEX
8
0
10
0.924815
20
-0.939218
0
VERTEX
8
0
10
0.923360
20
-0.936498
0
VERTEX
8
0
10
0.922444
20
-0.933472
0
VERTEX
8
0
10
0.922126
20
-0.930201
0
SEQEND
8
0
0
CIRCLE
8
0
10
0.967126
20
-0.918701
40
0.020000
0
POLYLINE
8
0
66
1
70
1
40
0
41
0
0
VERTEX
8
0
10
0.922126
20
-1.010201
0
VERTEX
8
0
10
0.922126
20
-0.987201
0
VERTEX
8
0
10
0.922444
20
-0.983929
0
VERTEX
8
0
10
0.923360
20
-0.980904
0
VERTEX
8
0
10
0.924815
20
-0.978183
0
VERTEX
8
0
10
0.926751
20
-0.975826
0
VERTEX
8
0
10
0.929108
20
-0.973890
0
VERTEX
8
0
10
0.931829
20
-0.972435
0
VERTEX
8
0
10
0.934854
20
-0.971519
0
VERTEX
8
0
10
0.938126
20
-0.971201
0
VERTEX
8
0
10
0.996126
20
-0.971201
0
VERTEX
8
0
10
0.999398
20
-0.971519
0
VERTEX
8
0
10
1.002423
20
-0.972435
0
VERTEX
8
0
10
1.005144
20
-0.973890
0
VERTEX
8
0
10
1.007501
20
-0.975826
0
VERTEX
8
0
10
1.009437
20
-0.978183
0
VERTEX
8
0
10
1.010892
20
-0.980904
0
VERTEX
8
0
10
1.011807
20
-0.983929
0
VERTEX
8
0
10
1.012126
20
-0.987201
0
VERTEX
8
0
10
1.012126
20
-1.010201
0
VERTEX
8
0
10
1.011807
20
-1.013472
0
VERTEX
8
0
10
1.010892
20
-1.016498
0
VERTEX
8
0
10
1.009437
20
-1.019218
0
VERTEX
8
0
10
1.007501
20
-1.021576
0
VERTEX
8
0
10
1.005144
20
-1.023511
0
VERTEX
8
0
10
1.002423
20
-1.024967
0
VERTEX
8
0
10
0.999398
20
-1.025882
0
VERTEX
8
0
10
0.996126
20
-1.026201
0
VERTEX
8
0
10
0.938126
20
-1.026201
0
VERTEX
8
0
10
0.934854
20
-1.025882
0
VERTEX
8
0
10
0.931829
20
-1.024967
0
VERTEX
8
0
10
0.929108
20
-1.023511
0
VERTEX
8
0
10
0.926751
20
-1.021576
0
VERTEX
8
0
10
0.924815
20
-1.019218
0
VERTEX
8
0
10
0.923360
20
-1.016498
0
VERTEX
8
0
10
0.922444
20
-1.013472
0
VERTEX
8
0
10
0.922126
20
-1.010201
0
SEQEND
8
0
0
CIRCLE
8
0
10
0.967126
20
-0.998701
40
0.020000
0
POLYLINE
8
0
66
1
70
1
40
0
41
0
0
VERTEX
8
0
10
0.949685
20
-1.804217
0
VERTEX
8
0
10
0.949685
20
-1.781217
0
VERTEX
8
0
10
0.950004
20
-1.777945
0
VERTEX
8
0
10
0.950919
20
-1.774920
0
VERTEX
8
0
10
0.952374
20
-1.772199
0
VERTEX
8
0
10
0.954310
20
-1.769842
0
VERTEX
8
0
10
0.956667
20
-1.767906
0
VERTEX
8
0
10
0.959388
20
-1.766451
0
VERTEX
8
0
10
0.962413
20
-1.765535
0
VERTEX
8
0
10
0.965685
20
-1.765217
0
VERTEX
8
0
10
1.023685
20
-1.765217
0
VERTEX
8
0
10
1.026957
20
-1.765535
0
VERTEX
8
0
10
1.029982
20
-1.766451
0
VERTEX
8
0
10
1.032703
20
-1.767906
0
VERTEX
8
0
10
1.035060
20
-1.769842
0
VERTEX
8
0
10
1.036996
20
-1.772199
0
VERTEX
8
0
10
1.038451
20
-1.774920
0
VERTEX
8
0
10
1.039367
20
-1.777945
0
VERTEX
8
0
10
1.039685
20
-1.781217
0
VERTEX
8
0
10
1.039685
20
-1.804217
0
VERTEX
8
0
10
1.039367
20
-1.807488
0
VERTEX
8
0
10
1.038451
20
-1.810513
0
VERTEX
8
0
10
1.036996
20
-1.813234
0
VERTEX
8
0
10
1.035060
20
-1.815591
0
VERTEX
8
0
10
1.032703
20
-1.817527
0
VERTEX
8
0
10
1.029982
20
-1.818982
0
VERTEX
8
0
10
1.026957
20
-1.819898
0
VERTEX
8
0
10
1.023685
20
-1.820217
0
VERTEX
8
0
10
0.965685
20
-1.820217
0
VERTEX
8
0
10
0.962413
20
-1.819898
0
VERTEX
8
0
10
0.959388
20
-1.818982
0
VERTEX
8
0
10
0.956667
20
-1.817527
0
VERTEX
8
0
10
0.954310
20
-1.815591
0
VERTEX
8
0
10
0.952374
20
-1.813234
0
VERTEX
8
0
10
0.950919
20
-1.810513
0
VERTEX
8
0
10
0.950004
20
-1.807488
0
VERTEX
8
0
10
0.949685
20
-1.804217
0
SEQEND
8
0
0
CIRCLE
8
0
10
0.994685
20
-1.792717
40
0.020000
0
POLYLINE
8
0
66
1
70
1
40
0
41
0
0
VERTEX
8
0
10
0.949685
20
-1.884217
0
VERTEX
8
0
10
0.949685
20
-1.861217
0
VERTEX
8
0
10
0.950004
20
-1.857945
0
VERTEX
8
0
10
0.950919
20
-1.854920
0
VERTEX
8
0
10
0.952374
20
-1.852199
0
VERTEX
8
0
10
0.954310
20
-1.849842
0
VERTEX
8
0
10
0.956667
20
-1.847906
0
VERTEX
8
0
10
0.959388
20
-1.846451
0
VERTEX
8
0
10
0.962413
20
-1.845535
0
VERTEX
8
0
10
0.965685
20
-1.845217
0
VERTEX
8
0
10
1.023685
20
-1.845217
0
VERTEX
8
0
10
1.026957
20
-1.845535
0
VERTEX
8
0
10
1.029982
20
-1.846451
0
VERTEX
8
0
10
1.032703
20
-1.847906
0
VERTEX
8
0
10
1.035060
20
-1.849842
0
VERTEX
8
0
10
1.036996
20
-1.852199
0
VERTEX
8
0
10
1.038451
20
-1.854920
0
VERTEX
8
0
10
1.039367
20
-1.857945
0
VERTEX
8
0
10
1.039685
20
-1.861217
0
VERTEX
8
0
10
1.039685
20
-1.884217
0
VERTEX
8
0
10
1.039367
20
-1.887488
0
VERTEX
8
0
10
1.038451
20
-1.890513
0
VERTEX
8
0
10
1.036996
20
-1.893234
0
VERTEX
8
0
10
1.035060
20
-1.895591
0
VERTEX
8
0
10
1.032703
20
-1.897527
0
VERTEX
8
0
10
1.029982
20
-1.898982
0
VERTEX
8
0
10
1.026957
20
-1.899898
0
VERTEX
8
0
10
1.023685
20
-1.900217
0
VERTEX
8
0
10
0.965685
20
-1.900217
0
VERTEX
8
0
10
0.962413
20
-1.899898
0
VERTEX
8
0
10
0.959388
20
-1.898982
0
VERTEX
8
0
10
0.956667
20
-1.897527
0
VERTEX
8
0
10
0.954310
20
-1.895591
0
VERTEX
8
0
10
0.952374
20
-1.893234
0
VERTEX
8
0
10
0.950919
20
-1.890513
0
VERTEX
8
0
10
0.950004
20
-1.887488
0
VERTEX
8
0
10
0.949685
20
-1.884217
0
SEQEND
8
0
0
CIRCLE
8
0
10
0.994685
20
-1.872717
40
0.020000
0
POLYLINE
8
0
66
1
70
1
40
0
41
0
0
VERTEX
8
0
10
0.949685
20
-1.964217
0
VERTEX
8
0
10
0.949685
20
-1.941217
0
VERTEX
8
0
10
0.950004
20
-1.937945
0
VERTEX
8
0
10
0.950919
20
-1.934920
0
VERTEX
8
0
10
0.952374
20
-1.932199
0
VERTEX
8
0
10
0.954310
20
-1.929842
0
VERTEX
8
0
10
0.956667
20
-1.927906
0
VERTEX
8
0
10
0.959388
20
-1.926451
0
VERTEX
8
0
10
0.962413
20
-1.925535
0
VERTEX
8
0
10
0.965685
20
-1.925217
0
VERTEX
8
0
10
1.023685
20
-1.925217
0
VERTEX
8
0
10
1.026957
20
-1.925535
0
VERTEX
8
0
10
1.029982
20
-1.926451
0
VERTEX
8
0
10
1.032703
20
-1.927906
0
VERTEX
8
0
10
1.035060
20
-1.929842
0
VERTEX
8
0
10
1.036996
20
-1.932199
0
VERTEX
8
0
10
1.038451
20
-1.934920
0
VERTEX
8
0
10
1.039367
20
-1.937945
0
VERTEX
8
0
10
1.039685
20
-1.941217
0
VERTEX
8
0
10
1.039685
20
-1.964217
0
VERTEX
8
0
10
1.039367
20
-1.967488
0
VERTEX
8
0
10
1.038451
20
-1.970513
0
VERTEX
8
0
10
1.036996
20
-1.973234
0
VERTEX
8
0
10
1.035060
20
-1.975591
0
VERTEX
8
0
10
1.032703
20
-1.977527
0
VERTEX
8
0
10
1.029982
20
-1.978982
0
VERTEX
8
0
10
1.026957
20
-1.979898
0
VERTEX
8
0
10
1.023685
20
-1.980217
0
VERTEX
8
0
10
0.965685
20
-1.980217
0
VERTEX
8
0
10
0.962413
20
-1.979898
0
VERTEX
8
0
10
0.959388
20
-1.978982
0
VERTEX
8
0
10
0.956667
20
-1.977527
0
VERTEX
8
0
10
0.954310
20
-1.975591
0
VERTEX
8
0
10
0.952374
20
-1.973234
0
VERTEX
8
0
10
0.950919
20
-1.970513
0
VERTEX
8
0
10
0.950004
20
-1.967488
0
VERTEX
8
0
10
0.949685
20
-1.964217
0
SEQEND
8
0
0
CIRCLE
8
0
10
0.994685
20
-1.952717
40
0.020000
0
INSERT
8
0
2
EPAD
10
0.419882
20
0.986811
41
0.070000
42
0.070000
0
CIRCLE
8
0
10
0.419882
20
0.986811
40
0.025000
0
INSERT
8
0
2
EPAD
10
0.819882
20
0.986811
41
0.070000
42
0.070000
0
CIRCLE
8
0
10
0.819882
20
0.986811
40
0.025000
0
INSERT
8
0
2
EPAD
10
0.423819
20
0.022244
41
0.070000
42
0.070000
0
CIRCLE
8
0
10
0.423819
20
0.022244
40
0.025000
0
INSERT
8
0
2
EPAD
10
0.823819
20
0.022244
41
0.070000
42
0.070000
0
CIRCLE
8
0
10
0.823819
20
0.022244
40
0.025000
0
INSERT
8
0
2
EPAD
10
0.431693
20
-0.930512
41
0.070000
42
0.070000
0
CIRCLE
8
0
10
0.431693
20
-0.930512
40
0.025000
0
INSERT
8
0
2
EPAD
10
0.831693
20
-0.930512
41
0.070000
42
0.070000
0
CIRCLE
8
0
10
0.831693
20
-0.930512
40
0.025000
0
INSERT
8
0
2
EPAD
10
0.431693
20
-1.871457
41
0.070000
42
0.070000
0
CIRCLE
8
0
10
0.431693
20
-1.871457
40
0.025000
0
INSERT
8
0
2
EPAD
10
0.831693
20
-1.871457
41
0.070000
42
0.070000
0
CIRCLE
8
0
10
0.831693
20
-1.871457
40
0.025000
0
INSERT
8
0
2
EPAD
10
-0.677756
20
-0.859646
41
0.100000
42
0.100000
0
CIRCLE
8
0
10
-0.677756
20
-0.859646
40
0.025000
0
INSERT
8
0
2
EPAD
10
-0.477756
20
-0.859646
41
0.100000
42
0.100000
0
CIRCLE
8
0
10
-0.477756
20
-0.859646
40
0.025000
0
INSERT
8
0
2
EPAD
10
-0.576181
20
-1.292717
41
0.150000
42
0.150000
0
CIRCLE
8
0
10
-0.576181
20
-1.292717
40
0.030000
0
INSERT
8
0
2
EPAD
10
-0.097441
20
-1.771457
41
0.150000
42
0.150000
0
CIRCLE
8
0
10
-0.097441
20
-1.771457
40
0.030000
0
INSERT
8
0
2
EPAD
10
-0.576181
20
-1.784843
41
0.150000
42
0.150000
0
CIRCLE
8
0
10
-0.576181
20
-1.784842
40
0.030000
0
INSERT
8
0
2
EPAD
10
-0.084055
20
-1.292717
41
0.150000
42
0.150000
0
CIRCLE
8
0
10
-0.084055
20
-1.292717
40
0.030000
0
POLYLINE
8
0
66
1
70
1
40
0
41
0
0
VERTEX
8
0
10
-0.627007
20
0.392324
0
VERTEX
8
0
10
-0.615007
20
0.404324
0
VERTEX
8
0
10
-0.569007
20
0.404324
0
VERTEX
8
0
10
-0.557007
20
0.392324
0
VERTEX
8
0
10
-0.557007
20
0.246324
0
VERTEX
8
0
10
-0.569007
20
0.234324
0
VERTEX
8
0
10
-0.615007
20
0.234324
0
VERTEX
8
0
10
-0.627007
20
0.246324
0
VERTEX
8
0
10
-0.627007
20
0.392324
0
SEQEND
8
0
0
CIRCLE
8
0
10
-0.592007
20
0.319324
40
0.015000
0
POLYLINE
8
0
66
1
70
1
40
0
41
0
0
VERTEX
8
0
10
-0.527007
20
0.392324
0
VERTEX
8
0
10
-0.515007
20
0.404324
0
VERTEX
8
0
10
-0.469007
20
0.404324
0
VERTEX
8
0
10
-0.457007
20
0.392324
0
VERTEX
8
0
10
-0.457007
20
0.246324
0
VERTEX
8
0
10
-0.469007
20
0.234324
0
VERTEX
8
0
10
-0.515007
20
0.234324
0
VERTEX
8
0
10
-0.527007
20
0.246324
0
VERTEX
8
0
10
-0.527007
20
0.392324
0
SEQEND
8
0
0
CIRCLE
8
0
10
-0.492007
20
0.319324
40
0.015000
0
POLYLINE
8
0
66
1
70
1
40
0
41
0
0
VERTEX
8
0
10
-0.427007
20
0.392324
0
VERTEX
8
0
10
-0.415007
20
0.404324
0
VERTEX
8
0
10
-0.369007
20
0.404324
0
VERTEX
8
0
10
-0.357007
20
0.392324
0
VERTEX
8
0
10
-0.357007
20
0.246324
0
VERTEX
8
0
10
-0.369007
20
0.234324
0
VERTEX
8
0
10
-0.415007
20
0.234324
0
VERTEX
8
0
10
-0.427007
20
0.246324
0
VERTEX
8
0
10
-0.427007
20
0.392324
0
SEQEND
8
0
0
CIRCLE
8
0
10
-0.392007
20
0.319324
40
0.015000
0
INSERT
8
0
2
EPAD
10
-0.788780
20
-0.477756
41
0.070000
42
0.070000
0
CIRCLE
8
0
10
-0.788780
20
-0.477756
40
0.025000
0
INSERT
8
0
2
EPAD
10
-0.688780
20
-0.477756
41
0.070000
42
0.070000
0
CIRCLE
8
0
10
-0.688780
20
-0.477756
40
0.025000
0
INSERT
8
0
2
EPAD
10
-0.817913
20
-0.186417
41
0.070000
42
0.070000
0
CIRCLE
8
0
10
-0.817913
20
-0.186417
40
0.025000
0
INSERT
8
0
2
EPAD
10
-0.717913
20
-0.186417
41
0.070000
42
0.070000
0
CIRCLE
8
0
10
-0.717913
20
-0.186417
40
0.025000
0
INSERT
8
0
2
EPAD
10
-0.505315
20
-0.032874
41
0.070000
42
0.070000
0
CIRCLE
8
0
10
-0.505315
20
-0.032874
40
0.025000
0
INSERT
8
0
2
EPAD
10
-0.505315
20
-0.132874
41
0.070000
42
0.070000
0
CIRCLE
8
0
10
-0.505315
20
-0.132874
40
0.025000
0
INSERT
8
0
2
EPAD
10
-0.375394
20
-0.536024
41
0.080000
42
0.080000
0
CIRCLE
8
0
10
-0.375394
20
-0.536024
40
0.025000
0
INSERT
8
0
2
EPAD
10
-0.375394
20
-0.336024
41
0.080000
42
0.080000
0
CIRCLE
8
0
10
-0.375394
20
-0.336024
40
0.025000
0
POLYLINE
8
0
66
1
70
1
40
0
41
0
0
VERTEX
8
0
10
-0.145354
20
0.432169
0
VERTEX
8
0
10
-0.145354
20
0.409169
0
VERTEX
8
0
10
-0.145673
20
0.405898
0
VERTEX
8
0
10
-0.146589
20
0.402872
0
VERTEX
8
0
10
-0.148044
20
0.400152
0
VERTEX
8
0
10
-0.149980
20
0.397794
0
VERTEX
8
0
10
-0.152337
20
0.395859
0
VERTEX
8
0
10
-0.155057
20
0.394404
0
VERTEX
8
0
10
-0.158083
20
0.393488
0
VERTEX
8
0
10
-0.161354
20
0.393169
0
VERTEX
8
0
10
-0.219354
20
0.393169
0
VERTEX
8
0
10
-0.222626
20
0.393488
0
VERTEX
8
0
10
-0.225651
20
0.394404
0
VERTEX
8
0
10
-0.228372
20
0.395859
0
VERTEX
8
0
10
-0.230729
20
0.397794
0
VERTEX
8
0
10
-0.232665
20
0.400152
0
VERTEX
8
0
10
-0.234120
20
0.402872
0
VERTEX
8
0
10
-0.235036
20
0.405898
0
VERTEX
8
0
10
-0.235354
20
0.409169
0
VERTEX
8
0
10
-0.235354
20
0.432169
0
VERTEX
8
0
10
-0.235036
20
0.435441
0
VERTEX
8
0
10
-0.234120
20
0.438466
0
VERTEX
8
0
10
-0.232665
20
0.441187
0
VERTEX
8
0
10
-0.230729
20
0.443544
0
VERTEX
8
0
10
-0.228372
20
0.445480
0
VERTEX
8
0
10
-0.225651
20
0.446935
0
VERTEX
8
0
10
-0.222626
20
0.447851
0
VERTEX
8
0
10
-0.219354
20
0.448169
0
VERTEX
8
0
10
-0.161354
20
0.448169
0
VERTEX
8
0
10
-0.158083
20
0.447851
0
VERTEX
8
0
10
-0.155057
20
0.446935
0
VERTEX
8
0
10
-0.152337
20
0.445480
0
VERTEX
8
0
10
-0.149980
20
0.443544
0
VERTEX
8
0
10
-0.148044
20
0.441187
0
VERTEX
8
0
10
-0.146589
20
0.438466
0
VERTEX
8
0
10
-0.145673
20
0.435441
0
VERTEX
8
0
10
-0.145354
20
0.432169
0
SEQEND
8
0
0
CIRCLE
8
0
10
-0.190354
20
0.420669
40
0.020000
0
POLYLINE
8
0
66
1
70
1
40
0
41
0
0
VERTEX
8
0
10
-0.145354
20
0.332169
0
VERTEX
8
0
10
-0.145354
20
0.309169
0
VERTEX
8
0
10
-0.145673
20
0.305898
0
VERTEX
8
0
10
-0.146589
20
0.302872
0
VERTEX
8
0
10
-0.148044
20
0.300152
0
VERTEX
8
0
10
-0.149980
20
0.297794
0
VERTEX
8
0
10
-0.152337
20
0.295859
0
VERTEX
8
0
10
-0.155057
20
0.294404
0
VERTEX
8
0
10
-0.158083
20
0.293488
0
VERTEX
8
0
10
-0.161354
20
0.293169
0
VERTEX
8
0
10
-0.219354
20
0.293169
0
VERTEX
8
0
10
-0.222626
20
0.293488
0
VERTEX
8
0
10
-0.225651
20
0.294404
0
VERTEX
8
0
10
-0.228372
20
0.295859
0
VERTEX
8
0
10
-0.230729
20
0.297794
0
VERTEX
8
0
10
-0.232665
20
0.300152
0
VERTEX
8
0
10
-0.234120
20
0.302872
0
VERTEX
8
0
10
-0.235036
20
0.305898
0
VERTEX
8
0
10
-0.235354
20
0.309169
0
VERTEX
8
0
10
-0.235354
20
0.332169
0
VERTEX
8
0
10
-0.235036
20
0.335441
0
VERTEX
8
0
10
-0.234120
20
0.338466
0
VERTEX
8
0
10
-0.232665
20
0.341187
0
VERTEX
8
0
10
-0.230729
20
0.343544
0
VERTEX
8
0
10
-0.228372
20
0.345480
0
VERTEX
8
0
10
-0.225651
20
0.346935
0
VERTEX
8
0
10
-0.222626
20
0.347851
0
VERTEX
8
0
10
-0.219354
20
0.348169
0
VERTEX
8
0
10
-0.161354
20
0.348169
0
VERTEX
8
0
10
-0.158083
20
0.347851
0
VERTEX
8
0
10
-0.155057
20
0.346935
0
VERTEX
8
0
10
-0.152337
20
0.345480
0
VERTEX
8
0
10
-0.149980
20
0.343544
0
VERTEX
8
0
10
-0.148044
20
0.341187
0
VERTEX
8
0
10
-0.146589
20
0.338466
0
VERTEX
8
0
10
-0.145673
20
0.335441
0
VERTEX
8
0
10
-0.145354
20
0.332169
0
SEQEND
8
0
0
CIRCLE
8
0
10
-0.190354
20
0.320669
40
0.020000
0
POLYLINE
8
0
66
1
70
1
40
0
41
0
0
VERTEX
8
0
10
-0.145354
20
0.232169
0
VERTEX
8
0
10
-0.145354
20
0.209169
0
VERTEX
8
0
10
-0.145673
20
0.205898
0
VERTEX
8
0
10
-0.146589
20
0.202872
0
VERTEX
8
0
10
-0.148044
20
0.200152
0
VERTEX
8
0
10
-0.149980
20
0.197794
0
VERTEX
8
0
10
-0.152337
20
0.195859
0
VERTEX
8
0
10
-0.155057
20
0.194404
0
VERTEX
8
0
10
-0.158083
20
0.193488
0
VERTEX
8
0
10
-0.161354
20
0.193169
0
VERTEX
8
0
10
-0.219354
20
0.193169
0
VERTEX
8
0
10
-0.222626
20
0.193488
0
VERTEX
8
0
10
-0.225651
20
0.194404
0
VERTEX
8
0
10
-0.228372
20
0.195859
0
VERTEX
8
0
10
-0.230729
20
0.197794
0
VERTEX
8
0
10
-0.232665
20
0.200152
0
VERTEX
8
0
10
-0.234120
20
0.202872
0
VERTEX
8
0
10
-0.235036
20
0.205898
0
VERTEX
8
0
10
-0.235354
20
0.209169
0
VERTEX
8
0
10
-0.235354
20
0.232169
0
VERTEX
8
0
10
-0.235036
20
0.235441
0
VERTEX
8
0
10
-0.234120
20
0.238466
0
VERTEX
8
0
10
-0.232665
20
0.241187
0
VERTEX
8
0
10
-0.230729
20
0.243544
0
VERTEX
8
0
10
-0.228372
20
0.245480
0
VERTEX
8
0
10
-0.225651
20
0.246935
0
VERTEX
8
0
10
-0.222626
20
0.247851
0
VERTEX
8
0
10
-0.219354
20
0.248169
0
VERTEX
8
0
10
-0.161354
20
0.248169
0
VERTEX
8
0
10
-0.158083
20
0.247851
0
VERTEX
8
0
10
-0.155057
20
0.246935
0
VERTEX
8
0
10
-0.152337
20
0.245480
0
VERTEX
8
0
10
-0.149980
20
0.243544
0
VERTEX
8
0
10
-0.148044
20
0.241187
0
VERTEX
8
0
10
-0.146589
20
0.238466
0
VERTEX
8
0
10
-0.145673
20
0.235441
0
VERTEX
8
0
10
-0.145354
20
0.232169
0
SEQEND
8
0
0
CIRCLE
8
0
10
-0.190354
20
0.220669
40
0.020000
0
POLYLINE
8
0
66
1
70
1
40
0
41
0
0
VERTEX
8
0
10
-0.145354
20
0.132169
0
VERTEX
8
0
10
-0.145354
20
0.109169
0
VERTEX
8
0
10
-0.145673
20
0.105898
0
VERTEX
8
0
10
-0.146589
20
0.102872
0
VERTEX
8
0
10
-0.148044
20
0.100152
0
VERTEX
8
0
10
-0.149980
20
0.097794
0
VERTEX
8
0
10
-0.152337
20
0.095859
0
VERTEX
8
0
10
-0.155057
20
0.094404
0
VERTEX
8
0
10
-0.158083
20
0.093488
0
VERTEX
8
0
10
-0.161354
20
0.093169
0
VERTEX
8
0
10
-0.219354
20
0.093169
0
VERTEX
8
0
10
-0.222626
20
0.093488
0
VERTEX
8
0
10
-0.225651
20
0.094404
0
VERTEX
8
0
10
-0.228372
20
0.095859
0
VERTEX
8
0
10
-0.230729
20
0.097794
0
VERTEX
8
0
10
-0.232665
20
0.100152
0
VERTEX
8
0
10
-0.234120
20
0.102872
0
VERTEX
8
0
10
-0.235036
20
0.105898
0
VERTEX
8
0
10
-0.235354
20
0.109169
0
VERTEX
8
0
10
-0.235354
20
0.132169
0
VERTEX
8
0
10
-0.235036
20
0.135441
0
VERTEX
8
0
10
-0.234120
20
0.138466
0
VERTEX
8
0
10
-0.232665
20
0.141187
0
VERTEX
8
0
10
-0.230729
20
0.143544
0
VERTEX
8
0
10
-0.228372
20
0.145480
0
VERTEX
8
0
10
-0.225651
20
0.146935
0
VERTEX
8
0
10
-0.222626
20
0.147851
0
VERTEX
8
0
10
-0.219354
20
0.148169
0
VERTEX
8
0
10
-0.161354
20
0.148169
0
VERTEX
8
0
10
-0.158083
20
0.147851
0
VERTEX
8
0
10
-0.155057
20
0.146935
0
VERTEX
8
0
10
-0.152337
20
0.145480
0
VERTEX
8
0
10
-0.149980
20
0.143544
0
VERTEX
8
0
10
-0.148044
20
0.141187
0
VERTEX
8
0
10
-0.146589
20
0.138466
0
VERTEX
8
0
10
-0.145673
20
0.135441
0
VERTEX
8
0
10
-0.145354
20
0.132169
0
SEQEND
8
0
0
CIRCLE
8
0
10
-0.190354
20
0.120669
40
0.020000
0
POLYLINE
8
0
66
1
70
1
40
0
41
0
0
VERTEX
8
0
10
-0.145354
20
0.032169
0
VERTEX
8
0
10
-0.145354
20
0.009169
0
VERTEX
8
0
10
-0.145673
20
0.005898
0
VERTEX
8
0
10
-0.146589
20
0.002872
0
VERTEX
8
0
10
-0.148044
20
0.000152
0
VERTEX
8
0
10
-0.149980
20
-0.002206
0
VERTEX
8
0
10
-0.152337
20
-0.004141
0
VERTEX
8
0
10
-0.155057
20
-0.005596
0
VERTEX
8
0
10
-0.158083
20
-0.006512
0
VERTEX
8
0
10
-0.161354
20
-0.006831
0
VERTEX
8
0
10
-0.219354
20
-0.006831
0
VERTEX
8
0
10
-0.222626
20
-0.006512
0
VERTEX
8
0
10
-0.225651
20
-0.005596
0
VERTEX
8
0
10
-0.228372
20
-0.004141
0
VERTEX
8
0
10
-0.230729
20
-0.002206
0
VERTEX
8
0
10
-0.232665
20
0.000152
0
VERTEX
8
0
10
-0.234120
20
0.002872
0
VERTEX
8
0
10
-0.235036
20
0.005898
0
VERTEX
8
0
10
-0.235354
20
0.009169
0
VERTEX
8
0
10
-0.235354
20
0.032169
0
VERTEX
8
0
10
-0.235036
20
0.035441
0
VERTEX
8
0
10
-0.234120
20
0.038466
0
VERTEX
8
0
10
-0.232665
20
0.041187
0
VERTEX
8
0
10
-0.230729
20
0.043544
0
VERTEX
8
0
10
-0.228372
20
0.045480
0
VERTEX
8
0
10
-0.225651
20
0.046935
0
VERTEX
8
0
10
-0.222626
20
0.047851
0
VERTEX
8
0
10
-0.219354
20
0.048169
0
VERTEX
8
0
10
-0.161354
20
0.048169
0
VERTEX
8
0
10
-0.158083
20
0.047851
0
VERTEX
8
0
10
-0.155057
20
0.046935
0
VERTEX
8
0
10
-0.152337
20
0.045480
0
VERTEX
8
0
10
-0.149980
20
0.043544
0
VERTEX
8
0
10
-0.148044
20
0.041187
0
VERTEX
8
0
10
-0.146589
20
0.038466
0
VERTEX
8
0
10
-0.145673
20
0.035441
0
VERTEX
8
0
10
-0.145354
20
0.032169
0
SEQEND
8
0
0
CIRCLE
8
0
10
-0.190354
20
0.020669
40
0.020000
0
POLYLINE
8
0
66
1
70
1
40
0
41
0
0
VERTEX
8
0
10
-0.145354
20
-0.067831
0
VERTEX
8
0
10
-0.145354
20
-0.090831
0
VERTEX
8
0
10
-0.145673
20
-0.094102
0
VERTEX
8
0
10
-0.146589
20
-0.097128
0
VERTEX
8
0
10
-0.148044
20
-0.099848
0
VERTEX
8
0
10
-0.149980
20
-0.102206
0
VERTEX
8
0
10
-0.152337
20
-0.104141
0
VERTEX
8
0
10
-0.155057
20
-0.105596
0
VERTEX
8
0
10
-0.158083
20
-0.106512
0
VERTEX
8
0
10
-0.161354
20
-0.106831
0
VERTEX
8
0
10
-0.219354
20
-0.106831
0
VERTEX
8
0
10
-0.222626
20
-0.106512
0
VERTEX
8
0
10
-0.225651
20
-0.105596
0
VERTEX
8
0
10
-0.228372
20
-0.104141
0
VERTEX
8
0
10
-0.230729
20
-0.102206
0
VERTEX
8
0
10
-0.232665
20
-0.099848
0
VERTEX
8
0
10
-0.234120
20
-0.097128
0
VERTEX
8
0
10
-0.235036
20
-0.094102
0
VERTEX
8
0
10
-0.235354
20
-0.090831
0
VERTEX
8
0
10
-0.235354
20
-0.067831
0
VERTEX
8
0
10
-0.235036
20
-0.064559
0
VERTEX
8
0
10
-0.234120
20
-0.061534
0
VERTEX
8
0
10
-0.232665
20
-0.058813
0
VERTEX
8
0
10
-0.230729
20
-0.056456
0
VERTEX
8
0
10
-0.228372
20
-0.054520
0
VERTEX
8
0
10
-0.225651
20
-0.053065
0
VERTEX
8
0
10
-0.222626
20
-0.052149
0
VERTEX
8
0
10
-0.219354
20
-0.051831
0
VERTEX
8
0
10
-0.161354
20
-0.051831
0
VERTEX
8
0
10
-0.158083
20
-0.052149
0
VERTEX
8
0
10
-0.155057
20
-0.053065
0
VERTEX
8
0
10
-0.152337
20
-0.054520
0
VERTEX
8
0
10
-0.149980
20
-0.056456
0
VERTEX
8
0
10
-0.148044
20
-0.058813
0
VERTEX
8
0
10
-0.146589
20
-0.061534
0
VERTEX
8
0
10
-0.145673
20
-0.064559
0
VERTEX
8
0
10
-0.145354
20
-0.067831
0
SEQEND
8
0
0
CIRCLE
8
0
10
-0.190354
20
-0.079331
40
0.020000
0
POLYLINE
8
0
66
1
70
1
40
0
41
0
0
VERTEX
8
0
10
-0.145354
20
-0.167831
0
VERTEX
8
0
10
-0.145354
20
-0.190831
0
VERTEX
8
0
10
-0.145673
20
-0.194102
0
VERTEX
8
0
10
-0.146589
20
-0.197128
0
VERTEX
8
0
10
-0.148044
20
-0.199848
0
VERTEX
8
0
10
-0.149980
20
-0.202206
0
VERTEX
8
0
10
-0.152337
20
-0.204141
0
VERTEX
8
0
10
-0.155057
20
-0.205596
0
VERTEX
8
0
10
-0.158083
20
-0.206512
0
VERTEX
8
0
10
-0.161354
20
-0.206831
0
VERTEX
8
0
10
-0.219354
20
-0.206831
0
VERTEX
8
0
10
-0.222626
20
-0.206512
0
VERTEX
8
0
10
-0.225651
20
-0.205596
0
VERTEX
8
0
10
-0.228372
20
-0.204141
0
VERTEX
8
0
10
-0.230729
20
-0.202206
0
VERTEX
8
0
10
-0.232665
20
-0.199848
0
VERTEX
8
0
10
-0.234120
20
-0.197128
0
VERTEX
8
0
10
-0.235036
20
-0.194102
0
VERTEX
8
0
10
-0.235354
20
-0.190831
0
VERTEX
8
0
10
-0.235354
20
-0.167831
0
VERTEX
8
0
10
-0.235036
20
-0.164559
0
VERTEX
8
0
10
-0.234120
20
-0.161534
0
VERTEX
8
0
10
-0.232665
20
-0.158813
0
VERTEX
8
0
10
-0.230729
20
-0.156456
0
VERTEX
8
0
10
-0.228372
20
-0.154520
0
VERTEX
8
0
10
-0.225651
20
-0.153065
0
VERTEX
8
0
10
-0.222626
20
-0.152149
0
VERTEX
8
0
10
-0.219354
20
-0.151831
0
VERTEX
8
0
10
-0.161354
20
-0.151831
0
VERTEX
8
0
10
-0.158083
20
-0.152149
0
VERTEX
8
0
10
-0.155057
20
-0.153065
0
VERTEX
8
0
10
-0.152337
20
-0.154520
0
VERTEX
8
0
10
-0.149980
20
-0.156456
0
VERTEX
8
0
10
-0.148044
20
-0.158813
0
VERTEX
8
0
10
-0.146589
20
-0.161534
0
VERTEX
8
0
10
-0.145673
20
-0.164559
0
VERTEX
8
0
10
-0.145354
20
-0.167831
0
SEQEND
8
0
0
CIRCLE
8
0
10
-0.190354
20
-0.179331
40
0.020000
0
POLYLINE
8
0
66
1
70
1
40
0
41
0
0
VERTEX
8
0
10
-0.145354
20
-0.267831
0
VERTEX
8
0
10
-0.145354
20
-0.290831
0
VERTEX
8
0
10
-0.145673
20
-0.294102
0
VERTEX
8
0
10
-0.146589
20
-0.297128
0
VERTEX
8
0
10
-0.148044
20
-0.299848
0
VERTEX
8
0
10
-0.149980
20
-0.302206
0
VERTEX
8
0
10
-0.152337
20
-0.304141
0
VERTEX
8
0
10
-0.155057
20
-0.305596
0
VERTEX
8
0
10
-0.158083
20
-0.306512
0
VERTEX
8
0
10
-0.161354
20
-0.306831
0
VERTEX
8
0
10
-0.219354
20
-0.306831
0
VERTEX
8
0
10
-0.222626
20
-0.306512
0
VERTEX
8
0
10
-0.225651
20
-0.305596
0
VERTEX
8
0
10
-0.228372
20
-0.304141
0
VERTEX
8
0
10
-0.230729
20
-0.302206
0
VERTEX
8
0
10
-0.232665
20
-0.299848
0
VERTEX
8
0
10
-0.234120
20
-0.297128
0
VERTEX
8
0
10
-0.235036
20
-0.294102
0
VERTEX
8
0
10
-0.235354
20
-0.290831
0
VERTEX
8
0
10
-0.235354
20
-0.267831
0
VERTEX
8
0
10
-0.235036
20
-0.264559
0
VERTEX
8
0
10
-0.234120
20
-0.261534
0
VERTEX
8
0
10
-0.232665
20
-0.258813
0
VERTEX
8
0
10
-0.230729
20
-0.256456
0
VERTEX
8
0
10
-0.228372
20
-0.254520
0
VERTEX
8
0
10
-0.225651
20
-0.253065
0
VERTEX
8
0
10
-0.222626
20
-0.252149
0
VERTEX
8
0
10
-0.219354
20
-0.251831
0
VERTEX
8
0
10
-0.161354
20
-0.251831
0
VERTEX
8
0
10
-0.158083
20
-0.252149
0
VERTEX
8
0
10
-0.155057
20
-0.253065
0
VERTEX
8
0
10
-0.152337
20
-0.254520
0
VERTEX
8
0
10
-0.149980
20
-0.256456
0
VERTEX
8
0
10
-0.148044
20
-0.258813
0
VERTEX
8
0
10
-0.146589
20
-0.261534
0
VERTEX
8
0
10
-0.145673
20
-0.264559
0
VERTEX
8
0
10
-0.145354
20
-0.267831
0
SEQEND
8
0
0
CIRCLE
8
0
10
-0.190354
20
-0.279331
40
0.020000
0
POLYLINE
8
0
66
1
70
1
40
0
41
0
0
VERTEX
8
0
10
-0.145354
20
-0.367831
0
VERTEX
8
0
10
-0.145354
20
-0.390831
0
VERTEX
8
0
10
-0.145673
20
-0.394102
0
VERTEX
8
0
10
-0.146589
20
-0.397128
0
VERTEX
8
0
10
-0.148044
20
-0.399848
0
VERTEX
8
0
10
-0.149980
20
-0.402206
0
VERTEX
8
0
10
-0.152337
20
-0.404141
0
VERTEX
8
0
10
-0.155057
20
-0.405596
0
VERTEX
8
0
10
-0.158083
20
-0.406512
0
VERTEX
8
0
10
-0.161354
20
-0.406831
0
VERTEX
8
0
10
-0.219354
20
-0.406831
0
VERTEX
8
0
10
-0.222626
20
-0.406512
0
VERTEX
8
0
10
-0.225651
20
-0.405596
0
VERTEX
8
0
10
-0.228372
20
-0.404141
0
VERTEX
8
0
10
-0.230729
20
-0.402206
0
VERTEX
8
0
10
-0.232665
20
-0.399848
0
VERTEX
8
0
10
-0.234120
20
-0.397128
0
VERTEX
8
0
10
-0.235036
20
-0.394102
0
VERTEX
8
0
10
-0.235354
20
-0.390831
0
VERTEX
8
0
10
-0.235354
20
-0.367831
0
VERTEX
8
0
10
-0.235036
20
-0.364559
0
VERTEX
8
0
10
-0.234120
20
-0.361534
0
VERTEX
8
0
10
-0.232665
20
-0.358813
0
VERTEX
8
0
10
-0.230729
20
-0.356456
0
VERTEX
8
0
10
-0.228372
20
-0.354520
0
VERTEX
8
0
10
-0.225651
20
-0.353065
0
VERTEX
8
0
10
-0.222626
20
-0.352149
0
VERTEX
8
0
10
-0.219354
20
-0.351831
0
VERTEX
8
0
10
-0.161354
20
-0.351831
0
VERTEX
8
0
10
-0.158083
20
-0.352149
0
VERTEX
8
0
10
-0.155057
20
-0.353065
0
VERTEX
8
0
10
-0.152337
20
-0.354520
0
VERTEX
8
0
10
-0.149980
20
-0.356456
0
VERTEX
8
0
10
-0.148044
20
-0.358813
0
VERTEX
8
0
10
-0.146589
20
-0.361534
0
VERTEX
8
0
10
-0.145673
20
-0.364559
0
VERTEX
8
0
10
-0.145354
20
-0.367831
0
SEQEND
8
0
0
CIRCLE
8
0
10
-0.190354
20
-0.379331
40
0.020000
0
POLYLINE
8
0
66
1
70
1
40
0
41
0
0
VERTEX
8
0
10
-0.145354
20
-0.467831
0
VERTEX
8
0
10
-0.145354
20
-0.490831
0
VERTEX
8
0
10
-0.145673
20
-0.494102
0
VERTEX
8
0
10
-0.146589
20
-0.497128
0
VERTEX
8
0
10
-0.148044
20
-0.499848
0
VERTEX
8
0
10
-0.149980
20
-0.502206
0
VERTEX
8
0
10
-0.152337
20
-0.504141
0
VERTEX
8
0
10
-0.155057
20
-0.505596
0
VERTEX
8
0
10
-0.158083
20
-0.506512
0
VERTEX
8
0
10
-0.161354
20
-0.506831
0
VERTEX
8
0
10
-0.219354
20
-0.506831
0
VERTEX
8
0
10
-0.222626
20
-0.506512
0
VERTEX
8
0
10
-0.225651
20
-0.505596
0
VERTEX
8
0
10
-0.228372
20
-0.504141
0
VERTEX
8
0
10
-0.230729
20
-0.502206
0
VERTEX
8
0
10
-0.232665
20
-0.499848
0
VERTEX
8
0
10
-0.234120
20
-0.497128
0
VERTEX
8
0
10
-0.235036
20
-0.494102
0
VERTEX
8
0
10
-0.235354
20
-0.490831
0
VERTEX
8
0
10
-0.235354
20
-0.467831
0
VERTEX
8
0
10
-0.235036
20
-0.464559
0
VERTEX
8
0
10
-0.234120
20
-0.461534
0
VERTEX
8
0
10
-0.232665
20
-0.458813
0
VERTEX
8
0
10
-0.230729
20
-0.456456
0
VERTEX
8
0
10
-0.228372
20
-0.454520
0
VERTEX
8
0
10
-0.225651
20
-0.453065
0
VERTEX
8
0
10
-0.222626
20
-0.452149
0
VERTEX
8
0
10
-0.219354
20
-0.451831
0
VERTEX
8
0
10
-0.161354
20
-0.451831
0
VERTEX
8
0
10
-0.158083
20
-0.452149
0
VERTEX
8
0
10
-0.155057
20
-0.453065
0
VERTEX
8
0
10
-0.152337
20
-0.454520
0
VERTEX
8
0
10
-0.149980
20
-0.456456
0
VERTEX
8
0
10
-0.148044
20
-0.458813
0
VERTEX
8
0
10
-0.146589
20
-0.461534
0
VERTEX
8
0
10
-0.145673
20
-0.464559
0
VERTEX
8
0
10
-0.145354
20
-0.467831
0
SEQEND
8
0
0
CIRCLE
8
0
10
-0.190354
20
-0.479331
40
0.020000
0
POLYLINE
8
0
66
1
70
1
40
0
41
0
0
VERTEX
8
0
10
-0.145354
20
-0.567831
0
VERTEX
8
0
10
-0.145354
20
-0.590831
0
VERTEX
8
0
10
-0.145673
20
-0.594102
0
VERTEX
8
0
10
-0.146589
20
-0.597128
0
VERTEX
8
0
10
-0.148044
20
-0.599848
0
VERTEX
8
0
10
-0.149980
20
-0.602206
0
VERTEX
8
0
10
-0.152337
20
-0.604141
0
VERTEX
8
0
10
-0.155057
20
-0.605596
0
VERTEX
8
0
10
-0.158083
20
-0.606512
0
VERTEX
8
0
10
-0.161354
20
-0.606831
0
VERTEX
8
0
10
-0.219354
20
-0.606831
0
VERTEX
8
0
10
-0.222626
20
-0.606512
0
VERTEX
8
0
10
-0.225651
20
-0.605596
0
VERTEX
8
0
10
-0.228372
20
-0.604141
0
VERTEX
8
0
10
-0.230729
20
-0.602206
0
VERTEX
8
0
10
-0.232665
20
-0.599848
0
VERTEX
8
0
10
-0.234120
20
-0.597128
0
VERTEX
8
0
10
-0.235036
20
-0.594102
0
VERTEX
8
0
10
-0.235354
20
-0.590831
0
VERTEX
8
0
10
-0.235354
20
-0.567831
0
VERTEX
8
0
10
-0.235036
20
-0.564559
0
VERTEX
8
0
10
-0.234120
20
-0.561534
0
VERTEX
8
0
10
-0.232665
20
-0.558813
0
VERTEX
8
0
10
-0.230729
20
-0.556456
0
VERTEX
8
0
10
-0.228372
20
-0.554520
0
VERTEX
8
0
10
-0.225651
20
-0.553065
0
VERTEX
8
0
10
-0.222626
20
-0.552149
0
VERTEX
8
0
10
-0.219354
20
-0.551831
0
VERTEX
8
0
10
-0.161354
20
-0.551831
0
VERTEX
8
0
10
-0.158083
20
-0.552149
0
VERTEX
8
0
10
-0.155057
20
-0.553065
0
VERTEX
8
0
10
-0.152337
20
-0.554520
0
VERTEX
8
0
10
-0.149980
20
-0.556456
0
VERTEX
8
0
10
-0.148044
20
-0.558813
0
VERTEX
8
0
10
-0.146589
20
-0.561534
0
VERTEX
8
0
10
-0.145673
20
-0.564559
0
VERTEX
8
0
10
-0.145354
20
-0.567831
0
SEQEND
8
0
0
CIRCLE
8
0
10
-0.190354
20
-0.579331
40
0.020000
0
POLYLINE
8
0
66
1
70
1
40
0
41
0
0
VERTEX
8
0
10
-0.145354
20
-0.667831
0
VERTEX
8
0
10
-0.145354
20
-0.690831
0
VERTEX
8
0
10
-0.145673
20
-0.694102
0
VERTEX
8
0
10
-0.146589
20
-0.697128
0
VERTEX
8
0
10
-0.148044
20
-0.699848
0
VERTEX
8
0
10
-0.149980
20
-0.702206
0
VERTEX
8
0
10
-0.152337
20
-0.704141
0
VERTEX
8
0
10
-0.155057
20
-0.705596
0
VERTEX
8
0
10
-0.158083
20
-0.706512
0
VERTEX
8
0
10
-0.161354
20
-0.706831
0
VERTEX
8
0
10
-0.219354
20
-0.706831
0
VERTEX
8
0
10
-0.222626
20
-0.706512
0
VERTEX
8
0
10
-0.225651
20
-0.705596
0
VERTEX
8
0
10
-0.228372
20
-0.704141
0
VERTEX
8
0
10
-0.230729
20
-0.702206
0
VERTEX
8
0
10
-0.232665
20
-0.699848
0
VERTEX
8
0
10
-0.234120
20
-0.697128
0
VERTEX
8
0
10
-0.235036
20
-0.694102
0
VERTEX
8
0
10
-0.235354
20
-0.690831
0
VERTEX
8
0
10
-0.235354
20
-0.667831
0
VERTEX
8
0
10
-0.235036
20
-0.664559
0
VERTEX
8
0
10
-0.234120
20
-0.661534
0
VERTEX
8
0
10
-0.232665
20
-0.658813
0
VERTEX
8
0
10
-0.230729
20
-0.656456
0
VERTEX
8
0
10
-0.228372
20
-0.654520
0
VERTEX
8
0
10
-0.225651
20
-0.653065
0
VERTEX
8
0
10
-0.222626
20
-0.652149
0
VERTEX
8
0
10
-0.219354
20
-0.651831
0
VERTEX
8
0
10
-0.161354
20
-0.651831
0
VERTEX
8
0
10
-0.158083
20
-0.652149
0
VERTEX
8
0
10
-0.155057
20
-0.653065
0
VERTEX
8
0
10
-0.152337
20
-0.654520
0
VERTEX
8
0
10
-0.149980
20
-0.656456
0
VERTEX
8
0
10
-0.148044
20
-0.658813
0
VERTEX
8
0
10
-0.146589
20
-0.661534
0
VERTEX
8
0
10
-0.145673
20
-0.664559
0
VERTEX
8
0
10
-0.145354
20
-0.667831
0
SEQEND
8
0
0
CIRCLE
8
0
10
-0.190354
20
-0.679331
40
0.020000
0
POLYLINE
8
0
66
1
70
1
40
0
41
0
0
VERTEX
8
0
10
-0.145354
20
-0.767831
0
VERTEX
8
0
10
-0.145354
20
-0.790831
0
VERTEX
8
0
10
-0.145673
20
-0.794102
0
VERTEX
8
0
10
-0.146589
20
-0.797128
0
VERTEX
8
0
10
-0.148044
20
-0.799848
0
VERTEX
8
0
10
-0.149980
20
-0.802206
0
VERTEX
8
0
10
-0.152337
20
-0.804141
0
VERTEX
8
0
10
-0.155057
20
-0.805596
0
VERTEX
8
0
10
-0.158083
20
-0.806512
0
VERTEX
8
0
10
-0.161354
20
-0.806831
0
VERTEX
8
0
10
-0.219354
20
-0.806831
0
VERTEX
8
0
10
-0.222626
20
-0.806512
0
VERTEX
8
0
10
-0.225651
20
-0.805596
0
VERTEX
8
0
10
-0.228372
20
-0.804141
0
VERTEX
8
0
10
-0.230729
20
-0.802206
0
VERTEX
8
0
10
-0.232665
20
-0.799848
0
VERTEX
8
0
10
-0.234120
20
-0.797128
0
VERTEX
8
0
10
-0.235036
20
-0.794102
0
VERTEX
8
0
10
-0.235354
20
-0.790831
0
VERTEX
8
0
10
-0.235354
20
-0.767831
0
VERTEX
8
0
10
-0.235036
20
-0.764559
0
VERTEX
8
0
10
-0.234120
20
-0.761534
0
VERTEX
8
0
10
-0.232665
20
-0.758813
0
VERTEX
8
0
10
-0.230729
20
-0.756456
0
VERTEX
8
0
10
-0.228372
20
-0.754520
0
VERTEX
8
0
10
-0.225651
20
-0.753065
0
VERTEX
8
0
10
-0.222626
20
-0.752149
0
VERTEX
8
0
10
-0.219354
20
-0.751831
0
VERTEX
8
0
10
-0.161354
20
-0.751831
0
VERTEX
8
0
10
-0.158083
20
-0.752149
0
VERTEX
8
0
10
-0.155057
20
-0.753065
0
VERTEX
8
0
10
-0.152337
20
-0.754520
0
VERTEX
8
0
10
-0.149980
20
-0.756456
0
VERTEX
8
0
10
-0.148044
20
-0.758813
0
VERTEX
8
0
10
-0.146589
20
-0.761534
0
VERTEX
8
0
10
-0.145673
20
-0.764559
0
VERTEX
8
0
10
-0.145354
20
-0.767831
0
SEQEND
8
0
0
CIRCLE
8
0
10
-0.190354
20
-0.779331
40
0.020000
0
POLYLINE
8
0
66
1
70
1
40
0
41
0
0
VERTEX
8
0
10
-0.145354
20
-0.867831
0
VERTEX
8
0
10
-0.145354
20
-0.890831
0
VERTEX
8
0
10
-0.145673
20
-0.894102
0
VERTEX
8
0
10
-0.146589
20
-0.897128
0
VERTEX
8
0
10
-0.148044
20
-0.899848
0
VERTEX
8
0
10
-0.149980
20
-0.902206
0
VERTEX
8
0
10
-0.152337
20
-0.904141
0
VERTEX
8
0
10
-0.155057
20
-0.905596
0
VERTEX
8
0
10
-0.158083
20
-0.906512
0
VERTEX
8
0
10
-0.161354
20
-0.906831
0
VERTEX
8
0
10
-0.219354
20
-0.906831
0
VERTEX
8
0
10
-0.222626
20
-0.906512
0
VERTEX
8
0
10
-0.225651
20
-0.905596
0
VERTEX
8
0
10
-0.228372
20
-0.904141
0
VERTEX
8
0
10
-0.230729
20
-0.902206
0
VERTEX
8
0
10
-0.232665
20
-0.899848
0
VERTEX
8
0
10
-0.234120
20
-0.897128
0
VERTEX
8
0
10
-0.235036
20
-0.894102
0
VERTEX
8
0
10
-0.235354
20
-0.890831
0
VERTEX
8
0
10
-0.235354
20
-0.867831
0
VERTEX
8
0
10
-0.235036
20
-0.864559
0
VERTEX
8
0
10
-0.234120
20
-0.861534
0
VERTEX
8
0
10
-0.232665
20
-0.858813
0
VERTEX
8
0
10
-0.230729
20
-0.856456
0
VERTEX
8
0
10
-0.228372
20
-0.854520
0
VERTEX
8
0
10
-0.225651
20
-0.853065
0
VERTEX
8
0
10
-0.222626
20
-0.852149
0
VERTEX
8
0
10
-0.219354
20
-0.851831
0
VERTEX
8
0
10
-0.161354
20
-0.851831
0
VERTEX
8
0
10
-0.158083
20
-0.852149
0
VERTEX
8
0
10
-0.155057
20
-0.853065
0
VERTEX
8
0
10
-0.152337
20
-0.854520
0
VERTEX
8
0
10
-0.149980
20
-0.856456
0
VERTEX
8
0
10
-0.148044
20
-0.858813
0
VERTEX
8
0
10
-0.146589
20
-0.861534
0
VERTEX
8
0
10
-0.145673
20
-0.864559
0
VERTEX
8
0
10
-0.145354
20
-0.867831
0
SEQEND
8
0
0
CIRCLE
8
0
10
-0.190354
20
-0.879331
40
0.020000
0
POLYLINE
8
0
66
1
70
1
40
0
41
0
0
VERTEX
8
0
10
0.154646
20
-0.867831
0
VERTEX
8
0
10
0.154646
20
-0.890831
0
VERTEX
8
0
10
0.154327
20
-0.894102
0
VERTEX
8
0
10
0.153411
20
-0.897128
0
VERTEX
8
0
10
0.151956
20
-0.899848
0
VERTEX
8
0
10
0.150020
20
-0.902206
0
VERTEX
8
0
10
0.147663
20
-0.904141
0
VERTEX
8
0
10
0.144943
20
-0.905596
0
VERTEX
8
0
10
0.141917
20
-0.906512
0
VERTEX
8
0
10
0.138646
20
-0.906831
0
VERTEX
8
0
10
0.080646
20
-0.906831
0
VERTEX
8
0
10
0.077374
20
-0.906512
0
VERTEX
8
0
10
0.074349
20
-0.905596
0
VERTEX
8
0
10
0.071628
20
-0.904141
0
VERTEX
8
0
10
0.069271
20
-0.902206
0
VERTEX
8
0
10
0.067335
20
-0.899848
0
VERTEX
8
0
10
0.065880
20
-0.897128
0
VERTEX
8
0
10
0.064964
20
-0.894102
0
VERTEX
8
0
10
0.064646
20
-0.890831
0
VERTEX
8
0
10
0.064646
20
-0.867831
0
VERTEX
8
0
10
0.064964
20
-0.864559
0
VERTEX
8
0
10
0.065880
20
-0.861534
0
VERTEX
8
0
10
0.067335
20
-0.858813
0
VERTEX
8
0
10
0.069271
20
-0.856456
0
VERTEX
8
0
10
0.071628
20
-0.854520
0
VERTEX
8
0
10
0.074349
20
-0.853065
0
VERTEX
8
0
10
0.077374
20
-0.852149
0
VERTEX
8
0
10
0.080646
20
-0.851831
0
VERTEX
8
0
10
0.138646
20
-0.851831
0
VERTEX
8
0
10
0.141917
20
-0.852149
0
VERTEX
8
0
10
0.144943
20
-0.853065
0
VERTEX
8
0
10
0.147663
20
-0.854520
0
VERTEX
8
0
10
0.150020
20
-0.856456
0
VERTEX
8
0
10
0.151956
20
-0.858813
0
VERTEX
8
0
10
0.153411
20
-0.861534
0
VERTEX
8
0
10
0.154327
20
-0.864559
0
VERTEX
8
0
10
0.154646
20
-0.867831
0
SEQEND
8
0
0
CIRCLE
8
0
10
0.109646
20
-0.879331
40
0.020000
0
POLYLINE
8
0
66
1
70
1
40
0
41
0
0
VERTEX
8
0
10
0.154646
20
-0.767831
0
VERTEX
8
0
10
0.154646
20
-0.790831
0
VERTEX
8
0
10
0.154327
20
-0.794102
0
VERTEX
8
0
10
0.153411
20
-0.797128
0
VERTEX
8
0
10
0.151956
20
-0.799848
0
VERTEX
8
0
10
0.150020
20
-0.802206
0
VERTEX
8
0
10
0.147663
20
-0.804141
0
VERTEX
8
0
10
0.144943
20
-0.805596
0
VERTEX
8
0
10
0.141917
20
-0.806512
0
VERTEX
8
0
10
0.138646
20
-0.806831
0
VERTEX
8
0
10
0.080646
20
-0.806831
0
VERTEX
8
0
10
0.077374
20
-0.806512
0
VERTEX
8
0
10
0.074349
20
-0.805596
0
VERTEX
8
0
10
0.071628
20
-0.804141
0
VERTEX
8
0
10
0.069271
20
-0.802206
0
VERTEX
8
0
10
0.067335
20
-0.799848
0
VERTEX
8
0
10
0.065880
20
-0.797128
0
VERTEX
8
0
10
0.064964
20
-0.794102
0
VERTEX
8
0
10
0.064646
20
-0.790831
0
VERTEX
8
0
10
0.064646
20
-0.767831
0
VERTEX
8
0
10
0.064964
20
-0.764559
0
VERTEX
8
0
10
0.065880
20
-0.761534
0
VERTEX
8
0
10
0.067335
20
-0.758813
0
VERTEX
8
0
10
0.069271
20
-0.756456
0
VERTEX
8
0
10
0.071628
20
-0.754520
0
VERTEX
8
0
10
0.074349
20
-0.753065
0
VERTEX
8
0
10
0.077374
20
-0.752149
0
VERTEX
8
0
10
0.080646
20
-0.751831
0
VERTEX
8
0
10
0.138646
20
-0.751831
0
VERTEX
8
0
10
0.141917
20
-0.752149
0
VERTEX
8
0
10
0.144943
20
-0.753065
0
VERTEX
8
0
10
0.147663
20
-0.754520
0
VERTEX
8
0
10
0.150020
20
-0.756456
0
VERTEX
8
0
10
0.151956
20
-0.758813
0
VERTEX
8
0
10
0.153411
20
-0.761534
0
VERTEX
8
0
10
0.154327
20
-0.764559
0
VERTEX
8
0
10
0.154646
20
-0.767831
0
SEQEND
8
0
0
CIRCLE
8
0
10
0.109646
20
-0.779331
40
0.020000
0
POLYLINE
8
0
66
1
70
1
40
0
41
0
0
VERTEX
8
0
10
0.154646
20
-0.667831
0
VERTEX
8
0
10
0.154646
20
-0.690831
0
VERTEX
8
0
10
0.154327
20
-0.694102
0
VERTEX
8
0
10
0.153411
20
-0.697128
0
VERTEX
8
0
10
0.151956
20
-0.699848
0
VERTEX
8
0
10
0.150020
20
-0.702206
0
VERTEX
8
0
10
0.147663
20
-0.704141
0
VERTEX
8
0
10
0.144943
20
-0.705596
0
VERTEX
8
0
10
0.141917
20
-0.706512
0
VERTEX
8
0
10
0.138646
20
-0.706831
0
VERTEX
8
0
10
0.080646
20
-0.706831
0
VERTEX
8
0
10
0.077374
20
-0.706512
0
VERTEX
8
0
10
0.074349
20
-0.705596
0
VERTEX
8
0
10
0.071628
20
-0.704141
0
VERTEX
8
0
10
0.069271
20
-0.702206
0
VERTEX
8
0
10
0.067335
20
-0.699848
0
VERTEX
8
0
10
0.065880
20
-0.697128
0
VERTEX
8
0
10
0.064964
20
-0.694102
0
VERTEX
8
0
10
0.064646
20
-0.690831
0
VERTEX
8
0
10
0.064646
20
-0.667831
0
VERTEX
8
0
10
0.064964
20
-0.664559
0
VERTEX
8
0
10
0.065880
20
-0.661534
0
VERTEX
8
0
10
0.067335
20
-0.658813
0
VERTEX
8
0
10
0.069271
20
-0.656456
0
VERTEX
8
0
10
0.071628
20
-0.654520
0
VERTEX
8
0
10
0.074349
20
-0.653065
0
VERTEX
8
0
10
0.077374
20
-0.652149
0
VERTEX
8
0
10
0.080646
20
-0.651831
0
VERTEX
8
0
10
0.138646
20
-0.651831
0
VERTEX
8
0
10
0.141917
20
-0.652149
0
VERTEX
8
0
10
0.144943
20
-0.653065
0
VERTEX
8
0
10
0.147663
20
-0.654520
0
VERTEX
8
0
10
0.150020
20
-0.656456
0
VERTEX
8
0
10
0.151956
20
-0.658813
0
VERTEX
8
0
10
0.153411
20
-0.661534
0
VERTEX
8
0
10
0.154327
20
-0.664559
0
VERTEX
8
0
10
0.154646
20
-0.667831
0
SEQEND
8
0
0
CIRCLE
8
0
10
0.109646
20
-0.679331
40
0.020000
0
POLYLINE
8
0
66
1
70
1
40
0
41
0
0
VERTEX
8
0
10
0.154646
20
-0.567831
0
VERTEX
8
0
10
0.154646
20
-0.590831
0
VERTEX
8
0
10
0.154327
20
-0.594102
0
VERTEX
8
0
10
0.153411
20
-0.597128
0
VERTEX
8
0
10
0.151956
20
-0.599848
0
VERTEX
8
0
10
0.150020
20
-0.602206
0
VERTEX
8
0
10
0.147663
20
-0.604141
0
VERTEX
8
0
10
0.144943
20
-0.605596
0
VERTEX
8
0
10
0.141917
20
-0.606512
0
VERTEX
8
0
10
0.138646
20
-0.606831
0
VERTEX
8
0
10
0.080646
20
-0.606831
0
VERTEX
8
0
10
0.077374
20
-0.606512
0
VERTEX
8
0
10
0.074349
20
-0.605596
0
VERTEX
8
0
10
0.071628
20
-0.604141
0
VERTEX
8
0
10
0.069271
20
-0.602206
0
VERTEX
8
0
10
0.067335
20
-0.599848
0
VERTEX
8
0
10
0.065880
20
-0.597128
0
VERTEX
8
0
10
0.064964
20
-0.594102
0
VERTEX
8
0
10
0.064646
20
-0.590831
0
VERTEX
8
0
10
0.064646
20
-0.567831
0
VERTEX
8
0
10
0.064964
20
-0.564559
0
VERTEX
8
0
10
0.065880
20
-0.561534
0
VERTEX
8
0
10
0.067335
20
-0.558813
0
VERTEX
8
0
10
0.069271
20
-0.556456
0
VERTEX
8
0
10
0.071628
20
-0.554520
0
VERTEX
8
0
10
0.074349
20
-0.553065
0
VERTEX
8
0
10
0.077374
20
-0.552149
0
VERTEX
8
0
10
0.080646
20
-0.551831
0
VERTEX
8
0
10
0.138646
20
-0.551831
0
VERTEX
8
0
10
0.141917
20
-0.552149
0
VERTEX
8
0
10
0.144943
20
-0.553065
0
VERTEX
8
0
10
0.147663
20
-0.554520
0
VERTEX
8
0
10
0.150020
20
-0.556456
0
VERTEX
8
0
10
0.151956
20
-0.558813
0
VERTEX
8
0
10
0.153411
20
-0.561534
0
VERTEX
8
0
10
0.154327
20
-0.564559
0
VERTEX
8
0
10
0.154646
20
-0.567831
0
SEQEND
8
0
0
CIRCLE
8
0
10
0.109646
20
-0.579331
40
0.020000
0
POLYLINE
8
0
66
1
70
1
40
0
41
0
0
VERTEX
8
0
10
0.154646
20
-0.467831
0
VERTEX
8
0
10
0.154646
20
-0.490831
0
VERTEX
8
0
10
0.154327
20
-0.494102
0
VERTEX
8
0
10
0.153411
20
-0.497128
0
VERTEX
8
0
10
0.151956
20
-0.499848
0
VERTEX
8
0
10
0.150020
20
-0.502206
0
VERTEX
8
0
10
0.147663
20
-0.504141
0
VERTEX
8
0
10
0.144943
20
-0.505596
0
VERTEX
8
0
10
0.141917
20
-0.506512
0
VERTEX
8
0
10
0.138646
20
-0.506831
0
VERTEX
8
0
10
0.080646
20
-0.506831
0
VERTEX
8
0
10
0.077374
20
-0.506512
0
VERTEX
8
0
10
0.074349
20
-0.505596
0
VERTEX
8
0
10
0.071628
20
-0.504141
0
VERTEX
8
0
10
0.069271
20
-0.502206
0
VERTEX
8
0
10
0.067335
20
-0.499848
0
VERTEX
8
0
10
0.065880
20
-0.497128
0
VERTEX
8
0
10
0.064964
20
-0.494102
0
VERTEX
8
0
10
0.064646
20
-0.490831
0
VERTEX
8
0
10
0.064646
20
-0.467831
0
VERTEX
8
0
10
0.064964
20
-0.464559
0
VERTEX
8
0
10
0.065880
20
-0.461534
0
VERTEX
8
0
10
0.067335
20
-0.458813
0
VERTEX
8
0
10
0.069271
20
-0.456456
0
VERTEX
8
0
10
0.071628
20
-0.454520
0
VERTEX
8
0
10
0.074349
20
-0.453065
0
VERTEX
8
0
10
0.077374
20
-0.452149
0
VERTEX
8
0
10
0.080646
20
-0.451831
0
VERTEX
8
0
10
0.138646
20
-0.451831
0
VERTEX
8
0
10
0.141917
20
-0.452149
0
VERTEX
8
0
10
0.144943
20
-0.453065
0
VERTEX
8
0
10
0.147663
20
-0.454520
0
VERTEX
8
0
10
0.150020
20
-0.456456
0
VERTEX
8
0
10
0.151956
20
-0.458813
0
VERTEX
8
0
10
0.153411
20
-0.461534
0
VERTEX
8
0
10
0.154327
20
-0.464559
0
VERTEX
8
0
10
0.154646
20
-0.467831
0
SEQEND
8
0
0
CIRCLE
8
0
10
0.109646
20
-0.479331
40
0.020000
0
POLYLINE
8
0
66
1
70
1
40
0
41
0
0
VERTEX
8
0
10
0.154646
20
-0.367831
0
VERTEX
8
0
10
0.154646
20
-0.390831
0
VERTEX
8
0
10
0.154327
20
-0.394102
0
VERTEX
8
0
10
0.153411
20
-0.397128
0
VERTEX
8
0
10
0.151956
20
-0.399848
0
VERTEX
8
0
10
0.150020
20
-0.402206
0
VERTEX
8
0
10
0.147663
20
-0.404141
0
VERTEX
8
0
10
0.144943
20
-0.405596
0
VERTEX
8
0
10
0.141917
20
-0.406512
0
VERTEX
8
0
10
0.138646
20
-0.406831
0
VERTEX
8
0
10
0.080646
20
-0.406831
0
VERTEX
8
0
10
0.077374
20
-0.406512
0
VERTEX
8
0
10
0.074349
20
-0.405596
0
VERTEX
8
0
10
0.071628
20
-0.404141
0
VERTEX
8
0
10
0.069271
20
-0.402206
0
VERTEX
8
0
10
0.067335
20
-0.399848
0
VERTEX
8
0
10
0.065880
20
-0.397128
0
VERTEX
8
0
10
0.064964
20
-0.394102
0
VERTEX
8
0
10
0.064646
20
-0.390831
0
VERTEX
8
0
10
0.064646
20
-0.367831
0
VERTEX
8
0
10
0.064964
20
-0.364559
0
VERTEX
8
0
10
0.065880
20
-0.361534
0
VERTEX
8
0
10
0.067335
20
-0.358813
0
VERTEX
8
0
10
0.069271
20
-0.356456
0
VERTEX
8
0
10
0.071628
20
-0.354520
0
VERTEX
8
0
10
0.074349
20
-0.353065
0
VERTEX
8
0
10
0.077374
20
-0.352149
0
VERTEX
8
0
10
0.080646
20
-0.351831
0
VERTEX
8
0
10
0.138646
20
-0.351831
0
VERTEX
8
0
10
0.141917
20
-0.352149
0
VERTEX
8
0
10
0.144943
20
-0.353065
0
VERTEX
8
0
10
0.147663
20
-0.354520
0
VERTEX
8
0
10
0.150020
20
-0.356456
0
VERTEX
8
0
10
0.151956
20
-0.358813
0
VERTEX
8
0
10
0.153411
20
-0.361534
0
VERTEX
8
0
10
0.154327
20
-0.364559
0
VERTEX
8
0
10
0.154646
20
-0.367831
0
SEQEND
8
0
0
CIRCLE
8
0
10
0.109646
20
-0.379331
40
0.020000
0
POLYLINE
8
0
66
1
70
1
40
0
41
0
0
VERTEX
8
0
10
0.154646
20
-0.267831
0
VERTEX
8
0
10
0.154646
20
-0.290831
0
VERTEX
8
0
10
0.154327
20
-0.294102
0
VERTEX
8
0
10
0.153411
20
-0.297128
0
VERTEX
8
0
10
0.151956
20
-0.299848
0
VERTEX
8
0
10
0.150020
20
-0.302206
0
VERTEX
8
0
10
0.147663
20
-0.304141
0
VERTEX
8
0
10
0.144943
20
-0.305596
0
VERTEX
8
0
10
0.141917
20
-0.306512
0
VERTEX
8
0
10
0.138646
20
-0.306831
0
VERTEX
8
0
10
0.080646
20
-0.306831
0
VERTEX
8
0
10
0.077374
20
-0.306512
0
VERTEX
8
0
10
0.074349
20
-0.305596
0
VERTEX
8
0
10
0.071628
20
-0.304141
0
VERTEX
8
0
10
0.069271
20
-0.302206
0
VERTEX
8
0
10
0.067335
20
-0.299848
0
VERTEX
8
0
10
0.065880
20
-0.297128
0
VERTEX
8
0
10
0.064964
20
-0.294102
0
VERTEX
8
0
10
0.064646
20
-0.290831
0
VERTEX
8
0
10
0.064646
20
-0.267831
0
VERTEX
8
0
10
0.064964
20
-0.264559
0
VERTEX
8
0
10
0.065880
20
-0.261534
0
VERTEX
8
0
10
0.067335
20
-0.258813
0
VERTEX
8
0
10
0.069271
20
-0.256456
0
VERTEX
8
0
10
0.071628
20
-0.254520
0
VERTEX
8
0
10
0.074349
20
-0.253065
0
VERTEX
8
0
10
0.077374
20
-0.252149
0
VERTEX
8
0
10
0.080646
20
-0.251831
0
VERTEX
8
0
10
0.138646
20
-0.251831
0
VERTEX
8
0
10
0.141917
20
-0.252149
0
VERTEX
8
0
10
0.144943
20
-0.253065
0
VERTEX
8
0
10
0.147663
20
-0.254520
0
VERTEX
8
0
10
0.150020
20
-0.256456
0
VERTEX
8
0
10
0.151956
20
-0.258813
0
VERTEX
8
0
10
0.153411
20
-0.261534
0
VERTEX
8
0
10
0.154327
20
-0.264559
0
VERTEX
8
0
10
0.154646
20
-0.267831
0
SEQEND
8
0
0
CIRCLE
8
0
10
0.109646
20
-0.279331
40
0.020000
0
POLYLINE
8
0
66
1
70
1
40
0
41
0
0
VERTEX
8
0
10
0.154646
20
-0.167831
0
VERTEX
8
0
10
0.154646
20
-0.190831
0
VERTEX
8
0
10
0.154327
20
-0.194102
0
VERTEX
8
0
10
0.153411
20
-0.197128
0
VERTEX
8
0
10
0.151956
20
-0.199848
0
VERTEX
8
0
10
0.150020
20
-0.202206
0
VERTEX
8
0
10
0.147663
20
-0.204141
0
VERTEX
8
0
10
0.144943
20
-0.205596
0
VERTEX
8
0
10
0.141917
20
-0.206512
0
VERTEX
8
0
10
0.138646
20
-0.206831
0
VERTEX
8
0
10
0.080646
20
-0.206831
0
VERTEX
8
0
10
0.077374
20
-0.206512
0
VERTEX
8
0
10
0.074349
20
-0.205596
0
VERTEX
8
0
10
0.071628
20
-0.204141
0
VERTEX
8
0
10
0.069271
20
-0.202206
0
VERTEX
8
0
10
0.067335
20
-0.199848
0
VERTEX
8
0
10
0.065880
20
-0.197128
0
VERTEX
8
0
10
0.064964
20
-0.194102
0
VERTEX
8
0
10
0.064646
20
-0.190831
0
VERTEX
8
0
10
0.064646
20
-0.167831
0
VERTEX
8
0
10
0.064964
20
-0.164559
0
VERTEX
8
0
10
0.065880
20
-0.161534
0
VERTEX
8
0
10
0.067335
20
-0.158813
0
VERTEX
8
0
10
0.069271
20
-0.156456
0
VERTEX
8
0
10
0.071628
20
-0.154520
0
VERTEX
8
0
10
0.074349
20
-0.153065
0
VERTEX
8
0
10
0.077374
20
-0.152149
0
VERTEX
8
0
10
0.080646
20
-0.151831
0
VERTEX
8
0
10
0.138646
20
-0.151831
0
VERTEX
8
0
10
0.141917
20
-0.152149
0
VERTEX
8
0
10
0.144943
20
-0.153065
0
VERTEX
8
0
10
0.147663
20
-0.154520
0
VERTEX
8
0
10
0.150020
20
-0.156456
0
VERTEX
8
0
10
0.151956
20
-0.158813
0
VERTEX
8
0
10
0.153411
20
-0.161534
0
VERTEX
8
0
10
0.154327
20
-0.164559
0
VERTEX
8
0
10
0.154646
20
-0.167831
0
SEQEND
8
0
0
CIRCLE
8
0
10
0.109646
20
-0.179331
40
0.020000
0
POLYLINE
8
0
66
1
70
1
40
0
41
0
0
VERTEX
8
0
10
0.154646
20
-0.067831
0
VERTEX
8
0
10
0.154646
20
-0.090831
0
VERTEX
8
0
10
0.154327
20
-0.094102
0
VERTEX
8
0
10
0.153411
20
-0.097128
0
VERTEX
8
0
10
0.151956
20
-0.099848
0
VERTEX
8
0
10
0.150020
20
-0.102206
0
VERTEX
8
0
10
0.147663
20
-0.104141
0
VERTEX
8
0
10
0.144943
20
-0.105596
0
VERTEX
8
0
10
0.141917
20
-0.106512
0
VERTEX
8
0
10
0.138646
20
-0.106831
0
VERTEX
8
0
10
0.080646
20
-0.106831
0
VERTEX
8
0
10
0.077374
20
-0.106512
0
VERTEX
8
0
10
0.074349
20
-0.105596
0
VERTEX
8
0
10
0.071628
20
-0.104141
0
VERTEX
8
0
10
0.069271
20
-0.102206
0
VERTEX
8
0
10
0.067335
20
-0.099848
0
VERTEX
8
0
10
0.065880
20
-0.097128
0
VERTEX
8
0
10
0.064964
20
-0.094102
0
VERTEX
8
0
10
0.064646
20
-0.090831
0
VERTEX
8
0
10
0.064646
20
-0.067831
0
VERTEX
8
0
10
0.064964
20
-0.064559
0
VERTEX
8
0
10
0.065880
20
-0.061534
0
VERTEX
8
0
10
0.067335
20
-0.058813
0
VERTEX
8
0
10
0.069271
20
-0.056456
0
VERTEX
8
0
10
0.071628
20
-0.054520
0
VERTEX
8
0
10
0.074349
20
-0.053065
0
VERTEX
8
0
10
0.077374
20
-0.052149
0
VERTEX
8
0
10
0.080646
20
-0.051831
0
VERTEX
8
0
10
0.138646
20
-0.051831
0
VERTEX
8
0
10
0.141917
20
-0.052149
0
VERTEX
8
0
10
0.144943
20
-0.053065
0
VERTEX
8
0
10
0.147663
20
-0.054520
0
VERTEX
8
0
10
0.150020
20
-0.056456
0
VERTEX
8
0
10
0.151956
20
-0.058813
0
VERTEX
8
0
10
0.153411
20
-0.061534
0
VERTEX
8
0
10
0.154327
20
-0.064559
0
VERTEX
8
0
10
0.154646
20
-0.067831
0
SEQEND
8
0
0
CIRCLE
8
0
10
0.109646
20
-0.079331
40
0.020000
0
POLYLINE
8
0
66
1
70
1
40
0
41
0
0
VERTEX
8
0
10
0.154646
20
0.032169
0
VERTEX
8
0
10
0.154646
20
0.009169
0
VERTEX
8
0
10
0.154327
20
0.005898
0
VERTEX
8
0
10
0.153411
20
0.002872
0
VERTEX
8
0
10
0.151956
20
0.000152
0
VERTEX
8
0
10
0.150020
20
-0.002206
0
VERTEX
8
0
10
0.147663
20
-0.004141
0
VERTEX
8
0
10
0.144943
20
-0.005596
0
VERTEX
8
0
10
0.141917
20
-0.006512
0
VERTEX
8
0
10
0.138646
20
-0.006831
0
VERTEX
8
0
10
0.080646
20
-0.006831
0
VERTEX
8
0
10
0.077374
20
-0.006512
0
VERTEX
8
0
10
0.074349
20
-0.005596
0
VERTEX
8
0
10
0.071628
20
-0.004141
0
VERTEX
8
0
10
0.069271
20
-0.002206
0
VERTEX
8
0
10
0.067335
20
0.000152
0
VERTEX
8
0
10
0.065880
20
0.002872
0
VERTEX
8
0
10
0.064964
20
0.005898
0
VERTEX
8
0
10
0.064646
20
0.009169
0
VERTEX
8
0
10
0.064646
20
0.032169
0
VERTEX
8
0
10
0.064964
20
0.035441
0
VERTEX
8
0
10
0.065880
20
0.038466
0
VERTEX
8
0
10
0.067335
20
0.041187
0
VERTEX
8
0
10
0.069271
20
0.043544
0
VERTEX
8
0
10
0.071628
20
0.045480
0
VERTEX
8
0
10
0.074349
20
0.046935
0
VERTEX
8
0
10
0.077374
20
0.047851
0
VERTEX
8
0
10
0.080646
20
0.048169
0
VERTEX
8
0
10
0.138646
20
0.048169
0
VERTEX
8
0
10
0.141917
20
0.047851
0
VERTEX
8
0
10
0.144943
20
0.046935
0
VERTEX
8
0
10
0.147663
20
0.045480
0
VERTEX
8
0
10
0.150020
20
0.043544
0
VERTEX
8
0
10
0.151956
20
0.041187
0
VERTEX
8
0
10
0.153411
20
0.038466
0
VERTEX
8
0
10
0.154327
20
0.035441
0
VERTEX
8
0
10
0.154646
20
0.032169
0
SEQEND
8
0
0
CIRCLE
8
0
10
0.109646
20
0.020669
40
0.020000
0
POLYLINE
8
0
66
1
70
1
40
0
41
0
0
VERTEX
8
0
10
0.154646
20
0.132169
0
VERTEX
8
0
10
0.154646
20
0.109169
0
VERTEX
8
0
10
0.154327
20
0.105898
0
VERTEX
8
0
10
0.153411
20
0.102872
0
VERTEX
8
0
10
0.151956
20
0.100152
0
VERTEX
8
0
10
0.150020
20
0.097794
0
VERTEX
8
0
10
0.147663
20
0.095859
0
VERTEX
8
0
10
0.144943
20
0.094404
0
VERTEX
8
0
10
0.141917
20
0.093488
0
VERTEX
8
0
10
0.138646
20
0.093169
0
VERTEX
8
0
10
0.080646
20
0.093169
0
VERTEX
8
0
10
0.077374
20
0.093488
0
VERTEX
8
0
10
0.074349
20
0.094404
0
VERTEX
8
0
10
0.071628
20
0.095859
0
VERTEX
8
0
10
0.069271
20
0.097794
0
VERTEX
8
0
10
0.067335
20
0.100152
0
VERTEX
8
0
10
0.065880
20
0.102872
0
VERTEX
8
0
10
0.064964
20
0.105898
0
VERTEX
8
0
10
0.064646
20
0.109169
0
VERTEX
8
0
10
0.064646
20
0.132169
0
VERTEX
8
0
10
0.064964
20
0.135441
0
VERTEX
8
0
10
0.065880
20
0.138466
0
VERTEX
8
0
10
0.067335
20
0.141187
0
VERTEX
8
0
10
0.069271
20
0.143544
0
VERTEX
8
0
10
0.071628
20
0.145480
0
VERTEX
8
0
10
0.074349
20
0.146935
0
VERTEX
8
0
10
0.077374
20
0.147851
0
VERTEX
8
0
10
0.080646
20
0.148169
0
VERTEX
8
0
10
0.138646
20
0.148169
0
VERTEX
8
0
10
0.141917
20
0.147851
0
VERTEX
8
0
10
0.144943
20
0.146935
0
VERTEX
8
0
10
0.147663
20
0.145480
0
VERTEX
8
0
10
0.150020
20
0.143544
0
VERTEX
8
0
10
0.151956
20
0.141187
0
VERTEX
8
0
10
0.153411
20
0.138466
0
VERTEX
8
0
10
0.154327
20
0.135441
0
VERTEX
8
0
10
0.154646
20
0.132169
0
SEQEND
8
0
0
CIRCLE
8
0
10
0.109646
20
0.120669
40
0.020000
0
POLYLINE
8
0
66
1
70
1
40
0
41
0
0
VERTEX
8
0
10
0.154646
20
0.232169
0
VERTEX
8
0
10
0.154646
20
0.209169
0
VERTEX
8
0
10
0.154327
20
0.205898
0
VERTEX
8
0
10
0.153411
20
0.202872
0
VERTEX
8
0
10
0.151956
20
0.200152
0
VERTEX
8
0
10
0.150020
20
0.197794
0
VERTEX
8
0
10
0.147663
20
0.195859
0
VERTEX
8
0
10
0.144943
20
0.194404
0
VERTEX
8
0
10
0.141917
20
0.193488
0
VERTEX
8
0
10
0.138646
20
0.193169
0
VERTEX
8
0
10
0.080646
20
0.193169
0
VERTEX
8
0
10
0.077374
20
0.193488
0
VERTEX
8
0
10
0.074349
20
0.194404
0
VERTEX
8
0
10
0.071628
20
0.195859
0
VERTEX
8
0
10
0.069271
20
0.197794
0
VERTEX
8
0
10
0.067335
20
0.200152
0
VERTEX
8
0
10
0.065880
20
0.202872
0
VERTEX
8
0
10
0.064964
20
0.205898
0
VERTEX
8
0
10
0.064646
20
0.209169
0
VERTEX
8
0
10
0.064646
20
0.232169
0
VERTEX
8
0
10
0.064964
20
0.235441
0
VERTEX
8
0
10
0.065880
20
0.238466
0
VERTEX
8
0
10
0.067335
20
0.241187
0
VERTEX
8
0
10
0.069271
20
0.243544
0
VERTEX
8
0
10
0.071628
20
0.245480
0
VERTEX
8
0
10
0.074349
20
0.246935
0
VERTEX
8
0
10
0.077374
20
0.247851
0
VERTEX
8
0
10
0.080646
20
0.248169
0
VERTEX
8
0
10
0.138646
20
0.248169
0
VERTEX
8
0
10
0.141917
20
0.247851
0
VERTEX
8
0
10
0.144943
20
0.246935
0
VERTEX
8
0
10
0.147663
20
0.245480
0
VERTEX
8
0
10
0.150020
20
0.243544
0
VERTEX
8
0
10
0.151956
20
0.241187
0
VERTEX
8
0
10
0.153411
20
0.238466
0
VERTEX
8
0
10
0.154327
20
0.235441
0
VERTEX
8
0
10
0.154646
20
0.232169
0
SEQEND
8
0
0
CIRCLE
8
0
10
0.109646
20
0.220669
40
0.020000
0
POLYLINE
8
0
66
1
70
1
40
0
41
0
0
VERTEX
8
0
10
0.154646
20
0.332169
0
VERTEX
8
0
10
0.154646
20
0.309169
0
VERTEX
8
0
10
0.154327
20
0.305898
0
VERTEX
8
0
10
0.153411
20
0.302872
0
VERTEX
8
0
10
0.151956
20
0.300152
0
VERTEX
8
0
10
0.150020
20
0.297794
0
VERTEX
8
0
10
0.147663
20
0.295859
0
VERTEX
8
0
10
0.144943
20
0.294404
0
VERTEX
8
0
10
0.141917
20
0.293488
0
VERTEX
8
0
10
0.138646
20
0.293169
0
VERTEX
8
0
10
0.080646
20
0.293169
0
VERTEX
8
0
10
0.077374
20
0.293488
0
VERTEX
8
0
10
0.074349
20
0.294404
0
VERTEX
8
0
10
0.071628
20
0.295859
0
VERTEX
8
0
10
0.069271
20
0.297794
0
VERTEX
8
0
10
0.067335
20
0.300152
0
VERTEX
8
0
10
0.065880
20
0.302872
0
VERTEX
8
0
10
0.064964
20
0.305898
0
VERTEX
8
0
10
0.064646
20
0.309169
0
VERTEX
8
0
10
0.064646
20
0.332169
0
VERTEX
8
0
10
0.064964
20
0.335441
0
VERTEX
8
0
10
0.065880
20
0.338466
0
VERTEX
8
0
10
0.067335
20
0.341187
0
VERTEX
8
0
10
0.069271
20
0.343544
0
VERTEX
8
0
10
0.071628
20
0.345480
0
VERTEX
8
0
10
0.074349
20
0.346935
0
VERTEX
8
0
10
0.077374
20
0.347851
0
VERTEX
8
0
10
0.080646
20
0.348169
0
VERTEX
8
0
10
0.138646
20
0.348169
0
VERTEX
8
0
10
0.141917
20
0.347851
0
VERTEX
8
0
10
0.144943
20
0.346935
0
VERTEX
8
0
10
0.147663
20
0.345480
0
VERTEX
8
0
10
0.150020
20
0.343544
0
VERTEX
8
0
10
0.151956
20
0.341187
0
VERTEX
8
0
10
0.153411
20
0.338466
0
VERTEX
8
0
10
0.154327
20
0.335441
0
VERTEX
8
0
10
0.154646
20
0.332169
0
SEQEND
8
0
0
CIRCLE
8
0
10
0.109646
20
0.320669
40
0.020000
0
POLYLINE
8
0
66
1
70
1
40
0
41
0
0
VERTEX
8
0
10
0.154646
20
0.431382
0
VERTEX
8
0
10
0.154646
20
0.408382
0
VERTEX
8
0
10
0.154327
20
0.405110
0
VERTEX
8
0
10
0.153411
20
0.402085
0
VERTEX
8
0
10
0.151956
20
0.399365
0
VERTEX
8
0
10
0.150020
20
0.397007
0
VERTEX
8
0
10
0.147663
20
0.395071
0
VERTEX
8
0
10
0.144943
20
0.393616
0
VERTEX
8
0
10
0.141917
20
0.392700
0
VERTEX
8
0
10
0.138646
20
0.392382
0
VERTEX
8
0
10
0.080646
20
0.392382
0
VERTEX
8
0
10
0.077374
20
0.392700
0
VERTEX
8
0
10
0.074349
20
0.393616
0
VERTEX
8
0
10
0.071628
20
0.395071
0
VERTEX
8
0
10
0.069271
20
0.397007
0
VERTEX
8
0
10
0.067335
20
0.399365
0
VERTEX
8
0
10
0.065880
20
0.402085
0
VERTEX
8
0
10
0.064964
20
0.405110
0
VERTEX
8
0
10
0.064646
20
0.408382
0
VERTEX
8
0
10
0.064646
20
0.431382
0
VERTEX
8
0
10
0.064964
20
0.434654
0
VERTEX
8
0
10
0.065880
20
0.437679
0
VERTEX
8
0
10
0.067335
20
0.440399
0
VERTEX
8
0
10
0.069271
20
0.442757
0
VERTEX
8
0
10
0.071628
20
0.444693
0
VERTEX
8
0
10
0.074349
20
0.446148
0
VERTEX
8
0
10
0.077374
20
0.447063
0
VERTEX
8
0
10
0.080646
20
0.447382
0
VERTEX
8
0
10
0.138646
20
0.447382
0
VERTEX
8
0
10
0.141917
20
0.447063
0
VERTEX
8
0
10
0.144943
20
0.446148
0
VERTEX
8
0
10
0.147663
20
0.444693
0
VERTEX
8
0
10
0.150020
20
0.442757
0
VERTEX
8
0
10
0.151956
20
0.440399
0
VERTEX
8
0
10
0.153411
20
0.437679
0
VERTEX
8
0
10
0.154327
20
0.434654
0
VERTEX
8
0
10
0.154646
20
0.431382
0
SEQEND
8
0
0
CIRCLE
8
0
10
0.109646
20
0.419882
40
0.020000
0
INSERT
8
0
2
EPAD
10
0.078937
20
1.073425
41
0.061417
42
0.061417
0
CIRCLE
8
0
10
0.078937
20
1.073425
40
0.041732
0
INSERT
8
0
2
EPAD
10
-0.021063
20
1.073425
41
0.061417
42
0.061417
0
CIRCLE
8
0
10
-0.021063
20
1.073425
40
0.041732
0
INSERT
8
0
2
EPAD
10
-0.121063
20
1.073425
41
0.061417
42
0.061417
0
CIRCLE
8
0
10
-0.121063
20
1.073425
40
0.041732
0
INSERT
8
0
2
EPAD
10
-0.393504
20
0.541952
41
0.070000
42
0.070000
0
CIRCLE
8
0
10
-0.393504
20
0.541952
40
0.025000
0
INSERT
8
0
2
EPAD
10
-0.193504
20
0.888363
41
0.070000
42
0.070000
0
CIRCLE
8
0
10
-0.193504
20
0.888363
40
0.025000
0
INSERT
8
0
2
EPAD
10
-0.934722
20
1.683785
41
0.120000
42
0.120000
0
CIRCLE
8
0
10
-0.934722
20
1.683785
40
0.030000
0
INSERT
8
0
2
EPAD
10
-1.131722
20
1.683785
41
0.120000
42
0.120000
0
CIRCLE
8
0
10
-1.131722
20
1.683785
40
0.030000
0
INSERT
8
0
2
EPAD
10
-1.635659
20
1.671974
41
0.120000
42
0.120000
0
CIRCLE
8
0
10
-1.635659
20
1.671974
40
0.030000
0
INSERT
8
0
2
EPAD
10
-1.438659
20
1.671974
41
0.120000
42
0.120000
0
CIRCLE
8
0
10
-1.438659
20
1.671974
40
0.030000
0
INSERT
8
0
2
EPAD
10
-0.946260
20
-1.844047
41
0.120000
42
0.120000
0
CIRCLE
8
0
10
-0.946260
20
-1.844047
40
0.030000
0
INSERT
8
0
2
EPAD
10
-0.946260
20
-1.647047
41
0.120000
42
0.120000
0
CIRCLE
8
0
10
-0.946260
20
-1.647047
40
0.030000
0
POLYLINE
8
0
66
1
40
0.008000
41
0.008000
0
VERTEX
8
0
10
-2.025000
20
1.975000
0
VERTEX
8
0
10
1.975000
20
1.975000
0
SEQEND
8
0
0
POLYLINE
8
0
66
1
40
0.008000
41
0.008000
0
VERTEX
8
0
10
-2.025000
20
1.975000
0
VERTEX
8
0
10
-1.975000
20
1.925000
0
SEQEND
8
0
0
POLYLINE
8
0
66
1
40
0.008000
41
0.008000
0
VERTEX
8
0
10
-2.025000
20
1.975000
0
VERTEX
8
0
10
-1.975000
20
2.025000
0
SEQEND
8
0
0
POLYLINE
8
0
66
1
40
0.008000
41
0.008000
0
VERTEX
8
0
10
1.975000
20
1.975000
0
VERTEX
8
0
10
1.925000
20
2.025000
0
SEQEND
8
0
0
POLYLINE
8
0
66
1
40
0.008000
41
0.008000
0
VERTEX
8
0
10
1.975000
20
1.975000
0
VERTEX
8
0
10
1.925000
20
1.925000
0
SEQEND
8
0
0
CIRCLE
8
0
10
-0.025000
20
1.975000
40
0.012500
0
TEXT
8
0
10
-0.171126
20
1.865691
40
0.048000
41
1.041667
1
101.6mm
0
POLYLINE
8
0
66
1
40
0.008000
41
0.008000
0
VERTEX
8
0
10
1.975000
20
1.975000
0
VERTEX
8
0
10
1.975000
20
-2.025000
0
SEQEND
8
0
0
POLYLINE
8
0
66
1
40
0.008000
41
0.008000
0
VERTEX
8
0
10
1.975000
20
1.975000
0
VERTEX
8
0
10
1.925000
20
1.925000
0
SEQEND
8
0
0
POLYLINE
8
0
66
1
40
0.008000
41
0.008000
0
VERTEX
8
0
10
1.975000
20
1.975000
0
VERTEX
8
0
10
2.025000
20
1.925000
0
SEQEND
8
0
0
POLYLINE
8
0
66
1
40
0.008000
41
0.008000
0
VERTEX
8
0
10
1.975000
20
-2.025000
0
VERTEX
8
0
10
2.025000
20
-1.975000
0
SEQEND
8
0
0
POLYLINE
8
0
66
1
40
0.008000
41
0.008000
0
VERTEX
8
0
10
1.975000
20
-2.025000
0
VERTEX
8
0
10
1.925000
20
-1.975000
0
SEQEND
8
0
0
CIRCLE
8
0
10
1.975000
20
-0.025000
40
0.012500
0
TEXT
8
0
10
1.870630
20
0.146063
40
0.048000
41
1.041667
50
-90.000000
1
101.6mm
0
POLYLINE
8
0
66
1
40
0.008000
41
0.008000
0
VERTEX
8
0
10
-2.025000
20
-2.025000
0
VERTEX
8
0
10
1.975000
20
-2.025000
0
VERTEX
8
0
10
1.975000
20
1.975000
0
VERTEX
8
0
10
-2.025000
20
1.975000
0
VERTEX
8
0
10
-2.025000
20
-2.025000
0
SEQEND
8
0
0
POLYLINE
8
0
66
1
40
0.008000
41
0.008000
0
VERTEX
8
0
10
0.569488
20
1.128543
0
VERTEX
8
0
10
1.455315
20
1.128543
0
VERTEX
8
0
10
1.455315
20
1.778150
0
VERTEX
8
0
10
0.569488
20
1.778150
0
VERTEX
8
0
10
0.569488
20
1.128543
0
SEQEND
8
0
0
TEXT
8
0
10
1.175118
20
1.807646
40
0.072000
41
0.972222
1
RL1
0
POLYLINE
8
0
66
1
40
0.008000
41
0.008000
0
VERTEX
8
0
10
0.569488
20
0.179724
0
VERTEX
8
0
10
1.455315
20
0.179724
0
VERTEX
8
0
10
1.455315
20
0.829331
0
VERTEX
8
0
10
0.569488
20
0.829331
0
VERTEX
8
0
10
0.569488
20
0.179724
0
SEQEND
8
0
0
TEXT
8
0
10
1.226299
20
0.850953
40
0.072000
41
0.972222
1
RL2
0
POLYLINE
8
0
66
1
40
0.008000
41
0.008000
0
VERTEX
8
0
10
0.569488
20
-0.792717
0
VERTEX
8
0
10
1.455315
20
-0.792717
0
VERTEX
8
0
10
1.455315
20
-0.143110
0
VERTEX
8
0
10
0.569488
20
-0.143110
0
VERTEX
8
0
10
0.569488
20
-0.792717
0
SEQEND
8
0
0
TEXT
8
0
10
1.368031
20
-0.109677
40
0.072000
41
0.972222
1
RL3
0
POLYLINE
8
0
66
1
40
0.008000
41
0.008000
0
VERTEX
8
0
10
0.569488
20
-1.725787
0
VERTEX
8
0
10
1.455315
20
-1.725787
0
VERTEX
8
0
10
1.455315
20
-1.076181
0
VERTEX
8
0
10
0.569488
20
-1.076181
0
VERTEX
8
0
10
0.569488
20
-1.725787
0
SEQEND
8
0
0
TEXT
8
0
10
1.340472
20
-1.062433
40
0.072000
41
0.972222
1
RL4
0
POLYLINE
8
0
66
1
40
0.008000
41
0.008000
0
VERTEX
8
0
10
1.506102
20
1.610583
0
VERTEX
8
0
10
1.806102
20
1.610583
0
SEQEND
8
0
0
POLYLINE
8
0
66
1
40
0.008000
41
0.008000
0
VERTEX
8
0
10
1.806102
20
1.210583
0
VERTEX
8
0
10
1.506102
20
1.210583
0
SEQEND
8
0
0
POLYLINE
8
0
66
1
40
0.008000
41
0.008000
0
VERTEX
8
0
10
1.506102
20
1.610583
0
VERTEX
8
0
10
1.506102
20
1.210583
0
SEQEND
8
0
0
POLYLINE
8
0
66
1
40
0.008000
41
0.008000
0
VERTEX
8
0
10
1.806102
20
1.610583
0
VERTEX
8
0
10
1.806102
20
1.210583
0
SEQEND
8
0
0
TEXT
8
0
10
1.864102
20
1.360583
40
0.048000
41
1.041667
50
90.000000
1
J1
0
POLYLINE
8
0
66
1
40
0.008000
41
0.008000
0
VERTEX
8
0
10
1.529724
20
0.622244
0
VERTEX
8
0
10
1.829724
20
0.622244
0
SEQEND
8
0
0
POLYLINE
8
0
66
1
40
0.008000
41
0.008000
0
VERTEX
8
0
10
1.829724
20
0.222244
0
VERTEX
8
0
10
1.529724
20
0.222244
0
SEQEND
8
0
0
POLYLINE
8
0
66
1
40
0.008000
41
0.008000
0
VERTEX
8
0
10
1.529724
20
0.622244
0
VERTEX
8
0
10
1.529724
20
0.222244
0
SEQEND
8
0
0
POLYLINE
8
0
66
1
40
0.008000
41
0.008000
0
VERTEX
8
0
10
1.829724
20
0.622244
0
VERTEX
8
0
10
1.829724
20
0.222244
0
SEQEND
8
0
0
TEXT
8
0
10
1.887724
20
0.372244
40
0.048000
41
1.041667
50
90.000000
1
J2
0
POLYLINE
8
0
66
1
40
0.008000
41
0.008000
0
VERTEX
8
0
10
1.525787
20
-0.428937
0
VERTEX
8
0
10
1.825787
20
-0.428937
0
SEQEND
8
0
0
POLYLINE
8
0
66
1
40
0.008000
41
0.008000
0
VERTEX
8
0
10
1.825787
20
-0.828937
0
VERTEX
8
0
10
1.525787
20
-0.828937
0
SEQEND
8
0
0
POLYLINE
8
0
66
1
40
0.008000
41
0.008000
0
VERTEX
8
0
10
1.525787
20
-0.428937
0
VERTEX
8
0
10
1.525787
20
-0.828937
0
SEQEND
8
0
0
POLYLINE
8
0
66
1
40
0.008000
41
0.008000
0
VERTEX
8
0
10
1.825787
20
-0.428937
0
VERTEX
8
0
10
1.825787
20
-0.828937
0
SEQEND
8
0
0
TEXT
8
0
10
1.891787
20
-0.698937
40
0.064000
41
1.093750
50
90.000000
1
J3
0
POLYLINE
8
0
66
1
40
0.008000
41
0.008000
0
VERTEX
8
0
10
1.545472
20
-1.346260
0
VERTEX
8
0
10
1.845472
20
-1.346260
0
SEQEND
8
0
0
POLYLINE
8
0
66
1
40
0.008000
41
0.008000
0
VERTEX
8
0
10
1.845472
20
-1.746260
0
VERTEX
8
0
10
1.545472
20
-1.746260
0
SEQEND
8
0
0
POLYLINE
8
0
66
1
40
0.008000
41
0.008000
0
VERTEX
8
0
10
1.545472
20
-1.346260
0
VERTEX
8
0
10
1.545472
20
-1.746260
0
SEQEND
8
0
0
POLYLINE
8
0
66
1
40
0.008000
41
0.008000
0
VERTEX
8
0
10
1.845472
20
-1.346260
0
VERTEX
8
0
10
1.845472
20
-1.746260
0
SEQEND
8
0
0
TEXT
8
0
10
1.911472
20
-1.616260
40
0.064000
41
1.093750
50
90.000000
1
J4
0
POLYLINE
8
0
66
1
40
0.008000
41
0.008000
0
VERTEX
8
0
10
0.882441
20
1.090748
0
VERTEX
8
0
10
0.882441
20
0.890748
0
SEQEND
8
0
0
POLYLINE
8
0
66
1
40
0.008000
41
0.008000
0
VERTEX
8
0
10
0.947441
20
1.120748
0
VERTEX
8
0
10
0.932363
20
1.118873
0
VERTEX
8
0
10
0.916816
20
1.113248
0
VERTEX
8
0
10
0.900331
20
1.103873
0
VERTEX
8
0
10
0.882441
20
1.090748
0
SEQEND
8
0
0
POLYLINE
8
0
66
1
40
0.008000
41
0.008000
0
VERTEX
8
0
10
0.947441
20
1.120748
0
VERTEX
8
0
10
0.972999
20
1.119712
0
VERTEX
8
0
10
0.996635
20
1.113224
0
VERTEX
8
0
10
1.017891
20
1.101835
0
VERTEX
8
0
10
1.036308
20
1.086100
0
VERTEX
8
0
10
1.051430
20
1.066570
0
VERTEX
8
0
10
1.062797
20
1.043800
0
VERTEX
8
0
10
1.069954
20
1.018341
0
VERTEX
8
0
10
1.072441
20
0.990748
0
SEQEND
8
0
0
POLYLINE
8
0
66
1
40
0.008000
41
0.008000
0
VERTEX
8
0
10
0.947441
20
0.860748
0
VERTEX
8
0
10
0.932363
20
0.862623
0
VERTEX
8
0
10
0.916816
20
0.868248
0
VERTEX
8
0
10
0.900331
20
0.877623
0
VERTEX
8
0
10
0.882441
20
0.890748
0
SEQEND
8
0
0
POLYLINE
8
0
66
1
40
0.008000
41
0.008000
0
VERTEX
8
0
10
0.947441
20
0.860748
0
VERTEX
8
0
10
0.972999
20
0.861784
0
VERTEX
8
0
10
0.996635
20
0.868272
0
VERTEX
8
0
10
1.017891
20
0.879661
0
VERTEX
8
0
10
1.036308
20
0.895396
0
VERTEX
8
0
10
1.051430
20
0.914926
0
VERTEX
8
0
10
1.062797
20
0.937696
0
VERTEX
8
0
10
1.069954
20
0.963155
0
VERTEX
8
0
10
1.072441
20
0.990748
0
SEQEND
8
0
0
TEXT
8
0
10
1.177874
20
0.930748
40
0.072000
41
0.833333
50
90.000000
1
Q1
0
POLYLINE
8
0
66
1
40
0.008000
41
0.008000
0
VERTEX
8
0
10
0.890315
20
0.120984
0
VERTEX
8
0
10
0.890315
20
-0.079016
0
SEQEND
8
0
0
POLYLINE
8
0
66
1
40
0.008000
41
0.008000
0
VERTEX
8
0
10
0.955315
20
0.150984
0
VERTEX
8
0
10
0.940237
20
0.149109
0
VERTEX
8
0
10
0.924690
20
0.143484
0
VERTEX
8
0
10
0.908206
20
0.134109
0
VERTEX
8
0
10
0.890315
20
0.120984
0
SEQEND
8
0
0
POLYLINE
8
0
66
1
40
0.008000
41
0.008000
0
VERTEX
8
0
10
0.955315
20
0.150984
0
VERTEX
8
0
10
0.980873
20
0.149948
0
VERTEX
8
0
10
1.004509
20
0.143460
0
VERTEX
8
0
10
1.025765
20
0.132071
0
VERTEX
8
0
10
1.044182
20
0.116336
0
VERTEX
8
0
10
1.059304
20
0.096806
0
VERTEX
8
0
10
1.070671
20
0.074036
0
VERTEX
8
0
10
1.077828
20
0.048578
0
VERTEX
8
0
10
1.080315
20
0.020984
0
SEQEND
8
0
0
POLYLINE
8
0
66
1
40
0.008000
41
0.008000
0
VERTEX
8
0
10
0.955315
20
-0.109016
0
VERTEX
8
0
10
0.940237
20
-0.107141
0
VERTEX
8
0
10
0.924690
20
-0.101516
0
VERTEX
8
0
10
0.908206
20
-0.092141
0
VERTEX
8
0
10
0.890315
20
-0.079016
0
SEQEND
8
0
0
POLYLINE
8
0
66
1
40
0.008000
41
0.008000
0
VERTEX
8
0
10
0.955315
20
-0.109016
0
VERTEX
8
0
10
0.980873
20
-0.107980
0
VERTEX
8
0
10
1.004509
20
-0.101491
0
VERTEX
8
0
10
1.025765
20
-0.090103
0
VERTEX
8
0
10
1.044182
20
-0.074367
0
VERTEX
8
0
10
1.059304
20
-0.054838
0
VERTEX
8
0
10
1.070671
20
-0.032067
0
VERTEX
8
0
10
1.077828
20
-0.006609
0
VERTEX
8
0
10
1.080315
20
0.020984
0
SEQEND
8
0
0
TEXT
8
0
10
1.244740
20
-0.041142
40
0.064000
41
1.093750
50
90.000000
1
Q2
0
POLYLINE
8
0
66
1
40
0.008000
41
0.008000
0
VERTEX
8
0
10
0.902126
20
-0.818701
0
VERTEX
8
0
10
0.902126
20
-1.018701
0
SEQEND
8
0
0
POLYLINE
8
0
66
1
40
0.008000
41
0.008000
0
VERTEX
8
0
10
0.967126
20
-0.788701
0
VERTEX
8
0
10
0.952048
20
-0.790576
0
VERTEX
8
0
10
0.936501
20
-0.796201
0
VERTEX
8
0
10
0.920017
20
-0.805576
0
VERTEX
8
0
10
0.902126
20
-0.818701
0
SEQEND
8
0
0
POLYLINE
8
0
66
1
40
0.008000
41
0.008000
0
VERTEX
8
0
10
0.967126
20
-0.788701
0
VERTEX
8
0
10
0.992684
20
-0.789737
0
VERTEX
8
0
10
1.016320
20
-0.796225
0
VERTEX
8
0
10
1.037576
20
-0.807614
0
VERTEX
8
0
10
1.055993
20
-0.823349
0
VERTEX
8
0
10
1.071115
20
-0.842879
0
VERTEX
8
0
10
1.082482
20
-0.865649
0
VERTEX
8
0
10
1.089639
20
-0.891107
0
VERTEX
8
0
10
1.092126
20
-0.918701
0
SEQEND
8
0
0
POLYLINE
8
0
66
1
40
0.008000
41
0.008000
0
VERTEX
8
0
10
0.967126
20
-1.048701
0
VERTEX
8
0
10
0.952048
20
-1.046826
0
VERTEX
8
0
10
0.936501
20
-1.041201
0
VERTEX
8
0
10
0.920017
20
-1.031826
0
VERTEX
8
0
10
0.902126
20
-1.018701
0
SEQEND
8
0
0
POLYLINE
8
0
66
1
40
0.008000
41
0.008000
0
VERTEX
8
0
10
0.967126
20
-1.048701
0
VERTEX
8
0
10
0.992684
20
-1.047665
0
VERTEX
8
0
10
1.016320
20
-1.041176
0
VERTEX
8
0
10
1.037576
20
-1.029788
0
VERTEX
8
0
10
1.055993
20
-1.014052
0
VERTEX
8
0
10
1.071115
20
-0.994523
0
VERTEX
8
0
10
1.082482
20
-0.971752
0
VERTEX
8
0
10
1.089639
20
-0.946294
0
VERTEX
8
0
10
1.092126
20
-0.918701
0
SEQEND
8
0
0
TEXT
8
0
10
1.252614
20
-0.992638
40
0.064000
41
1.093750
50
90.000000
1
Q3
0
POLYLINE
8
0
66
1
40
0.008000
41
0.008000
0
VERTEX
8
0
10
0.929685
20
-1.772717
0
VERTEX
8
0
10
0.929685
20
-1.972717
0
SEQEND
8
0
0
POLYLINE
8
0
66
1
40
0.008000
41
0.008000
0
VERTEX
8
0
10
0.994685
20
-1.742717
0
VERTEX
8
0
10
0.979607
20
-1.744591
0
VERTEX
8
0
10
0.964060
20
-1.750217
0
VERTEX
8
0
10
0.947576
20
-1.759591
0
VERTEX
8
0
10
0.929685
20
-1.772717
0
SEQEND
8
0
0
POLYLINE
8
0
66
1
40
0.008000
41
0.008000
0
VERTEX
8
0
10
0.994685
20
-1.742717
0
VERTEX
8
0
10
1.020243
20
-1.743752
0
VERTEX
8
0
10
1.043879
20
-1.750241
0
VERTEX
8
0
10
1.065135
20
-1.761630
0
VERTEX
8
0
10
1.083552
20
-1.777365
0
VERTEX
8
0
10
1.098674
20
-1.796894
0
VERTEX
8
0
10
1.110041
20
-1.819665
0
VERTEX
8
0
10
1.117198
20
-1.845123
0
VERTEX
8
0
10
1.119685
20
-1.872717
0
SEQEND
8
0
0
POLYLINE
8
0
66
1
40
0.008000
41
0.008000
0
VERTEX
8
0
10
0.994685
20
-2.002717
0
VERTEX
8
0
10
0.979607
20
-2.000842
0
VERTEX
8
0
10
0.964060
20
-1.995217
0
VERTEX
8
0
10
0.947576
20
-1.985842
0
VERTEX
8
0
10
0.929685
20
-1.972717
0
SEQEND
8
0
0
POLYLINE
8
0
66
1
40
0.008000
41
0.008000
0
VERTEX
8
0
10
0.994685
20
-2.002717
0
VERTEX
8
0
10
1.020243
20
-2.001681
0
VERTEX
8
0
10
1.043879
20
-1.995192
0
VERTEX
8
0
10
1.065135
20
-1.983804
0
VERTEX
8
0
10
1.083552
20
-1.968068
0
VERTEX
8
0
10
1.098674
20
-1.948539
0
VERTEX
8
0
10
1.110041
20
-1.925768
0
VERTEX
8
0
10
1.117198
20
-1.900310
0
VERTEX
8
0
10
1.119685
20
-1.872717
0
SEQEND
8
0
0
TEXT
8
0
10
1.280173
20
-1.950591
40
0.064000
41
1.093750
50
90.000000
1
Q4
0
POLYLINE
8
0
66
1
40
0.008000
41
0.008000
0
VERTEX
8
0
10
0.469882
20
0.986811
0
VERTEX
8
0
10
0.519882
20
0.986811
0
SEQEND
8
0
0
POLYLINE
8
0
66
1
40
0.008000
41
0.008000
0
VERTEX
8
0
10
0.519882
20
0.961811
0
VERTEX
8
0
10
0.719882
20
0.961811
0
VERTEX
8
0
10
0.719882
20
1.011811
0
VERTEX
8
0
10
0.519882
20
1.011811
0
VERTEX
8
0
10
0.519882
20
0.961811
0
SEQEND
8
0
0
POLYLINE
8
0
66
1
40
0.008000
41
0.008000
0
VERTEX
8
0
10
0.719882
20
0.986811
0
VERTEX
8
0
10
0.769882
20
0.986811
0
SEQEND
8
0
0
TEXT
8
0
10
0.559882
20
1.013811
40
0.064000
41
0.937500
1
R1
0
POLYLINE
8
0
66
1
40
0.008000
41
0.008000
0
VERTEX
8
0
10
0.473819
20
0.022244
0
VERTEX
8
0
10
0.523819
20
0.022244
0
SEQEND
8
0
0
POLYLINE
8
0
66
1
40
0.008000
41
0.008000
0
VERTEX
8
0
10
0.523819
20
-0.002756
0
VERTEX
8
0
10
0.723819
20
-0.002756
0
VERTEX
8
0
10
0.723819
20
0.047244
0
VERTEX
8
0
10
0.523819
20
0.047244
0
VERTEX
8
0
10
0.523819
20
-0.002756
0
SEQEND
8
0
0
POLYLINE
8
0
66
1
40
0.008000
41
0.008000
0
VERTEX
8
0
10
0.723819
20
0.022244
0
VERTEX
8
0
10
0.773819
20
0.022244
0
SEQEND
8
0
0
TEXT
8
0
10
0.563819
20
0.057118
40
0.064000
41
0.937500
1
R2
0
POLYLINE
8
0
66
1
40
0.008000
41
0.008000
0
VERTEX
8
0
10
0.481693
20
-0.930512
0
VERTEX
8
0
10
0.531693
20
-0.930512
0
SEQEND
8
0
0
POLYLINE
8
0
66
1
40
0.008000
41
0.008000
0
VERTEX
8
0
10
0.531693
20
-0.955512
0
VERTEX
8
0
10
0.731693
20
-0.955512
0
VERTEX
8
0
10
0.731693
20
-0.905512
0
VERTEX
8
0
10
0.531693
20
-0.905512
0
VERTEX
8
0
10
0.531693
20
-0.955512
0
SEQEND
8
0
0
POLYLINE
8
0
66
1
40
0.008000
41
0.008000
0
VERTEX
8
0
10
0.731693
20
-0.930512
0
VERTEX
8
0
10
0.781693
20
-0.930512
0
SEQEND
8
0
0
TEXT
8
0
10
0.571693
20
-0.903512
40
0.064000
41
0.937500
1
R3
0
POLYLINE
8
0
66
1
40
0.008000
41
0.008000
0
VERTEX
8
0
10
0.481693
20
-1.871457
0
VERTEX
8
0
10
0.531693
20
-1.871457
0
SEQEND
8
0
0
POLYLINE
8
0
66
1
40
0.008000
41
0.008000
0
VERTEX
8
0
10
0.531693
20
-1.896457
0
VERTEX
8
0
10
0.731693
20
-1.896457
0
VERTEX
8
0
10
0.731693
20
-1.846457
0
VERTEX
8
0
10
0.531693
20
-1.846457
0
VERTEX
8
0
10
0.531693
20
-1.896457
0
SEQEND
8
0
0
POLYLINE
8
0
66
1
40
0.008000
41
0.008000
0
VERTEX
8
0
10
0.731693
20
-1.871457
0
VERTEX
8
0
10
0.781693
20
-1.871457
0
SEQEND
8
0
0
TEXT
8
0
10
0.571693
20
-1.844457
40
0.064000
41
0.937500
1
R4
0
CIRCLE
8
0
10
-0.577756
20
-0.859646
40
0.200000
0
POLYLINE
8
0
66
1
40
0.008000
41
0.008000
0
VERTEX
8
0
10
-0.702756
20
-0.759646
0
VERTEX
8
0
10
-0.652756
20
-0.759646
0
SEQEND
8
0
0
POLYLINE
8
0
66
1
40
0.008000
41
0.008000
0
VERTEX
8
0
10
-0.677756
20
-0.734646
0
VERTEX
8
0
10
-0.677756
20
-0.784646
0
SEQEND
8
0
0
TEXT
8
0
10
-0.966756
20
-0.921425
40
0.064000
41
1.093750
1
C1
0
POLYLINE
8
0
66
1
40
0.008000
41
0.008000
0
VERTEX
8
0
10
0.053740
20
-1.135236
0
VERTEX
8
0
10
0.053740
20
-1.922638
0
VERTEX
8
0
10
-0.733661
20
-1.922638
0
VERTEX
8
0
10
-0.733661
20
-1.253346
0
SEQEND
8
0
0
POLYLINE
8
0
66
1
40
0.008000
41
0.008000
0
VERTEX
8
0
10
0.053740
20
-1.135236
0
VERTEX
8
0
10
-0.615551
20
-1.135236
0
VERTEX
8
0
10
-0.733661
20
-1.253346
0
SEQEND
8
0
0
TEXT
8
0
10
-0.422244
20
-1.089929
40
0.064000
41
1.093750
1
BRIDGE REC
0
POLYLINE
8
0
66
1
40
0.008000
41
0.008000
0
VERTEX
8
0
10
-0.642007
20
0.269324
0
VERTEX
8
0
10
-0.342007
20
0.269324
0
VERTEX
8
0
10
-0.342007
20
0.369324
0
VERTEX
8
0
10
-0.642007
20
0.369324
0
VERTEX
8
0
10
-0.642007
20
0.269324
0
SEQEND
8
0
0
POLYLINE
8
0
66
1
40
0.008000
41
0.008000
0
VERTEX
8
0
10
-0.642007
20
0.369324
0
VERTEX
8
0
10
-0.642007
20
0.419324
0
VERTEX
8
0
10
-0.342007
20
0.419324
0
VERTEX
8
0
10
-0.342007
20
0.369324
0
SEQEND
8
0
0
POLYLINE
8
0
66
1
40
0.008000
41
0.008000
0
VERTEX
8
0
10
-0.642007
20
0.369324
0
VERTEX
8
0
10
-0.592007
20
0.419324
0
SEQEND
8
0
0
POLYLINE
8
0
66
1
40
0.008000
41
0.008000
0
VERTEX
8
0
10
-0.592007
20
0.369324
0
VERTEX
8
0
10
-0.542007
20
0.419324
0
SEQEND
8
0
0
POLYLINE
8
0
66
1
40
0.008000
41
0.008000
0
VERTEX
8
0
10
-0.542007
20
0.369324
0
VERTEX
8
0
10
-0.492007
20
0.419324
0
SEQEND
8
0
0
POLYLINE
8
0
66
1
40
0.008000
41
0.008000
0
VERTEX
8
0
10
-0.492007
20
0.369324
0
VERTEX
8
0
10
-0.442007
20
0.419324
0
SEQEND
8
0
0
POLYLINE
8
0
66
1
40
0.008000
41
0.008000
0
VERTEX
8
0
10
-0.442007
20
0.369324
0
VERTEX
8
0
10
-0.392007
20
0.419324
0
SEQEND
8
0
0
POLYLINE
8
0
66
1
40
0.008000
41
0.008000
0
VERTEX
8
0
10
-0.392007
20
0.369324
0
VERTEX
8
0
10
-0.342007
20
0.419324
0
SEQEND
8
0
0
TEXT
8
0
10
-0.754054
20
0.480380
40
0.064000
41
1.093750
1
7805
0
CIRCLE
8
0
10
-0.738780
20
-0.477756
40
0.100000
0
POLYLINE
8
0
66
1
40
0.008000
41
0.008000
0
VERTEX
8
0
10
-0.813780
20
-0.427756
0
VERTEX
8
0
10
-0.763780
20
-0.427756
0
SEQEND
8
0
0
POLYLINE
8
0
66
1
40
0.008000
41
0.008000
0
VERTEX
8
0
10
-0.788780
20
-0.402756
0
VERTEX
8
0
10
-0.788780
20
-0.452756
0
SEQEND
8
0
0
TEXT
8
0
10
-0.994181
20
-0.493866
40
0.064000
41
1.093750
1
C4
0
CIRCLE
8
0
10
-0.767913
20
-0.186417
40
0.100000
0
POLYLINE
8
0
66
1
40
0.008000
41
0.008000
0
VERTEX
8
0
10
-0.842913
20
-0.136417
0
VERTEX
8
0
10
-0.792913
20
-0.136417
0
SEQEND
8
0
0
POLYLINE
8
0
66
1
40
0.008000
41
0.008000
0
VERTEX
8
0
10
-0.817913
20
-0.111417
0
VERTEX
8
0
10
-0.817913
20
-0.161417
0
SEQEND
8
0
0
TEXT
8
0
10
-0.850087
20
-0.025362
40
0.064000
41
1.093750
1
C2
0
CIRCLE
8
0
10
-0.505315
20
-0.082874
40
0.100000
0
POLYLINE
8
0
66
1
40
0.008000
41
0.008000
0
VERTEX
8
0
10
-0.455315
20
-0.007874
0
VERTEX
8
0
10
-0.455315
20
-0.057874
0
SEQEND
8
0
0
POLYLINE
8
0
66
1
40
0.008000
41
0.008000
0
VERTEX
8
0
10
-0.430315
20
-0.032874
0
VERTEX
8
0
10
-0.480315
20
-0.032874
0
SEQEND
8
0
0
TEXT
8
0
10
-0.561236
20
0.054717
40
0.072000
41
0.833333
1
C3
0
POLYLINE
8
0
66
1
40
0.008000
41
0.008000
0
VERTEX
8
0
10
-0.475394
20
-0.586024
0
VERTEX
8
0
10
-0.475394
20
-0.286024
0
VERTEX
8
0
10
-0.425394
20
-0.236024
0
VERTEX
8
0
10
-0.325394
20
-0.236024
0
VERTEX
8
0
10
-0.275394
20
-0.286024
0
VERTEX
8
0
10
-0.275394
20
-0.586024
0
VERTEX
8
0
10
-0.325394
20
-0.636024
0
VERTEX
8
0
10
-0.425394
20
-0.636024
0
VERTEX
8
0
10
-0.475394
20
-0.586024
0
SEQEND
8
0
0
TEXT
8
0
10
-0.477394
20
-0.506024
40
0.064000
41
1.093750
50
90.000000
1
X1
0
POLYLINE
8
0
66
1
40
0.008000
41
0.008000
0
VERTEX
8
0
10
-0.140354
20
0.444882
0
VERTEX
8
0
10
-0.140354
20
-0.905118
0
VERTEX
8
0
10
0.059646
20
-0.905118
0
VERTEX
8
0
10
0.059646
20
0.444882
0
SEQEND
8
0
0
POLYLINE
8
0
66
1
40
0.008000
41
0.008000
0
VERTEX
8
0
10
-0.140354
20
0.444882
0
VERTEX
8
0
10
-0.090354
20
0.444882
0
SEQEND
8
0
0
POLYLINE
8
0
66
1
40
0.008000
41
0.008000
0
VERTEX
8
0
10
0.059646
20
0.444882
0
VERTEX
8
0
10
0.009646
20
0.444882
0
SEQEND
8
0
0
POLYLINE
8
0
66
1
40
0.008000
41
0.008000
0
VERTEX
8
0
10
-0.090354
20
0.444882
0
VERTEX
8
0
10
-0.089359
20
0.434658
0
VERTEX
8
0
10
-0.086497
20
0.425204
0
VERTEX
8
0
10
-0.081950
20
0.416702
0
VERTEX
8
0
10
-0.075901
20
0.409335
0
VERTEX
8
0
10
-0.068534
20
0.403286
0
VERTEX
8
0
10
-0.060032
20
0.398739
0
VERTEX
8
0
10
-0.050578
20
0.395877
0
VERTEX
8
0
10
-0.040354
20
0.394882
0
SEQEND
8
0
0
POLYLINE
8
0
66
1
40
0.008000
41
0.008000
0
VERTEX
8
0
10
0.009646
20
0.444882
0
VERTEX
8
0
10
0.008651
20
0.434658
0
VERTEX
8
0
10
0.005788
20
0.425204
0
VERTEX
8
0
10
0.001241
20
0.416702
0
VERTEX
8
0
10
-0.004807
20
0.409335
0
VERTEX
8
0
10
-0.012174
20
0.403286
0
VERTEX
8
0
10
-0.020676
20
0.398739
0
VERTEX
8
0
10
-0.030131
20
0.395877
0
VERTEX
8
0
10
-0.040354
20
0.394882
0
SEQEND
8
0
0
CIRCLE
8
0
10
-0.124354
20
0.424882
40
0.002828
0
TEXT
8
0
10
0.242543
20
0.001677
40
0.072000
41
0.972222
50
-90.000000
1
ATMEGA 328P
0
POLYLINE
8
0
66
1
40
0.009843
41
0.009843
0
VERTEX
8
0
10
0.077362
20
1.016339
0
VERTEX
8
0
10
-0.119488
20
1.016339
0
SEQEND
8
0
0
POLYLINE
8
0
66
1
40
0.009843
41
0.009843
0
VERTEX
8
0
10
-0.119488
20
1.126575
0
VERTEX
8
0
10
0.077362
20
1.126575
0
SEQEND
8
0
0
POLYLINE
8
0
66
1
40
0.009843
41
0.009843
0
VERTEX
8
0
10
0.052754
20
1.126411
0
VERTEX
8
0
10
0.052953
20
1.131831
0
VERTEX
8
0
10
0.051480
20
1.146965
0
VERTEX
8
0
10
0.047243
20
1.160960
0
VERTEX
8
0
10
0.040511
20
1.173546
0
VERTEX
8
0
10
0.031557
20
1.184452
0
VERTEX
8
0
10
0.020652
20
1.193406
0
VERTEX
8
0
10
0.008066
20
1.200137
0
VERTEX
8
0
10
-0.005929
20
1.204374
0
VERTEX
8
0
10
-0.021063
20
1.205847
0
VERTEX
8
0
10
-0.036197
20
1.204374
0
VERTEX
8
0
10
-0.050192
20
1.200137
0
VERTEX
8
0
10
-0.062778
20
1.193406
0
VERTEX
8
0
10
-0.073683
20
1.184452
0
VERTEX
8
0
10
-0.082637
20
1.173546
0
VERTEX
8
0
10
-0.089369
20
1.160960
0
VERTEX
8
0
10
-0.093606
20
1.146965
0
VERTEX
8
0
10
-0.095079
20
1.131831
0
VERTEX
8
0
10
-0.094880
20
1.126411
0
VERTEX
8
0
10
-0.094882
20
1.126575
0
SEQEND
8
0
0
TEXT
8
0
10
-0.332126
20
1.248567
40
0.072000
41
0.972222
1
TSOP 1838
0
POLYLINE
8
0
66
1
40
0.008000
41
0.008000
0
VERTEX
8
0
10
-0.368504
20
0.585254
0
VERTEX
8
0
10
-0.343504
20
0.628555
0
SEQEND
8
0
0
POLYLINE
8
0
66
1
40
0.008000
41
0.008000
0
VERTEX
8
0
10
-0.321854
20
0.616055
0
VERTEX
8
0
10
-0.221854
20
0.789260
0
VERTEX
8
0
10
-0.265155
20
0.814260
0
VERTEX
8
0
10
-0.365155
20
0.641055
0
VERTEX
8
0
10
-0.321854
20
0.616055
0
SEQEND
8
0
0
POLYLINE
8
0
66
1
40
0.008000
41
0.008000
0
VERTEX
8
0
10
-0.243504
20
0.801760
0
VERTEX
8
0
10
-0.218504
20
0.845061
0
SEQEND
8
0
0
TEXT
8
0
10
-0.375509
20
0.782209
40
0.064000
41
1.093750
50
60.000000
1
R5
0
POLYLINE
8
0
66
1
40
0.008000
41
0.008000
0
VERTEX
8
0
10
-0.834722
20
1.833785
0
VERTEX
8
0
10
-0.834722
20
1.533785
0
SEQEND
8
0
0
POLYLINE
8
0
66
1
40
0.008000
41
0.008000
0
VERTEX
8
0
10
-1.234722
20
1.533785
0
VERTEX
8
0
10
-1.234722
20
1.833785
0
SEQEND
8
0
0
POLYLINE
8
0
66
1
40
0.008000
41
0.008000
0
VERTEX
8
0
10
-0.834722
20
1.833785
0
VERTEX
8
0
10
-1.234722
20
1.833785
0
SEQEND
8
0
0
POLYLINE
8
0
66
1
40
0.008000
41
0.008000
0
VERTEX
8
0
10
-0.834722
20
1.533785
0
VERTEX
8
0
10
-1.234722
20
1.533785
0
SEQEND
8
0
0
TEXT
8
0
10
-1.330037
20
1.861423
40
0.072000
41
0.972222
1
220VAC IN
0
POLYLINE
8
0
66
1
40
0.008000
41
0.008000
0
VERTEX
8
0
10
-1.735659
20
1.521974
0
VERTEX
8
0
10
-1.735659
20
1.821974
0
SEQEND
8
0
0
POLYLINE
8
0
66
1
40
0.008000
41
0.008000
0
VERTEX
8
0
10
-1.335659
20
1.821974
0
VERTEX
8
0
10
-1.335659
20
1.521974
0
SEQEND
8
0
0
POLYLINE
8
0
66
1
40
0.008000
41
0.008000
0
VERTEX
8
0
10
-1.735659
20
1.521974
0
VERTEX
8
0
10
-1.335659
20
1.521974
0
SEQEND
8
0
0
POLYLINE
8
0
66
1
40
0.008000
41
0.008000
0
VERTEX
8
0
10
-1.735659
20
1.821974
0
VERTEX
8
0
10
-1.335659
20
1.821974
0
SEQEND
8
0
0
TEXT
8
0
10
-1.925896
20
1.379030
40
0.072000
41
0.972222
1
TRANS IN
0
POLYLINE
8
0
66
1
40
0.008000
41
0.008000
0
VERTEX
8
0
10
-0.796260
20
-1.944047
0
VERTEX
8
0
10
-1.096260
20
-1.944047
0
SEQEND
8
0
0
POLYLINE
8
0
66
1
40
0.008000
41
0.008000
0
VERTEX
8
0
10
-1.096260
20
-1.544047
0
VERTEX
8
0
10
-0.796260
20
-1.544047
0
SEQEND
8
0
0
POLYLINE
8
0
66
1
40
0.008000
41
0.008000
0
VERTEX
8
0
10
-0.796260
20
-1.944047
0
VERTEX
8
0
10
-0.796260
20
-1.544047
0
SEQEND
8
0
0
POLYLINE
8
0
66
1
40
0.008000
41
0.008000
0
VERTEX
8
0
10
-1.096260
20
-1.944047
0
VERTEX
8
0
10
-1.096260
20
-1.544047
0
SEQEND
8
0
0
TEXT
8
0
10
-1.133693
20
-1.952748
40
0.064000
41
1.093750
50
90.000000
1
TRANS OUT
0
TEXT
8
0
10
-0.710039
20
1.631339
40
0.120000
41
0.750000
1
Designed by
0
TEXT
8
0
10
-0.710039
20
1.458110
40
0.120000
41
0.666667
1
Shourav Sarkar
0
TEXT
8
0
10
-1.348937
20
0.412008
40
0.160000
41
0.500000
50
90.000000
71
2
1
Shourav Sarkar
0
TEXT
8
0
10
-1.560976
20
0.199409
40
0.136000
41
0.588235
50
90.000000
71
2
1
Designed by
0
ENDSEC
0
EOF

